<?xml version="1.0" encoding="utf-8"?>
<!-- Generator: Adobe Illustrator 22.1.0, SVG Export Plug-In . SVG Version: 6.00 Build 0)  -->
<svg version="1.1" id="Layer_1" xmlns="http://www.w3.org/2000/svg" xmlns:xlink="http://www.w3.org/1999/xlink" x="0px" y="0px" viewBox="0 0 28.8 42.1" style="enable-background:new 0 0 28.8 42.1;" xml:space="preserve" aria-labelledby="logo-small">
  <style type="text/css">
    .st0{ fill:url(#Fill-1_1_); }
    .st1{ fill:#FFFFFF; }
  </style>
  <g id="Group-3">
    <linearGradient id="Fill-1_1_" gradientUnits="userSpaceOnUse" x1="-536.7165" y1="106.2919" x2="-535.7165" y2="106.2919" gradientTransform="matrix(28.8323 0 0 41.5823 15474.7715 -4398.7603)">
      <stop  offset="0" style="stop-color:#7C59A4"/>
      <stop  offset="0.5244" style="stop-color:#647ABA"/>
      <stop  offset="1" style="stop-color:#3BC5F3"/>
    </linearGradient>
    <path id="Fill-1" class="st0" d="M24.6,4.5h4.2V0.3h-4.2C24.6,0.3,24.6,4.5,24.6,4.5z M12.3,4.5h4.2V0.3h-4.2V4.5z M0,4.5h4.2V0.3
      H0V4.5z M24.6,10.8h4.2V6.6h-4.2C24.6,6.6,24.6,10.8,24.6,10.8z M18.8,10.8H23V6.6h-4.2V10.8z M12.3,17.1h4.2V6.6h-4.2V17.1z
      M5.9,36.4h4.2V6.6H5.9V36.4z M0,10.8h4.2V6.6H0V10.8z M24.6,17.1h4.2v-4.2h-4.2C24.6,12.9,24.6,17.1,24.6,17.1z M18.8,36.4H23
      V12.9h-4.2V36.4z M0,29.4h4.2V12.9H0V29.4z M24.6,29.4h4.2V19.2h-4.2C24.6,19.2,24.6,29.4,24.6,29.4z M12.3,23.5h4.2v-4.2h-4.2
      V23.5z M12.3,41.9h4.2V25.2h-4.2V41.9z"/>
  </g>
</svg>
