<svg xmlns="http://www.w3.org/2000/svg" width="26" height="26" fill="currentColor" viewBox="0 0 26 26">
  <path fill-rule="evenodd" d="M8.597 5.695a.283.283 0 0 1 .125.02c.04.015.077.04.108.073a.35.35 0 0 1 .073.115.38.38 0 0 1-.073.39.308.308 0 0 1-.108.074.283.283 0 0 1-.125.02H3.632a.283.283 0 0 1-.125-.02.308.308 0 0 1-.108-.073.35.35 0 0 1-.073-.115.38.38 0 0 1 .073-.391.308.308 0 0 1 .108-.074.283.283 0 0 1 .125-.02h4.965Zm2.932 0a.283.283 0 0 1 .126.02c.04.015.077.04.108.073a.35.35 0 0 1 .073.115.381.381 0 0 1-.073.39.308.308 0 0 1-.108.074.283.283 0 0 1-.126.02H9.931a.283.283 0 0 1-.125-.02.308.308 0 0 1-.108-.073.35.35 0 0 1-.073-.115.38.38 0 0 1 .073-.391.308.308 0 0 1 .108-.074.283.283 0 0 1 .125-.02h1.598ZM9.992 7.88c.083 0 .162.036.22.101a.367.367 0 0 1 .092.245c0 .092-.033.18-.091.246a.297.297 0 0 1-.22.101h-6.36a.285.285 0 0 1-.12-.026.312.312 0 0 1-.101-.075.38.38 0 0 1 0-.49.312.312 0 0 1 .101-.076.285.285 0 0 1 .12-.026h6.36Zm-4.52 2.185a.282.282 0 0 1 .126.02c.04.015.077.04.108.073a.349.349 0 0 1 .073.115.38.38 0 0 1-.073.39.307.307 0 0 1-.108.074.284.284 0 0 1-.125.02h-1.84a.284.284 0 0 1-.126-.02.307.307 0 0 1-.108-.073.348.348 0 0 1-.073-.115.38.38 0 0 1 .073-.391.308.308 0 0 1 .108-.073.282.282 0 0 1 .125-.02h1.84Zm4.521 0a.3.3 0 0 1 .208.109.37.37 0 0 1 .084.237c0 .088-.03.173-.084.237a.3.3 0 0 1-.208.109H6.807a.284.284 0 0 1-.126-.02.307.307 0 0 1-.108-.073.348.348 0 0 1-.073-.115.38.38 0 0 1 .073-.391.308.308 0 0 1 .108-.073.282.282 0 0 1 .126-.02h3.186Zm0 2.185a.3.3 0 0 1 .208.109.37.37 0 0 1 .084.237.37.37 0 0 1-.084.237.3.3 0 0 1-.208.109h-6.36a.282.282 0 0 1-.126-.02.308.308 0 0 1-.108-.073.349.349 0 0 1-.073-.115.38.38 0 0 1 .073-.39.308.308 0 0 1 .108-.074.284.284 0 0 1 .125-.02h6.361Zm0 2.185c.083 0 .162.036.22.101a.367.367 0 0 1 .092.246.37.37 0 0 1-.091.245.297.297 0 0 1-.22.101H3.631a.297.297 0 0 1-.22-.101.367.367 0 0 1-.091-.245c0-.092.032-.18.09-.246a.297.297 0 0 1 .221-.101h6.361ZM11.634 1.18v1.117a.23.23 0 0 0 .057.151c.036.04.085.063.136.064h1.005L11.634 1.18Zm8.1 21.063h.7V17.25h-.7v4.993Zm-2.52 0h.7v-3.572h-.7v3.572Zm-2.52 0h.7v-2.469h-.702v2.47h.002Zm6.82 0a.284.284 0 0 1 .125.02c.04.016.077.041.108.073a.38.38 0 0 1 0 .506.309.309 0 0 1-.108.074.282.282 0 0 1-.125.02h-7.898a.282.282 0 0 1-.125-.02.308.308 0 0 1-.108-.074.35.35 0 0 1-.073-.115.381.381 0 0 1 .073-.39.308.308 0 0 1 .108-.074.284.284 0 0 1 .125-.02h.455V19.43a.38.38 0 0 1 .092-.245.314.314 0 0 1 .1-.075.285.285 0 0 1 .12-.026h1.322c.082 0 .161.036.22.101a.367.367 0 0 1 .091.245v2.815h.578v-3.918c0-.092.033-.18.091-.245a.297.297 0 0 1 .22-.102h1.322c.083 0 .162.037.22.102a.368.368 0 0 1 .092.245v3.918h.577v-5.34c0-.091.033-.18.091-.244a.297.297 0 0 1 .221-.102h1.322c.082 0 .162.037.22.102a.368.368 0 0 1 .091.245v5.34h.453ZM13.894 7.81V2.858a.368.368 0 0 0-.092-.245L11.545.103a.31.31 0 0 0-.102-.076.283.283 0 0 0-.12-.027H2.084a.778.778 0 0 0-.575.266.962.962 0 0 0-.238.64v16.378c0 .24.086.47.239.64.152.17.36.266.576.267h9.165v6.904c0 .24.087.47.24.64.152.17.36.265.575.265H23.06a.778.778 0 0 0 .576-.266c.152-.17.238-.4.239-.64V10.667a.367.367 0 0 0-.091-.244l-2.258-2.51a.312.312 0 0 0-.101-.077.285.285 0 0 0-.12-.026h-7.412Zm-2.643.906c0-.24.086-.47.24-.64a.777.777 0 0 1 .575-.266h1.205V3.203h-1.444a.775.775 0 0 1-.576-.264.96.96 0 0 1-.24-.64V.693H2.085c-.05 0-.1.024-.136.064a.229.229 0 0 0-.056.15v16.377c0 .057.02.111.056.151.036.04.085.063.136.064h9.167V8.716Zm10.365.275 1.198 1.332h-1.006a.187.187 0 0 1-.135-.064.231.231 0 0 1-.057-.151V8.99Zm1.636 2.022v14.08c0 .057-.02.112-.056.152a.185.185 0 0 1-.136.063H12.066a.184.184 0 0 1-.136-.063.228.228 0 0 1-.057-.151V8.716c0-.057.02-.111.057-.151a.185.185 0 0 1 .136-.064h8.927v1.606c0 .24.087.47.24.64.152.17.36.265.575.265h1.444v.001Zm-7.072.44c-.46 0-.91.151-1.293.435-.383.285-.68.689-.857 1.162a2.858 2.858 0 0 0-.132 1.494c.09.502.31.963.636 1.325s.74.608 1.191.708c.452.1.92.049 1.345-.147a2.398 2.398 0 0 0 1.044-.953 2.79 2.79 0 0 0 .392-1.437c0-.686-.245-1.344-.681-1.83a2.215 2.215 0 0 0-1.645-.758Zm1.676 2.934a1.99 1.99 0 0 1-.402.913 1.697 1.697 0 0 1-.769.551 1.54 1.54 0 0 1-.914.03 1.669 1.669 0 0 1-.797-.5 1.958 1.958 0 0 1-.45-.885 2.1 2.1 0 0 1 .027-1.017 1.93 1.93 0 0 1 .496-.855c.232-.23.516-.384.821-.447v1.863a.377.377 0 0 0 .092.245.311.311 0 0 0 .1.075.285.285 0 0 0 .12.027h1.676Zm-1.365-2.21c.338.07.65.252.894.523.243.27.408.617.47.993h-1.364v-1.517.001Zm3.84-7.805c0-.092.033-.18.091-.245a.296.296 0 0 1 .22-.102c.084 0 .163.037.221.102a.368.368 0 0 1 .092.245v2.144c0 .092-.033.18-.092.245a.297.297 0 0 1-.22.102h-1.93a.283.283 0 0 1-.125-.02.309.309 0 0 1-.108-.073.38.38 0 0 1 0-.506.308.308 0 0 1 .108-.074.283.283 0 0 1 .126-.02h1.295c-1.24-1.67-2.907-2.885-4.78-3.483a.326.326 0 0 1-.169-.169.382.382 0 0 1-.021-.25.345.345 0 0 1 .137-.201.286.286 0 0 1 .223-.045c1.914.611 3.628 1.828 4.932 3.502V4.372ZM5.005 21.914a.382.382 0 0 1-.083.26.313.313 0 0 1-.104.08.284.284 0 0 1-.248 0 .313.313 0 0 1-.103-.08.382.382 0 0 1-.084-.26V19.77c0-.092.033-.18.092-.245a.297.297 0 0 1 .22-.102h1.927c.083 0 .162.037.22.102a.367.367 0 0 1 .092.245c0 .092-.033.18-.091.245a.297.297 0 0 1-.22.101H5.354c1.216 1.527 2.798 2.636 4.56 3.197a.324.324 0 0 1 .169.169.382.382 0 0 1 .021.25.345.345 0 0 1-.137.201.286.286 0 0 1-.223.045c-1.82-.582-3.46-1.712-4.74-3.265v1.201Z" clip-rule="evenodd"/>
</svg>
