<svg width="344" height="67" viewBox="0 0 344 67" fill="none" xmlns="http://www.w3.org/2000/svg">
<path d="M95.1941 10.0776V18.719H71.8069V30.035H88.1778V38.882H71.8069V56.3703H60.9634V10.0776H95.1941Z" fill="#FBFBFB"/>
<path d="M132.829 38.4713C132.829 49.3758 124.963 56.5769 113.269 56.5769C101.363 56.5769 93.4961 49.1701 93.4961 38.4713C93.4961 27.5668 101.363 20.3657 113.269 20.3657C124.963 20.3657 132.829 27.5668 132.829 38.4713ZM103.914 38.6771C103.914 44.4379 107.741 48.5528 113.056 48.5528C118.372 48.5528 122.199 44.6437 122.199 38.6771C122.199 32.7104 118.372 28.8013 113.056 28.8013C107.741 28.8013 103.914 32.9162 103.914 38.6771Z" fill="#FBFBFB"/>
<path d="M160.897 20.3657V29.4185C153.455 28.8013 148.778 33.3277 148.778 39.2943V56.3711H138.359V20.7772H148.778V27.1553C151.329 22.8347 155.369 20.3657 160.897 20.3657Z" fill="#FBFBFB"/>
<path d="M191.087 54.3131C188.323 55.7534 184.921 56.7821 181.519 56.7821C174.928 56.7821 170.038 53.0787 170.038 45.8776V29.418H164.935V20.3652H170.038V12.5469H180.456V20.3652H190.449V29.418H180.456V44.0259C180.456 46.9063 181.731 48.1408 184.07 48.1408C185.346 48.1408 187.047 47.7293 188.961 46.9063L191.087 54.3131Z" fill="#FBFBFB"/>
<path d="M217.449 56.3712V52.2563C214.898 55.1367 211.071 56.7826 205.968 56.7826C198.102 56.7826 193.424 52.2563 193.424 45.6724C193.424 39.0886 198.314 34.9737 207.457 34.9737H217.662V34.3564C217.662 30.653 215.111 28.3898 210.008 28.3898C206.819 28.3898 202.992 29.4185 199.165 31.4759L195.55 24.4806C201.078 21.8059 205.756 20.3657 212.134 20.3657C221.914 20.3657 227.655 25.0979 227.655 33.122V56.3712H217.449ZM217.237 44.2322V40.9403H208.945C204.906 40.9403 202.992 42.1747 202.992 45.0552C202.992 47.7299 205.118 49.5816 208.733 49.5816C213.197 49.5816 216.811 47.1126 217.237 44.2322Z" fill="#FBFBFB"/>
<path d="M270.817 33.945V56.1654H260.398V36.8254C260.398 32.2989 257.634 29.6242 253.169 29.6242C247.854 29.6242 244.877 33.5335 244.877 38.6771V56.1654H234.459V20.7772H244.877V26.9496C247.429 22.4232 251.894 20.3657 257.634 20.3657C265.501 20.3657 270.817 25.7151 270.817 33.945Z" fill="#FBFBFB"/>
<path d="M288.68 20.7784V56.3723H278.262V20.7784H288.68ZM288.68 10.6969C288.68 13.5773 286.554 15.8405 283.578 15.8405C280.601 15.8405 278.475 13.5773 278.475 10.6969C278.475 7.81639 280.601 5.55322 283.578 5.55322C286.554 5.55322 288.68 7.61065 288.68 10.6969Z" fill="#FBFBFB"/>
<path d="M305.261 20.7793L312.065 31.478L319.294 20.7793H330.775L319.081 38.0619L331.626 56.3732H319.506L312.065 44.8514L303.986 56.3732H292.292L305.048 38.2676L293.142 20.985H305.261V20.7793Z" fill="#FBFBFB"/>
<path d="M343.317 24.6869C343.317 27.3616 340.978 29.6248 338.215 29.6248C335.238 29.6248 333.112 27.3616 333.112 24.6869C333.112 22.0122 335.451 19.749 338.215 19.749C340.978 19.749 343.317 22.0122 343.317 24.6869ZM342.254 24.6869C342.254 22.4237 340.554 20.7777 338.002 20.7777C335.663 20.7777 333.75 22.6295 333.75 24.8926C333.75 27.1558 335.451 28.8018 337.789 28.8018C340.554 28.8018 342.254 26.9501 342.254 24.6869ZM339.278 25.3041L340.341 26.9501H339.278L338.427 25.5099H338.215H337.151V26.9501H336.301V22.0122H338.427C339.703 22.0122 340.554 22.6295 340.554 23.6582C340.341 24.4812 339.916 25.0984 339.278 25.3041ZM337.151 24.6869H338.215C338.852 24.6869 339.278 24.2754 339.278 23.6582C339.278 23.0409 338.852 22.8352 338.215 22.8352H337.151V24.6869Z" fill="#FBFBFB"/>
<path fill-rule="evenodd" clip-rule="evenodd" d="M28.6747 0.194824H21.937V6.73856H28.6747V0.194824ZM8.59944 0.194853H1.86182V6.73859H8.59944V0.194853ZM8.59944 9.95006H1.86182V16.4938H8.59944V9.95006ZM1.86182 19.705H8.59944V45.577H1.86182V19.705ZM21.937 9.95006H28.6747V26.0671H21.937V9.95006ZM28.6747 29.2782H21.937V35.8219H28.6747V29.2782ZM21.937 39.033H28.6747V64.9051H21.937V39.033ZM48.7505 0.194824H42.0128V6.73856H48.7505V0.194824ZM42.0128 9.95006H48.7505V16.4938H42.0128V9.95006ZM48.7505 19.705H42.0128V45.577H48.7505V19.705ZM31.9752 9.9498H38.7128V56.3619H31.9752V9.9498ZM18.6371 9.9498H11.8994V56.3619H18.6371V9.9498Z" fill="url(#paint0_linear_7789_10357)"/>
<defs>
<linearGradient id="paint0_linear_7789_10357" x1="1.86182" y1="32.5222" x2="48.6697" y2="32.5222" gradientUnits="userSpaceOnUse">
<stop stop-color="#9917FF"/>
<stop offset="1" stop-color="#00BFFF"/>
</linearGradient>
</defs>
</svg>
