<svg width="20" height="29" viewBox="0 0 20 29" fill="none" xmlns="http://www.w3.org/2000/svg">
<path fill-rule="evenodd" clip-rule="evenodd" d="M11.4368 -0.000488281H8.56292V2.9321H11.4368V-0.000488281ZM2.87388 -0.000475592H0V2.93211H2.87388V-0.000475592ZM2.87388 4.37134H0V7.30394H2.87388V4.37134ZM0 8.74301H2.87388V20.3376H0V8.74301ZM8.56292 4.37134H11.4368V11.5942H8.56292V4.37134ZM11.4368 13.0333H8.56292V15.9658H11.4368V13.0333ZM8.56292 17.4049H11.4368V28.9995H8.56292V17.4049ZM20 -0.000488281H17.1261V2.9321H20V-0.000488281ZM17.1261 4.37134H20V7.30394H17.1261V4.37134ZM20 8.74301H17.1261V20.3376H20V8.74301ZM12.8446 4.37122H15.7185V25.1708H12.8446V4.37122ZM7.15536 4.37122H4.28146V25.1708H7.15536V4.37122Z" fill="url(#paint0_linear_6350_155571)"/>
<defs>
<linearGradient id="paint0_linear_6350_155571" x1="0" y1="14.4871" x2="19.9655" y2="14.4871" gradientUnits="userSpaceOnUse">
<stop stop-color="#9917FF"/>
<stop offset="1" stop-color="#00BFFF"/>
</linearGradient>
</defs>
</svg>
