<svg xmlns="http://www.w3.org/2000/svg" width="26" height="26" fill="currentColor" viewBox="0 0 26 26">
  <g clip-path="url(#a)">
    <path d="M13.127 22.576a.479.479 0 0 1-.253 0C2.646 19.786 4.61 7.461 4.63 7.336c.034-.2.19-.356.39-.393 5.569-1.012 7.591-3.34 7.61-3.362a.482.482 0 0 1 .369-.173H13c.142 0 .277.063.368.171.02.023 2.043 2.352 7.612 3.364.2.037.355.194.389.394.02.124 1.985 12.45-8.243 15.24Zm7.34-14.75C16.045 6.961 13.816 5.311 13 4.57c-.815.741-3.044 2.39-7.467 3.256-.247 1.93-1 11.382 7.467 13.786 8.466-2.404 7.714-11.857 7.468-13.786Z"/>
    <path d="M15.244 16.31h-4.488a.481.481 0 0 1-.482-.482v-3.31c0-.266.216-.481.482-.481h.147v-.068A2.1 2.1 0 0 1 13 9.872a2.1 2.1 0 0 1 2.097 2.097v.068h.147c.266 0 .482.215.482.481v3.31a.481.481 0 0 1-.482.482Zm-4.007-.963h3.526V13h-3.526v2.347Zm2.896-3.378c0-.625-.508-1.134-1.133-1.134s-1.134.509-1.134 1.134v.068h2.268v-.068Z"/>
    <path d="M13 14.895a.481.481 0 0 1-.482-.481v-.482a.481.481 0 1 1 .963 0v.482a.481.481 0 0 1-.481.481Z"/>
    <path d="M5.34 20.66a1.674 1.674 0 0 1 .341 1.883 12.05 12.05 0 0 0 7.32 2.494c6.636 0 12.036-5.4 12.036-12.037 0-2.1-.544-4.152-1.578-5.962a.483.483 0 0 1 .83-.49A12.973 12.973 0 0 1 26 13c0 7.168-5.832 13-13 13-2.88 0-5.682-.972-7.95-2.728a1.683 1.683 0 0 1-2.093-2.612 1.687 1.687 0 0 1 2.383 0Zm-1.702 1.702a.723.723 0 1 0 1.02-1.023.723.723 0 0 0-1.02 1.023ZM13 0c2.879 0 5.682.972 7.95 2.728a1.687 1.687 0 0 1 2.093.228c.319.319.494.742.494 1.192 0 .45-.175.873-.494 1.192a1.68 1.68 0 0 1-1.191.492 1.68 1.68 0 0 1-1.533-2.375A12.048 12.048 0 0 0 13 .963C6.363.963.963 6.363.963 13c0 2.1.544 4.151 1.578 5.961a.483.483 0 0 1-.829.491A12.973 12.973 0 0 1 0 13C0 5.832 5.832 0 13 0Zm8.341 4.659a.723.723 0 1 0 1.021-1.024.723.723 0 0 0-1.02 1.024Z"/>
  </g>
  <defs>
    <clipPath id="a">
      <path d="M26 0H0v26h26z"/>
    </clipPath>
  </defs>
</svg>
