<svg xmlns="http://www.w3.org/2000/svg" width="28" height="26" fill="currentColor" viewBox="0 0 28 26">
  <path d="M27.472 12.86c-.491-.385-1.232-.383-2.202.004l-5.976 2.386a1.966 1.966 0 0 0-.086-.214 1.776 1.776 0 0 0-1.058-.944l-7.443-2.424a.914.914 0 0 0-.737.066l-4.16 2.253-.156-.28a.745.745 0 0 0-1.012-.288L.381 15.8a.745.745 0 0 0-.287 1.012l4.066 7.286a.744.744 0 0 0 1.012.287l4.261-2.378a.745.745 0 0 0 .287-1.012l-.136-.244c.358-.159.643-.295.883-.41.54-.26.767-.363.98-.347.246.02.605.206 1.258.544.237.123.505.261.826.423l.316.16c1.12.566 1.87.945 2.696.945a3.09 3.09 0 0 0 .93-.152c1.182-.37 2.713-1.466 5.763-3.645 1.05-.751 2.241-1.602 3.671-2.607l.058-.04c.364-.255.915-.638 1-1.266a1.563 1.563 0 0 0-.493-1.496ZM4.812 23.732.747 16.45l4.255-2.378.331.593.003.004.004.008 3.373 6.039v.002c.01.025.024.05.04.072l.316.564-4.257 2.38Zm22.414-9.478c-.042.303-.4.553-.688.754l-.06.042c-1.433 1.005-2.625 1.858-3.677 2.61-2.985 2.134-4.483 3.205-5.551 3.54-.98.307-1.634-.024-3.066-.748l-.318-.16c-.316-.16-.582-.298-.817-.42-1.545-.8-1.653-.807-2.905-.207-.25.12-.547.263-.925.43l-3.045-5.457 4.152-2.25a.172.172 0 0 1 .15-.012l7.443 2.424a1.033 1.033 0 0 1 .614.555 1.218 1.218 0 0 1 .007 1.027 1.182 1.182 0 0 1-1.508.597l-3.262-1.106a.377.377 0 0 0-.42.095.375.375 0 0 0 .18.613l3.263 1.106a1.925 1.925 0 0 0 2.6-1.674l6.154-2.457c.686-.274 1.206-.312 1.465-.11.272.213.233.672.214.808ZM2.132 10.339a.373.373 0 0 0 .306.159h2.354a.374.374 0 0 0 .288-.136l.495-.603.232.54a.375.375 0 0 0 .65.066l.508-.727.722.879a.373.373 0 0 0 .575 0l.776-.935.916.836a.374.374 0 0 0 .252.097h.001l4.768-.017a5.864 5.864 0 1 0 .016-6.294H2.438a.374.374 0 0 0-.306.16L.185 7.135a.374.374 0 0 0 0 .43l1.947 2.773Zm.5-5.387H15.24a.374.374 0 0 0 .37-.33 5.118 5.118 0 1 1-.098 5.324.37.37 0 0 0-.337-.192l-4.826.017L9.25 8.77a.374.374 0 0 0-.539.038l-.736.886-.748-.909a.374.374 0 0 0-.595.023l-.405.58-.21-.486a.374.374 0 0 0-.63-.09l-.771.94H2.634L.95 7.35l1.68-2.398Zm19.542 3.812a1.4 1.4 0 1 0 .001-2.8 1.4 1.4 0 0 0 0 2.8Zm0-2.052a.653.653 0 1 1 0 1.305.653.653 0 0 1 0-1.305Z"/>
</svg>
