<!-- Generated by IcoMoon.io -->
<svg version="1.1" xmlns="http://www.w3.org/2000/svg" width="32" height="32" viewBox="0 0 32 32" aria-label="app">
<path d="M27.382 4.422h-22.764c-1.766 0-3.14 1.374-3.14 3.14v16.68c0 1.766 1.374 3.14 3.14 3.14h22.666c1.766 0 3.14-1.374 3.14-3.14v-16.68c0.098-1.668-1.374-3.14-3.042-3.14zM4.618 5.992h22.666c0.883 0 1.668 0.785 1.668 1.668v2.355h-25.904v-2.453c0-0.883 0.687-1.57 1.57-1.57zM27.382 26.008h-22.764c-0.883 0-1.668-0.785-1.668-1.668v-12.952h26.002v12.854c0 0.981-0.687 1.766-1.57 1.766zM6.482 9.524c0.687 0 1.276-0.589 1.276-1.374s-0.589-1.374-1.374-1.374c-0.687 0.098-1.276 0.687-1.276 1.374 0 0.785 0.589 1.374 1.374 1.374zM6.482 8.052c0 0 0.098 0.098 0.098 0.098 0 0.098-0.098 0.098-0.098 0.098-0.098 0.098-0.196 0-0.196-0.098 0 0 0.098-0.098 0.196-0.098zM10.015 9.524c0.785 0 1.374-0.589 1.374-1.374s-0.589-1.374-1.374-1.374c-0.687 0.098-1.276 0.687-1.276 1.374 0 0.785 0.589 1.374 1.276 1.374zM10.015 8.052c0.098 0 0.196 0.098 0.196 0.098 0 0.098-0.098 0.098-0.098 0.098-0.196 0.098-0.196 0-0.196-0.098 0 0 0-0.098 0.098-0.098zM13.645 9.524c0.785 0 1.374-0.589 1.374-1.374s-0.589-1.374-1.374-1.374c-0.785 0-1.374 0.589-1.374 1.374s0.589 1.374 1.374 1.374zM13.645 8.052c0.098 0 0.098 0.098 0.098 0.098 0 0.098-0.098 0.098-0.098 0.098-0.098 0-0.098-0.098-0.098-0.098-0.098 0 0-0.098 0.098-0.098zM8.739 15.411c-0.294-0.294-0.785-0.196-1.079 0.098s-0.196 0.785 0.098 1.079l2.944 2.453-2.944 2.453c-0.294 0.294-0.392 0.687-0.098 1.079 0.294 0.294 0.687 0.392 1.079 0.098l3.63-2.944c0.392-0.294 0.392-0.883 0-1.177l-3.63-3.14zM20.219 18.159h-4.808c-0.392 0-0.785 0.294-0.785 0.785s0.294 0.785 0.785 0.785h4.808c0.392 0 0.785-0.294 0.785-0.785s-0.392-0.785-0.785-0.785z"></path>
</svg>
