<svg width="25" height="26" viewBox="0 0 25 26" fill="none" xmlns="http://www.w3.org/2000/svg">
<g clip-path="url(#clip0_1780_2366)">
<path d="M20.2776 4.45747C21.3076 3.35313 21.8605 2.02252 21.9212 0.502395C21.9212 0.496777 21.9212 0.491158 21.9212 0.485028C21.9212 0.259258 21.7414 0.0769043 21.5195 0.0769043C20.7828 0.0769043 20.0642 0.310337 19.4646 0.745533L17.9646 1.83557C17.4011 2.24267 16.6413 2.22173 16.1005 1.78449C15.1659 1.02392 13.8186 1.10002 12.9724 1.96071L12.7449 2.1921C12.5807 2.14562 12.4079 2.12008 12.2292 2.12008C11.1751 2.12008 10.3209 2.98894 10.3209 4.06109V4.1229C6.45762 5.00759 3.56055 8.51675 3.54197 12.7047L2.85398 12.8559C2.66918 12.8968 2.53711 13.0628 2.53711 13.2554V17.3417C2.53711 17.5425 2.68023 17.7131 2.87457 17.7453L3.54147 17.8551V20.9173C3.54147 21.0664 3.62232 21.2033 3.75088 21.2748L5.28905 22.1284C5.31115 22.1437 5.33425 22.1565 5.35936 22.1672L7.48608 23.3471C7.50015 23.3563 7.51471 23.364 7.53028 23.3716L12.0172 25.8607C12.065 25.8909 12.1197 25.9113 12.1779 25.919C12.1784 25.919 12.1789 25.919 12.1795 25.919C12.1955 25.921 12.2121 25.9225 12.2292 25.9225C12.2462 25.9225 12.2623 25.921 12.2789 25.919C12.2794 25.919 12.2799 25.919 12.2804 25.919C12.3386 25.9113 12.3934 25.8909 12.4411 25.8607L16.9346 23.3676C16.9346 23.3676 16.9381 23.3655 16.9396 23.365L19.1005 22.1662C19.1241 22.156 19.1467 22.1432 19.1678 22.1289L20.708 21.2743C20.8365 21.2028 20.9169 21.0659 20.9174 20.9168V17.8546L21.5843 17.7447C21.7786 17.7126 21.9217 17.542 21.9217 17.3412V13.2549C21.9217 13.0623 21.7897 12.8963 21.6048 12.8554L20.9169 12.7042C20.9053 10.0915 19.7794 7.74647 17.9972 6.13594C18.9011 5.6752 19.6679 5.1118 20.2781 4.45696L20.2776 4.45747ZM12.2292 2.93735C12.3904 2.93735 12.5435 2.97259 12.6816 3.03593C12.6877 3.03849 12.6932 3.04155 12.6992 3.0441C13.0507 3.21267 13.3008 3.56409 13.3304 3.97835C12.9699 3.93186 12.6023 3.90786 12.2292 3.90786C11.856 3.90786 11.4885 3.93186 11.1279 3.97835C11.1696 3.39604 11.6466 2.93735 12.2292 2.93735ZM11.8274 4.73534V10.8822L4.34797 12.527C4.45794 8.34103 7.73667 4.94477 11.8274 4.73483V4.73534ZM5.21222 21.1558L4.34495 20.6747V17.9879L5.69481 18.2106L5.21222 21.1558ZM7.39921 22.369L5.95996 21.5701L6.48926 18.3408L8.01839 18.5932L7.39971 22.369H7.39921ZM11.8274 24.8264L8.14595 22.7837L8.81134 18.7244L11.8279 19.222V24.8264H11.8274ZM12.6309 24.8264V19.222L15.6475 18.7244L16.3129 22.7837L12.6314 24.8264H12.6309ZM17.0581 22.37L16.4404 18.5937L17.9696 18.3414L18.5004 21.5696L17.0581 22.37ZM20.1134 20.6747L19.2451 21.1563L18.7625 18.2106L20.1134 17.9879V20.6747ZM21.1177 13.5854V16.9939L12.2292 18.4604L3.3406 16.9939V13.5854L12.2292 11.6305L21.1177 13.5854ZM20.1104 12.5275L12.6309 10.8827V4.73585C16.7282 4.94477 20.0009 8.33541 20.1104 12.528V12.5275ZM17.3012 5.56998C16.3681 4.88654 15.297 4.38698 14.1374 4.12239V4.06109C14.1374 3.47726 13.8833 2.95369 13.4821 2.59767L13.5409 2.53791C13.8301 2.24216 14.2238 2.07666 14.6341 2.07819C14.9846 2.07922 15.3246 2.20027 15.5988 2.42298C16.4209 3.08701 17.5754 3.11919 18.4316 2.50164L19.9346 1.41161C20.1646 1.24458 20.4187 1.11484 20.6879 1.02698C20.8174 0.984584 20.95 0.952404 21.0841 0.92993C20.7853 3.42618 18.9312 4.8186 17.3012 5.56998Z" fill="white"/>
<path d="M12.2288 12.4126C12.049 12.4126 11.9023 12.5617 11.9023 12.7446V17.3418C11.9023 17.5246 12.049 17.6738 12.2288 17.6738C12.4085 17.6738 12.5552 17.5246 12.5552 17.3418V12.7446C12.5552 12.5617 12.4085 12.4126 12.2288 12.4126Z" fill="white"/>
<path d="M19.26 14.4557C19.0802 14.4557 18.9336 14.6049 18.9336 14.7878V15.8094C18.9336 15.9922 19.0802 16.1414 19.26 16.1414C19.4398 16.1414 19.5864 15.9922 19.5864 15.8094V14.7878C19.5864 14.6049 19.4398 14.4557 19.26 14.4557Z" fill="white"/>
<path d="M17.5022 13.9449C17.3224 13.9449 17.1758 14.0941 17.1758 14.277V16.3201C17.1758 16.503 17.3224 16.6522 17.5022 16.6522C17.682 16.6522 17.8286 16.503 17.8286 16.3201V14.277C17.8286 14.0941 17.682 13.9449 17.5022 13.9449Z" fill="white"/>
<path d="M15.7444 13.4341C15.5646 13.4341 15.418 13.5833 15.418 13.7662V16.8309C15.418 17.0138 15.5646 17.1629 15.7444 17.1629C15.9242 17.1629 16.0708 17.0138 16.0708 16.8309V13.7662C16.0708 13.5833 15.9242 13.4341 15.7444 13.4341Z" fill="white"/>
<path d="M13.9866 12.9233C13.8068 12.9233 13.6602 13.0725 13.6602 13.2554V17.3417C13.6602 17.5246 13.8068 17.6737 13.9866 17.6737C14.1664 17.6737 14.313 17.5246 14.313 17.3417V13.2554C14.313 13.0725 14.1664 12.9233 13.9866 12.9233Z" fill="white"/>
<path d="M5.19849 14.4557C5.01871 14.4557 4.87207 14.6049 4.87207 14.7878V15.8094C4.87207 15.9922 5.01871 16.1414 5.19849 16.1414C5.37827 16.1414 5.5249 15.9922 5.5249 15.8094V14.7878C5.5249 14.6049 5.37827 14.4557 5.19849 14.4557Z" fill="white"/>
<path d="M6.9563 13.9449C6.77652 13.9449 6.62988 14.0941 6.62988 14.277V16.3201C6.62988 16.503 6.77652 16.6522 6.9563 16.6522C7.13608 16.6522 7.28272 16.503 7.28272 16.3201V14.277C7.28272 14.0941 7.13608 13.9449 6.9563 13.9449Z" fill="white"/>
<path d="M8.71411 13.4341C8.53433 13.4341 8.3877 13.5833 8.3877 13.7662V16.8309C8.3877 17.0138 8.53433 17.1629 8.71411 17.1629C8.89389 17.1629 9.04053 17.0138 9.04053 16.8309V13.7662C9.04053 13.5833 8.89389 13.4341 8.71411 13.4341Z" fill="white"/>
<path d="M10.5217 12.7191C10.3419 12.7191 10.1953 12.8682 10.1953 13.0511V17.1374C10.1953 17.3203 10.3419 17.4694 10.5217 17.4694C10.7015 17.4694 10.8481 17.3203 10.8481 17.1374V13.0511C10.8481 12.8682 10.7015 12.7191 10.5217 12.7191Z" fill="white"/>
</g>
<defs>
<clipPath id="clip0_1780_2366">
<rect width="19.3846" height="25.8462" fill="white" transform="translate(2.53711 0.0769043)"/>
</clipPath>
</defs>
</svg>
