<svg width="21" height="21" viewBox="0 0 21 21" fill="none" xmlns="http://www.w3.org/2000/svg">
<g clip-path="url(#clip0_3494_8332)">
<path fill-rule="evenodd" clip-rule="evenodd" d="M5.28265 6.92971L3.39624 6.65998V4.06467L5.94481 4.73413L5.28265 6.92971Z" fill="#759C3E"/>
<path fill-rule="evenodd" clip-rule="evenodd" d="M5.41264 7.26322L1.6846 7.58018V4.87386L3.39623 4.06467L5.41264 7.26322ZM15.1298 6.92971L17.0162 6.65998V4.06467L14.4649 4.73413L15.1298 6.92971Z" fill="#4B612C"/>
<path fill-rule="evenodd" clip-rule="evenodd" d="M14.9973 7.26322L18.7254 7.58018V4.87386L17.0164 4.06467L14.9973 7.26322Z" fill="#759C3E"/>
<path fill-rule="evenodd" clip-rule="evenodd" d="M6.60452 2.54341L4.6531 6.3121L1.6846 7.1544V9.56032L5.1227 16.549L10.205 20.3152L13.7356 16.1373V4.45271L10.205 0.840065L6.60452 2.54341Z" fill="#4B612C"/>
<path fill-rule="evenodd" clip-rule="evenodd" d="M18.7254 9.56032V7.1544L15.7571 6.3121L13.8055 2.54341L10.205 0.840065V4.73413V16.4212V20.3152L15.2873 16.549L18.7254 9.56032Z" fill="#759C3E"/>
</g>
<defs>
<clipPath id="clip0_3494_8332">
<rect width="20" height="20" fill="white" transform="translate(0.204987 0.577652)"/>
</clipPath>
</defs>
</svg>
