<svg width="20" height="21" viewBox="0 0 20 21" fill="none" xmlns="http://www.w3.org/2000/svg">
<path fill-rule="evenodd" clip-rule="evenodd" d="M18.6193 11.6238C18.6193 8.74174 17.2725 6.21481 15.2332 4.5961V4.87241C15.2332 5.74099 15.0022 6.57017 14.6559 7.28065C15.7 8.47093 16.2745 10.0008 16.2721 11.5841C16.2721 15.1378 13.4632 18.0198 10 18.0198C6.53677 18.0198 3.72787 15.1378 3.72787 11.5844C3.72787 9.80758 4.42061 8.22852 5.53644 7.04398C5.22861 6.37291 5.03627 5.62279 5.03627 4.83301C5.03627 4.67516 5.03627 4.47765 5.07469 4.31979C2.84303 5.8991 1.38071 8.58388 1.38071 11.5844C1.38071 16.4801 5.22861 20.4283 10 20.4283C14.7714 20.4283 18.6193 16.5195 18.6193 11.6238ZM10.1155 0.727024C7.92226 0.727024 6.1521 2.54323 6.1521 4.79361C6.1521 6.64922 7.34502 8.18912 8.99967 8.70234V12.7295H7.15268V14.7826H8.99967V16.2829H11.1929V8.70234C12.8476 8.22852 14.0405 6.64922 14.0405 4.79361C14.0789 2.54323 12.3087 0.727024 10.1155 0.727024ZM10.1155 2.85895C11.1545 2.85895 12.0009 3.72753 12.0009 4.79361C12.0009 5.85969 11.1543 6.72827 10.1155 6.72827C9.07676 6.72827 8.23009 5.85969 8.23009 4.79361C8.23009 3.72753 9.07676 2.85895 10.1155 2.85895Z" fill="#0078D7"/>
</svg>
