<!-- Generated by IcoMoon.io -->
<svg version="1.1" xmlns="http://www.w3.org/2000/svg" width="32" height="32" viewBox="0 0 32 32" aria-label="bell">
<path d="M30.829 24.632c-1.549 0-2.656-1.328-2.656-2.656v-7.304c0-4.869-2.877-9.296-7.304-11.066-0.664-1.992-2.656-3.541-4.869-3.541s-4.205 1.549-4.869 3.541c-4.426 1.992-7.304 6.197-7.304 11.066v7.082c0 1.549-1.328 2.656-2.656 2.656-1.549 0-1.549 2.213 0 2.213h9.96c0.443 2.213 2.435 3.984 4.869 3.984s4.427-1.549 4.869-3.984h9.96c1.549 0.221 1.549-1.992 0-1.992zM16 28.394c-1.107 0-1.992-0.664-2.435-1.771h5.090c-0.664 1.107-1.549 1.771-2.656 1.771zM5.376 24.632c0.443-0.885 0.885-1.771 0.885-2.656v-7.304c0-4.205 2.656-7.746 6.418-9.296 0.221 0 0.443-0.443 0.664-0.885 0.221-1.328 1.328-2.213 2.656-2.213s2.435 1.107 2.656 2.435c0 0.443 0.221 0.664 0.664 0.885 3.763 1.328 6.418 5.090 6.418 9.296v7.082c0 1.107 0.221 1.992 0.885 2.656h-21.247z"></path>
</svg>
