<!-- Generated by IcoMoon.io -->
<svg version="1.1" xmlns="http://www.w3.org/2000/svg" width="39" height="32" viewBox="0 0 39 32" aria-label="certificate">
<path d="M37.362 12.243c0-0.173-0.173-0.346-0.173-0.346l-9.341-9.168c-0.173-0.173-0.173-0.173-0.346-0.173s-0.346-0.173-0.519-0.173h-21.449c-0.692 0-1.211 0.519-1.211 1.211v3.459c0 0.692 0.519 1.211 1.211 1.211s1.211-0.519 1.211-1.211v-2.422h19.2v8.13c0 0.692 0.519 1.211 1.211 1.211h8.13v10.032h-17.643c-0.692 0-1.211 0.519-1.211 1.211s0.519 1.211 1.211 1.211h18.681c0.692 0 1.211-0.519 1.211-1.211v-12.454c-0.173-0.173-0.173-0.346-0.173-0.519zM28.195 11.551v-5.189l5.362 5.362h-5.362zM9.341 12.416c-1.903 0-3.459 1.557-3.459 3.459s1.557 3.459 3.459 3.459 3.459-1.557 3.459-3.459-1.557-3.459-3.459-3.459zM9.341 16.913c-0.692 0-1.211-0.346-1.211-1.038s0.519-1.211 1.211-1.211 1.211 0.519 1.211 1.211-0.519 1.038-1.211 1.038zM16.432 15.876c0.692-1.211 0.692-2.768-0.173-4.151-0.692-1.211-1.903-1.903-3.287-2.076-0.865-1.211-2.249-1.903-3.632-1.903s-2.768 0.692-3.459 1.903c-1.384 0-2.768 0.865-3.459 2.076-0.865 1.384-0.865 2.941-0.173 4.151-0.692 1.211-0.692 2.768 0.173 3.978 0.346 0.519 0.692 1.038 1.211 1.384v9.168c0 0.519 0.173 0.865 0.692 1.038 0.346 0.173 0.865 0.173 1.211-0.173l3.805-3.287 3.805 3.287c0.173 0.173 0.519 0.346 0.692 0.346s0.346 0 0.519-0.173 0.692-0.519 0.692-1.038v-9.341c0.519-0.346 0.865-0.692 1.211-1.384 0.865-1.038 0.865-2.595 0.173-3.805zM12.8 27.984l-2.768-2.249c-0.346-0.346-1.038-0.346-1.557 0l-2.768 2.249v-5.881c0.692 1.211 2.076 1.903 3.459 1.903s2.768-0.692 3.459-1.903v5.881zM14.184 16.568c0.519 0.692 0.519 1.557 0.173 2.076-0.346 0.692-1.211 1.038-1.903 0.865-0.519 0-1.038 0.173-1.211 0.692-0.346 0.692-1.038 1.211-1.73 1.211-0.865 0-1.557-0.519-1.73-1.211-0.173-0.519-0.692-0.692-1.038-0.692 0 0-0.173 0-0.173 0-0.865 0.173-1.557-0.173-1.903-0.865-0.692-0.519-0.692-1.384-0.173-2.076 0.346-0.346 0.346-1.038 0-1.384-0.519-0.692-0.519-1.557-0.173-2.249s1.211-1.038 1.903-0.865c0.692 0 1.211-0.173 1.384-0.692 0.346-0.692 1.038-1.211 1.73-1.211 0.865 0 1.557 0.519 1.73 1.211 0.173 0.519 0.692 0.865 1.211 0.692 0.865-0.173 1.557 0.173 1.903 0.865s0.346 1.557-0.173 2.249c-0.173 0.346-0.173 1.038 0.173 1.384z"></path>
</svg>
