<!-- Generated by IcoMoon.io -->
<svg version="1.1" xmlns="http://www.w3.org/2000/svg" width="32" height="32" viewBox="0 0 32 32" aria-label="checkbox-disabled">
<path d="M31.099 0c0.504 0 0.84 0.336 0.84 0.673v0 30.259c0 0.504-0.336 0.84-0.84 0.84v0h-30.259c-0.504 0-0.84-0.336-0.84-0.84v0-30.259c0-0.336 0.336-0.673 0.84-0.673v0zM30.259 1.681h-28.578v28.578h28.578v-28.578zM9.046 8.118l0.092 0.077 6.529 6.529 6.529-6.529c0.26-0.26 0.682-0.26 0.943 0 0.231 0.231 0.257 0.591 0.077 0.85l-0.077 0.092-6.529 6.529 6.529 6.529c0.26 0.26 0.26 0.682 0 0.943-0.231 0.231-0.591 0.257-0.85 0.077l-0.092-0.077-6.529-6.529-6.529 6.529c-0.26 0.26-0.682 0.26-0.943 0-0.231-0.231-0.257-0.591-0.077-0.85l0.077-0.092 6.529-6.529-6.529-6.529c-0.26-0.26-0.26-0.682 0-0.943 0.231-0.231 0.591-0.257 0.85-0.077z"></path>
</svg>
