<svg width="26" height="26" viewBox="0 0 26 26" fill="none" xmlns="http://www.w3.org/2000/svg">
<path d="M16.049 25.3809H4.21035C3.43188 25.3809 2.80084 24.7837 2.80084 24.0464C2.80084 23.3096 3.43188 22.7123 4.21035 22.7123H16.049C19.6265 22.7123 22.537 19.9571 22.537 16.5714C22.537 13.1853 19.6265 10.4305 16.049 10.4305H10.7902C10.0113 10.4305 9.3803 9.83327 9.3803 9.09602C9.3803 8.3592 10.0113 7.76192 10.7902 7.76192H16.049C21.1812 7.76192 25.3564 11.7138 25.3564 16.5714C25.3564 21.4291 21.1812 25.3809 16.049 25.3809Z" fill="#96C93D"/>
<path d="M14.9231 18H9.66387C4.53211 18 0.356445 14.0481 0.356445 9.19044C0.356445 4.33279 4.53211 0.380936 9.66387 0.380936H21.5025C22.2815 0.380936 22.9125 0.978212 22.9125 1.71503C22.9125 2.45228 22.2815 3.04955 21.5025 3.04955H9.66387C6.08682 3.04955 3.17634 5.80434 3.17634 9.19044C3.17634 12.5761 6.08682 15.3313 9.66387 15.3313H14.9231C15.7016 15.3313 16.333 15.9286 16.333 16.6654C16.333 17.4027 15.7016 18 14.9231 18Z" fill="#96C93D"/>
</svg>
