<svg width="30" height="12" viewBox="0 0 30 12" xmlns="http://www.w3.org/2000/svg">
<path fill-rule="evenodd" clip-rule="evenodd" d="M8.75736 0.696721L13.5303 5.46969C13.8232 5.76258 13.8232 6.23746 13.5303 6.53035L8.75736 11.3033C8.46447 11.5962 7.98959 11.5962 7.6967 11.3033C7.40381 11.0104 7.40381 10.5356 7.6967 10.2427L11.1893 6.75002H0V5.25002H11.1893L7.6967 1.75738C7.40381 1.46449 7.40381 0.989614 7.6967 0.696721C7.98959 0.403827 8.46447 0.403827 8.75736 0.696721Z"/>
<path fill-rule="evenodd" clip-rule="evenodd" d="M20.2426 11.3033L15.4697 6.53035C15.1768 6.23746 15.1768 5.76259 15.4697 5.46969L20.2426 0.696721C20.5355 0.403828 21.0104 0.403828 21.3033 0.696721C21.5962 0.989615 21.5962 1.46449 21.3033 1.75738L17.8107 5.25002L30 5.25002V6.75002L17.8107 6.75002L21.3033 10.2427C21.5962 10.5356 21.5962 11.0104 21.3033 11.3033C21.0104 11.5962 20.5355 11.5962 20.2426 11.3033Z"/>
</svg>
