<svg width="27" height="27" viewBox="0 0 27 27" fill="none" xmlns="http://www.w3.org/2000/svg">
<path d="M26.6448 13.5447C26.6448 20.7849 20.7754 26.6543 13.5352 26.6543C6.29491 26.6543 0.425537 20.7849 0.425537 13.5447C0.425537 6.30444 6.29491 0.435059 13.5352 0.435059C20.7754 0.435059 26.6448 6.30444 26.6448 13.5447ZM6.98035 13.5447C6.98035 17.1648 9.91503 20.0995 13.5352 20.0995C17.1553 20.0995 20.09 17.1648 20.09 13.5447C20.09 9.92456 17.1553 6.98987 13.5352 6.98987C9.91503 6.98987 6.98035 9.92456 6.98035 13.5447Z" fill="#475ECD"/>
<path d="M23.6954 5.26031C21.4983 2.56564 18.3207 0.854144 14.8616 0.50234L14.1984 7.02351C15.9279 7.19941 17.5167 8.05516 18.6153 9.40249L23.6954 5.26031Z" fill="#009695"/>
<path d="M15.6844 26.4769C18.8208 25.9557 21.6609 24.3124 23.6759 21.853L18.6055 17.6988C17.598 18.9285 16.178 19.7502 14.6098 20.0108L15.6844 26.4769Z" fill="#65AF00"/>
<path d="M5.26157 23.7137C6.69532 24.8802 8.35954 25.7304 10.145 26.2084C11.9305 26.6864 13.7969 26.7814 15.6217 26.4872L14.5784 20.0159C13.666 20.163 12.7328 20.1155 11.8401 19.8765C10.9474 19.6375 10.1152 19.2125 9.39836 18.6292L5.26157 23.7137Z" fill="#FECD05"/>
<path d="M0.441947 12.8889C0.339278 14.9389 0.719404 16.9844 1.55172 18.8606C2.38403 20.7369 3.64528 22.3915 5.23391 23.6912L9.38453 18.6179C8.59022 17.9681 7.95959 17.1408 7.54344 16.2027C7.12728 15.2645 6.93722 14.2418 6.98855 13.2168L0.441947 12.8889Z" fill="#FF7E01"/>
<path d="M5.39708 3.26685C3.92041 4.43608 2.71304 5.90979 1.85716 7.58763C1.00128 9.26546 0.516995 11.108 0.437283 12.9899L6.98622 13.2673C7.02608 12.3264 7.26822 11.4051 7.69616 10.5662C8.1241 9.72724 8.72778 8.99038 9.46612 8.40576L5.39708 3.26685Z" fill="#E22324"/>
<path d="M14.922 0.50862C11.4646 0.140808 8.00273 1.1615 5.29792 3.34615L9.41654 8.44541C10.7689 7.35309 12.4999 6.84274 14.2286 7.02665L14.922 0.50862Z" fill="#B400AA"/>
<path d="M23.6716 21.8582C25.672 19.4192 26.7259 16.3407 26.6399 13.1874L20.0875 13.3661C20.1305 14.9427 19.6036 16.4819 18.6034 17.7014L23.6716 21.8582Z" fill="#7400CD"/>
</svg>
