<!-- Generated by IcoMoon.io -->
<svg version="1.1" xmlns="http://www.w3.org/2000/svg" width="35" height="32" viewBox="0 0 35 32" aria-label="crypto-policy">
<path d="M24.12 8.967c0 2.637-1.519 4.97-3.858 6.049v0l0.592 1.504c0.076 0.193 0.076 0.407 0 0.6v0l-0.816 2.071 0.816 2.071c0.076 0.193 0.076 0.407 0 0.6v0l-0.816 2.071 0.816 2.071c0.079 0.201 0.076 0.425-0.010 0.624v0l-1.488 3.451c-0.007 0.017-0.015 0.033-0.023 0.050-0.4 0.78-1.194 1.266-2.072 1.266-1.284 0-2.329-1.045-2.329-2.329v0-13.925c-2.502-1.015-4.143-3.424-4.143-6.171 0-3.675 2.99-6.665 6.665-6.665s6.665 2.99 6.665 6.665zM22.483 8.967c0-2.773-2.256-5.029-5.029-5.029s-5.029 2.256-5.029 5.029c0 2.229 1.432 4.163 3.563 4.811 0.344 0.105 0.58 0.423 0.58 0.783v0 14.503c0 0.382 0.311 0.692 0.692 0.692 0.253 0 0.483-0.136 0.605-0.357v0l1.342-3.111-0.81-2.057c-0.076-0.193-0.076-0.407 0-0.6v0l0.816-2.071-0.816-2.071c-0.076-0.193-0.076-0.407 0-0.6v0l0.816-2.071-0.776-1.97c-0.083-0.211-0.075-0.448 0.023-0.653s0.277-0.36 0.494-0.428c2.111-0.659 3.529-2.588 3.529-4.801zM19.586 7.654c0 1.175-0.956 2.132-2.132 2.132s-2.132-0.956-2.132-2.132c0-1.175 0.956-2.132 2.132-2.132s2.132 0.956 2.132 2.132zM0 14.71h0.835c1.727 0 2.591-0.915 2.591-2.744 0-0.773-0.085-1.568-0.256-2.386l-0.324-1.483c-0.216-0.977-0.324-1.932-0.324-2.864 0-1.511 0.543-2.733 1.628-3.665s2.577-1.455 4.474-1.568v2.523h-0.477c-0.773 0-1.415 0.202-1.926 0.605s-0.767 0.906-0.767 1.509c0 0.273 0.074 0.813 0.222 1.619l0.29 1.739c0.125 0.75 0.188 1.642 0.188 2.676 0 2.125-0.835 3.892-2.506 5.301 1.67 1.42 2.506 3.199 2.506 5.335 0 1.023-0.063 1.909-0.188 2.659l-0.29 1.739c-0.148 0.807-0.222 1.352-0.222 1.636 0 0.591 0.259 1.088 0.776 1.491s1.156 0.605 1.918 0.605h0.477v2.523c-1.909-0.114-3.403-0.639-4.483-1.577s-1.619-2.162-1.619-3.673c0-0.932 0.108-1.881 0.324-2.847l0.324-1.483c0.17-0.818 0.256-1.625 0.256-2.42 0-1.818-0.864-2.727-2.591-2.727h-0.835v-2.523zM34.807 14.71h-0.835c-1.727 0-2.591-0.915-2.591-2.744 0-0.773 0.085-1.568 0.256-2.386l0.324-1.483c0.216-0.977 0.324-1.932 0.324-2.864 0-1.511-0.543-2.733-1.628-3.665s-2.577-1.455-4.474-1.568v2.523h0.477c0.773 0 1.415 0.202 1.926 0.605s0.767 0.906 0.767 1.509c0 0.273-0.074 0.813-0.222 1.619l-0.29 1.739c-0.125 0.75-0.188 1.642-0.188 2.676 0 2.125 0.835 3.892 2.506 5.301-1.67 1.42-2.506 3.199-2.506 5.335 0 1.023 0.063 1.909 0.188 2.659l0.29 1.739c0.148 0.807 0.222 1.352 0.222 1.636 0 0.591-0.259 1.088-0.776 1.491s-1.156 0.605-1.918 0.605h-0.477v2.523c1.909-0.114 3.403-0.639 4.483-1.577s1.619-2.162 1.619-3.673c0-0.932-0.108-1.881-0.324-2.847l-0.324-1.483c-0.17-0.818-0.256-1.625-0.256-2.42 0-1.818 0.864-2.727 2.591-2.727h0.835v-2.523z"></path>
</svg>
