<!-- Generated by IcoMoon.io -->
<svg version="1.1" xmlns="http://www.w3.org/2000/svg" width="32" height="32" viewBox="0 0 32 32" 
aria-label="data-connector-read">
<path d="M30.382 6.393c-0.311-3.753-6.756-6.386-14.55-6.386-7.818 0-14.276 2.648-14.553 6.418l-0.011 0.253v18.651l0.007 0.22c0.241 3.788 6.714 6.451 14.555 6.451 7.795 0 14.239-2.633 14.55-6.386h-1.879c-0.417 2.33-5.886 4.521-12.671 4.521-7.062 0-12.697-2.373-12.697-4.806l-0-3.098c2.505 2.039 7.274 3.314 12.697 3.314-0.172 0.003 0.173 0 0 0v-1.865c-0.172 0.003 0.173 0 0 0-7.062 0-12.697-2.373-12.697-4.806l-0-3.098c2.505 2.039 7.274 3.314 12.697 3.314-0.172 0.003 0.173 0 0 0v-1.865c-0.172 0.003 0.173 0 0 0-7.062 0-12.697-2.373-12.697-4.806l-0.001-2.383c2.504 2.040 7.274 3.315 12.699 3.315-0.171 0.003 0.173 0 0 0v-1.865c-0.171 0.003 0.173 0 0 0-7.062 0-12.697-2.373-12.697-4.806s5.635-4.806 12.697-4.806c6.774 0 12.236 2.184 12.668 4.521h1.882z"></path>
<path d="M30.732 17.016h-9.342l3.113 3.113-1.432 1.432-5.557-5.557 5.557-5.557 1.432 1.432-3.113 3.113h9.342v2.024z"></path>
</svg>
