<!-- Generated by IcoMoon.io -->
<svg version="1.1" xmlns="http://www.w3.org/2000/svg" width="32" height="32" viewBox="0 0 32 32" aria-label="data-center">
<path d="M30.147 29.979h-12.968v-4.211c6.4-0.674 11.284-6.063 11.284-12.463 0-6.905-5.558-12.463-12.463-12.463-0.168 0-0.337 0-0.505 0-6.905 0.337-12.126 5.558-12.126 12.295 0 6.905 5.389 12.463 11.958 12.8v4.211h-13.642c-0.505 0-0.842 0.337-0.842 0.842s0.337 0.842 0.842 0.842h28.463c0.505 0 0.842-0.337 0.842-0.842s-0.505-1.011-0.842-1.011zM13.305 19.368h5.726c-0.674 1.516-1.516 3.032-2.526 4.547 0 0 0 0 0 0-0.168 0-0.337 0-0.337 0.168-1.347-1.684-2.358-3.2-2.863-4.716zM20.379 12.632c0 1.684-0.337 3.368-0.842 5.053h-6.905c-0.505-1.684-0.842-3.368-0.842-5.053h8.589zM11.958 10.947c0.168-1.347 0.505-2.695 1.011-3.874h6.063c0.505 1.347 0.842 2.526 1.011 3.874h-8.084zM18.358 23.916c1.011-1.516 1.684-3.032 2.358-4.547h4.211c-1.516 2.189-3.874 3.874-6.568 4.547zM26.779 13.305c0 1.516-0.337 3.032-1.011 4.379h-4.547c0.505-1.684 0.674-3.368 0.674-5.053h4.716c0 0.168 0.168 0.505 0.168 0.674zM26.442 10.947h-4.547c-0.168-1.347-0.505-2.695-1.011-3.874h3.705c0.842 1.179 1.516 2.358 1.853 3.874zM23.074 5.389h-2.863c-0.505-0.842-1.011-1.684-1.516-2.358 1.684 0.337 3.2 1.179 4.379 2.358zM15.832 2.526c0.168 0 0.168 0 0.337 0 0.842 0.842 1.516 1.853 2.021 2.863h-4.379c0.674-1.011 1.347-2.021 2.021-2.863zM13.474 2.695c-0.674 0.842-1.179 1.684-1.684 2.526h-3.368c1.347-1.179 3.2-2.021 5.053-2.526zM6.905 7.074h4.211c-0.337 1.179-0.674 2.526-0.842 3.874h-5.053c0.337-1.516 1.011-2.695 1.684-3.874zM5.053 13.137c0-0.168 0-0.337 0-0.505h5.053c0 1.684 0.168 3.368 0.674 5.053h-4.716c-0.674-1.347-1.011-3.032-1.011-4.547zM6.905 19.368h4.379c0.505 1.516 1.347 3.032 2.358 4.547-2.695-0.505-5.053-2.189-6.737-4.547z"></path>
</svg>
