<!-- Generated by IcoMoon.io -->
<svg version="1.1" xmlns="http://www.w3.org/2000/svg" width="31" height="32" viewBox="0 0 31 32" aria-label="delete">
<path d="M19.947 0.007c0.524 0 0.873 0.349 0.873 0.874v0 2.97l8.91-0c0.524 0 0.873 0.349 0.873 0.873s-0.349 0.873-0.873 0.873v0h-3.669v25.506c0 0.524-0.349 0.873-0.873 0.873v0h-20.964c-0.524 0-0.873-0.349-0.873-0.873v0-25.332h-2.446c-0.524 0-0.874-0.349-0.874-0.873s0.349-0.873 0.874-0.873v0h7.687v-3.145c0-0.524 0.349-0.874 0.873-0.874v0zM24.314 5.598h-19.217v24.458h19.217v-24.458zM9.29 8.567c0.524 0 1.048 0.349 1.048 0.699v0 15.723c0 0.524-0.349 0.873-0.873 0.873s-0.873-0.349-0.873-0.873v0-15.723c0-0.349 0.349-0.699 0.699-0.699zM14.531 8.567c0.524 0 1.048 0.349 1.048 0.699v0 15.723c0 0.524-0.349 0.873-0.873 0.873s-0.873-0.349-0.873-0.873v0-15.723c0-0.349 0.349-0.699 0.699-0.699zM19.947 8.393c0.524 0 0.873 0.349 0.873 0.873v0 15.723c0 0.524-0.349 0.873-0.873 0.873s-0.873-0.349-0.873-0.873v0-15.723c0-0.349 0.349-0.873 0.873-0.873zM19.073 1.754h-8.735v2.096h8.735v-2.096z"></path>
</svg>
