<?xml version="1.0" encoding="UTF-8" standalone="no"?>
<svg width="17px" height="20px" viewBox="0 0 17 20" version="1.1" xmlns="http://www.w3.org/2000/svg" xmlns:xlink="http://www.w3.org/1999/xlink">
    <!-- Generator: Sketch 40.3 (33839) - http://www.bohemiancoding.com/sketch -->
    <title>delete</title>
    <desc>Created with Sketch.</desc>
    <defs></defs>
    <g id="Page-1" stroke="none" stroke-width="1" fill="none" fill-rule="evenodd">
        <g id="delete" fill="#26536C">
            <path d="M14.25,19.125 L14.75,19.125 L14.75,18.625 L14.75,3.625 L14.75,3.125 L14.25,3.125 L2.25,3.125 L1.75,3.125 L1.75,3.625 L1.75,18.625 L1.75,19.125 L2.25,19.125 L14.25,19.125 Z M2.75,18.625 L2.75,3.625 L2.25,4.125 L14.25,4.125 L13.75,3.625 L13.75,18.625 L14.25,18.125 L2.25,18.125 L2.75,18.625 Z" id="Stroke-1"></path>
            <path d="M11.25,4.125 L11.75,4.125 L11.75,3.625 L11.75,1.375 L11.75,0.875 L11.25,0.875 L5.25,0.875 L4.75,0.875 L4.75,1.375 L4.75,3.625 L4.75,4.125 L5.25,4.125 L11.25,4.125 Z M5.75,3.625 L5.75,1.375 L5.25,1.875 L11.25,1.875 L10.75,1.375 L10.75,3.625 L11.25,3.125 L5.25,3.125 L5.75,3.625 Z" id="Stroke-3"></path>
            <polygon id="Stroke-4" points="16.875 4.125 16.875 3.125 0.375 3.125 0.375 4.125"></polygon>
            <polygon id="Stroke-6" points="4.75 15.25 5.75 15.25 5.75 6.25 4.75 6.25"></polygon>
            <polygon id="Stroke-7" points="7.75 15.25 8.75 15.25 8.75 6.25 7.75 6.25"></polygon>
            <polygon id="Stroke-8" points="10.75 15.25 11.75 15.25 11.75 6.25 10.75 6.25"></polygon>
        </g>
    </g>
</svg>