<!-- Generated by IcoMoon.io -->
<svg version="1.1" xmlns="http://www.w3.org/2000/svg" width="32" height="32" viewBox="0 0 32 32" aria-label="docs">
<path d="M31.358 3.575h-2.071v-0.69c0-0.414-0.276-0.69-0.69-0.69h-5.522c-0.414 0-0.69 0.276-0.69 0.69v0.69h-2.071c-1.933 0-3.313 0.966-4.142 2.347-0.828-1.381-2.209-2.347-4.142-2.347h-11.044c-0.414 0-0.69 0.276-0.69 0.69v22.088c0 0.414 0.276 0.69 0.69 0.69h11.044c2.347 0 3.451 1.104 3.451 3.451 0 0.966 1.381 0.966 1.381 0 0-2.347 1.104-3.451 3.451-3.451h11.044c0.414 0 0.69-0.276 0.69-0.69v-22.088c0-0.414-0.276-0.69-0.69-0.69zM23.765 3.575h4.142v9.387l-1.519-1.519c-0.276-0.276-0.69-0.276-0.966 0l-1.657 1.519v-9.387zM12.031 25.664h-10.354v-20.708h10.354c2.209 0 3.451 1.519 3.451 4.142v17.67c-0.828-0.69-1.933-1.104-3.451-1.104zM30.668 25.664h-10.354c-1.519 0-2.623 0.414-3.451 1.104v-17.67c0-2.623 1.242-4.141 3.451-4.141h2.071v9.664c0 0.552 0.69 0.966 1.242 0.552l2.209-2.209 2.209 2.209c0.414 0.414 1.242 0.138 1.242-0.552v-9.664h1.381v20.708z"></path>
</svg>
