<!-- Generated by IcoMoon.io -->
<svg version="1.1" xmlns="http://www.w3.org/2000/svg" width="32" height="32" viewBox="0 0 32 32" aria-label="download">
<path d="M30.633 22.933c-0.4 0-0.667 0.267-0.667 0.667v2.533c0 1.733-1.467 3.2-3.2 3.2h-21.6c-1.733 0-3.2-1.467-3.2-3.2v-2.533c0-0.4-0.267-0.667-0.667-0.667s-0.667 0.267-0.667 0.667v2.533c0 2.533 2 4.533 4.533 4.533h21.733c2.533 0 4.533-2 4.533-4.533v-2.533c-0.133-0.4-0.4-0.667-0.8-0.667zM15.567 24c0 0 0 0 0 0 0.133 0 0.133 0.133 0.267 0.133 0.133 0.133 0.4 0.133 0.533 0 0.133 0 0.133-0.133 0.267-0.133 0 0 0 0 0 0l9.333-9.333c0.267-0.267 0.267-0.667 0-0.933s-0.667-0.267-0.933 0l-8.133 8.133v-21.2c0-0.4-0.267-0.667-0.667-0.667s-0.667 0.267-0.667 0.667v21.2l-8.4-8.133c-0.267-0.267-0.667-0.267-0.933 0s-0.267 0.667 0 0.933l9.333 9.333z"></path>
</svg>
