<svg width="32" height="26" viewBox="0 0 32 26" xmlns="http://www.w3.org/2000/svg" fill="currentColor">
<path d="M29.4717 12.8591C28.9806 12.4753 28.2398 12.4769 27.2698 12.8641L21.2941 15.2496C21.2696 15.1769 21.2408 15.1057 21.208 15.0364C21.1059 14.8147 20.9593 14.6165 20.7772 14.454C20.5951 14.2915 20.3816 14.1683 20.1498 14.0919L12.7067 11.6678C12.5861 11.6269 12.4583 11.6116 12.3314 11.623C12.2045 11.6343 12.0814 11.672 11.97 11.7336L7.81037 13.9872L7.65447 13.7066C7.55815 13.5345 7.39752 13.4076 7.2078 13.3538C7.01807 13.2999 6.81474 13.3235 6.6424 13.4194L2.38085 15.7993C2.20881 15.8957 2.082 16.0563 2.02823 16.246C1.97446 16.4358 1.99811 16.6391 2.094 16.8114L6.15975 24.0973C6.20735 24.1826 6.27129 24.2577 6.34792 24.3183C6.42455 24.3789 6.51236 24.4238 6.60635 24.4504C6.70034 24.477 6.79865 24.4849 6.89568 24.4735C6.9927 24.4622 7.08654 24.4318 7.17182 24.3841L11.4331 22.0064C11.6052 21.9101 11.7322 21.7494 11.786 21.5596C11.8398 21.3698 11.8162 21.1664 11.7202 20.994L11.5843 20.7502C11.9422 20.5912 12.2269 20.455 12.467 20.3393C13.0064 20.0805 13.2343 19.9767 13.4463 19.9929C13.6926 20.0122 14.0521 20.1987 14.7053 20.537C14.9419 20.6595 15.2101 20.7982 15.5309 20.9597L15.8465 21.1191C16.9673 21.6859 17.7172 22.065 18.5428 22.065C18.8588 22.0623 19.1725 22.0109 19.4729 21.9126C20.6552 21.5422 22.1855 20.4472 25.2357 18.2677C26.2861 17.5166 27.4772 16.6655 28.907 15.6612L28.965 15.6206C29.3292 15.3665 29.8798 14.9827 29.9659 14.3554C30.0234 14.0846 30.008 13.8033 29.9211 13.5404C29.8343 13.2775 29.6792 13.0424 29.4717 12.8591ZM6.8117 23.7331L2.7472 16.4503L7.00221 14.0723L7.33333 14.6647L7.33551 14.6694L7.33987 14.6769L10.7125 20.7156V20.7178C10.7234 20.7431 10.7371 20.7672 10.7534 20.7895L11.0686 21.3542L6.8117 23.7331ZM29.226 14.2547C29.1842 14.5578 28.826 14.8078 28.5379 15.0089L28.478 15.0507C27.0453 16.0565 25.8531 16.909 24.8011 17.6607C21.8163 19.7946 20.3178 20.8656 19.2496 21.2008C18.2691 21.5079 17.6156 21.1774 16.1835 20.4525L15.8664 20.2925C15.5496 20.1332 15.2837 19.9954 15.0486 19.8738C13.5037 19.0734 13.3961 19.0656 12.1439 19.6661C11.8945 19.7859 11.5971 19.9287 11.2185 20.0952L8.17423 14.6388L12.3257 12.3893C12.3481 12.3761 12.3732 12.3681 12.3992 12.366C12.4251 12.3639 12.4511 12.3677 12.4754 12.3771L19.9187 14.8013C20.0538 14.8464 20.1781 14.919 20.2838 15.0144C20.3896 15.1097 20.4745 15.2259 20.5333 15.3556C20.5954 15.4866 20.6337 15.6277 20.6462 15.7722C20.6462 15.7825 20.6462 15.7931 20.6483 15.8034C20.662 16.0026 20.6248 16.2021 20.5404 16.3831C20.4559 16.5641 20.3269 16.7207 20.1655 16.8383C20.004 16.9559 19.8154 17.0306 19.6172 17.0554C19.419 17.0803 19.2178 17.0545 19.0323 16.9804L15.7704 15.8744C15.7231 15.8549 15.6722 15.8452 15.621 15.846C15.5699 15.8469 15.5194 15.8582 15.4727 15.8794C15.4261 15.9005 15.3843 15.931 15.3499 15.9689C15.3156 16.0069 15.2893 16.0515 15.2729 16.1C15.2565 16.1485 15.2501 16.1998 15.2543 16.2509C15.2586 16.3019 15.2732 16.3515 15.2973 16.3967C15.3215 16.4418 15.3547 16.4815 15.3948 16.5133C15.4349 16.5451 15.4811 16.5684 15.5306 16.5816L18.7926 17.6881C19.0738 17.7942 19.376 17.8329 19.675 17.8012C19.9739 17.7694 20.2613 17.6681 20.514 17.5054C20.7667 17.3426 20.9778 17.123 21.1304 16.8639C21.283 16.6049 21.3728 16.3138 21.3926 16.0138L27.5467 13.5572C28.2326 13.2835 28.7527 13.2454 29.0121 13.4468C29.284 13.6604 29.2447 14.1188 29.226 14.2541V14.2547ZM4.13249 10.3392C4.16702 10.3883 4.21283 10.4283 4.26606 10.4559C4.31929 10.4835 4.37838 10.4979 4.43835 10.4979H6.79175C6.84689 10.4979 6.90134 10.4856 6.9512 10.4621C7.00106 10.4385 7.04509 10.4042 7.08015 10.3617L7.57528 9.75899L7.80725 10.2981C7.8337 10.359 7.87592 10.4118 7.92954 10.4511C7.98317 10.4903 8.04628 10.5145 8.11238 10.5213C8.17848 10.5281 8.24519 10.5171 8.30565 10.4895C8.36611 10.462 8.41814 10.4188 8.4564 10.3645L8.96461 9.63832L9.68703 10.5166C9.72206 10.5591 9.76601 10.5932 9.81575 10.6167C9.86549 10.6402 9.9198 10.6525 9.97481 10.6526C10.0297 10.6525 10.0839 10.6404 10.1336 10.6171C10.1833 10.5938 10.2272 10.5598 10.2623 10.5176L11.0377 9.5822L11.9541 10.4178C12.0229 10.4805 12.1126 10.5153 12.2057 10.5154H12.2072L16.9754 10.4982C17.6539 11.571 18.6622 12.3946 19.8488 12.8454C21.0353 13.2962 22.3362 13.3498 23.5558 12.9982C24.7754 12.6465 25.848 11.9086 26.6125 10.8953C27.3769 9.88197 27.7919 8.64797 27.7951 7.37866C27.7983 6.10934 27.3895 4.87326 26.6302 3.8561C25.8709 2.83893 24.8021 2.09561 23.5842 1.7378C22.3664 1.37999 21.0653 1.42701 19.8765 1.8718C18.6877 2.31658 17.6752 3.13512 16.9913 4.20444H4.43835C4.37838 4.20445 4.31929 4.21887 4.26606 4.24648C4.21283 4.2741 4.16702 4.31411 4.13249 4.36314L2.18536 7.13621C2.14136 7.19909 2.11776 7.27397 2.11776 7.35072C2.11776 7.42746 2.14136 7.50235 2.18536 7.56523L4.13249 10.3392ZM4.63135 4.95212H17.2408C17.3323 4.95199 17.4206 4.91831 17.489 4.85747C17.5574 4.79662 17.6011 4.71282 17.6118 4.62193C18.2102 3.67975 19.1001 2.95904 20.1461 2.56964C21.1921 2.18024 22.3367 2.14351 23.4055 2.46503C24.4743 2.78656 25.4087 3.44871 26.0663 4.35058C26.7238 5.25245 27.0684 6.34457 27.0477 7.46049C27.0269 8.57642 26.6418 9.65495 25.9511 10.5317C25.2605 11.4085 24.3021 12.0354 23.2221 12.3169C22.142 12.5984 20.9996 12.5191 19.9688 12.091C18.9381 11.6629 18.0755 10.9096 17.5127 9.94575C17.4853 9.89615 17.4469 9.85348 17.4004 9.82103C17.3465 9.78269 17.2833 9.75945 17.2174 9.75369C17.2036 9.75275 17.1897 9.75275 17.1759 9.75369L12.3497 9.77115L11.2513 8.76936C11.2139 8.73543 11.17 8.70941 11.1223 8.69288C11.0746 8.67634 11.0241 8.66964 10.9737 8.67316C10.9233 8.67669 10.8742 8.69037 10.8292 8.71339C10.7843 8.7364 10.7445 8.76828 10.7122 8.80709L9.97606 9.69258L9.22777 8.78433C9.1911 8.73999 9.1447 8.70471 9.09217 8.68122C9.03965 8.65773 8.98242 8.64667 8.92492 8.64891C8.86743 8.65114 8.81123 8.6666 8.76068 8.69409C8.71014 8.72158 8.66661 8.76036 8.63349 8.8074L8.22817 9.38765L8.01864 8.90063C7.99306 8.84218 7.95295 8.79124 7.90213 8.75266C7.85131 8.71408 7.79147 8.68914 7.72829 8.6802C7.66512 8.67127 7.60071 8.67864 7.54118 8.70161C7.48166 8.72458 7.42899 8.7624 7.3882 8.81146L6.61652 9.75057H4.63353L2.94987 7.34978L4.63135 4.95212ZM24.1744 8.76375C24.4512 8.76381 24.7218 8.68178 24.952 8.52802C25.1823 8.37427 25.3617 8.1557 25.4677 7.89996C25.5737 7.64421 25.6014 7.36278 25.5475 7.09126C25.4935 6.81974 25.3602 6.57032 25.1645 6.37455C24.9688 6.17878 24.7194 6.04544 24.4479 5.99141C24.1763 5.93738 23.8949 5.96508 23.6391 6.07101C23.3834 6.17693 23.1648 6.35633 23.011 6.5865C22.8572 6.81668 22.7751 7.08729 22.7751 7.36413C22.7755 7.73515 22.923 8.09086 23.1853 8.35325C23.4477 8.61563 23.8033 8.76326 24.1744 8.76375ZM24.1744 6.71155C24.3034 6.71155 24.4296 6.74982 24.5369 6.82153C24.6442 6.89323 24.7279 6.99515 24.7773 7.1144C24.8267 7.23364 24.8396 7.36485 24.8144 7.49144C24.7892 7.61803 24.7271 7.7343 24.6358 7.82557C24.5445 7.91683 24.4283 7.97898 24.3017 8.00416C24.1751 8.02934 24.0439 8.01642 23.9246 7.96703C23.8054 7.91764 23.7035 7.83399 23.6318 7.72668C23.5601 7.61936 23.5218 7.49319 23.5218 7.36413C23.5224 7.19123 23.5913 7.02558 23.7136 6.90332C23.8358 6.78106 24.0015 6.71212 24.1744 6.71155Z" fill="currentColor"/>
</svg>
