<?xml version="1.0" encoding="UTF-8" standalone="no"?>
<svg width="19px" height="19px" viewBox="0 0 19 19" version="1.1" xmlns="http://www.w3.org/2000/svg" xmlns:xlink="http://www.w3.org/1999/xlink">
    <!-- Generator: Sketch 40.3 (33839) - http://www.bohemiancoding.com/sketch -->
    <title>edit</title>
    <desc>Created with Sketch.</desc>
    <defs></defs>
    <g id="Page-1" stroke="none" stroke-width="1" fill="none" fill-rule="evenodd">
        <g id="edit" fill="#26536C">
            <path d="M1.26064507,17.8777425 L1.8616286,18.4787467 L2.9993786,13.6299967 L2.86618738,13.8692944 L14.5654374,2.16779439 C14.9563913,1.77734061 15.5900587,1.77734061 15.9798202,2.16760183 L17.5724633,3.75874496 C17.9621853,4.14946734 17.9621853,4.78233266 17.5718442,5.17367459 L5.87081927,16.8731989 L6.11014507,16.7399925 L1.26064507,17.8777425 Z M6.47718577,17.6810331 L6.57788073,17.5803511 L18.2793807,5.88035105 C19.0595147,5.09821734 19.0595147,3.83358266 18.2798558,3.05192459 L16.6869867,1.46055504 C15.9071413,0.679709391 14.6403087,0.679709391 13.8585229,1.46049548 L2.15901262,13.1622556 L2.0583465,13.2629411 L2.0258214,13.4015533 L0.888071397,18.2503033 L0.703818686,19.0355332 L1.48905493,18.8513075 L6.33855493,17.7135575 L6.47718577,17.6810331 Z" id="Stroke-1"></path>
            <polygon id="Stroke-3" points="14.0355284 1.99052161 13.3284216 2.69762839 17.0431716 6.41237839 17.7502784 5.70527161"></polygon>
            <polygon id="Stroke-5" points="12.9760696 3.05281509 12.2671804 3.75813491 15.9721804 7.48188491 16.6810696 6.77656509"></polygon>
            <polygon id="Stroke-7" points="3.05440339 12.9728466 2.34729661 13.6799534 6.05979661 17.3924534 6.76690339 16.6853466"></polygon>
        </g>
    </g>
</svg>