<!-- Generated by IcoMoon.io -->
<svg version="1.1" xmlns="http://www.w3.org/2000/svg" width="40" height="32" viewBox="0 0 40 32" aria-label="app">
<path d="M20.211 16.674c-1.684 0-3.2 1.347-3.2 3.2s1.347 3.2 3.2 3.2c1.684 0 3.2-1.347 3.2-3.2s-1.516-3.2-3.2-3.2zM20.211 21.389c-0.842 0-1.516-0.674-1.516-1.516s0.674-1.516 1.516-1.516 1.516 0.674 1.516 1.516-0.674 1.516-1.516 1.516zM27.789 17.347l-1.516-2.695c-0.168-0.337-0.674-0.505-1.179-0.337l-1.179 0.674c-0.505-0.337-1.011-0.674-1.516-0.842v-1.179c0-0.505-0.337-0.842-0.842-0.842h-3.032c-0.505 0-0.842 0.337-0.842 0.842v1.011c-0.505 0.337-0.842 0.505-1.347 0.842l-1.011-0.505c-0.168-0.168-0.337-0.168-0.674-0.168-0.168 0-0.337 0.168-0.505 0.337l-1.516 2.695c-0.168 0.337-0.168 0.842 0.337 1.179l1.011 0.674c0 0.337 0 0.505 0 0.842s0 0.505 0 0.842l-1.011 0.505c-0.337 0.168-0.505 0.674-0.337 1.179l1.516 2.695c0.168 0.168 0.337 0.337 0.505 0.337s0.505 0 0.674-0.168l1.011-0.505c0.337 0.337 0.842 0.674 1.347 0.842v1.347c0 0.505 0.337 0.842 0.842 0.842h3.032c0.505 0 0.842-0.337 0.842-0.842v-1.347c0.505-0.168 1.011-0.505 1.516-0.842l1.011 0.674c0.337 0.168 0.842 0.168 1.179-0.337l1.516-2.695c0.168-0.168 0.168-0.505 0.168-0.674s-0.168-0.337-0.337-0.505l-1.011-0.505c0-0.337 0-0.505 0-0.842s0-0.505 0-0.842l1.011-0.505c0.337-0.337 0.505-0.842 0.337-1.179zM24.758 19.874c0 0.337 0 0.674-0.168 1.011 0 0.337 0 0.674 0.337 0.842l0.842 0.505-0.674 1.347-0.842-0.505c-0.337-0.168-0.674-0.168-1.011 0.168-0.505 0.505-1.179 0.842-1.853 1.011-0.337 0.168-0.505 0.505-0.505 0.842v1.011h-1.347v-1.011c0-0.337-0.168-0.674-0.505-0.842-0.674-0.168-1.179-0.505-1.684-1.011-0.337-0.337-0.674-0.337-1.011-0.168l-0.674 0.505-0.674-1.179 0.337-0.505c0.337-0.168 0.505-0.505 0.337-0.842s-0.168-0.674-0.168-1.011c0-0.337 0-0.674 0.168-1.011s0-0.674-0.337-1.011l-0.842-0.505 0.674-1.179 0.842 0.505c0.337 0 0.674 0 1.011-0.337 0.505-0.505 1.179-0.842 1.684-1.011 0.337-0.168 0.505-0.505 0.505-0.842v-0.842h1.347v0.842c0 0.337 0.168 0.674 0.505 0.842 0.674 0.168 1.516 0.674 1.853 1.011 0.674 0.337 1.011 0.337 1.347 0.168l0.842-0.505 0.674 1.179-0.842 0.505c-0.337 0.168-0.505 0.505-0.337 0.842 0.168 0.505 0.168 0.842 0.168 1.179zM34.863 1.684h-29.305c-2.189 0-3.874 1.684-3.874 3.874v21.558c0 2.189 1.684 3.874 3.874 3.874h29.305c2.189 0 3.874-1.684 3.874-3.874v-21.558c0-2.189-1.684-3.874-3.874-3.874zM5.558 3.368h29.305c1.179 0 2.189 1.011 2.189 2.189v3.705h-33.684v-3.705c0-1.179 1.011-2.189 2.189-2.189zM34.863 29.474h-29.305c-1.179 0-2.189-1.011-2.189-2.189v-16.337h33.684v16.168c0 1.347-1.011 2.358-2.189 2.358zM7.916 7.916c0.842 0 1.684-0.674 1.684-1.684s-0.674-1.684-1.684-1.684-1.684 0.674-1.684 1.684 0.674 1.684 1.684 1.684zM12.463 7.916c0.842 0 1.684-0.674 1.684-1.684s-0.674-1.684-1.684-1.684-1.684 0.674-1.684 1.684 0.842 1.684 1.684 1.684zM17.179 7.916c0.842 0 1.684-0.674 1.684-1.684s-0.674-1.684-1.684-1.684-1.684 0.674-1.684 1.684 0.674 1.684 1.684 1.684z"></path>
</svg>
