<svg width="24" height="24" viewBox="0 0 24 24" fill="none" xmlns="http://www.w3.org/2000/svg">
  <path d="M21.8878 10.7445L12.9418 1.7985C12.4708 1.3275 11.5295 1.3275 11.0585 1.7985L2.11253 10.7445C1.64153 11.2155 1.64153 12 2.11253 12.6278L11.0585 21.417C11.5295 21.888 12.4708 21.888 12.9418 21.417L21.8878 12.471C22.3588 12 22.3588 11.2155 21.8878 10.7445ZM11.9998 18.2783C11.2153 18.2783 10.7443 17.6505 10.7443 17.0228C10.7443 16.395 11.2153 15.6105 11.9998 15.6105C12.7843 15.6105 13.2553 16.2383 13.2553 16.866C13.2553 17.4938 12.7843 18.2783 11.9998 18.2783ZM13.2553 13.0988C13.2553 13.7265 12.6275 14.1975 11.9998 14.1975C11.372 14.1975 10.7443 13.7265 10.7443 13.0988V6.19275C10.7443 5.565 11.372 5.094 11.9998 5.094C12.6275 5.094 13.2553 5.565 13.2553 6.19275V13.0988Z" fill="#D0011B"/>
</svg>
