<!-- Generated by IcoMoon.io -->
<svg version="1.1" xmlns="http://www.w3.org/2000/svg" width="32" height="32" viewBox="0 0 32 32" aria-label="event-warning">
<path d="M30.842 31.95h-29.684c-0.824 0-1.36-0.867-0.991-1.604l14.842-29.684c0.408-0.817 1.574-0.817 1.983 0l14.842 29.684c0.368 0.737-0.167 1.604-0.991 1.604zM17.783 26.12c0-0.985-0.798-1.783-1.783-1.783s-1.783 0.798-1.783 1.783c0 0.985 0.798 1.783 1.783 1.783s1.783-0.798 1.783-1.783zM17.108 21.809v-10.325c0-0.612-0.496-1.108-1.108-1.108s-1.108 0.496-1.108 1.108v10.325c0 0.612 0.496 1.108 1.108 1.108s1.108-0.496 1.108-1.108z"></path>
</svg>
