<svg width="30" height="12" viewBox="0 0 30 12" xmlns="http://www.w3.org/2000/svg">
<path fill-rule="evenodd" clip-rule="evenodd" d="M0.469669 6.66805C0.176777 6.37515 0.176777 5.90028 0.469669 5.60738L5.24264 0.834416C5.53554 0.541523 6.01041 0.541523 6.3033 0.834416C6.5962 1.12731 6.5962 1.60218 6.3033 1.89508L2.81066 5.38772L19.5 5.38772V6.88772L2.81066 6.88772L6.3033 10.3804C6.59619 10.6733 6.59619 11.1481 6.3033 11.441C6.01041 11.7339 5.53553 11.7339 5.24264 11.441L0.469669 6.66805Z"/>
<path fill-rule="evenodd" clip-rule="evenodd" d="M24.7574 11.441L29.5303 6.66805C29.8232 6.37516 29.8232 5.90029 29.5303 5.60739L24.7574 0.834421C24.4645 0.541528 23.9896 0.541528 23.6967 0.834421C23.4038 1.12731 23.4038 1.60219 23.6967 1.89508L27.1893 5.38772L19 5.38772L19 6.88772L27.1893 6.88772L23.6967 10.3804C23.4038 10.6733 23.4038 11.1481 23.6967 11.441C23.9896 11.7339 24.4645 11.7339 24.7574 11.441Z"/>
</svg>
