<!-- Generated by IcoMoon.io -->
<svg version="1.1" xmlns="http://www.w3.org/2000/svg" width="38" height="32" viewBox="0 0 38 32" aria-label="fortanix-app-edp">
<path d="M34.081 0c2.186 0 3.963 1.846 3.963 4.117v23.055c0 2.271-1.777 4.117-3.963 4.117h-30.118c-2.186 0-3.963-1.846-3.963-4.117v-23.055c0-2.271 1.777-4.117 3.963-4.117h30.118zM36.458 9.88h-34.874l0.001 17.292c0 1.362 1.067 2.47 2.378 2.47h30.118c1.311 0 2.378-1.108 2.378-2.47l-0.001-17.292zM34.081 1.647h-30.118c-1.311 0-2.378 1.108-2.378 2.47l-0.001 4.117h34.874l0.001-4.117c0-1.362-1.067-2.47-2.378-2.47zM6.341 3.294c0.875 0 1.585 0.738 1.585 1.647s-0.71 1.647-1.585 1.647c-0.875 0-1.585-0.738-1.585-1.647s0.71-1.647 1.585-1.647zM11.096 3.294c0.875 0 1.585 0.738 1.585 1.647s-0.71 1.647-1.585 1.647c-0.875 0-1.585-0.738-1.585-1.647s0.71-1.647 1.585-1.647zM15.851 3.294c0.875 0 1.585 0.738 1.585 1.647s-0.71 1.647-1.585 1.647c-0.875 0-1.585-0.738-1.585-1.647s0.71-1.647 1.585-1.647zM14.519 23.411v-1.187h-4.413v-2.162h3.83v-1.176h-3.83v-2.128h4.278v-1.187h-5.6v7.84h5.734zM19.313 23.411c2.374 0 4.088-1.658 4.088-3.92 0-2.274-1.702-3.92-4.054-3.92h-3.214v7.84h3.181zM19.38 22.223h-1.926v-5.466h1.87c1.546 0 2.744 1.142 2.744 2.744 0 1.59-1.165 2.722-2.688 2.722zM26.134 23.411v-2.363h1.803c1.971 0 3.102-1.030 3.102-2.8 0-1.702-1.131-2.677-3.102-2.677h-3.125v7.84h1.322zM27.881 19.86h-1.747v-3.102h1.747c1.21 0 1.893 0.493 1.893 1.523 0 1.064-0.683 1.579-1.893 1.579z"></path>
</svg>
