<svg width="20" height="21" viewBox="0 0 20 21" fill="none" xmlns="http://www.w3.org/2000/svg">
<path d="M5.39571 1.89998C4.98685 2.04919 4.69978 2.30371 4.46491 2.72499C4.37792 2.89175 4.14305 3.30426 3.94297 3.64655C3.75159 3.98006 3.49932 4.4189 3.39493 4.62076C3.28184 4.81385 3.09046 5.13859 2.96868 5.34045C2.84689 5.54232 2.7425 5.72663 2.7425 5.75296C2.7425 5.77929 2.60332 6.02504 2.43803 6.28834C2.27275 6.55164 2.13357 6.78861 2.13357 6.80616C2.13357 6.83249 1.97698 7.10457 1.78561 7.41176C1.59423 7.71894 1.43764 7.99102 1.43764 8.02613C1.43764 8.05246 1.33326 8.24555 1.21147 8.44741C1.00269 8.78093 0.776517 9.17588 0.402458 9.87801C0.20238 10.2642 0.228477 10.861 0.47205 11.3262C0.585138 11.5456 0.741721 11.8352 0.811313 11.9844C0.880905 12.1249 0.993993 12.3092 1.04619 12.3794C1.10708 12.4496 1.27236 12.7304 1.42025 12.9937C1.75081 13.6169 2.24665 14.4946 2.85559 15.5565C3.12526 16.0305 3.35143 16.4342 3.35143 16.4606C3.35143 16.4781 3.48192 16.7063 3.6472 16.9608C3.80378 17.2153 4.00386 17.5664 4.08215 17.7332C4.39532 18.4002 4.87377 19.0058 5.22173 19.1813C5.55229 19.3481 5.76977 19.3569 9.85832 19.3832C12.6681 19.4007 14.26 19.3744 14.4862 19.313C14.9821 19.1813 15.2691 18.8917 15.7476 18.0667C15.9737 17.663 16.2695 17.1627 16.4 16.9433C16.5305 16.7239 16.9219 16.0393 17.2699 15.4073C17.6179 14.7754 18.0267 14.0645 18.1659 13.8275C18.4704 13.3185 18.6009 13.0903 19.2533 11.8967C19.9753 10.5889 19.9318 10.2379 18.7574 8.39475C18.6096 8.149 18.4878 7.92958 18.4878 7.89448C18.4878 7.85059 18.3747 7.64873 18.2268 7.43809C18.0789 7.21867 17.9658 7.00803 17.9658 6.96415C17.9658 6.92904 17.8266 6.68329 17.6614 6.43754C17.4961 6.18302 17.3569 5.95482 17.3569 5.92849C17.3569 5.90216 17.1307 5.49843 16.861 5.02449C16.5914 4.55933 16.2434 3.95373 16.0955 3.69043C15.5649 2.73377 15.4866 2.6109 15.243 2.32126C14.7733 1.76833 14.6689 1.75955 9.97141 1.76833C6.50919 1.76833 5.68278 1.79466 5.39571 1.89998ZM10.5368 5.67397C10.8239 5.79684 11.2502 5.98993 11.485 6.10403C11.7286 6.21812 12.3288 6.4902 12.8334 6.7184C13.3379 6.93782 13.9121 7.20112 14.1208 7.28888L14.4862 7.46442V9.33386C14.4862 11.5193 14.3818 12.1161 13.7729 13.3448C13.2248 14.4419 12.2071 15.46 11.1371 15.9778C10.1628 16.443 9.88441 16.4518 9.00581 16.0393C7.50088 15.3284 6.37 14.047 5.82196 12.4233C5.59579 11.7475 5.58709 11.6334 5.55229 9.59716L5.5088 7.46442L5.89155 7.29766C6.10033 7.20112 6.67447 6.93782 7.17901 6.70962C8.62305 6.06014 9.19719 5.80562 9.57125 5.62131C10.0149 5.41067 9.94531 5.41067 10.5368 5.67397Z" fill="#4285F4"/>
<path d="M9.77131 6.4551C9.71911 6.50776 8.21418 7.19234 7.01371 7.70139L6.28299 8.01736L6.33518 9.69371C6.38738 11.5631 6.48307 12.0722 6.96151 12.985C7.53565 14.0821 8.50994 14.9773 9.53643 15.3722C9.88439 15.5127 10.041 15.5214 10.2932 15.4512C11.2327 15.2055 12.4767 14.0821 13.0421 12.9938C13.5293 12.0634 13.625 11.5631 13.6772 9.70248L13.7294 8.02613L13.4771 7.91203C13.3379 7.84182 13.0073 7.70139 12.7464 7.59607C12.4854 7.48198 11.7808 7.17479 11.1892 6.90271C10.1715 6.43755 9.87569 6.34978 9.77131 6.4551ZM10.5368 8.15778C11.2153 8.46497 11.572 9.21099 11.3632 9.86046C11.2588 10.1589 10.6673 10.7996 10.4846 10.7996C10.4324 10.7996 10.3976 11.3701 10.3976 12.3355V13.8714H10.0062C9.63212 13.8714 9.61472 13.8626 9.61472 13.6081C9.61472 13.3624 9.58863 13.3448 9.30156 13.3448H8.99709L9.02319 12.9235C9.04929 12.5198 9.05798 12.511 9.33635 12.511C9.50164 12.511 9.61472 12.4671 9.61472 12.4057C9.61472 12.3267 9.44074 12.2916 9.04059 12.2916H8.47515L8.50125 11.9142L8.52734 11.5456L9.07538 11.5193L9.61472 11.4929V11.1506C9.61472 10.9576 9.57993 10.7996 9.52773 10.7996C9.48424 10.7996 9.28416 10.6591 9.10148 10.4836C8.50125 9.94823 8.42295 9.23732 8.884 8.63173C9.11888 8.31576 9.69301 7.99102 10.0062 7.99102C10.1019 7.99102 10.3454 8.07002 10.5368 8.15778Z" fill="#3D7CE3"/>
<path d="M9.61476 9.04423C9.2581 9.40407 9.50167 10.0097 10.0062 10.0097C10.5108 10.0097 10.7543 9.40407 10.3977 9.04423C10.302 8.94768 10.128 8.86869 10.0062 8.86869C9.88443 8.86869 9.71045 8.94768 9.61476 9.04423Z" fill="#3D7CE3"/>
</svg>
