<!-- Generated by IcoMoon.io -->
<svg version="1.1" xmlns="http://www.w3.org/2000/svg" width="32" height="32" viewBox="0 0 32 32" aria-label="generated">
<path d="M29.322 16.003c0-7.354-5.963-13.317-13.317-13.317-7.357 0-13.32 5.962-13.32 13.317 0 7.357 5.962 13.32 13.32 13.32 7.354 0 13.317-5.964 13.317-13.32zM31.948 16.003c0 8.806-7.138 15.945-15.943 15.945-8.808 0-15.945-7.138-15.945-15.945 0-8.805 7.138-15.943 15.945-15.943 8.804 0 15.943 7.139 15.943 15.943zM21.251 16c0 2.9-2.351 5.251-5.251 5.251s-5.251-2.351-5.251-5.251c0-2.9 2.351-5.251 5.251-5.251s5.251 2.351 5.251 5.251z"></path>
</svg>
