<svg width="21" height="21" viewBox="0 0 21 21" fill="none" xmlns="http://www.w3.org/2000/svg">
<g clip-path="url(#clip0_2352_4889)">
<path d="M13.9946 7.38702L15.6798 5.69547L15.7922 4.98321C12.7211 2.18031 7.83938 2.49813 5.071 5.64636C4.30201 6.52076 3.73152 7.61089 3.42731 8.73659L4.03089 8.65123L7.40135 8.09336L7.66156 7.82624C9.16083 6.17352 11.6958 5.95118 13.4269 7.35738L13.9946 7.38702Z" fill="#EA4335"/>
<path d="M18.0805 8.68682C17.6932 7.255 16.8979 5.96784 15.7921 4.98322L13.4269 7.35732C14.4256 8.17645 14.9946 9.41048 14.9702 10.7048V11.1262C16.1328 11.1262 17.0753 12.0722 17.0753 13.2391C17.0753 14.4061 16.1328 15.3284 14.9702 15.3284H10.7541L10.3402 15.7795V18.3138L10.7541 18.7114H14.9702C17.9942 18.7351 20.4647 16.3174 20.4883 13.2821C20.5025 11.4424 19.5988 9.71758 18.0805 8.68682Z" fill="#4285F4"/>
<path d="M6.54394 18.7116H10.7541V15.3285H6.54394C6.24397 15.3284 5.95346 15.2637 5.68067 15.1386L5.08337 15.3225L3.38629 17.0141L3.23846 17.5898C4.19019 18.3111 5.35139 18.7167 6.54394 18.7116Z" fill="#34A853"/>
<path d="M6.54396 7.7375C3.5199 7.75559 1.08315 10.2309 1.10117 13.2662C1.11125 14.9612 1.89992 16.5567 3.23848 17.59L5.68069 15.1388C4.62112 14.6583 4.1503 13.4067 4.629 12.3432C5.10763 11.2798 6.35463 10.8072 7.41404 11.2876C7.88093 11.4993 8.25482 11.8747 8.46574 12.3432L10.9079 9.89198C9.86882 8.52851 8.25422 7.73134 6.54396 7.7375Z" fill="#FBBC05"/>
</g>
<defs>
<clipPath id="clip0_2352_4889">
<rect width="20" height="20" fill="white" transform="translate(0.794922 0.889786)"/>
</clipPath>
</defs>
</svg>
