<svg width="18" height="19" viewBox="0 0 18 19" xmlns="http://www.w3.org/2000/svg">
<g opacity="0.5" clip-path="url(#clip0_8348_92507)">
<path fill-rule="evenodd" clip-rule="evenodd" d="M8.62607 0.289631C8.77115 0.14292 9.00763 0.14139 9.15459 0.286211L17.6042 8.61244C17.7513 8.75744 17.7531 8.99428 17.6081 9.14143C17.4631 9.28858 17.2262 9.29032 17.0791 9.14532L8.89546 1.08117L0.924338 9.1419C0.779077 9.28879 0.542238 9.29011 0.395344 9.14485C0.24845 8.99959 0.247126 8.76275 0.392388 8.61586L8.62607 0.289631ZM2.47757 8.98877C2.68416 8.98877 2.85163 9.15625 2.85163 9.36283V17.4305H6.16202V11.8385C6.16202 11.6319 6.32949 11.4645 6.53608 11.4645H11.4469C11.6535 11.4645 11.8209 11.6319 11.8209 11.8385V17.4305H15.1483V9.36283C15.1483 9.15625 15.3158 8.98877 15.5224 8.98877C15.7289 8.98877 15.8964 9.15625 15.8964 9.36283V17.8045C15.8964 18.0111 15.7289 18.1786 15.5224 18.1786H11.4469C11.2403 18.1786 11.0728 18.0111 11.0728 17.8045V12.2126H6.91014V17.8045C6.91014 18.0111 6.74266 18.1786 6.53608 18.1786H2.47757C2.27098 18.1786 2.10351 18.0111 2.10351 17.8045V9.36283C2.10351 9.15625 2.27098 8.98877 2.47757 8.98877Z"/>
</g>
<defs>
<clipPath id="clip0_8348_92507">
<rect width="18" height="18" transform="translate(0 0.178589)"/>
</clipPath>
</defs>
</svg>
