<svg width="27" height="23" viewBox="0 0 27 23" xmlns="http://www.w3.org/2000/svg">
<path d="M17.3421 6.71147L16.7238 8.81149C16.6193 9.16763 16.9475 9.49966 17.3048 9.39916L19.4146 8.80242C21.1984 9.69645 23.3641 9.38749 24.7873 7.96373C26.6026 6.14812 26.6026 3.18974 24.7873 1.37413C22.9719 -0.441469 19.871 -0.298142 18.2568 1.31601C16.6426 2.93017 16.4703 4.93308 17.3421 6.71147V6.71147ZM24.1195 7.29602C22.9358 8.48015 21.1128 8.72729 19.6573 7.89992C19.5476 7.83746 19.4175 7.8215 19.296 7.85558L17.871 8.25797L18.2884 6.84145C18.3244 6.71993 18.3101 6.58902 18.2486 6.47818C17.4393 5.02571 17.5983 3.3104 18.9135 1.99519C20.2286 0.679968 22.665 0.587218 24.1195 2.04199C25.574 3.49675 25.574 5.84135 24.1195 7.29602V7.29602Z"/>
<path fill-rule="evenodd" clip-rule="evenodd" d="M9.39233 4.84584C9.53317 4.70341 9.76274 4.70192 9.90541 4.84252L18.1082 12.9256C18.2511 13.0663 18.2528 13.2963 18.112 13.4391C17.9712 13.582 17.7413 13.5836 17.5985 13.4429L9.65385 5.61426L1.91553 13.4396C1.77451 13.5822 1.54459 13.5834 1.40199 13.4424C1.25938 13.3014 1.2581 13.0715 1.39912 12.9289L9.39233 4.84584ZM3.4234 13.2909C3.62396 13.2909 3.78654 13.4535 3.78654 13.654V21.4861H7.00024V16.0574C7.00024 15.8569 7.16282 15.6943 7.36337 15.6943H12.1307C12.3313 15.6943 12.4939 15.8569 12.4939 16.0574V21.4861H15.7241V13.654C15.7241 13.4535 15.8866 13.2909 16.0872 13.2909C16.2878 13.2909 16.4503 13.4535 16.4503 13.654V21.8492C16.4503 22.0497 16.2878 22.2123 16.0872 22.2123H12.1307C11.9302 22.2123 11.7676 22.0497 11.7676 21.8492V16.4206H7.72651V21.8492C7.72651 22.0497 7.56393 22.2123 7.36337 22.2123H3.4234C3.22285 22.2123 3.06027 22.0497 3.06027 21.8492V13.654C3.06027 13.4535 3.22285 13.2909 3.4234 13.2909Z" stroke-width="0.75" stroke-linecap="round" stroke-linejoin="round"/>
</svg>
