<svg width="26" height="26" viewBox="0 0 26 26"  xmlns="http://www.w3.org/2000/svg">
<path d="M12.9996 22.5325C14.8851 22.5325 16.7283 21.9733 18.2961 20.9258C19.8638 19.8783 21.0857 18.3894 21.8073 16.6474C22.5288 14.9054 22.7176 12.9886 22.3498 11.1393C21.9819 9.29 21.074 7.59133 19.7407 6.25807C18.4074 4.92481 16.7088 4.01685 14.8595 3.649C13.0102 3.28116 11.0934 3.46995 9.35138 4.19151C7.6094 4.91306 6.1205 6.13497 5.07296 7.70271C4.02543 9.27046 3.46631 11.1136 3.46631 12.9991C3.46918 15.5267 4.4745 17.9498 6.26172 19.737C8.04894 21.5243 10.4721 22.5296 12.9996 22.5325ZM7.79963 19.916V19.0658C7.79963 17.6867 8.34749 16.364 9.32268 15.3888C10.2979 14.4137 11.6205 13.8658 12.9996 13.8658C14.3787 13.8658 15.7014 14.4137 16.6766 15.3888C17.6518 16.364 18.1996 17.6867 18.1996 19.0658V19.916C16.7038 21.0512 14.8775 21.6658 12.9996 21.6658C11.1218 21.6658 9.2955 21.0512 7.79963 19.916ZM10.3996 10.3991V9.53248C10.3996 8.84292 10.6736 8.1816 11.1611 7.69401C11.6487 7.20641 12.3101 6.93249 12.9996 6.93249C13.6892 6.93249 14.3505 7.20641 14.8381 7.69401C15.3257 8.1816 15.5996 8.84292 15.5996 9.53248V10.3991C15.5996 11.0887 15.3257 11.75 14.8381 12.2376C14.3505 12.7252 13.6892 12.9991 12.9996 12.9991C12.3101 12.9991 11.6487 12.7252 11.1611 12.2376C10.6736 11.75 10.3996 11.0887 10.3996 10.3991ZM12.9996 4.33249C14.7206 4.331 16.4029 4.84233 17.832 5.80121C19.261 6.7601 20.3719 8.12304 21.0229 9.7161C21.6739 11.3092 21.8355 13.0601 21.487 14.7453C21.1385 16.4306 20.2957 17.9738 19.0663 19.178V19.0658C19.0646 17.7875 18.6596 16.5424 17.9092 15.5076C17.1587 14.4728 16.1009 13.7011 14.8864 13.3025C15.3706 12.9883 15.7687 12.5582 16.0446 12.0512C16.3205 11.5442 16.4655 10.9764 16.4663 10.3991V9.53248C16.4663 8.61307 16.101 7.73131 15.4509 7.08118C14.8008 6.43106 13.919 6.06582 12.9996 6.06582C12.0802 6.06582 11.1985 6.43106 10.5483 7.08118C9.8982 7.73131 9.53296 8.61307 9.53296 9.53248V10.3991C9.53379 10.9764 9.67872 11.5442 9.95462 12.0512C10.2305 12.5582 10.6287 12.9883 11.1129 13.3025C9.89838 13.7011 8.84058 14.4728 8.09009 15.5076C7.3396 16.5424 6.93468 17.7875 6.93297 19.0658V19.178C5.70352 17.9738 4.86076 16.4306 4.51226 14.7453C4.16375 13.0601 4.32532 11.3092 4.97632 9.7161C5.62733 8.12304 6.73824 6.7601 8.16729 5.80121C9.59633 4.84233 11.2787 4.331 12.9996 4.33249Z"/>
<path d="M0.77977 10.9166C0.581543 10.996 0.408832 11.1281 0.280352 11.2987C0.151871 11.4693 0.0725227 11.6717 0.0509045 11.8842C-0.0169682 12.6261 -0.0169682 13.3727 0.0509045 14.1146C0.0725251 14.3275 0.152157 14.5305 0.28113 14.7013C0.410104 14.8722 0.583476 15.0043 0.78237 15.0835L2.03383 15.5836C2.3114 16.765 2.77976 17.8934 3.4205 18.9241L2.89053 20.1643C2.80248 20.361 2.77175 20.5786 2.80188 20.792C2.83201 21.0055 2.92177 21.206 3.06083 21.3707C3.53748 21.9373 4.06202 22.4619 4.62863 22.9385C4.79322 23.0774 4.99361 23.1671 5.20684 23.1973C5.42006 23.2275 5.63748 23.197 5.83416 23.1092L7.07522 22.5793C8.10596 23.22 9.23429 23.6884 10.4158 23.9659L10.9167 25.2196C10.9962 25.4179 11.1284 25.5908 11.299 25.7195C11.4697 25.8482 11.6722 25.9278 11.8848 25.9497C12.2657 25.9835 12.6539 26 13.0318 26C13.4097 26 13.7776 25.9835 14.1151 25.9497C14.328 25.9276 14.5307 25.8478 14.7014 25.7188C14.8721 25.5898 15.0043 25.4165 15.0836 25.2178L15.5837 23.9664C16.7652 23.6888 17.8935 23.2204 18.9243 22.5797L20.1645 23.1092C20.3612 23.1973 20.5788 23.228 20.7922 23.1979C21.0056 23.1678 21.2062 23.078 21.3709 22.9389C21.9374 22.4626 22.4618 21.9382 22.9382 21.3716C23.0774 21.207 23.1672 21.0066 23.1975 20.7932C23.2278 20.5799 23.1972 20.3624 23.1094 20.1656L22.5794 18.9245C23.2202 17.8938 23.6885 16.7655 23.9661 15.584L25.2197 15.0826C25.4181 15.0031 25.591 14.8709 25.7197 14.7003C25.8483 14.5297 25.928 14.3271 25.9499 14.1146C26.0173 13.3719 26.0173 12.6247 25.9499 11.882C25.9275 11.6696 25.8475 11.4674 25.7186 11.2971C25.5897 11.1268 25.4168 10.9949 25.2184 10.9157L23.967 10.4156C23.6894 9.23413 23.221 8.10581 22.5803 7.07507L23.1098 5.83487C23.1977 5.63811 23.2284 5.42056 23.1982 5.20717C23.1681 4.99378 23.0785 4.79321 22.9395 4.62847C22.463 4.062 21.9386 3.53761 21.3722 3.06111C21.2078 2.92172 21.0075 2.83152 20.7941 2.80086C20.5808 2.7702 20.3632 2.80032 20.1662 2.88778L18.9243 3.41991C17.8935 2.77917 16.7652 2.3108 15.5837 2.03324L15.0828 0.779613C15.0034 0.581386 14.8712 0.408675 14.7006 0.280195C14.5301 0.151714 14.3276 0.0723658 14.1151 0.0507475C13.3732 -0.0169158 12.6267 -0.0169158 11.8848 0.0507475C11.6718 0.0723682 11.4689 0.152 11.298 0.280974C11.1272 0.409947 10.995 0.583319 10.9159 0.782213L10.4158 2.03368C9.23429 2.31124 8.10596 2.77961 7.07522 3.42034L5.83503 2.89038C5.63814 2.8026 5.42051 2.77206 5.20707 2.80226C4.99363 2.83245 4.79301 2.92216 4.6282 3.06111C4.06183 3.53772 3.53745 4.06211 3.06083 4.62847C2.92195 4.79306 2.83227 4.99346 2.80208 5.20668C2.77188 5.41991 2.80239 5.63732 2.8901 5.834L3.42006 7.07507C2.77933 8.10581 2.31096 9.23413 2.0334 10.4156L0.77977 10.9166ZM2.82987 10.8238C3.09325 9.58753 3.58148 8.41013 4.27026 7.35023C4.30896 7.29062 4.3324 7.22241 4.33853 7.1516C4.34465 7.08079 4.33326 7.00957 4.30536 6.9442L3.687 5.49297C3.66338 5.44358 3.65434 5.38849 3.66094 5.33414C3.66754 5.2798 3.68951 5.22847 3.72426 5.18617C4.17057 4.65608 4.66161 4.16533 5.19196 3.71934C5.23437 3.68596 5.28534 3.66525 5.339 3.65957C5.39267 3.6539 5.44685 3.6635 5.49529 3.68727L6.94566 4.30607C7.01097 4.3342 7.08224 4.34571 7.15309 4.33958C7.22394 4.33346 7.29217 4.30989 7.35169 4.27097C8.41159 3.58219 9.58899 3.09396 10.8253 2.83058C10.8949 2.81573 10.9598 2.78396 11.0142 2.73809C11.0686 2.69221 11.1109 2.63364 11.1373 2.56754L11.7214 1.10548C11.7412 1.05424 11.7744 1.00932 11.8177 0.97551C11.861 0.941702 11.9126 0.920274 11.9671 0.913513C12.6566 0.850632 13.3503 0.850632 14.0397 0.913513C14.093 0.92103 14.1433 0.942567 14.1855 0.975918C14.2277 1.00927 14.2602 1.05324 14.2798 1.10331L14.8631 2.56754C14.8895 2.63364 14.9318 2.69221 14.9862 2.73809C15.0406 2.78396 15.1055 2.81573 15.1751 2.83058C16.4114 3.09396 17.5888 3.58219 18.6487 4.27097C18.7083 4.30967 18.7765 4.33311 18.8473 4.33924C18.9181 4.34536 18.9893 4.33397 19.0547 4.30607L20.5059 3.68684C20.5553 3.66328 20.6104 3.65427 20.6648 3.66087C20.7191 3.66747 20.7704 3.6894 20.8127 3.72411C21.3429 4.1703 21.8337 4.66135 22.2796 5.1918C22.313 5.23419 22.3337 5.28516 22.3394 5.33884C22.3451 5.39252 22.3355 5.4467 22.3116 5.49514L21.6928 6.9455C21.6649 7.01087 21.6535 7.08209 21.6597 7.1529C21.6658 7.22371 21.6892 7.29192 21.7279 7.35153C22.4167 8.41143 22.9049 9.58883 23.1683 10.8251C23.1832 10.8947 23.2149 10.9596 23.2608 11.014C23.3067 11.0684 23.3653 11.1107 23.4314 11.1371L24.8934 11.7213C24.9441 11.7407 24.9886 11.7733 25.0224 11.8157C25.0561 11.8582 25.0779 11.9089 25.0854 11.9626V11.967C25.1478 12.6563 25.1478 13.3498 25.0854 14.0392C25.0779 14.0925 25.0563 14.1429 25.0229 14.1852C24.9895 14.2275 24.9454 14.2601 24.8952 14.2797L23.4318 14.8629C23.3657 14.8893 23.3071 14.9316 23.2613 14.986C23.2154 15.0404 23.1836 15.1053 23.1688 15.1749C22.9054 16.4112 22.4171 17.5886 21.7284 18.6485C21.6897 18.7081 21.6662 18.7763 21.6601 18.8471C21.654 18.918 21.6654 18.9892 21.6933 19.0545L22.3125 20.5058C22.3363 20.5552 22.3453 20.6103 22.3387 20.6647C22.332 20.7191 22.3098 20.7704 22.2748 20.8126C21.8287 21.343 21.3377 21.8339 20.8071 22.2798C20.7648 22.3135 20.7138 22.3344 20.6601 22.34C20.6063 22.3456 20.5521 22.3357 20.5038 22.3115L19.0534 21.6927C18.988 21.6648 18.9168 21.6534 18.846 21.6595C18.7752 21.6656 18.707 21.6891 18.6474 21.7278C17.5875 22.4166 16.4101 22.9048 15.1738 23.1682C15.1042 23.183 15.0393 23.2148 14.9849 23.2607C14.9305 23.3065 14.8882 23.3651 14.8618 23.4312L14.2776 24.8933C14.258 24.9446 14.2247 24.9896 14.1814 25.0235C14.1382 25.0574 14.0865 25.0789 14.0319 25.0857C13.3426 25.1481 12.6491 25.1481 11.9597 25.0857C11.9064 25.0782 11.856 25.0566 11.8137 25.0232C11.7714 24.9897 11.7388 24.9457 11.7192 24.8954L11.1364 23.4316C11.11 23.3655 11.0677 23.307 11.0133 23.2611C10.9589 23.2152 10.894 23.1835 10.8244 23.1686C9.58812 22.9052 8.41072 22.417 7.35082 21.7282C7.2913 21.6893 7.22307 21.6657 7.15222 21.6596C7.08137 21.6535 7.01011 21.665 6.94479 21.6931L5.49356 22.3123C5.44419 22.336 5.38908 22.3451 5.33472 22.3385C5.28037 22.3319 5.22903 22.3099 5.18676 22.2751C4.65642 21.8287 4.16552 21.3375 3.7195 20.8069C3.68605 20.7646 3.66532 20.7136 3.65972 20.6599C3.65412 20.6062 3.66388 20.552 3.68786 20.5036L4.30666 19.0532C4.33456 18.9879 4.34595 18.9167 4.33983 18.8458C4.3337 18.775 4.31026 18.7068 4.27156 18.6472C3.58278 17.5873 3.09455 16.4099 2.83117 15.1736C2.81632 15.104 2.78455 15.0391 2.73868 14.9847C2.6928 14.9303 2.63423 14.888 2.56813 14.8616L1.10564 14.2792C1.0544 14.2595 1.00947 14.2262 0.975667 14.1829C0.941859 14.1397 0.920431 14.088 0.91367 14.0335C0.850575 13.3441 0.850575 12.6503 0.91367 11.9609C0.921187 11.9076 0.942724 11.8574 0.976075 11.8152C1.00943 11.773 1.05339 11.7404 1.10347 11.7208L2.5677 11.1363C2.63385 11.1098 2.69245 11.0675 2.73833 11.013C2.78421 10.9585 2.81595 10.8935 2.83073 10.8238H2.82987Z"/>
</svg>
