<!-- Generated by IcoMoon.io -->
<svg version="1.1" xmlns="http://www.w3.org/2000/svg" width="32" height="32" viewBox="0 0 32 32" aria-label="integration">
<!--
  Note: this icon uses `stroke` rather than `fill`, which means this cannot be used to generate a font file in IcoMoon.
-->
<path fill="none" stroke="currentColor" stroke-linejoin="round" stroke-linecap="butt" stroke-miterlimit="4" stroke-width="1.5" d="M27.429 15.286h-2.143v-5.714c0-1.586-1.286-2.857-2.857-2.857h-5.714v-2.143c0-1.971-1.6-3.571-3.571-3.571s-3.571 1.6-3.571 3.571v2.143h-5.714c-1.571 0-2.857 1.286-2.857 2.857v5.429h2.143c2.143 0 3.857 1.714 3.857 3.857s-1.714 3.857-3.857 3.857h-2.143v5.429c0 1.571 1.286 2.857 2.857 2.857h5.429v-2.143c0-2.143 1.714-3.857 3.857-3.857s3.857 1.714 3.857 3.857v2.143h5.429c1.571 0 2.857-1.286 2.857-2.857v-5.714h2.143c1.971 0 3.571-1.6 3.571-3.572s-1.6-3.571-3.571-3.571z"></path>
</svg>
