<svg width="24" height="24" viewBox="0 0 24 24" xmlns="http://www.w3.org/2000/svg">
<path fill-rule="evenodd" clip-rule="evenodd" d="M3.72687 20.6501L5.35984 18.9041C5.87542 19.3863 6.44594 19.8065 7.05921 20.1552L5.87786 22.2335C5.10122 21.792 4.37916 21.2602 3.72687 20.6501V20.6501ZM8.37878 23.2811L9.03089 20.9812C9.70478 21.1722 10.4024 21.284 11.1139 21.3127L11.0176 23.7013C10.1176 23.665 9.2334 23.5234 8.37878 23.2811V23.2811ZM13.6699 23.4998L13.2117 21.1536C13.9061 21.0179 14.5784 20.8008 15.2172 20.5076L16.2146 22.6802C15.4041 23.0522 14.5509 23.3278 13.6699 23.4998ZM18.5104 21.2747L17.0297 19.3979C17.5839 18.9607 18.0853 18.4594 18.5227 17.9053L20.399 19.3867C19.8457 20.0876 19.2115 20.7216 18.5104 21.2747ZM21.8516 16.9891L19.6695 16.0127C19.9566 15.3711 20.1673 14.6967 20.2963 14.0007L22.6469 14.4363C22.4833 15.3193 22.2159 16.1752 21.8516 16.9891H21.8516ZM22.8263 11.8496L20.438 11.9545C20.4067 11.2434 20.2925 10.5462 20.0989 9.87305L22.3965 9.21255C22.6419 10.0663 22.7868 10.9499 22.8263 11.8497V11.8496ZM21.3319 6.70183L19.2595 7.89358C18.9078 7.28199 18.4847 6.71351 17.9999 6.20033L19.7376 4.55864C20.351 5.20793 20.8865 5.92738 21.3319 6.70183ZM17.6576 2.82473L16.3559 4.82988C15.7647 4.44606 15.1302 4.13313 14.4646 3.89839L15.2598 1.64389C16.104 1.94164 16.9085 2.33841 17.6576 2.82471V2.82473ZM12.688 1.06339L12.4367 3.44074C12.1269 3.408 11.8141 3.39121 11.5013 3.39062C11.0899 3.39059 10.699 3.41572 10.3111 3.46624L10.0022 1.09569C10.493 1.03175 10.9872 1.00003 11.5036 1.00003C11.9011 1.00076 12.2962 1.02199 12.688 1.06339ZM7.39517 1.758L8.2558 3.9883C7.5975 4.24233 6.97214 4.57365 6.392 4.97462L5.03282 3.00799C5.76768 2.50011 6.56031 2.08014 7.39517 1.758Z"/>
<path fill-rule="evenodd" clip-rule="evenodd" d="M15.8137 13.5674L15.065 12.8187C14.958 12.7118 14.8511 12.6048 14.6372 12.6048C14.4234 12.6048 14.3164 12.7118 14.2095 12.8187L13.4608 13.6743L12.7121 12.8187C12.6052 12.6048 12.4983 12.6048 12.3913 12.6048V12.6049H9.28982C9.07594 12.6049 8.86207 12.7119 8.75513 12.9257C8.32738 14.316 7.04403 15.2786 5.54667 15.2786C3.72854 15.2786 2.2313 13.7814 2.2313 11.8563C2.2313 9.93117 3.72852 8.43395 5.65362 8.43395C7.04392 8.43395 8.32726 9.3965 8.86207 10.7868C8.96902 11.0007 9.18289 11.1076 9.39678 11.1076H16.7761L17.4178 11.8563L15.8137 13.5674ZM18.5943 11.4285L17.4178 10.2521C17.3109 10.1451 17.204 10.0382 16.9901 10.0382H9.7177C9.39688 9.28953 8.86209 8.64792 8.22049 8.22008C7.4718 7.57834 6.50938 7.36447 5.54683 7.36447C3.08706 7.36447 1.16196 9.3965 1.16196 11.8563C1.16196 14.3161 3.19398 16.3481 5.65376 16.3481C7.47189 16.3481 9.07608 15.2786 9.7177 13.5675H12.0706L13.0331 14.637C13.247 14.8508 13.5678 14.8508 13.7818 14.637L14.5305 13.7814L15.2791 14.637C15.3861 14.7439 15.493 14.8508 15.7069 14.8508C15.8138 14.8508 16.0277 14.7439 16.1346 14.637L18.4875 12.1772C18.8083 12.0702 18.8083 11.6425 18.5944 11.4285H18.5943Z"/>
<path fill-rule="evenodd" clip-rule="evenodd" d="M5.33417 10.8937C5.86886 10.8937 6.29672 11.3214 6.29672 11.8563C6.29672 12.391 5.869 12.8188 5.33417 12.8188C4.79937 12.8188 4.47857 12.391 4.47857 11.8563C4.47857 11.3214 4.79939 10.8937 5.33417 10.8937ZM5.33417 13.3535C6.18978 13.3535 6.83139 12.7117 6.83139 11.8563C6.83139 11.0008 6.18966 10.359 5.33417 10.359C4.58549 10.359 3.94388 11.0008 3.94388 11.8563C3.94388 12.7117 4.58561 13.3535 5.33417 13.3535Z"/>
</svg>
