<svg width="18" height="19" viewBox="0 0 18 19" xmlns="http://www.w3.org/2000/svg" aria-label="key-undo-policy">
<g clip-path="url(#clip0_1970_1919)">
<path d="M8.63083 0.5C8.73041 0.5 8.82591 0.539604 8.89626 0.610109C9.52587 1.24099 10.6903 1.89533 12.224 2.53293C13.0978 2.89621 14.0361 3.23155 14.9746 3.53045C15.1389 3.58278 15.2974 3.63211 15.4489 3.67828L15.8819 3.80725L16.2225 3.90372C16.3862 3.94788 16.4998 4.09629 16.4998 4.26578C16.4998 4.39466 16.4996 4.52168 16.4991 4.64691L16.4928 5.37717C16.4912 5.49544 16.4894 5.61202 16.4872 5.72698L16.4704 6.39765C16.467 6.50632 16.4632 6.61348 16.4591 6.71919L16.4304 7.33634L16.3928 7.9212C16.2523 9.81987 15.9548 11.2252 15.3934 12.5874C14.2872 15.2716 12.193 17.2032 8.75509 18.4767C8.67105 18.5078 8.57862 18.5078 8.49457 18.4767C3.38928 16.5856 1.43765 13.7476 0.910168 8.32174L0.862109 7.77047L0.823156 7.20159C0.817408 7.10528 0.812011 7.00823 0.806966 6.91043L0.780951 6.31442L0.763091 5.69989C0.75613 5.38793 0.752087 5.06889 0.750734 4.74257L0.749802 4.26654C0.749486 4.09678 0.863216 3.94798 1.0271 3.90376L1.1947 3.85705L1.80057 3.67837L2.27479 3.53056C3.21317 3.23169 4.15129 2.89641 5.02501 2.53317C6.55876 1.89553 7.72317 1.24111 8.35257 0.610215C8.42292 0.539691 8.51844 0.500053 8.61805 0.500053L8.63083 0.5ZM8.62424 1.37899L8.45628 1.51809C7.7186 2.10297 6.64559 2.67162 5.31296 3.22565C4.41735 3.59799 3.45977 3.94023 2.50243 4.24512L2.01893 4.39582L1.49997 4.54924L1.50712 5.38667C1.50881 5.49266 1.51081 5.5978 1.51315 5.70207L1.53113 6.31748C1.54215 6.62012 1.55627 6.91521 1.57371 7.203L1.6131 7.76891C1.62776 7.95436 1.64397 8.13662 1.66181 8.31578L1.72024 8.84405C2.29112 13.5162 4.09467 15.9823 8.51068 17.6811L8.62347 17.7237L8.79513 17.6589C11.7627 16.4971 13.5876 14.821 14.6013 12.5324L14.7 12.3015C15.1769 11.1442 15.4539 9.93692 15.6024 8.36415L15.6472 7.82593C15.6539 7.73382 15.6603 7.64048 15.6662 7.54586L15.6979 6.96216L15.7215 6.34488L15.7376 5.69145L15.7468 4.99928L15.7484 4.54924L15.2306 4.39579L14.747 4.24507C13.7895 3.94013 12.8318 3.59785 11.936 3.22545C10.5083 2.63191 9.37855 2.0216 8.63978 1.39253L8.62419 1.37899H8.62424ZM5.12278 7.69307C6.07583 6.16239 7.96186 5.38616 9.7765 5.91568C11.964 6.55247 13.2214 8.84252 12.5845 11.0298C11.9468 13.2168 9.65678 14.4734 7.47032 13.8365C7.27148 13.7785 7.15726 13.5704 7.21518 13.3715C7.2731 13.1727 7.48126 13.0585 7.6801 13.1164C9.46892 13.6375 11.3427 12.6093 11.8645 10.8199C12.3855 9.03058 11.3567 7.1568 9.56664 6.63571C8.00901 6.18118 6.38705 6.90267 5.64985 8.27937L6.98645 7.93996L7.05326 7.92918C7.23063 7.91679 7.39697 8.03242 7.44239 8.21082C7.49351 8.41153 7.37224 8.61566 7.17153 8.66676L5.11863 9.18999C5.09519 9.19614 5.07105 9.20006 5.04665 9.20119C5.00453 9.20413 4.96142 9.19961 4.91875 9.18718L4.92956 9.18874L4.90617 9.1831L4.85574 9.16252C4.82529 9.14731 4.79757 9.12828 4.77331 9.10648C4.71949 9.05846 4.67892 8.99444 4.65981 8.91927L4.13705 6.86353L4.1263 6.79671C4.11396 6.61935 4.22966 6.45304 4.40807 6.40767L4.47489 6.39692L4.54067 6.39816C4.69194 6.41448 4.82422 6.52258 4.86393 6.67869L5.12278 7.69307Z"/>
</g>
<defs>
<clipPath id="clip0_1970_1919">
<rect width="18" height="18" transform="translate(0 0.5)"/>
</clipPath>
</defs>
</svg>
