<svg width="26" height="26" viewBox="0 0 26 26" xmlns="http://www.w3.org/2000/svg">
<path d="M12.8734 22.5766C12.9148 22.5878 12.9571 22.5935 12.9999 22.5935C13.0427 22.5935 13.085 22.5878 13.1264 22.5766C23.3545 19.7871 21.3905 7.46127 21.3698 7.33714C21.3359 7.1373 21.1803 6.98002 20.9809 6.94382C15.4115 5.93102 13.3887 3.60286 13.3704 3.58123C13.2792 3.47168 13.1437 3.40867 13.0013 3.4082H12.9994C12.8574 3.4082 12.7225 3.47121 12.6308 3.57959C12.611 3.60286 10.5882 5.93102 5.01881 6.94382C4.81945 6.98002 4.66382 7.1373 4.62996 7.33714C4.60928 7.46127 2.64528 19.7871 12.8734 22.5766ZM5.53226 7.82684C9.95584 6.96122 12.185 5.31178 12.9999 4.57028C13.8147 5.31178 16.0439 6.96122 20.4675 7.82684C20.7139 9.75581 21.4662 19.2081 12.9999 21.6122C4.53357 19.2081 5.28588 9.75581 5.53226 7.82684Z"/>
<path d="M10.7559 16.3097H15.2444C15.5105 16.3097 15.7258 16.0941 15.7258 15.8282V12.5181C15.7258 12.2522 15.5105 12.0366 15.2444 12.0366H15.0967V11.9689C15.0967 10.8127 14.1563 9.87207 13.0001 9.87207C11.8439 9.87207 10.9035 10.8127 10.9035 11.9689V12.0366H10.7559C10.4898 12.0366 10.2744 12.2522 10.2744 12.5181V15.8282C10.2744 16.0941 10.4898 16.3097 10.7559 16.3097ZM14.7629 15.3468H11.2374V12.9996H14.7629V15.3468ZM11.8665 11.9689C11.8665 11.3438 12.3752 10.835 13.0001 10.835C13.625 10.835 14.1338 11.3438 14.1338 11.9689V12.0366H11.8665V11.9689Z" />
<path d="M13 14.8946C13.2662 14.8946 13.4815 14.679 13.4815 14.4132V13.9317C13.4815 13.6658 13.2662 13.4502 13 13.4502C12.7339 13.4502 12.5186 13.6658 12.5186 13.9317V14.4132C12.5186 14.679 12.7339 14.8946 13 14.8946Z" />
<path d="M20.6603 20.6599C20.342 20.9782 20.1666 21.4014 20.1666 21.8516C20.1666 22.0947 20.2216 22.328 20.3187 22.543C18.2265 24.1481 15.6483 25.0367 12.9999 25.0367C6.36265 25.0367 0.962955 19.637 0.962955 12.9998C0.962955 10.8995 1.5072 8.84848 2.54081 7.03847C2.67052 6.81134 2.60496 6.52391 2.38308 6.38541C2.15375 6.24223 1.84615 6.31291 1.71183 6.54753C0.590415 8.50627 0 10.7265 0 12.9998C0 20.1678 5.8318 25.9997 12.9999 25.9997C15.8791 25.9997 18.682 25.0277 20.9497 23.272C21.2242 23.4463 21.5373 23.5358 21.8517 23.5358C22.2834 23.5358 22.7146 23.3715 23.0432 23.0433C23.3615 22.725 23.5369 22.3018 23.5369 21.8516C23.5369 21.4014 23.3615 20.9782 23.0432 20.6599C22.3859 20.003 21.3176 20.0035 20.6603 20.6599ZM22.3624 22.3622C22.0812 22.6439 21.6223 22.6437 21.3411 22.362C21.2048 22.2259 21.1295 22.0444 21.1295 21.8516C21.1295 21.6588 21.2048 21.4773 21.3411 21.341C21.4817 21.2002 21.667 21.1299 21.8517 21.1299C22.0365 21.1299 22.2218 21.2002 22.3624 21.341C22.4987 21.4771 22.574 21.6588 22.574 21.8516C22.574 22.0444 22.4987 22.2259 22.3624 22.3622Z"/>
<path d="M12.9999 0C10.1212 0 7.3184 0.971859 5.05036 2.72768C4.39891 2.31405 3.52473 2.38899 2.95659 2.95634C2.63827 3.27466 2.46289 3.69783 2.46289 4.14804C2.46289 4.59825 2.63827 5.02143 2.95659 5.33951C3.28526 5.66818 3.71643 5.83227 4.14806 5.83227C4.5797 5.83227 5.01087 5.66794 5.33953 5.33975C5.65785 5.02143 5.83323 4.59825 5.83323 4.14804C5.83323 3.90504 5.77825 3.67177 5.68116 3.45677C7.77334 1.85147 10.3516 0.962955 12.9999 0.962955C19.6372 0.962955 25.0369 6.36265 25.0369 12.9999C25.0369 15.1001 24.4926 17.1512 23.459 18.9612C23.3293 19.1883 23.3949 19.4757 23.6167 19.6142C23.8461 19.7574 24.1537 19.6867 24.288 19.4521C25.4094 17.4934 25.9998 15.2732 25.9998 12.9999C25.9998 5.8318 20.168 0 12.9999 0ZM4.65869 4.65867C4.37752 4.94032 3.91861 4.94008 3.63743 4.65844C3.50108 4.52232 3.42585 4.34082 3.42585 4.14804C3.42585 3.95526 3.50108 3.77377 3.63743 3.63741C3.77802 3.49659 3.96328 3.4263 4.14806 3.4263C4.33285 3.4263 4.5181 3.49659 4.65869 3.63741C4.79505 3.77353 4.87028 3.95526 4.87028 4.14804C4.87028 4.34082 4.79505 4.52232 4.65869 4.65867Z"/>
</svg>
