<!-- Generated by IcoMoon.io -->
<svg version="1.1" xmlns="http://www.w3.org/2000/svg" width="32" height="32" viewBox="0 0 32 32" aria-label="key">
<path d="M7.53 17.721c1.346 0 2.332-1.010 2.332-2.332s-0.986-2.356-2.332-2.356c-1.178 0-2.164 1.010-2.164 2.332s1.010 2.356 2.164 2.356zM7.53 13.875c0.841 0 1.514 0.673 1.514 1.514s-0.673 1.514-1.514 1.514-1.346-0.673-1.346-1.514 0.529-1.514 1.346-1.514v0zM29.43 14.717l-1.827-1.827c-0.168-0.168-0.337-0.337-0.673-0.337h-11.371c-0.505-1.178-1.346-2.164-2.332-2.837-1.178-1.010-2.668-1.346-4.183-1.346-3.846 0-6.851 3.173-6.851 7.019s3.173 7.019 7.019 7.019c2.837 0 5.337-1.659 6.346-4.351h3.678l1.514 1.659c0.337 0.337 0.841 0.337 1.178 0l1.178-1.346 1.178 1.346c0.168 0.168 0.337 0.337 0.673 0.337 0.168 0 0.505-0.168 0.673-0.337l3.678-3.846c0.433-0.168 0.433-0.841 0.12-1.154v0zM19.742 16.544h-4.856c-0.337 0-0.673 0.168-0.841 0.505-0.649 2.164-2.668 3.678-5 3.678-2.837 0-5.192-2.356-5.192-5.361s2.332-5.337 5.337-5.337c2.164 0 4.183 1.514 5 3.678 0.168 0.337 0.505 0.505 0.841 0.505h11.515l1.010 1.178-2.476 2.668-1.178-1.178c-0.168-0.168-0.337-0.337-0.673-0.337s-0.505 0.168-0.673 0.337l-1.154 1.322-1.178-1.322c-0.168-0.337-0.313-0.337-0.481-0.337v0zM15.68 31.087c-0.072 0-0.168 0-0.24-0.024-2.5-0.745-6.394-2.644-9.063-5.577-0.313-0.337-0.288-0.865 0.048-1.178s0.865-0.288 1.178 0.048c2.38 2.572 5.769 4.303 8.077 5.024 5.914-1.827 9.471-6.058 10.145-8.486 0.12-0.457 0.577-0.721 1.034-0.601s0.721 0.577 0.601 1.034c-0.721 2.716-2.957 4.88-4.688 6.202-2.043 1.563-4.543 2.861-6.827 3.534-0.096 0.024-0.192 0.024-0.264 0.024zM26.834 11.231c-0.457 0-0.841-0.385-0.841-0.841v-4.279c-5.938 1.298-9.039-1.034-10.313-2.5-1.274 1.466-4.375 3.798-10.313 2.5v1.082c0 0.457-0.385 0.841-0.841 0.841s-0.841-0.385-0.841-0.841v-2.14c0-0.264 0.12-0.505 0.337-0.673s0.481-0.216 0.745-0.144c7.693 2.115 10.145-2.404 10.169-2.452 0.144-0.288 0.433-0.457 0.745-0.457s0.601 0.168 0.745 0.457c0.096 0.192 2.548 4.543 10.193 2.428 0.24-0.072 0.529-0.024 0.745 0.144s0.337 0.409 0.337 0.673v5.361c-0.024 0.457-0.385 0.841-0.865 0.841z"></path>
</svg>
