<!-- Generated by IcoMoon.io -->
<svg version="1.1" xmlns="http://www.w3.org/2000/svg" width="22" height="32" viewBox="0 0 22 32" aria-label="lock-closed">
<path d="M18.56 14.4v-6.24c-0.64-3.84-3.68-6.72-7.36-6.72s-6.72 2.88-7.36 6.56v6.4c-1.44 1.76-2.4 4-2.4 6.4 0 5.44 4.32 9.76 9.76 9.76s9.76-4.32 9.76-9.76c0-2.4-0.8-4.64-2.4-6.4zM11.2 3.040c2.88 0 5.28 2.24 5.76 5.28v4.64c-1.6-1.28-3.52-1.92-5.76-1.92s-4.16 0.64-5.76 1.92v-4.8c0.48-2.88 2.88-5.12 5.76-5.12zM11.2 28.96c-4.48 0-8.16-3.68-8.16-8.16s3.68-8.16 8.16-8.16 8.16 3.68 8.16 8.16-3.68 8.16-8.16 8.16zM11.2 19.36c-0.8 0-1.44 0.64-1.44 1.44 0 0.48 0.32 0.8 0.64 1.12v3.040c0 0.48 0.32 0.8 0.8 0.8s0.8-0.32 0.8-0.8v-3.040c0.32-0.32 0.64-0.64 0.64-1.12 0-0.8-0.64-1.44-1.44-1.44z"></path>
</svg>
