<svg width="19" height="19" viewBox="0 0 19 19" fill="none" xmlns="http://www.w3.org/2000/svg">
<g clip-path="url(#clip0_1884_1055)">
<path fill-rule="evenodd" clip-rule="evenodd" d="M15.68 8.7C14.8002 9.75434 13.5377 10.4162 12.17 10.54C11.4682 10.6091 10.7597 10.5308 10.09 10.31L9.09002 11.47L9.25002 13.32C9.25411 13.3712 9.24803 13.4228 9.23213 13.4717C9.21623 13.5206 9.19082 13.5658 9.15736 13.6049C9.12391 13.6439 9.08306 13.6759 9.03718 13.6991C8.9913 13.7223 8.94129 13.7362 8.89002 13.74L7.27002 13.89L7.41002 15.51C7.41327 15.6123 7.37813 15.7121 7.31152 15.7899C7.2449 15.8676 7.15162 15.9176 7.05002 15.93L5.43002 16.08L5.56002 17.7C5.5661 17.8025 5.53352 17.9035 5.46872 17.9831C5.40391 18.0627 5.3116 18.1152 5.21002 18.13L1.10002 18.5C1.04967 18.5049 0.998848 18.4995 0.950689 18.484C0.902529 18.4685 0.858055 18.4433 0.820015 18.41C0.781735 18.38 0.750323 18.3422 0.727897 18.2991C0.705472 18.256 0.692554 18.2085 0.690015 18.16L0.500015 16C0.494863 15.9481 0.500174 15.8957 0.515633 15.8459C0.531092 15.7961 0.556385 15.7499 0.590015 15.71L7.19002 7.85C6.78964 7.09327 6.58229 6.24939 6.58638 5.39328C6.59048 4.53716 6.80588 3.6953 7.21348 2.94244C7.62108 2.18957 8.20826 1.54898 8.92289 1.07755C9.63752 0.606115 10.4575 0.318419 11.31 0.24C11.9854 0.174961 12.6669 0.245868 13.3144 0.448535C13.9619 0.651201 14.5623 0.981521 15.08 1.42C16.1238 2.30654 16.7733 3.57102 16.8858 4.9359C16.9983 6.30078 16.5646 7.65452 15.68 8.7ZM1.44002 17.7L2.00002 17.64L4.80002 17.39L4.67002 15.76C4.66126 15.6611 4.69052 15.5627 4.75183 15.4846C4.81314 15.4066 4.9019 15.3549 5.00002 15.34L6.62002 15.19L6.48002 13.57C6.47592 13.5188 6.482 13.4672 6.4979 13.4183C6.5138 13.3694 6.53921 13.3242 6.57267 13.2851C6.60612 13.2461 6.64697 13.2141 6.69285 13.1909C6.73873 13.1677 6.78875 13.1538 6.84002 13.15L8.46002 13L8.32001 11.38C8.31486 11.3281 8.32017 11.2757 8.33563 11.2259C8.35109 11.1761 8.37638 11.1299 8.41002 11.09L9.67002 9.6C9.72149 9.53635 9.79168 9.49052 9.87065 9.46898C9.94962 9.44744 10.0334 9.4513 10.11 9.48C11.1977 9.90647 12.4099 9.885 13.4817 9.42028C14.5536 8.95556 15.3979 8.08539 15.83 7C16.0789 6.36453 16.1749 5.6794 16.11 5C16.0206 3.8505 15.4785 2.7835 14.6029 2.03346C13.7272 1.28343 12.5896 0.911714 11.44 1H11.37C10.6214 1.06794 9.90257 1.32565 9.28133 1.74878C8.6601 2.17191 8.15703 2.74647 7.81968 3.41816C7.48234 4.08985 7.32186 4.83648 7.35341 5.58746C7.38496 6.33845 7.60751 7.06898 8.00002 7.71C8.04948 7.77458 8.07629 7.85365 8.07629 7.935C8.07629 8.01635 8.04948 8.09542 8.00002 8.16L1.33002 16.16L1.42002 17.16L1.44002 17.7ZM12.57 2C12.9359 1.99607 13.2947 2.10071 13.6011 2.3007C13.9075 2.50069 14.1477 2.78704 14.2914 3.12354C14.435 3.46005 14.4757 3.8316 14.4081 4.1912C14.3406 4.55081 14.168 4.88232 13.9121 5.14382C13.6562 5.40532 13.3285 5.58507 12.9704 5.66033C12.6124 5.73559 12.24 5.70299 11.9005 5.56664C11.561 5.4303 11.2695 5.19633 11.0629 4.89433C10.8564 4.59233 10.744 4.23586 10.74 3.87C10.736 3.62669 10.7804 3.38502 10.8704 3.15896C10.9605 2.9329 11.0945 2.72695 11.2647 2.55304C11.4349 2.37912 11.6379 2.24069 11.862 2.14576C12.086 2.05083 12.3267 2.00129 12.57 2ZM11.52 3.86C11.52 4.13941 11.6303 4.40752 11.8269 4.60602C12.0236 4.80452 12.2906 4.91736 12.57 4.92C12.7796 4.92197 12.9852 4.86173 13.1606 4.7469C13.336 4.63207 13.4734 4.46781 13.5554 4.27489C13.6375 4.08197 13.6605 3.86905 13.6215 3.66306C13.5825 3.45706 13.4834 3.26725 13.3365 3.11762C13.1897 2.96798 13.0018 2.86525 12.7966 2.82241C12.5914 2.77957 12.378 2.79855 12.1836 2.87694C11.9892 2.95533 11.8223 3.08962 11.7042 3.26282C11.5861 3.43603 11.522 3.64036 11.52 3.85V3.86Z" fill="#26546D"/>
<path d="M13 11L13.8981 13.7639H16.8042L14.4531 15.4721L15.3511 18.2361L13 16.5279L10.6489 18.2361L11.5469 15.4721L9.19577 13.7639H12.1019L13 11Z" fill="#26546D"/>
</g>
<defs>
<clipPath id="clip0_1884_1055">
<rect width="18.08" height="18.81" fill="white"/>
</clipPath>
</defs>
</svg>
