<svg width="26" height="26" viewBox="0 0 26 26" fill="none" xmlns="http://www.w3.org/2000/svg">
<g clip-path="url(#clip0_2352_4892)">
<path d="M11.5918 2.83362V6.51686H13.5715V2.83362L16.1344 4.32226L17.132 2.60341L14.5384 1.09942C13.9398 0.746447 13.2646 0.577633 12.574 0.577633C11.8834 0.577633 11.2235 0.761795 10.6249 1.11477L8.03131 2.61876L9.02885 4.33761L11.5918 2.83362Z" fill="#3D9CD6"/>
<path d="M11.5918 2.83362V6.51686H13.5715V2.83362L16.1344 4.32226L17.132 2.60341L14.5384 1.09942C13.9398 0.746447 13.2646 0.577633 12.574 0.577633C11.8834 0.577633 11.2235 0.761795 10.6249 1.11477L8.03131 2.61876L9.02885 4.33761L11.5918 2.83362Z" fill="#007563"/>
<path d="M11.592 23.337V19.6538H13.5717V23.337L16.1347 21.8484L17.1322 23.5672L14.5693 25.0558C13.9707 25.4088 13.2801 25.5776 12.5895 25.5776C11.8989 25.5776 11.239 25.3935 10.6405 25.0558L8.04688 23.5519L9.04442 21.833L11.592 23.337Z" fill="#ED4542"/>
<path d="M20.9689 7.1L17.7921 8.94162L18.7896 10.6605L21.9818 8.81885V11.7808H23.9615V8.7728C23.9615 8.0822 23.7773 7.42228 23.4244 6.82376C23.0714 6.22523 22.5803 5.73413 21.9818 5.3965L19.3728 3.89251L18.3753 5.61136L20.9689 7.1Z" fill="#29AD8F"/>
<path d="M3.21256 17.3517L6.38935 15.5101L7.38689 17.2289L4.19475 19.0706L6.75767 20.5439L5.76013 22.2627L3.15117 20.7587C2.55264 20.4211 2.07689 19.93 1.73926 19.3315C1.38628 18.7329 1.21747 18.0577 1.21747 17.3671V14.3591H3.19721L3.21256 17.3517Z" fill="#D61C4F"/>
<path d="M3.21256 8.8189L6.38935 10.6605L7.38689 8.94167L4.19475 7.10005L6.75767 5.62675L5.76013 3.90791L3.16652 5.4119C2.56799 5.74953 2.09224 6.25597 1.73926 6.8545C1.38628 7.45303 1.21747 8.12829 1.21747 8.8189V11.8269H3.19721L3.21256 8.8189Z" fill="#9E2669"/>
<path d="M20.9689 19.0704L17.7921 17.2288L18.7896 15.51L21.9818 17.3516V14.3896H23.9615V17.4283C23.9615 18.1189 23.7773 18.7481 23.4244 19.3467C23.0714 19.9452 22.5803 20.4363 21.9818 20.7739L19.3728 22.2779L18.3753 20.5591L20.9689 19.0704Z" fill="#F79936"/>
<path d="M12.8502 8.4198V12.6402L16.4721 10.5377L12.8502 8.4198Z" fill="#007563"/>
<path d="M12.3129 8.4198L8.69101 10.5377L12.3129 12.6402V8.4198Z" fill="#9E2669"/>
<path d="M12.0678 13.0853L8.47665 11.0288V15.1571L12.0678 13.0853Z" fill="#D61C4F"/>
<path d="M13.1266 13.0853L16.6871 15.1571V11.0288L13.1266 13.0853Z" fill="#29AD8F"/>
<path d="M12.3134 13.5456L8.72226 15.6328L12.3134 17.7353V13.5456Z" fill="#ED4542"/>
<path d="M12.8502 13.5456V17.7353L16.4414 15.6174L12.8502 13.5456Z" fill="#F79936"/>
</g>
<defs>
<clipPath id="clip0_2352_4892">
<rect width="25" height="25" fill="white" transform="translate(0.0893555 0.577652)"/>
</clipPath>
</defs>
</svg>
