<!-- Generated by IcoMoon.io -->
<svg version="1.1" xmlns="http://www.w3.org/2000/svg" width="32" height="32" viewBox="0 0 32 32" aria-label="search">
<path d="M20.519 14.192c0 3.488-2.838 6.327-6.327 6.327s-6.327-2.838-6.327-6.327c0-3.488 2.838-6.327 6.327-6.327s6.327 2.838 6.327 6.327v0zM27.75 25.942c0-0.48-0.198-0.946-0.522-1.271l-4.844-4.844c1.144-1.652 1.751-3.63 1.751-5.635 0-5.494-4.449-9.942-9.942-9.942s-9.942 4.449-9.942 9.942c0 5.494 4.449 9.942 9.942 9.942 2.006 0 3.983-0.607 5.635-1.751l4.844 4.83c0.325 0.339 0.791 0.537 1.271 0.537 0.989 0 1.808-0.819 1.808-1.808v0z"></path>
</svg>
