<svg xmlns="http://www.w3.org/2000/svg" viewBox="0 0 43.97 44"><defs><style>.a{fill:#29b5e8;}</style></defs><path class="a" d="M37.26,33.66l-9.17-5.3a2.7,2.7,0,0,0-4,2.6V41.32a2.69,2.69,0,0,0,5.38,0v-6l5.14,3a2.69,2.69,0,0,0,2.69-4.67"/><path class="a" d="M14.44,22.3A2.64,2.64,0,0,0,13.13,20L4,14.68a2.66,2.66,0,0,0-1.31-.36,2.64,2.64,0,0,0-1.32,4.92l5.29,3.05L1.32,25.34A2.64,2.64,0,0,0,4,29.91l9.18-5.3a2.64,2.64,0,0,0,1.31-2.31"/><path class="a" d="M6,10.92l9.18,5.3a2.68,2.68,0,0,0,3.23-.41,2.64,2.64,0,0,0,.87-2V3.22a2.69,2.69,0,1,0-5.37,0v6l-5.21-3A2.7,2.7,0,1,0,6,10.92"/><path class="a" d="M26.66,22.73a1,1,0,0,1-.26.63L22.77,27a1.07,1.07,0,0,1-.64.26h-.92a1.07,1.07,0,0,1-.64-.26l-3.64-3.64a1.07,1.07,0,0,1-.26-.63V21.8a1.07,1.07,0,0,1,.26-.63l3.64-3.64a1.07,1.07,0,0,1,.64-.26h.92a1.07,1.07,0,0,1,.64.26l3.63,3.64a1,1,0,0,1,.26.63Zm-3.24-.44v0a.82.82,0,0,0-.19-.47l-1.08-1.07a.71.71,0,0,0-.46-.19h0a.75.75,0,0,0-.47.19l-1.07,1.07a.79.79,0,0,0-.19.47v0a.79.79,0,0,0,.19.46l1.07,1.07a.77.77,0,0,0,.47.2h0a.72.72,0,0,0,.46-.2l1.08-1.07A.79.79,0,0,0,23.42,22.29Z"/><path class="a" d="M28.09,16.22l9.17-5.3a2.69,2.69,0,1,0-2.69-4.67l-5.14,3v-6a2.69,2.69,0,0,0-5.38,0v10.4a2.7,2.7,0,0,0,4,2.6"/><path class="a" d="M17.05,28.05a2.67,2.67,0,0,0-1.84.31L6,33.66a2.7,2.7,0,1,0,2.7,4.67l5.21-3v6a2.69,2.69,0,0,0,5.37,0V30.7a2.68,2.68,0,0,0-2.26-2.65"/><path class="a" d="M43,15.61a2.71,2.71,0,0,0-3.69-1l-9.17,5.3a2.76,2.76,0,0,0,0,4.74L39.31,30A2.7,2.7,0,1,0,42,25.29l-5.2-3,5.2-3a2.7,2.7,0,0,0,1-3.68"/></svg>