<!-- Generated by IcoMoon.io -->
<svg version="1.1" xmlns="http://www.w3.org/2000/svg" width="38" height="32" viewBox="0 0 38 32" aria-label="stack">
<path d="M19.2 22.3c-0.157 0-0.157 0-0.315 0l-18.113-7.875c-0.472-0.315-0.63-0.63-0.472-1.102 0.315-0.473 0.63-0.63 1.103-0.473l17.797 7.875 17.798-7.875c0.472-0.158 0.788 0 1.102 0.473 0.157 0.473 0 0.787-0.472 1.102l-18.113 7.875c-0.157 0-0.157 0-0.315 0zM19.2 27.025c-0.157 0-0.157 0-0.315 0l-18.113-7.875c-0.472-0.315-0.63-0.63-0.472-1.102 0.315-0.473 0.63-0.63 1.103-0.473l17.797 7.875 17.798-7.875c0.472-0.157 0.788 0 1.102 0.473 0.157 0.473 0 0.788-0.472 1.102l-18.113 7.875c-0.157 0-0.157 0-0.315 0zM19.2 31.75c-0.157 0-0.157 0-0.315 0l-18.113-7.875c-0.472-0.315-0.63-0.63-0.472-1.102 0.315-0.473 0.63-0.63 1.103-0.473l17.797 7.875 17.798-7.875c0.472-0.157 0.788 0 1.102 0.473 0.157 0.473 0 0.788-0.472 1.102l-18.113 7.875c-0.157 0-0.157 0-0.315 0zM19.2 17.575c-0.157 0-0.157 0-0.315 0l-18.113-7.875c-0.315-0.158-0.472-0.473-0.472-0.787s0.158-0.63 0.472-0.787l18.113-7.875c0.157 0 0.473 0 0.63 0l18.112 7.875c0.315 0.158 0.472 0.473 0.472 0.787s-0.157 0.63-0.472 0.787l-18.113 7.875c-0.157 0-0.157 0-0.315 0zM3.135 8.912l16.065 7.088 16.065-7.088-16.065-7.088-16.065 7.088z"></path>
</svg>
