<svg width="25" height="25" viewBox="0 0 25 25" xmlns="http://www.w3.org/2000/svg">
<path fill-rule="evenodd" clip-rule="evenodd" d="M4.24248 0C3.96634 0 3.74248 0.223858 3.74248 0.5V4.04711H1.20715C0.931011 4.04711 0.707153 4.27096 0.707153 4.54711V23.7709C0.707153 24.047 0.931011 24.2709 1.20715 24.2709H12.9655C12.7827 23.9518 12.6219 23.6179 12.4855 23.2709H1.70715V5.04711H3.74248V20.7355C3.74248 21.0117 3.96634 21.2355 4.24248 21.2355H11.9932C11.9899 21.2033 11.9868 21.171 11.984 21.1386C11.9569 20.8347 11.9479 20.5333 11.9562 20.2355H4.74248V1H23.978V14.1319C24.3337 14.3767 24.6683 14.6509 24.978 14.9515V0.5C24.978 0.223858 24.7542 0 24.478 0H4.24248ZM20.9368 12.8921V12.1413H7.7837V13.1413H17.3032C17.8278 12.975 18.3784 12.863 18.9493 12.8122C19.6286 12.7517 20.295 12.7816 20.9368 12.8921ZM15.2323 14.1649H7.7837V15.1649H14.0705C14.4224 14.795 14.8114 14.4596 15.2323 14.1649ZM13.2504 16.1884H7.7837V17.1884H12.6835C12.8477 16.8405 13.0374 16.5063 13.2504 16.1884ZM7.7837 5.04711H20.9368V4.04711H7.7837V5.04711ZM7.7837 7.07066H20.9368V6.07066H7.7837V7.07066ZM7.7837 9.09421H20.9368V8.09421H7.7837V9.09421ZM7.7837 11.1178H20.9368V10.1178H7.7837V11.1178Z"/>
<path d="M22.338 15.3737L17.4465 20.2321L15.8221 18.6428L14.4524 20.0032L17.4462 22.9526L23.7071 16.7341L22.338 15.3737Z"/>
</svg>
