<svg width="28" height="26" viewBox="0 0 28 26" fill="none" xmlns="http://www.w3.org/2000/svg">
<path d="M5.98158 21.1612C5.25697 21.1613 4.5414 21.0003 3.8867 20.6898C3.23201 20.3792 2.65457 19.927 2.19623 19.3657C1.7379 18.8045 1.41012 18.1484 1.23666 17.4448C1.06321 16.7413 1.0484 16.008 1.19332 15.298C1.44493 14.1749 2.07607 13.1729 2.98033 12.4609C3.88459 11.7489 5.00669 11.3704 6.15747 11.3892H7.69167V21.1612H5.98158Z" stroke-width="2" stroke-linecap="round" stroke-linejoin="round"/>
<path d="M21.1281 21.1612C21.8527 21.1613 22.5683 21.0003 23.223 20.6898C23.8777 20.3792 24.4551 19.927 24.9135 19.3657C25.3718 18.8045 25.6996 18.1484 25.873 17.4448C26.0465 16.7413 26.0613 16.008 25.9164 15.298C25.6648 14.1749 25.0336 13.1729 24.1294 12.4609C23.2251 11.7489 22.103 11.3704 20.9522 11.3892H19.418V21.1612H21.1281Z" stroke-width="2" stroke-linecap="round" stroke-linejoin="round"/>
<path d="M4.76009 11.3892V10.2361C4.72488 8.22253 5.37345 6.2565 6.59989 4.65912C7.82632 3.06174 9.55814 1.9274 11.5125 1.44137C12.8077 1.13213 14.1562 1.12104 15.4564 1.40894C16.7565 1.69683 17.9743 2.2762 19.0178 3.10334C20.0614 3.93048 20.9035 4.9838 21.4807 6.18384C22.0578 7.38388 22.3549 8.69931 22.3496 10.0309V11.3892" stroke-width="2" stroke-linecap="round" stroke-linejoin="round"/>
<path d="M7.69171 21.1611C7.69171 21.9386 8.00057 22.6843 8.55035 23.2341C9.10013 23.7839 9.84579 24.0927 10.6233 24.0927" stroke-width="2" stroke-linecap="round" stroke-linejoin="round"/>
<path d="M13.5549 25.07C14.0946 25.07 14.5321 24.6325 14.5321 24.0928C14.5321 23.5531 14.0946 23.1156 13.5549 23.1156C13.0152 23.1156 12.5777 23.5531 12.5777 24.0928C12.5777 24.6325 13.0152 25.07 13.5549 25.07Z"/>
<path d="M5.24872 11.8778V20.6726" stroke-linecap="round" stroke-linejoin="round"/>
<path d="M21.3724 11.3892H19.418V21.1611H21.3724V11.3892Z"/>
</svg>
