<!-- Generated by IcoMoon.io -->
<svg version="1.1" xmlns="http://www.w3.org/2000/svg" width="32" height="32" viewBox="0 0 32 32" aria-label="tag">
<path d="M30.521 6.185h-20.84c-0.269 0-0.538 0.134-0.672 0.269l-8.739 8.739c-0.403 0.403-0.403 1.076 0 1.479l8.739 8.739c0.134 0.134 0.403 0.269 0.672 0.269h20.84c0.538 0 1.076-0.403 1.076-1.076v-17.479c0-0.403-0.403-0.941-1.076-0.941zM29.58 23.664h-19.361l-7.798-7.664 7.798-7.798h19.361v15.462zM15.731 16.941h3.63v3.765c0 0.538 0.403 0.941 1.076 0.941s1.076-0.403 1.076-0.941v-3.765h3.765c0.538 0 1.076-0.403 1.076-1.076s-0.403-1.076-1.076-1.076h-3.765v-3.496c0-0.538-0.403-1.076-1.076-1.076s-0.941 0.538-0.941 1.076v3.63h-3.63c-0.538 0-1.076 0.403-1.076 1.076s0.403 0.941 0.941 0.941zM6.454 16c0 1.479 1.21 2.555 2.555 2.555s2.555-1.21 2.555-2.555-1.076-2.555-2.555-2.555-2.555 1.21-2.555 2.555zM9.546 16c0 0.269-0.269 0.538-0.538 0.538s-0.538-0.269-0.538-0.538 0.269-0.538 0.538-0.538 0.538 0.269 0.538 0.538z"></path>
</svg>
