<svg width="30" height="34" viewBox="0 0 30 34" fill="none" xmlns="http://www.w3.org/2000/svg">
<path d="M13.546 19.3741C13.1554 19.7643 12.5225 19.7642 12.1321 19.3738L9.95342 17.1951C9.62881 16.8705 9.1028 16.8696 8.77703 17.193V17.193C8.44963 17.5181 8.44869 18.0473 8.77493 18.3736L12.1318 21.7304C12.5223 22.121 13.1555 22.121 13.546 21.7304L22.2453 13.0311C22.5696 12.7068 22.5696 12.1809 22.2453 11.8565V11.8565C21.9211 11.5323 21.3954 11.5322 21.071 11.8563L13.546 19.3741Z" fill="url(#paint0_linear_7887_87077)"/>
<path d="M15.1593 33.388C15.0144 33.388 14.8626 33.3673 14.7246 33.3259C2.86335 30.0069 0.689824 22.5479 0.600123 22.2374C0.558722 22.0994 0.544922 21.9545 0.544922 21.8027V2.55834C0.544922 1.95113 0.883027 1.39912 1.41433 1.11621C1.95254 0.840211 2.59425 0.881611 3.09796 1.22662C5.22319 2.71014 6.94132 3.37255 8.68014 3.37255C10.7364 3.37255 12.627 2.46863 13.869 0.881612C14.4831 0.095 15.8286 0.0880998 16.4497 0.881612C17.6917 2.46863 19.5823 3.37255 21.6454 3.37255C23.3774 3.37255 25.1024 2.71014 27.2276 1.22662C27.7313 0.881611 28.3661 0.840211 28.9112 1.11621C29.4494 1.39222 29.7807 1.95113 29.7807 2.55834V8.96787V14.0377V21.8027C29.7807 21.9476 29.7599 22.0925 29.7254 22.2374C29.6357 22.5548 27.4622 30.0069 15.6009 33.3328C15.4491 33.3673 15.3042 33.388 15.1593 33.388ZM3.78797 21.5405C4.15367 22.5341 6.38241 27.4746 15.1593 30.069C23.9018 27.4815 26.1443 22.5686 26.5238 21.5405V16.9235V12.3065V5.40808C22.3147 7.45741 18.0919 6.7812 15.1524 4.21436C12.213 6.7743 7.99013 7.45051 3.78107 5.40808C3.78107 5.40808 3.78107 10.3242 3.78107 13.4743C3.78107 16.6244 3.78107 21.5405 3.78107 21.5405H3.78797Z" fill="url(#paint1_linear_7887_87077)"/>
<defs>
<linearGradient id="paint0_linear_7887_87077" x1="15.5081" y1="11.2695" x2="15.5081" y2="22.4375" gradientUnits="userSpaceOnUse">
<stop stop-color="#3DC1F0"/>
<stop offset="1" stop-color="#795DA7"/>
</linearGradient>
<linearGradient id="paint1_linear_7887_87077" x1="15.1628" y1="0.289062" x2="15.1628" y2="33.388" gradientUnits="userSpaceOnUse">
<stop stop-color="#3DC1F0"/>
<stop offset="1" stop-color="#795DA7"/>
</linearGradient>
</defs>
</svg>
