<!-- Generated by IcoMoon.io -->
<svg version="1.1" xmlns="http://www.w3.org/2000/svg" width="32" height="32" viewBox="0 0 32 32" aria-label="user">
<path d="M16.61 1.371c-8.381 0-15.238 6.857-15.238 15.238 0 3.962 1.524 7.619 4.114 10.514 2.895 3.048 7.010 4.876 11.124 4.876 4.267 0 8.381-1.829 11.276-5.029 2.59-2.743 3.962-6.4 3.962-10.21 0.152-8.533-6.705-15.39-15.238-15.39zM7.162 26.667c0.305-0.305 0.61-0.457 0.762-0.457l6.095-2.133c0.305-0.152 0.457-0.457 0.457-0.762v-2.133c0.61 0.305 1.371 0.457 2.133 0.457 0.914 0 1.676-0.152 2.438-0.61v2.286c0 0.305 0.152 0.61 0.457 0.762l6.095 2.133c0.152 0 0.305 0.152 0.61 0.305-2.438 2.438-5.943 3.962-9.6 3.962-3.505 0-6.857-1.371-9.448-3.81zM11.276 13.41c0.61 0.152 1.067 0.305 1.676 0.305 1.676 0 3.505-0.762 4.571-1.829 1.067 1.219 2.133 1.829 3.657 1.829 0.152 0 0.457 0 0.762 0 0 3.505-2.438 6.4-5.333 6.4s-5.333-3.048-5.333-6.705c0 0.152 0 0 0 0zM11.581 11.886c0.61-2.895 2.59-4.876 5.029-4.876 2.59 0 4.724 2.133 5.333 5.181-1.676 0.305-2.59-0.305-3.657-1.981-0.152-0.305-0.457-0.457-0.61-0.457 0 0 0 0 0 0-0.305 0-0.457 0.152-0.61 0.457-0.61 1.067-2.59 1.981-4.114 1.981-0.457 0-0.914-0.152-1.371-0.305zM27.276 25.448c-0.305-0.305-0.762-0.457-1.067-0.61l-5.638-1.981v-2.59c1.676-1.524 2.895-3.81 2.895-6.552 0-4.419-3.048-8.076-6.857-8.076s-6.857 3.505-6.857 7.924c0 2.895 1.219 5.333 3.2 6.857v2.438l-5.638 1.981c-0.457 0.152-0.914 0.457-1.219 0.762-2.133-2.438-3.2-5.638-3.2-8.838 0-7.619 6.248-13.714 13.714-13.714 7.619 0 13.714 6.248 13.714 13.714 0.152 3.048-1.067 6.095-3.048 8.686z"></path>
</svg>
