<svg width="26" height="26" viewBox="0 0 26 26" fill="none" xmlns="http://www.w3.org/2000/svg">
<g clip-path="url(#clip0_2352_4886)">
<path d="M3.60082 9.12696C3.28655 8.43805 2.50976 8.126 1.78445 8.44826C1.05826 8.77096 0.791043 9.57617 1.11907 10.2655L4.16455 16.8838C4.6435 17.9212 5.1482 18.4649 6.09544 18.4649C7.10749 18.4649 7.54871 17.8728 8.02722 16.8838C8.02722 16.8838 10.6834 11.1 10.71 11.0379C10.7371 10.9766 10.8223 10.7897 11.0927 10.7915C11.3213 10.7929 11.5135 10.9753 11.5135 11.2203V16.8754C11.5135 17.7472 11.9969 18.4623 12.9272 18.4623C13.8567 18.4623 14.3592 17.7472 14.3592 16.8754V12.2457C14.3592 11.353 14.9988 10.7738 15.8706 10.7738C16.7424 10.7738 17.3226 11.3739 17.3226 12.2457V16.8754C17.3226 17.7472 17.8077 18.4623 18.7363 18.4623C19.6658 18.4623 20.171 17.7472 20.171 16.8754V12.2457C20.171 11.353 20.8079 10.7738 21.6802 10.7738C22.5506 10.7738 23.133 11.3739 23.133 12.2457V16.8754C23.133 17.7472 23.6177 18.4623 24.5472 18.4623C25.4762 18.4623 25.9805 17.7472 25.9805 16.8754V11.6065C25.9805 9.67072 24.4238 8.31465 22.5506 8.31465C20.6797 8.31465 19.5078 9.60902 19.5078 9.60902C18.885 8.80159 18.0266 8.31643 16.5737 8.31643C15.0406 8.31643 13.6987 9.60902 13.6987 9.60902C13.0755 8.80159 12.0146 8.31643 11.1362 8.31643C9.77745 8.31643 8.69837 8.9139 8.04009 10.4191L6.09544 15.0044L3.60082 9.12696Z" fill="#696566"/>
</g>
<defs>
<clipPath id="clip0_2352_4886">
<rect width="25" height="25" fill="white" transform="translate(0.980469 0.889786)"/>
</clipPath>
</defs>
</svg>
