<!-- Generated by IcoMoon.io -->
<svg version="1.1" xmlns="http://www.w3.org/2000/svg" width="32" height="32" viewBox="0 0 32 32" aria-label="wrench">
<path d="M25.461 9.37l4.155-4.143c0.315-0.314 0.845-0.23 1.048 0.166 1.802 3.522 1.157 7.855-1.683 10.696-2.722 2.722-6.808 3.425-10.244 1.888l-12.559 12.562c-1.282 1.284-3.358 1.284-4.638 0.001-1.283-1.279-1.277-3.359 0.006-4.641l12.574-12.563c-1.531-3.428-0.81-7.517 1.919-10.245 2.838-2.837 7.213-3.485 10.735-1.684 0.394 0.201 0.48 0.726 0.171 1.043l-4.053 4.157v2.763h2.57zM16.966 4.019c-2.44 2.44-3.009 6.147-1.47 9.153 0.13 0.254 0.081 0.562-0.12 0.764l-12.903 12.892c-0.771 0.77-0.774 2.017-0.006 2.783 0.769 0.77 2.012 0.77 2.782-0l12.888-12.891c0.201-0.201 0.51-0.25 0.763-0.12 3.018 1.544 6.721 0.992 9.152-1.44 2.211-2.213 2.87-5.484 1.812-8.328l-3.67 3.658c-0.123 0.123-0.29 0.192-0.463 0.192h-3.498c-0.363 0-0.656-0.294-0.656-0.656v-3.687c0-0.171 0.067-0.336 0.186-0.458l3.58-3.672c-2.853-1.063-6.165-0.403-8.378 1.809z"></path>
</svg>
