<?xml version="1.0" encoding="UTF-8"?>
<svg width="174px" height="37px" viewBox="0 0 174 37" version="1.1" xmlns="http://www.w3.org/2000/svg" xmlns:xlink="http://www.w3.org/1999/xlink" aria-label="logo-em">
    <!-- Generator: sketchtool 63.1 (101010) - https://sketch.com -->
    <desc>Created with sketchtool.</desc>
    <defs>
        <linearGradient x1="0%" y1="43.2920332%" x2="100%" y2="43.2920337%" id="linearGradient-1">
            <stop stop-color="#7C59A4" offset="0%"></stop>
            <stop stop-color="#647ABA" offset="52.4394133%"></stop>
            <stop stop-color="#3BC5F3" offset="100%"></stop>
        </linearGradient>
    </defs>
    <g id="Page" stroke="none" stroke-width="1" fill="none" fill-rule="evenodd">
        <g id="Accounts---Dropdown---1.0" transform="translate(-25.000000, -19.000000)">
            <g id="Account-Nav">
                <g id="Group-6">
                    <g id="enclave-manager-logo" transform="translate(25.000000, 19.000000)">
                        <g id="Group-50">
                            <polygon id="Fill-1" fill="#27235E" points="39.4285714 6.02325581 39.4154881 7.95684703 34.1428874 7.95684703 34.1428874 10.4962078 37.8454829 10.4962078 37.8454829 12.4431558 34.1428874 12.4431558 34.1428874 16.3488372 31.7142857 16.3488372 31.7142857 6.0366126 39.4285714 6.0366126"></polygon>
                            <g id="Group-46" transform="translate(31.714286, 5.162791)" fill="#27235E">
                                <path d="M9.80372825,7.87878304 C9.80372825,9.22070369 10.6396568,10.1244958 11.8466601,10.1244958 C13.0407282,10.1244958 13.8758484,9.2077461 13.8758484,7.87878304 C13.8758484,6.54981997 13.0407282,5.63388016 11.8466601,5.63388016 C10.6396568,5.63388016 9.80372825,6.54981997 9.80372825,7.87878304 M16.2235627,7.85286785 C16.2235627,10.3374862 14.4595432,12.0244027 11.8595951,12.0244027 C9.23377695,12.0244027 7.48269253,10.3374862 7.48269253,7.85286785 C7.48269253,5.34071464 9.24752045,3.69348071 11.8595951,3.69348071 C14.4595432,3.69348071 16.2235627,5.34071464 16.2235627,7.85286785" id="Fill-2"></path>
                                <path d="M22.4576981,3.68003721 L22.4576981,5.73948454 C20.7866494,5.59371163 19.7655877,6.61655157 19.7655877,7.99896471 L19.7655877,11.931594 L17.4308084,11.931594 L17.4308084,3.76021231 L19.7655877,3.76021231 L19.7655877,5.23494829 C20.3217955,4.23802353 21.2506948,3.69380465 22.4576981,3.68003721" id="Fill-4"></path>
                                <path d="M29.1960584,11.479617 C28.5856851,11.8254227 27.8306006,12.0376033 27.0738994,12.0376033 C25.6146623,12.0376033 24.5135649,11.2010287 24.5135649,9.51330233 L24.5135649,5.73940356 L23.3736623,5.73940356 L23.3736623,3.67995622 L24.5135649,3.67995622 L24.5135649,1.88613953 L26.8354091,1.88613953 L26.8354091,3.67995622 L29.0497305,3.67995622 L29.0497305,5.753171 L26.8354091,5.753171 L26.8354091,9.1286238 C26.8354091,9.80646785 27.1264481,10.0842462 27.6179805,10.0720985 C27.922763,10.0720985 28.2809026,9.96519836 28.7061429,9.76597538 L29.1960584,11.479617 Z" id="Fill-6"></path>
                                <path d="M34.9925036,9.1410145 L34.9925036,8.41053023 L33.1621919,8.41053023 C32.2737146,8.41053023 31.8226042,8.68911847 31.8226042,9.34023748 C31.8226042,9.96544131 32.3133282,10.3768449 33.0958997,10.3768449 C34.0910912,10.3768449 34.8599192,9.84558358 34.9925036,9.1410145 L34.9925036,9.1410145 Z M35.0191821,11.931756 L35.0191821,10.9753237 C34.475101,11.6531677 33.5995588,12.0378462 32.4588477,12.0378462 C30.7215068,12.0378462 29.6600231,10.9753237 29.6600231,9.48682025 C29.6600231,7.9586342 30.7619289,7.04188454 32.7644386,7.02892695 L35.0062471,7.02892695 L35.0062471,6.88234419 C35.0062471,6.0190446 34.4354873,5.5136985 33.3077114,5.5136985 C32.5784971,5.5136985 31.7296334,5.7526041 30.8807698,6.23122517 L30.1515555,4.62367387 C31.3585588,4.01223748 32.406299,3.68019918 33.838049,3.68019918 C36.0273088,3.68019918 37.2739256,4.77025663 37.2997958,6.61671354 L37.3135393,11.9447135 L35.0191821,11.9447135 L35.0191821,11.931756 Z" id="Fill-8"></path>
                                <path d="M46.8775646,6.80322189 L46.8775646,11.9319989 L44.5427854,11.9319989 L44.5427854,7.48025609 C44.5427854,6.44445855 43.932412,5.80629713 42.9380289,5.80629713 C41.7706393,5.81925472 41.0672951,6.69632175 41.0672951,7.90542709 L41.0672951,11.9319989 L38.7333244,11.9319989 L38.7333244,3.75980739 L41.0672951,3.75980739 L41.0672951,5.18190315 C41.6380549,4.15825335 42.6195029,3.68044213 43.8927984,3.66748454 C45.6964315,3.68044213 46.8775646,4.88954747 46.8775646,6.80322189" id="Fill-10"></path>
                                <path d="M50.843213,1.4482539 C50.843213,2.11233051 50.3791675,2.61686676 49.7025019,2.61686676 C49.0395799,2.61686676 48.5617909,2.11233051 48.5617909,1.4482539 C48.5617909,0.77040985 49.0258364,0.27883119 49.7025019,0.27883119 C50.365424,0.265873598 50.843213,0.756642408 50.843213,1.4482539 L50.843213,1.4482539 Z M48.5351123,11.931756 L50.8698916,11.931756 L50.8698916,3.75956443 L48.5351123,3.75956443 L48.5351123,11.931756 Z" id="Fill-12"></path>
                                <polygon id="Fill-14" points="54.517499 3.75996936 56.0163497 6.24458769 57.6081711 3.7737368 60.154762 3.7737368 57.567749 7.7460487 60.3398951 11.9321609 57.6615282 11.9321609 56.0292847 9.26127715 54.2385867 11.9321609 51.6661256 11.9321609 54.4908205 7.75900629 51.8650023 3.75996936"></polygon>
                                <path d="M61.6268532,4.67655705 L61.879087,4.67655705 C62.03835,4.67655705 62.1313208,4.59719179 62.1313208,4.45141888 C62.1313208,4.31860356 62.03835,4.23842845 61.879087,4.23842845 L61.6268532,4.23842845 L61.6268532,4.67655705 Z M62.1046422,4.82313981 L62.3560675,5.19567059 L62.1175773,5.19567059 L61.9187006,4.86282244 L61.879087,4.86282244 L61.6268532,4.86282244 L61.6268532,5.19567059 L61.4142331,5.19567059 L61.4142331,4.0788881 L61.879087,4.0788881 C62.1709344,4.0788881 62.3301974,4.21170342 62.3301974,4.46437647 C62.3301974,4.63687442 62.2501617,4.75673215 62.1046422,4.82313981 L62.1046422,4.82313981 Z M62.7675643,4.66359945 C62.7675643,4.15825335 62.369811,3.74684979 61.8394734,3.74684979 C61.3083273,3.74684979 60.910574,4.17202079 60.910574,4.67655705 C60.910574,5.18190315 61.3083273,5.59411655 61.8257299,5.59411655 C62.369811,5.59411655 62.7675643,5.1681357 62.7675643,4.66359945 L62.7675643,4.66359945 Z M62.9801844,4.66359945 C62.9801844,5.28799343 62.4757169,5.80629713 61.8394734,5.80629713 C61.2032299,5.80629713 60.7116974,5.28799343 60.7116974,4.66359945 C60.7116974,4.03920547 61.2032299,3.52090178 61.8524084,3.52090178 C62.4886519,3.52090178 62.9801844,4.03920547 62.9801844,4.66359945 L62.9801844,4.66359945 Z" id="Fill-16"></path>
                                <polygon id="Fill-18" points="7.26392825 17.2877767 7.26392825 18.77709 1.90638604 18.77709 1.90638604 21.4471639 6.70367825 21.4471639 6.70367825 22.9218999 1.90638604 22.9218999 1.90638604 25.6340859 7.43208409 25.6340859 7.43208409 27.1233992 0.250697727 27.1233992 0.250697727 17.2877767"></polygon>
                                <polygon id="Fill-20" points="10.9042597 17.2877767 16.1639805 24.3553335 16.1639805 17.2877767 17.7913734 17.2877767 17.7913734 27.1233992 16.1639805 27.1233992 10.9325552 20.0704197 10.9325552 27.1233992 9.27686688 27.1233992 9.27686688 17.2877767"></polygon>
                                <path d="M24.707025,18.7208055 C22.7433205,18.7208055 21.200814,20.2384635 21.200814,22.1772432 C21.200814,24.116023 22.7433205,25.6482583 24.707025,25.6482583 C25.6892815,25.6482583 26.699025,25.1979819 27.4427912,24.4812651 L28.4242393,25.5778014 C27.4282393,26.5609587 26.0118497,27.1934512 24.6229471,27.1934512 C21.7481289,27.1934512 19.5176386,25.014956 19.5176386,22.1910107 C19.5176386,19.3954101 21.7756159,17.2460695 24.679538,17.2460695 C26.0684406,17.2460695 27.4557263,17.8218725 28.4096873,18.7629176 L27.4427912,19.9712131 C26.7273205,19.1986167 25.703025,18.7208055 24.707025,18.7208055" id="Fill-22"></path>
                                <polygon id="Fill-24" points="31.5897731 17.2877767 31.5897731 25.6195086 35.8397503 25.6195086 35.8397503 27.1233992 29.9340847 27.1233992 29.9340847 17.2877767"></polygon>
                                <path d="M43.4905987,23.4280558 L41.6392675,19.0581078 L39.7879364,23.4280558 L43.4905987,23.4280558 Z M44.1211831,24.9027918 L39.170287,24.9027918 L38.2308779,27.1225893 L36.5056636,27.1225893 L40.8397188,17.2877767 L42.5366377,17.2877767 L46.8286539,27.1225893 L45.0614006,27.1225893 L44.1211831,24.9027918 Z" id="Fill-26"></path>
                                <polygon id="Fill-28" points="47.8122847 17.2877767 50.8415153 25.2826112 53.8990412 17.2877767 55.6242555 17.2877767 51.6548075 27.1233992 49.9441451 27.1233992 46.0304795 17.2877767"></polygon>
                                <polygon id="Fill-30" points="63.8169214 17.2877767 63.8169214 18.77709 58.4593792 18.77709 58.4593792 21.4471639 63.2566714 21.4471639 63.2566714 22.9218999 58.4593792 22.9218999 58.4593792 25.6340859 63.9850773 25.6340859 63.9850773 27.1233992 56.8036909 27.1233992 56.8036909 17.2877767"></polygon>
                                <polygon id="Fill-32" points="72.3118636 17.2877767 75.551289 23.8208328 78.7777792 17.2877767 80.7269318 17.2877767 80.7269318 27.1233992 79.1989773 27.1233992 79.1844253 19.7748246 76.0848604 26.0973198 75.0047825 26.0973198 71.9044091 19.7748246 71.9044091 27.1233992 70.3473506 27.1233992 70.3473506 17.2877767"></polygon>
                                <path d="M88.8904938,23.4280558 L87.0391627,19.0581078 L85.1878315,23.4280558 L88.8904938,23.4280558 Z M89.5218867,24.9027918 L84.5701821,24.9027918 L83.6307731,27.1225893 L81.9055588,27.1225893 L86.239614,17.2877767 L87.9365328,17.2877767 L92.228549,27.1225893 L90.4612958,27.1225893 L89.5218867,24.9027918 Z" id="Fill-34"></path>
                                <polygon id="Fill-36" points="95.0280205 17.2877767 100.287741 24.3553335 100.287741 17.2877767 101.915134 17.2877767 101.915134 27.1233992 100.287741 27.1233992 95.0563159 20.0704197 95.0563159 27.1233992 93.4006276 27.1233992 93.4006276 17.2877767"></polygon>
                                <path d="M110.071824,23.4280558 L108.220493,19.0581078 L106.369162,23.4280558 L110.071824,23.4280558 Z M110.702409,24.9027918 L105.751513,24.9027918 L104.812104,27.1225893 L103.086889,27.1225893 L107.420944,17.2877767 L109.117863,17.2877767 L113.40988,27.1225893 L111.642626,27.1225893 L110.702409,24.9027918 Z" id="Fill-38"></path>
                                <path d="M120.918685,22.2899743 L122.36337,22.2899743 L122.36337,25.9148607 C121.368178,26.6736897 119.894389,27.1936131 118.548334,27.1936131 C115.64522,27.1936131 113.387243,25.0151179 113.387243,22.2057499 C113.387243,19.3955721 115.673516,17.2454216 118.646156,17.2454216 C120.04961,17.2454216 121.451448,17.7799223 122.419152,18.6229756 L121.479743,19.8442287 C120.722233,19.1420892 119.670451,18.7209674 118.646156,18.7209674 C116.64122,18.7209674 115.070419,20.2523929 115.070419,22.2057499 C115.070419,24.1720646 116.654964,25.7042999 118.660707,25.7042999 C119.389922,25.7042999 120.217766,25.450817 120.918685,25.0296952 L120.918685,22.2899743 Z" id="Fill-40"></path>
                                <polygon id="Fill-42" points="131.562626 17.2877767 131.562626 18.77709 126.205084 18.77709 126.205084 21.4471639 131.002376 21.4471639 131.002376 22.9218999 126.205084 22.9218999 126.205084 25.6340859 131.730782 25.6340859 131.730782 27.1233992 124.549396 27.1233992 124.549396 17.2877767"></polygon>
                                <path d="M137.559565,22.6688219 C139.074584,22.6688219 139.943659,22.022562 139.943659,20.68793 C139.943659,19.3954101 139.074584,18.7766851 137.559565,18.7766851 L135.231253,18.7766851 L135.231253,22.6688219 L137.559565,22.6688219 Z M139.80299,27.1229943 L138.00825,24.1443677 C137.86839,24.1581352 137.713169,24.1581352 137.559565,24.1581352 L135.231253,24.1581352 L135.231253,27.1229943 L133.575565,27.1229943 L133.575565,17.2873718 L137.559565,17.2873718 C140.069776,17.2873718 141.515269,18.5102446 141.515269,20.6458178 C141.515269,22.2193554 140.785247,23.3288492 139.481231,23.8350052 L141.683425,27.1229943 L139.80299,27.1229943 Z" id="Fill-44"></path>
                            </g>
                            <g id="Group-49" fill="url(#linearGradient-1)">
                                <path d="M21.4489286,4.40943478 L25.11,4.40943478 L25.11,0.744826087 L21.4489286,0.744826087 L21.4489286,4.40943478 Z M10.7244643,4.40943478 L14.3847321,4.40943478 L14.3847321,0.744826087 L10.7244643,0.744826087 L10.7244643,4.40943478 Z M0,4.40943478 L3.66107143,4.40943478 L3.66107143,0.744826087 L0,0.744826087 L0,4.40943478 Z M21.4489286,9.93691304 L25.11,9.93691304 L25.11,6.27230435 L21.4489286,6.27230435 L21.4489286,9.93691304 Z M16.3430357,9.93691304 L20.0041071,9.93691304 L20.0041071,6.27230435 L16.3430357,6.27230435 L16.3430357,9.93691304 Z M10.7244643,15.4338261 L14.3847321,15.4338261 L14.3847321,6.2731087 L10.7244643,6.2731087 L10.7244643,15.4338261 Z M5.10508929,32.2760652 L8.76616071,32.2760652 L8.76616071,6.2731087 L5.10508929,6.2731087 L5.10508929,32.2760652 Z M0,9.93691304 L3.66107143,9.93691304 L3.66107143,6.27230435 L0,6.27230435 L0,9.93691304 Z M21.4489286,15.4338261 L25.11,15.4338261 L25.11,11.7692174 L21.4489286,11.7692174 L21.4489286,15.4338261 Z M16.3430357,32.2760652 L20.0041071,32.2760652 L20.0041071,11.7700217 L16.3430357,11.7700217 L16.3430357,32.2760652 Z M0,26.1678478 L3.66107143,26.1678478 L3.66107143,11.7692174 L0,11.7692174 L0,26.1678478 Z M21.4489286,26.1678478 L25.11,26.1678478 L25.11,17.2966957 L21.4489286,17.2966957 L21.4489286,26.1678478 Z M10.7244643,20.9621087 L14.3847321,20.9621087 L14.3847321,17.2975 L10.7244643,17.2975 L10.7244643,20.9621087 Z M10.7244643,37 L14.3847321,37 L14.3847321,22.4726739 L10.7244643,22.4726739 L10.7244643,37 Z" id="Fill-47"></path>
                            </g>
                        </g>
                    </g>
                </g>
            </g>
        </g>
    </g>
</svg>
