<?xml version="1.0" encoding="utf-8"?>
<!-- Generator: Adobe Illustrator 24.2.1, SVG Export Plug-In . SVG Version: 6.00 Build 0)  -->
<svg version="1.1" id="Layer_1" xmlns="http://www.w3.org/2000/svg" xmlns:xlink="http://www.w3.org/1999/xlink" x="0px" y="0px" viewBox="0 0 161 42" style="enable-background:new 0 0 161 42;" xml:space="preserve" aria-label="logo-corvin">
<style type="text/css">
	.st0{fill-rule:evenodd;clip-rule:evenodd;fill:url(#Fill-47_1_);}
	.st1{enable-background:new    ;}
	.st2{fill:#FFFFFF;}
</style>
<g id="Symbols">
	<g id="corvin-main-menu" transform="translate(-27.000000, -22.000000)">
		<g id="Group-6" transform="translate(27.000000, 22.744826)">
			
				<linearGradient id="Fill-47_1_" gradientUnits="userSpaceOnUse" x1="-126.7431" y1="310.4181" x2="-125.7431" y2="310.4181" gradientTransform="matrix(25.11 0 0 -36.2552 3182.52 11275.3877)">
				<stop  offset="0" style="stop-color:#7C59A4"/>
				<stop  offset="0.5244" style="stop-color:#647ABA"/>
				<stop  offset="1" style="stop-color:#3BC5F3"/>
			</linearGradient>
			<path id="Fill-47" class="st0" d="M21.4,6.7h3.7V3h-3.7V6.7z M10.7,6.7h3.7V3h-3.7V6.7z M0,6.7h3.7V3H0V6.7z M21.4,12.2h3.7V8.5
				h-3.7V12.2z M16.3,12.2H20V8.5h-3.7V12.2z M10.7,17.7h3.7V8.5h-3.7V17.7z M5.1,34.5h3.7v-26H5.1V34.5z M0,12.2h3.7V8.5H0V12.2z
				 M21.4,17.7h3.7V14h-3.7V17.7z M16.3,34.5H20V14h-3.7V34.5z M0,28.4h3.7V14H0V28.4z M21.4,28.4h3.7v-8.9h-3.7V28.4z M10.7,23.2
				h3.7v-3.7h-3.7V23.2z M10.7,39.3h3.7V24.7h-3.7V39.3z"/>
			<g class="st1">
				<path class="st2" d="M46.5,5.7c-2.2,0-4,1.7-4,3.9c0,2.2,1.8,4,4,4c1.1,0,2.3-0.5,3.1-1.3l1.1,1.2c-1.1,1.1-2.8,1.8-4.3,1.8
					c-3.3,0-5.8-2.5-5.8-5.7c0-3.2,2.6-5.6,5.9-5.6c1.6,0,3.2,0.7,4.3,1.7l-1.1,1.4C48.8,6.2,47.6,5.7,46.5,5.7z"/>
				<path class="st2" d="M63.3,9.7c0,3.2-2.6,5.7-5.9,5.7c-3.3,0-5.9-2.5-5.9-5.7C51.5,6.4,54,4,57.4,4C60.7,4,63.3,6.5,63.3,9.7z
					 M53.4,9.7c0,2.2,1.8,4,4,4s4-1.8,4-4c0-2.2-1.8-4-4-4C55.2,5.7,53.4,7.4,53.4,9.7z"/>
				<path class="st2" d="M67.2,4.1l6,8.1V4.1h1.9v11.2h-1.9l-6-8v8h-1.9V4.1H67.2z"/>
				<path class="st2" d="M85.5,4.1l0,1.7h-5.6V9H85v1.7h-5.1v4.6H78V4.1H85.5z"/>
				<path class="st2" d="M89.1,4.1v11.2h-1.9V4.1H89.1z"/>
				<path class="st2" d="M102.4,9.7c0,3.2-2.4,5.6-5.8,5.6H92V4.1h4.6C100,4.1,102.4,6.4,102.4,9.7z M100.5,9.7
					c0-2.3-1.7-3.9-3.9-3.9h-2.7v7.8h2.8C98.9,13.6,100.5,11.9,100.5,9.7z"/>
				<path class="st2" d="M112.5,4.1v1.7h-6.1v3h5.5v1.7h-5.5v3.1h6.3v1.7h-8.2V4.1H112.5z"/>
				<path class="st2" d="M116.8,4.1l6,8.1V4.1h1.9v11.2h-1.9l-6-8v8h-1.9V4.1H116.8z"/>
				<path class="st2" d="M135.3,4.1v1.7h-3.6v9.5h-1.9V5.7h-3.5V4.1H135.3z"/>
				<path class="st2" d="M138.8,4.1v11.2h-1.9V4.1H138.8z"/>
				<path class="st2" d="M148.9,12.7h-5.7l-1.1,2.5h-2l4.9-11.2h1.9l4.9,11.2h-2L148.9,12.7z M148.2,11l-2.1-5l-2.1,5H148.2z"/>
				<path class="st2" d="M155.4,4.1v9.5h4.8v1.7h-6.7V4.1H155.4z"/>
			</g>
			<g class="st1">
				<path class="st2" d="M46.5,25.7c-2.2,0-4,1.7-4,3.9c0,2.2,1.8,4,4,4c1.1,0,2.3-0.5,3.1-1.3l1.1,1.2c-1.1,1.1-2.8,1.8-4.3,1.8
					c-3.3,0-5.8-2.5-5.8-5.7c0-3.2,2.6-5.6,5.9-5.6c1.6,0,3.2,0.7,4.3,1.7l-1.1,1.4C48.8,26.2,47.6,25.7,46.5,25.7z"/>
				<path class="st2" d="M63.3,29.7c0,3.2-2.6,5.7-5.9,5.7c-3.3,0-5.9-2.5-5.9-5.7c0-3.2,2.6-5.7,5.9-5.7
					C60.7,24,63.3,26.5,63.3,29.7z M53.4,29.7c0,2.2,1.8,4,4,4s4-1.8,4-4c0-2.2-1.8-4-4-4C55.2,25.7,53.4,27.4,53.4,29.7z"/>
				<path class="st2" d="M67.6,24.1l3.7,7.4l3.7-7.4h2.2v11.2h-1.7l0-8.4l-3.5,7.2h-1.2l-3.5-7.2v8.4h-1.8V24.1H67.6z"/>
				<path class="st2" d="M89,27.9c0,2.5-1.6,4-4.4,4H82v3.4h-1.9V24.1h4.5C87.4,24.1,89,25.4,89,27.9z M87.2,27.9
					c0-1.5-1-2.2-2.7-2.2H82v4.4h2.5C86.3,30.2,87.2,29.4,87.2,27.9z"/>
				<path class="st2" d="M95.6,33.6c1.8,0,3-1.1,3-3v-6.6h1.9v6.6c0,2.9-1.8,4.7-4.9,4.7s-4.9-1.8-4.9-4.7v-6.6h1.9v6.6
					C92.6,32.5,93.7,33.6,95.6,33.6z"/>
				<path class="st2" d="M110.8,24.1v1.7h-3.6v9.5h-1.9v-9.5h-3.5v-1.7H110.8z"/>
				<path class="st2" d="M114.3,24.1v11.2h-1.9V24.1H114.3z"/>
				<path class="st2" d="M119.1,24.1l6,8.1v-8.1h1.9v11.2h-1.9l-6-8v8h-1.9V24.1H119.1z"/>
				<path class="st2" d="M137.6,29.7h1.6v4.1c-1.1,0.9-2.8,1.5-4.4,1.5c-3.3,0-5.9-2.5-5.9-5.7s2.6-5.7,6-5.7c1.6,0,3.2,0.6,4.3,1.6
					l-1.1,1.4c-0.9-0.8-2.1-1.3-3.2-1.3c-2.3,0-4.1,1.7-4.1,4c0,2.2,1.8,4,4.1,4c0.8,0,1.8-0.3,2.6-0.8V29.7z"/>
			</g>
		</g>
	</g>
</g>
</svg>
