<?xml version="1.0" encoding="utf-8"?>
<!-- Generator: Adobe Illustrator 24.0.3, SVG Export Plug-In . SVG Version: 6.00 Build 0)  -->
<svg version="1.1" id="Layer_1" xmlns="http://www.w3.org/2000/svg" xmlns:xlink="http://www.w3.org/1999/xlink" x="0px" y="0px" viewBox="0 0 355.6 74.7" style="enable-background:new 0 0 355.6 74.7;" xml:space="preserve" aria-label="logo-em-inverted">
<style type="text/css">
	.st0{fill:#FFFFFF;}
	.st1{fill:#3DC1F0;}
	.st2{fill:#519DD5;}
	.st3{fill:#6E7FBB;}
	.st4{fill:#795DA7;}
	.st5{fill:#6D6DB2;}
</style>
<g>
	<g>
		<g>
			<g>
				<path class="st0" d="M80.8,11.1l0,4.1H70.1v5.4h7.5v4.1h-7.5v8.2h-4.9V11.1L80.8,11.1L80.8,11.1z"/>
				<path class="st0" d="M97.9,24.5c0,5.1-3.6,8.5-8.9,8.5c-5.4,0-9-3.5-9-8.5c0-5.1,3.6-8.5,9-8.5C94.3,16,97.9,19.3,97.9,24.5z
					 M84.8,24.5c0,2.7,1.7,4.6,4.2,4.6c2.4,0,4.2-1.9,4.2-4.6s-1.7-4.6-4.2-4.6C86.5,19.9,84.8,21.8,84.8,24.5z"/>
				<path class="st0" d="M110.7,15.9v4.2c-3.4-0.3-5.5,1.8-5.5,4.6v8.1h-4.8V16.1h4.8v3C106.3,17.1,108.2,16,110.7,15.9z"/>
				<path class="st0" d="M124.5,31.9c-1.3,0.7-2.8,1.1-4.4,1.1c-3,0-5.2-1.7-5.2-5.2v-7.7h-2.3v-4.2h2.3v-3.7h4.8v3.7h4.5v4.2h-4.5
					v6.9c0,1.4,0.6,2,1.6,1.9c0.6,0,1.4-0.2,2.2-0.6L124.5,31.9z"/>
				<path class="st0" d="M136.5,32.8v-2c-1.1,1.4-2.9,2.2-5.2,2.2c-3.6,0-5.7-2.2-5.7-5.2c0-3.1,2.3-5,6.4-5h4.6v-0.3
					c0-1.8-1.2-2.8-3.5-2.8c-1.5,0-3.2,0.5-5,1.5l-1.5-3.3c2.5-1.3,4.6-1.9,7.6-1.9c4.5,0,7,2.2,7.1,6l0,10.9L136.5,32.8L136.5,32.8
					z M136.4,27.1v-1.5h-3.8c-1.8,0-2.7,0.6-2.7,1.9c0,1.3,1,2.1,2.6,2.1C134.6,29.7,136.1,28.6,136.4,27.1z"/>
				<path class="st0" d="M160.8,22.3v10.5H156v-9.1c0-2.1-1.3-3.4-3.3-3.4c-2.4,0-3.8,1.8-3.8,4.3v8.2h-4.8V16.1h4.8V19
					c1.2-2.1,3.2-3.1,5.8-3.1C158.4,15.9,160.8,18.4,160.8,22.3z"/>
				<path class="st0" d="M169,16.1v16.7h-4.8V16.1H169z M168.9,11.4c0,1.4-1,2.4-2.3,2.4c-1.4,0-2.3-1-2.3-2.4c0-1.4,1-2.4,2.3-2.4
					C167.9,9,168.9,10,168.9,11.4z"/>
				<path class="st0" d="M176.5,16.1l3.1,5.1l3.3-5.1h5.2l-5.3,8.1l5.7,8.6h-5.5l-3.3-5.5l-3.7,5.5h-5.3l5.8-8.5l-5.4-8.2
					L176.5,16.1z"/>
				<g>
					<path class="st0" d="M193.8,18c0,1.3-1,2.3-2.3,2.3s-2.3-1.1-2.3-2.3c0-1.3,1-2.3,2.3-2.3C192.8,15.6,193.8,16.7,193.8,18z
						 M193.4,18c0-1-0.8-1.9-1.9-1.9c-1.1,0-1.9,0.9-1.9,1.9c0,1,0.8,1.9,1.9,1.9C192.6,19.9,193.4,19,193.4,18z M192,18.3l0.5,0.8
						H192l-0.4-0.7h-0.1H191V19h-0.4v-2.3h1c0.6,0,0.9,0.3,0.9,0.8C192.5,17.9,192.3,18.1,192,18.3z M191,18h0.5
						c0.3,0,0.5-0.2,0.5-0.5c0-0.3-0.2-0.4-0.5-0.4H191V18z"/>
				</g>
			</g>
		</g>
		<g>
			<path class="st0" d="M79.5,43.8v3h-11v5.5h9.8v3h-9.8v5.5h11.3v3H65.2V43.8H79.5z"/>
			<path class="st0" d="M86.9,43.8l10.8,14.5V43.8h3.3v20.1h-3.3L87,49.5v14.4h-3.4V43.8H86.9z"/>
			<path class="st0" d="M115.1,46.7c-4,0-7.2,3.1-7.2,7.1s3.2,7.1,7.2,7.1c2,0,4.1-0.9,5.6-2.4l2,2.2c-2,2-4.9,3.3-7.8,3.3
				c-5.9,0-10.5-4.5-10.5-10.2c0-5.7,4.6-10.1,10.6-10.1c2.8,0,5.7,1.2,7.6,3.1l-2,2.5C119.3,47.7,117.2,46.7,115.1,46.7z"/>
			<path class="st0" d="M129.1,43.8v17h8.7v3.1h-12.1V43.8H129.1z"/>
			<path class="st0" d="M154.7,59.4h-10.1l-1.9,4.5h-3.5l8.9-20.1h3.5l8.8,20.1h-3.6L154.7,59.4z M153.4,56.4l-3.8-8.9l-3.8,8.9
				H153.4z"/>
			<path class="st0" d="M162.2,43.8l6.2,16.4l6.3-16.4h3.5l-8.1,20.1h-3.5l-8-20.1H162.2z"/>
			<path class="st0" d="M194.9,43.8v3h-11v5.5h9.8v3h-9.8v5.5h11.3v3h-14.7V43.8H194.9z"/>
			<path class="st0" d="M212.3,43.8l6.6,13.4l6.6-13.4h4v20.1h-3.1l0-15L220,61.8h-2.2l-6.4-12.9v15h-3.2V43.8H212.3z"/>
			<path class="st0" d="M247.5,59.4h-10.1l-1.9,4.5h-3.5l8.9-20.1h3.5l8.8,20.1h-3.6L247.5,59.4z M246.2,56.4l-3.8-8.9l-3.8,8.9
				H246.2z"/>
			<path class="st0" d="M258.7,43.8l10.8,14.5V43.8h3.3v20.1h-3.3l-10.7-14.4v14.4h-3.4V43.8H258.7z"/>
			<path class="st0" d="M290.7,59.4h-10.1l-1.9,4.5h-3.5l8.9-20.1h3.5l8.8,20.1h-3.6L290.7,59.4z M289.4,56.4l-3.8-8.9l-3.8,8.9
				H289.4z"/>
			<path class="st0" d="M311.6,54h3v7.4c-2,1.6-5.1,2.6-7.8,2.6c-6,0-10.6-4.5-10.6-10.2s4.7-10.1,10.8-10.1c2.9,0,5.7,1.1,7.7,2.8
				l-1.9,2.5c-1.6-1.4-3.7-2.3-5.8-2.3c-4.1,0-7.3,3.1-7.3,7.1c0,4,3.2,7.2,7.4,7.2c1.5,0,3.2-0.5,4.6-1.4V54z"/>
			<path class="st0" d="M333.3,43.8v3h-11v5.5h9.8v3h-9.8v5.5h11.3v3h-14.7V43.8H333.3z"/>
			<path class="st0" d="M350.1,63.9l-3.7-6.1c-0.3,0-0.6,0-0.9,0h-4.8v6.1h-3.4V43.8h8.2c5.1,0,8.1,2.5,8.1,6.9
				c0,3.2-1.5,5.5-4.2,6.5l4.5,6.7H350.1z M345.5,54.8c3.1,0,4.9-1.3,4.9-4.1c0-2.6-1.8-3.9-4.9-3.9h-4.8v8H345.5z"/>
		</g>
	</g>
</g>
<g>
	<rect x="44.2" y="11.4" class="st1" width="7.6" height="7.6"/>
	<rect x="44.2" y="0" class="st1" width="7.6" height="7.6"/>
	<rect x="44.2" y="22.7" class="st1" width="7.6" height="7.6"/>
	<rect x="44.2" y="34.1" class="st1" width="7.6" height="18.3"/>
	<rect x="33.7" y="11.4" class="st2" width="7.6" height="7.6"/>
	<rect x="33.7" y="22.7" class="st2" width="7.6" height="42.2"/>
	<rect x="22.1" y="34.1" class="st3" width="7.6" height="7.6"/>
	<rect x="22.1" y="0" class="st3" width="7.6" height="7.6"/>
	<rect x="22.1" y="11.4" class="st3" width="7.6" height="18.9"/>
	<rect x="22.1" y="44.8" class="st3" width="7.6" height="29.9"/>
	<rect y="11.4" class="st4" width="7.6" height="7.6"/>
	<rect y="0" class="st4" width="7.6" height="7.6"/>
	<rect y="22.7" class="st4" width="7.6" height="29.7"/>
	<rect x="10.6" y="11.4" class="st5" width="7.6" height="53.6"/>
</g>
</svg>
