<svg xmlns="http://www.w3.org/2000/svg" width="18" height="18" fill="currentColor" viewBox="0 0 18 18">
  <path d="M15.094 14.756c1.078 0 1.89-1.021 1.89-2.372v-.11H17V3.378C17 2.026 16.189 1 15.11 1H2.89C1.81 1 1 2.02 1 3.378v9.006c0 1.351.811 2.372 1.89 2.372h5.712v1.34H5.188c-.185 0-.398.237-.398.452 0 .214.213.452.398.452h7.619c.185 0 .397-.238.397-.452 0-.215-.212-.453-.397-.453H9.392v-1.34h5.713-.011ZM1.768 3.262c0-.69.474-1.456 1.11-1.456H15.1c.61 0 1.111.655 1.111 1.456v7.313H1.768V3.262Zm1.11 10.577c-.642 0-1.203-.678-1.203-1.455v-.893H16.21v.893c.06.354-.049.742-.283 1.026-.207.267-.517.43-.828.43H2.88Z"/>
</svg>
