<svg xmlns="http://www.w3.org/2000/svg" width="18" height="18" fill="currentColor" viewBox="0 0 18 18">
  <g clip-path="url(#a)">
    <path d="m17.035 8.534-4.464.01c-.18 0-.34.095-.416.249l-1.37 2.737L7.63 5.222c-.08-.16-.267-.219-.415-.219-.149 0-.337.057-.416.217L5.142 8.534H.965a.467.467 0 0 0 0 .933h4.202l.256-.01a.459.459 0 0 0 .422-.248l1.37-2.74 3.155 6.309a.463.463 0 0 0 .832 0l1.656-3.313h4.177a.467.467 0 0 0 0-.932v.001Z"/>
    <path d="M16.803 5.577a.462.462 0 0 0-.025-.355A8.456 8.456 0 0 0 9.163.5 8.453 8.453 0 0 0 1.55 5.22a.467.467 0 0 0 .564.65.474.474 0 0 0 .27-.234 7.526 7.526 0 0 1 6.78-4.205 7.53 7.53 0 0 1 6.783 4.205.464.464 0 0 0 .625.21.458.458 0 0 0 .234-.267l-.002-.002Zm-.233 6.576a.462.462 0 0 0-.623.209 7.529 7.529 0 0 1-6.783 4.205 7.526 7.526 0 0 1-6.781-4.205.463.463 0 0 0-.623-.21.46.46 0 0 0-.236.27.46.46 0 0 0 .025.356A8.456 8.456 0 0 0 9.164 17.5a8.45 8.45 0 0 0 7.615-4.722.467.467 0 0 0-.21-.625Z"/>
  </g>
  <defs>
    <clipPath id="a">
      <path d="M0 0h18v18H0z"/>
    </clipPath>
  </defs>
</svg>
