<svg xmlns="http://www.w3.org/2000/svg" width="18" height="18" fill="currentColor" viewBox="0 0 18 18">
  <path fill-rule="evenodd" d="M13.23.46V.42l.02-.02c.03-.1 0-.21-.06-.29a.299.299 0 0 0-.23-.11h-.02c-.04 0-3.83.24-6.92 5.26l-.05.08s-.04.06-.06.1c-.04.07-.06.14-.04.2l.27 1.64h-.99c-.12 0-.23.08-.29.19-.5 1.13-.79 2.23-.86 3.25 0 .1.03.18.09.24l.61.6h-.38c-.07.01-.15.06-.21.12-.05.06-.08.15-.06.24.18 1.2.8 2.02 1.74 2.31h.14v.17l-.06.55-.25 2.39c0 .08.02.17.07.23s.13.1.21.11h.04c.16 0 .3-.12.31-.28l.28-2.71c0-.07.02-.14.03-.21v-.14h.16c2.1-.03 3.39-1.38 4.04-4.25l.09-.39c.05-.21.11-.48.18-.75.02-.09 0-.18-.05-.26a.302.302 0 0 0-.08-.08l-.18-.16.38-.22c.07-.04.13-.11.14-.18.49-1.97 1.16-4.49 1.94-7.3h-.03l.04-.13c.02-.07.04-.13.05-.17l-.01.01ZM6.05 13.45v.21l-.21-.08c-.47-.19-.82-.58-1.03-1.18l-.08-.21h.7a.307.307 0 0 0 .22-.53l-1.01-1.04v-.07c.08-.77.3-1.6.67-2.55l.05-.1H6.5c.09 0 .17-.04.23-.11.06-.06.08-.15.07-.25l-.3-1.87.04-.09c1.51-2.45 3.17-3.67 4.29-4.26.24-.12.48-.23.75-.34l.62-.24-.44.49a25.226 25.226 0 0 0-3.92 6.21 25.1 25.1 0 0 0-1.79 6.02v-.01Zm6.02-11.17c-.43 1.57-.97 3.61-1.41 5.39v.11l-.09.03-1.24.71c-.12.07-.18.21-.15.34.03.13.14.23.28.24l.84.06-.05.19c-.01.06-.03.13-.04.2l-.1.41c-.57 2.54-1.59 3.69-3.29 3.76h-.19l.03-.18c.69-4.17 2.47-8.11 5.14-11.39l.47-.57-.18.71-.02-.01Z" clip-rule="evenodd"/>
</svg>
