<svg width="18" height="18" viewBox="0 0 18 18" fill="currentColor" xmlns="http://www.w3.org/2000/svg">
<g clip-path="url(#clip0_1_2)">
<path d="M4.2721 2.13576C4.44334 1.86761 4.82375 1.77535 5.1207 1.92996L13.5 6.29341C13.7969 6.44804 13.8991 6.79153 13.7279 7.05969C13.5566 7.32781 13.1762 7.41902 12.8793 7.2644L4.50001 2.90204C4.20306 2.74741 4.10089 2.4039 4.2721 2.13576Z" />
<path d="M16.7586 5.60373C16.7584 5.4073 16.7011 5.21436 16.5925 5.04434L16.5017 4.92173C16.4027 4.80559 16.2793 4.70753 16.1379 4.63383L9.62311 1.27204L9.62069 1.27094C9.432 1.17259 9.21786 1.12096 9 1.12096C8.78214 1.12096 8.568 1.17259 8.37931 1.27094L8.37689 1.27204L1.86085 4.63273L1.86207 4.63383C1.67353 4.73213 1.51641 4.87416 1.40746 5.04434C1.29876 5.21438 1.2416 5.40739 1.24138 5.60373V12.3284L1.25229 12.4751C1.27366 12.62 1.32598 12.7604 1.40746 12.8878C1.51639 13.058 1.67478 13.2 1.86329 13.2983L8.37689 16.6601L8.37931 16.6612C8.56794 16.7595 8.78213 16.8112 9 16.8112C9.21787 16.8112 9.43206 16.7595 9.62069 16.6612L9.62311 16.6601L16.1354 13.2983C16.324 13.2 16.4835 13.0581 16.5925 12.8878C16.7011 12.7179 16.7584 12.5249 16.7586 12.3284V5.60373ZM18 12.3295C17.9995 12.7226 17.8844 13.109 17.6666 13.4493C17.4487 13.7895 17.1355 14.0717 16.7586 14.2682L16.7561 14.2704L10.239 17.6333L10.2377 17.6322C9.86101 17.828 9.43461 17.9322 9 17.9322C8.56505 17.9322 8.138 17.8284 7.76104 17.6322V17.6333L1.2438 14.2704L1.24138 14.2682C0.864549 14.0717 0.551217 13.7897 0.333379 13.4493C0.115486 13.109 0.000460125 12.7227 0 12.3295V5.60264L0.00606142 5.45595C0.0312793 5.11386 0.142648 4.78071 0.333379 4.48276C0.551263 4.14244 0.864392 3.85939 1.24138 3.66284L1.2438 3.66174L7.76104 0.298851C8.13785 0.102944 8.56517 0 9 0C9.43483 0 9.86215 0.102944 10.239 0.298851L16.7561 3.66174L16.7586 3.66284C17.1356 3.85941 17.4487 4.14249 17.6666 4.48276C17.8844 4.82315 17.9995 5.20959 18 5.60264V12.3295Z" />
<path d="M16.818 4.24303C17.1148 4.08803 17.4938 4.1798 17.6654 4.44774C17.8369 4.71554 17.7363 5.05784 17.4399 5.21293L9.31156 9.45924C9.11932 9.55955 8.88184 9.55963 8.68965 9.45924L0.562497 5.21293C0.265847 5.05797 0.164343 4.71565 0.3358 4.44774C0.507401 4.17986 0.886493 4.0882 1.18319 4.24303L9 8.32514L16.818 4.24303Z" />
<path d="M8.37931 17.4395V8.96553C8.37931 8.65597 8.65721 8.40504 9 8.40504C9.34279 8.40504 9.62069 8.65597 9.62069 8.96553V17.4395C9.62069 17.7491 9.34279 18 9 18C8.65721 18 8.37931 17.7491 8.37931 17.4395Z" />
</g>
</svg>
