<svg width="15" height="17" viewBox="0 0 15 17" fill="none" xmlns="http://www.w3.org/2000/svg">
<path d="M3.44141 1.90528C3.57936 1.66607 3.8858 1.58376 4.12501 1.72169L10.875 5.61427C11.1142 5.75222 11.1965 6.05864 11.0586 6.29786C10.9206 6.53705 10.6142 6.61842 10.375 6.48048L3.62501 2.58887C3.3858 2.45093 3.30349 2.14449 3.44141 1.90528Z" fill="currentColor"/>
<path d="M13.5 4.99902C13.4998 4.82379 13.4537 4.65167 13.3662 4.5L13.293 4.39062C13.2133 4.28701 13.1139 4.19953 13 4.13379V4.13281L7.75195 1.13477L7.75 1.13379C7.598 1.04605 7.4255 1 7.25 1C7.0745 1 6.902 1.04605 6.75 1.13379L6.74805 1.13477L1.49902 4.13281L1.5 4.13379C1.34812 4.22148 1.22155 4.34818 1.13379 4.5C1.04622 4.65169 1.00018 4.82387 1 4.99902V10.998L1.00879 11.1289C1.026 11.2582 1.06815 11.3834 1.13379 11.4971C1.22154 11.6489 1.34913 11.7756 1.50098 11.8633L6.74805 14.8623L6.75 14.8633C6.90195 14.951 7.07449 14.9971 7.25 14.9971C7.42551 14.9971 7.59805 14.951 7.75 14.8633L7.75195 14.8623L12.998 11.8633C13.1499 11.7756 13.2784 11.649 13.3662 11.4971C13.4537 11.3455 13.4998 11.1733 13.5 10.998V4.99902ZM14.5 10.999C14.4996 11.3497 14.4069 11.6944 14.2314 11.998C14.0559 12.3015 13.8036 12.5532 13.5 12.7285L13.498 12.7305L8.24805 15.7305L8.24707 15.7295C7.94359 15.9042 7.6001 15.9971 7.25 15.9971C6.89962 15.9971 6.55561 15.9045 6.25195 15.7295V15.7305L1.00195 12.7305L1 12.7285C0.696442 12.5532 0.444036 12.3016 0.268555 11.998C0.09303 11.6944 0.000370656 11.3498 0 10.999V4.99805L0.00488281 4.86719C0.0251972 4.56202 0.114911 4.26482 0.268555 3.99902C0.444073 3.69542 0.696316 3.44292 1 3.26758L1.00195 3.2666L6.25195 0.266602C6.55549 0.0918348 6.89972 0 7.25 0C7.60028 0 7.94451 0.0918348 8.24805 0.266602L13.498 3.2666L13.5 3.26758C13.8037 3.44294 14.0559 3.69547 14.2314 3.99902C14.4069 4.30268 14.4996 4.64742 14.5 4.99805V10.999Z" fill="currentColor"/>
<path d="M13.5478 3.78516C13.7869 3.64689 14.0922 3.72875 14.2305 3.96778C14.3686 4.20668 14.2876 4.51204 14.0488 4.6504L7.50098 8.43848C7.34612 8.52797 7.15482 8.52804 7 8.43848L0.453124 4.6504C0.214156 4.51216 0.132389 4.20678 0.270507 3.96778C0.408741 3.72881 0.714121 3.64704 0.953124 3.78516L7.25 7.42676L13.5478 3.78516Z" fill="currentColor"/>
<path d="M6.75 15.5576V7.99805C6.75 7.7219 6.97386 7.49805 7.25 7.49805C7.52614 7.49805 7.75 7.7219 7.75 7.99805V15.5576C7.75 15.8338 7.52614 16.0576 7.25 16.0576C6.97386 16.0576 6.75 15.8338 6.75 15.5576Z" fill="currentColor"/>
</svg>
