<svg xmlns="http://www.w3.org/2000/svg" width="18" height="18" fill="currentColor" viewBox="0 0 18 18">
  <g clip-path="url(#a)">
    <path fill-rule="evenodd" d="M5.76.26H3.51c-.24 0-.37.14-.37.37v1.13H.63c-.24 0-.37.14-.37.37v15.25c0 .24.14.37.37.37h16.75c.24 0 .37-.14.37-.37V2.14c0-.24-.14-.37-.37-.37h-2.51V.63c0-.24-.13-.37-.37-.37h-2.25c-.24 0-.37.14-.37.37v1.13H6.13V.63c0-.24-.14-.37-.37-.37Zm-1.88.76h1.51v.75H3.88v-.75Zm0 1.49h1.51v.75H3.88v-.75Zm13.13 14.5H1V6.13h16.01v10.88ZM12.63 1.02h1.51v.75h-1.51v-.75Zm0 1.49h1.51v.75h-1.51v-.75Zm-.76 0v1.13c0 .24.13.37.37.37h2.25c.24 0 .37-.14.37-.37V2.51h2.12v2.88h-16V2.51h2.15v1.13c0 .24.14.37.37.37h2.25c.24 0 .37-.14.37-.37V2.51h5.75Z" clip-rule="evenodd"/>
  </g>
  <defs>
    <clipPath id="a">
      <path d="M0 0h18v18H0z"/>
    </clipPath>
  </defs>
</svg>
