<svg xmlns="http://www.w3.org/2000/svg" width="18" height="18" fill="currentColor" viewBox="0 0 18 18">
  <path d="M10.47 7.94c-.38 0-.69.31-.69.69 0 .38.31.69.69.69.38 0 .69-.31.69-.69 0-.38-.31-.69-.69-.69Zm0 .95c-.16 0-.28-.11-.28-.26 0-.15.13-.28.28-.28.15 0 .28.13.28.28 0 .15-.12.26-.28.26Zm-7.78 6.62a.21.21 0 1 0 0-.42.21.21 0 0 0 0 .42Zm12.23-7.57c-.38 0-.69.31-.69.69 0 .38.31.69.69.69.38 0 .69-.31.69-.69 0-.38-.31-.69-.69-.69Zm0 .95c-.16 0-.28-.11-.28-.26 0-.15.13-.28.28-.28.15 0 .28.12.28.28 0 .15-.12.26-.28.26ZM1.21 15.51a.21.21 0 1 0 0-.42.21.21 0 0 0 0 .42Zm11.48-7.57c-.38 0-.69.31-.69.69 0 .38.31.69.69.69.38 0 .69-.31.69-.69 0-.38-.31-.69-.69-.69Zm0 .95c-.16 0-.28-.11-.28-.26 0-.15.13-.28.28-.28.15 0 .28.13.28.28 0 .15-.12.26-.28.26Zm2.6 6.62a.21.21 0 1 0 0-.42.21.21 0 0 0 0 .42Zm1.47 0a.21.21 0 1 0 0-.42.21.21 0 0 0 0 .42Z"/>
  <path d="M17.82 9.36v-.1l-.02-2.93c0-.02-.01-.05-.02-.06l-.02-.03s-.04-.06-.06-.07l-.02-.02-4.46-3.72s-.11-.04-.16-.04h-8.2s-.1.04-.15.07L.28 6.16s-.05.06-.07.08v.02s-.02.03-.03.04v.05s-.01.03-.01.04v3.08c.05.95.83 1.69 1.79 1.69h7.09v3.81H4.12c-.14.02-.26.16-.26.32 0 .18.14.32.32.32h9.68c.15-.03.26-.16.26-.32 0-.18-.14-.32-.32-.32H9.67v-3.81h6.46c.95-.06 1.69-.85 1.69-1.8ZM5.03 3.02h7.93l3.68 3.07H1.34l3.69-3.07ZM17.2 9.46c-.05.6-.56 1.07-1.16 1.07H1.86c-.6-.05-1.07-.56-1.07-1.16V6.73H17.2v2.73Z"/>
  <path d="M2.69 7.67a.96.96 0 1 0 .001 1.921.96.96 0 0 0 0-1.92Zm0 1.48c-.29 0-.52-.23-.52-.52 0-.29.23-.52.52-.52.29 0 .52.23.52.52 0 .29-.23.52-.52.52Z"/>
</svg>
