<svg xmlns="http://www.w3.org/2000/svg" width="18" height="18" fill="currentColor" viewBox="0 0 18 18">
  <path fill-rule="evenodd" d="M15.57 4.7s-.07-.07-.09-.14L11.01.19s-.08-.06-.11-.06H4.83c-.22 0-.36.14-.36.36v1.89H2.68c-.22 0-.36.14-.36.36v14.77c0 .22.14.36.36.36h10.37c.22 0 .36-.14.36-.36v-1.89h1.89c.22 0 .36-.14.36-.36V4.94c-.08-.08-.1-.12-.1-.25l.01.01Zm-4.4-3.34 3.17 3.17h-3.17V1.36Zm1.52 15.69H3.05V3.01h1.52v12.16c0 .22.14.36.36.36h7.76v1.52Zm2.05-2.15H5.2V.86h5.14V4.9c0 .22.14.36.36.36h4.04v9.64Z" clip-rule="evenodd"/>
</svg>
