<svg xmlns="http://www.w3.org/2000/svg" width="18" height="18" fill="currentColor" viewBox="0 0 18 18">
  <path d="M12.405 5.484c0 1.318-.782 2.484-1.984 3.024l.304.752a.4.4 0 0 1 0 .3l-.42 1.035.42 1.036a.4.4 0 0 1 0 .3l-.42 1.036.42 1.035c.04.1.039.212-.005.312l-.765 1.726-.012.024c-.206.39-.614.634-1.066.634-.66 0-1.198-.523-1.198-1.165V8.57c-1.286-.507-2.13-1.712-2.13-3.085 0-1.838 1.537-3.333 3.427-3.333 1.89 0 3.428 1.495 3.428 3.333v-.002Zm-.842 0c0-1.387-1.16-2.515-2.587-2.515-1.426 0-2.586 1.128-2.586 2.515 0 1.114.736 2.081 1.832 2.405a.411.411 0 0 1 .299.391v7.252c0 .191.16.346.356.346.13 0 .248-.068.31-.178l.69-1.556-.416-1.028a.398.398 0 0 1 0-.3l.42-1.036-.42-1.035a.398.398 0 0 1 0-.3l.42-1.036-.4-.985a.4.4 0 0 1 .013-.326.418.418 0 0 1 .254-.215c1.085-.329 1.815-1.293 1.815-2.4Zm-1.49-.657c0 .588-.492 1.066-1.097 1.066-.604 0-1.096-.478-1.096-1.066 0-.588.492-1.066 1.096-1.066.605 0 1.097.478 1.097 1.066ZM0 8.355h.43c.888 0 1.332-.458 1.332-1.372 0-.386-.044-.784-.132-1.193l-.166-.742a6.448 6.448 0 0 1-.167-1.432c0-.755.28-1.366.837-1.832.558-.466 1.326-.728 2.301-.784v1.261H4.19c-.398 0-.728.101-.99.303-.263.201-.395.453-.395.754 0 .137.038.407.114.81l.15.87c.064.374.096.82.096 1.337 0 1.063-.43 1.946-1.289 2.651.859.71 1.289 1.6 1.289 2.667 0 .512-.032.955-.097 1.33l-.149.87c-.076.403-.114.675-.114.818 0 .295.133.543.399.745.266.201.595.303.986.303h.246v1.261c-.982-.057-1.75-.32-2.306-.788-.555-.47-.832-1.082-.832-1.837 0-.466.055-.94.166-1.424l.167-.741a5.81 5.81 0 0 0 .131-1.21c0-.909-.444-1.364-1.332-1.364H0v-1.26Zm17.9 0h-.429c-.888 0-1.332-.458-1.332-1.372 0-.386.044-.784.131-1.193l.167-.742a6.45 6.45 0 0 0 .167-1.432c0-.755-.28-1.366-.837-1.832-.558-.466-1.326-.728-2.301-.784v1.261h.245c.397 0 .728.101.99.303.263.201.395.453.395.754 0 .137-.038.407-.114.81l-.15.87a8.033 8.033 0 0 0-.096 1.337c0 1.063.43 1.946 1.289 2.651-.86.71-1.29 1.6-1.29 2.667 0 .512.033.955.098 1.33l.149.87c.076.403.114.675.114.818 0 .295-.133.543-.4.745-.265.201-.594.303-.986.303h-.245v1.261c.982-.057 1.75-.32 2.306-.788.555-.47.832-1.082.832-1.837 0-.466-.055-.94-.166-1.424l-.167-.741a5.78 5.78 0 0 1-.132-1.21c0-.909.445-1.364 1.333-1.364h.43v-1.26Z"/>
</svg>
