<svg xmlns="http://www.w3.org/2000/svg" width="18" height="18" fill="currentColor" viewBox="0 0 18 18">
  <path d="M9.38 11.413c.24-.13.39-.37.4-.65 0-.36-.26-.67-.62-.74H8.9c-.19.04-.36.14-.48.3-.12.16-.16.36-.13.55.04.22.18.42.37.53l.08.05-.46 2.43h1.44l-.44-2.43.08-.04h.02Z"/>
  <path d="M15.99 5.403h-.09c-.54 0-1.04.21-1.42.58a1.985 1.985 0 0 0 .12 2.95l.09.07-.03.04-.94 1.31a4.984 4.984 0 0 0-3.07-3.06v-2.7l.78-.36.06.08c.33.42.8.7 1.34.76.53.07 1.07-.07 1.5-.4l.07-.05c.59-.45.88-1.17.73-1.82-.17-.75-.65-1.33-1.33-1.58-.66-.24-1.38-.13-1.94.29-.5.38-.79.97-.79 1.59 0 .15.03.3.07.44l.03.11-.04.02-.97.43c-.09.04-.15.13-.15.23v2.75c-.33-.07-.67-.1-1.02-.1-.21 0-.42.04-.63.06v-.94c0-.07-.03-.15-.09-.19l-1.39-1.23.05-.1c.18-.31.28-.65.28-1 0-1.11-.91-2.01-2.04-2.01s-2.04.9-2.04 2.01c0 1.11.91 2.01 2.04 2.01.43 0 .84-.13 1.19-.39l.09-.06 1.27 1.12v.89c-.86.22-1.65.65-2.3 1.3-.44.44-.78.96-1.03 1.51l-.63-.59.06-.09c.2-.32.31-.68.31-1.04 0-.54-.21-1.04-.59-1.43-.39-.38-.9-.59-1.44-.6-.55 0-1.06.21-1.45.59-.38.42-.59.93-.59 1.46 0 .54.21 1.04.59 1.43.38.38.9.59 1.44.6.41 0 .82-.12 1.16-.36l.09-.06.83.77c-.12.43-.2.86-.2 1.32 0 1.31.53 2.58 1.47 3.49.95.93 2.2 1.45 3.53 1.45 2.77 0 5.02-2.22 5.02-4.94 0-.25-.04-.49-.07-.73l1.31-1.92.1.03c.18.06.38.09.57.09 1.13 0 2.04-.9 2.04-2.02s-.87-1.97-1.97-2.02l.02.01Zm-4.27-2.41c.07-.69.66-1.25 1.38-1.25h.05a1.385 1.385 0 0 1 1.35 1.38c0 .37-.15.72-.41.98s-.62.4-.99.4a1.386 1.386 0 0 1-1.39-1.28v-.22l.01-.01Zm-5.91 1.84c-.19.1-.41.15-.63.16-.38 0-.73-.14-1-.4l-.02-.02c-.53-.54-.53-1.41 0-1.95a1.409 1.409 0 0 1 2.4.97c0 .53-.3 1.01-.77 1.25l.02-.01Zm-2.33 3.74-.09.23a1.368 1.368 0 0 1-1.28.86c-.52 0-1.02-.29-1.27-.78-.16-.33-.18-.71-.06-1.05.26-.71 1.06-1.09 1.78-.84.35.12.63.38.79.71.14.28.17.6.1.9l.03-.03Zm5.51 7.57c-2.33 0-4.22-1.88-4.22-4.18 0-1.11.45-2.18 1.25-2.96.8-.79 1.86-1.22 2.98-1.22 2.33 0 4.22 1.88 4.23 4.18 0 2.3-1.9 4.18-4.23 4.18h-.01Zm7.82-7.64c-.25.21-.57.32-.9.32h-.14l-.03-.01c-.35-.04-.66-.21-.89-.47 0 0-.01-.02-.02-.03a1.32 1.32 0 0 1-.3-.99c.04-.36.21-.69.49-.92a1.406 1.406 0 0 1 1.96.16l.02.02c.48.58.39 1.44-.19 1.92Z"/>
</svg>
