<svg xmlns="http://www.w3.org/2000/svg" width="18" height="18" fill="currentColor" viewBox="0 0 18 18">
  <g clip-path="url(#a)">
    <path d="M16.44 3.69C16.44 1.68 12.91.1 8.4.1h-.08C3.83.11.42 1.63.38 3.65V14.3c.12 1.79 3.06 3.24 7.01 3.44v-.73c-1.67-.09-3.24-.43-4.41-.96-1.21-.53-1.87-1.2-1.87-1.88v-2.08l.26.22c1.21.98 3.35 1.64 5.86 1.79v-.73c-3.43-.23-6.12-1.46-6.12-2.82V8.46l.26.22c1.27 1.03 3.62 1.71 6.3 1.81v-.73c-1.73-.07-3.36-.4-4.61-.92C1.8 8.3 1.1 7.62 1.1 6.92V5.24l.26.22c1.39 1.13 4.09 1.83 7.05 1.83 4.51 0 8.03-1.58 8.03-3.59v-.01ZM1.11 3.68c0-1.52 3.41-2.86 7.3-2.86 3.89 0 7.31 1.34 7.31 2.87s-3.41 2.87-7.31 2.87c-3.9 0-7.3-1.35-7.3-2.88Z"/>
    <path d="M10.68 13.06c0 1.14.93 2.08 2.07 2.08 1.14 0 2.06-.89 2.06-2.08.02-.54-.18-1.05-.56-1.44-.39-.41-.94-.64-1.51-.64-1.14 0-2.07.93-2.07 2.07l.01.01Zm3.52-.01c0 .83-.61 1.47-1.42 1.48l-.04.01c-.8 0-1.46-.66-1.46-1.48s.64-1.47 1.46-1.47c.42 0 .8.16 1.07.44.26.27.4.63.38 1.01l.01.01Z"/>
    <path d="M17.6 13.64v-1.18c0-.17-.13-.3-.3-.3h-1.05v-.03c-.09-.32-.17-.56-.25-.74v-.04l.73-.73c.06-.06.09-.13.09-.21a.31.31 0 0 0-.09-.22l-1.11-1.11a.294.294 0 0 0-.22-.09c-.09 0-.16.03-.21.09l-.75.75h-.02c-.18-.09-.42-.17-.74-.26h-.03V8.52c0-.17-.13-.3-.3-.3h-1.18c-.17 0-.3.13-.3.3v1.05h-.03c-.32.09-.56.17-.74.25h-.04l-.73-.73a.288.288 0 0 0-.21-.09.31.31 0 0 0-.22.09L8.79 10.2c-.06.06-.09.13-.09.22s.03.16.09.21l.75.75v.02c-.09.18-.17.42-.26.74v.03H8.23c-.17 0-.3.13-.3.3v1.18c0 .17.13.3.3.3h1.05v.03c.09.32.17.56.25.74v.04l-.73.73c-.12.12-.12.31 0 .43l1.12 1.11c.12.11.31.12.43 0l.75-.75h.02c.18.09.42.17.74.26h.03v1.05c0 .17.13.3.3.3h1.18c.17 0 .3-.13.3-.3v-1.05h.03c.31-.09.54-.17.74-.25h.04l.73.73c.06.06.13.09.22.09s.16-.03.22-.09l1.11-1.11c.12-.12.12-.31 0-.43l-.72-.72h-.05l.02-.05c.08-.18.16-.42.25-.74v-.03h1.05c.17 0 .3-.13.3-.3h-.01Zm-.6-.29h-.97a.31.31 0 0 0-.3.23c-.15.57-.25.87-.36 1.06a.3.3 0 0 0 .02.35l.02.02.7.69-.03.02-.67.67-.02-.03-.67-.67c-.11-.1-.26-.12-.38-.04-.19.12-.51.23-1.06.36a.31.31 0 0 0-.23.3v.98h-.58v-.98a.31.31 0 0 0-.23-.3c-.57-.15-.88-.25-1.07-.36a.316.316 0 0 0-.38.04l-.69.7-.02-.03-.67-.66.69-.69c.1-.11.12-.26.04-.38-.12-.19-.23-.5-.36-1.06a.31.31 0 0 0-.3-.23H8.5v-.58h.98c.14 0 .26-.09.3-.23.15-.57.25-.87.36-1.06a.33.33 0 0 0-.04-.38l-.69-.69.69-.69.69.69c.11.1.26.12.38.04.19-.11.52-.22 1.06-.35a.31.31 0 0 0 .23-.3v-.98h.58v.98c0 .14.09.26.23.3.54.13.87.24 1.06.35.13.07.28.05.38-.04l.69-.69.69.69-.03.02-.67.67c-.1.11-.12.26-.04.38.12.18.23.5.36 1.07.04.14.16.23.3.23h.97v.58H17Z"/>
  </g>
  <defs>
    <clipPath id="a">
      <path d="M0 0h18v18H0z"/>
    </clipPath>
  </defs>
</svg>
