<svg xmlns="http://www.w3.org/2000/svg" width="18" height="18" fill="currentColor" viewBox="0 0 18 18">
  <g clip-path="url(#a)">
    <path d="M11.98 5.1c0-.24-.15-.38-.38-.38-.22 0-.38.23-.38.38v8.85c0 .24.15.38.38.38s.38-.15.38-.38V5.1Zm-2.95 0c0-.11-.22-.28-.48-.28-.14 0-.28.15-.28.28v8.85c0 .24.15.38.38.38s.38-.15.38-.38V5.1Z"/>
    <path d="M17.11 2.16h-5.13V.38c0-.24-.15-.38-.38-.38H5.7c-.24 0-.38.15-.38.38v1.88H.88c-.24 0-.38.15-.38.38s.15.38.38.38h1.49v14.37c0 .24.15.38.38.38h11.8c.24 0 .38-.15.38-.38V2.93h2.18c.24 0 .38-.15.38-.38s-.15-.38-.38-.38v-.01ZM6.08.76h5.14v1.4H6.08V.76Zm8.09 16.16H3.13V2.93h11.04v13.99Z"/>
    <path d="M6.08 5.1c0-.11-.22-.28-.48-.28-.14 0-.28.15-.28.28v8.85c0 .24.15.38.38.38s.38-.15.38-.38V5.1Z"/>
  </g>
  <defs>
    <clipPath id="a">
      <path d="M0 0h18v18H0z"/>
    </clipPath>
  </defs>
</svg>
