<svg xmlns="http://www.w3.org/2000/svg" width="18" height="18" fill="currentColor" viewBox="0 0 18 18">
  <path fill-rule="evenodd" d="M4.162 1c-.08.003-.186.105-.186.186v1.86H2.117c-.08 0-.186.102-.186.186v13.576c.003.083.107.186.186.186h.005L13.833 17c.08 0 .183-.103.186-.186v-1.871l.192.005 1.674.006c.08 0 .187-.108.186-.192h-.006V4.905a.529.529 0 0 0-.093-.197l-3.074-3.58c-.003-.003.002-.004 0-.006-.076-.083-.14-.12-.245-.122H4.162Zm.192.372h8.183v3.534c0 .207.12.186.224.186h2.938v9.467l-.18.006-1.302.006h-.192V6.963a.43.43 0 0 0-.093-.198L10.881 3.14v-.006a.243.243 0 0 0-.076-.07.3.3 0 0 0-.127-.017H4.354V1.372Zm8.555.233.332.389 2.045 2.418.256.308h-2.633V1.605ZM2.31 3.418h8.183V6.95c.003.084.107.187.185.186h2.976v9.485H2.308V3.418Zm8.555.232.33.39 2.046 2.417.256.308h-2.632V3.65Z" clip-rule="evenodd"/>
  <path d="M4.159 14.387h7.45c.079-.002.18.102.18.186s-.101.187-.18.186H4.16c-.078.002-.18-.102-.18-.186s.102-.187.18-.186Zm0-1.668h7.45c.079-.002.18.102.18.186s-.101.187-.18.186H4.16c-.078.002-.18-.102-.18-.186s.102-.187.18-.186Zm0-1.674h7.45c.079-.002.18.102.18.186s-.101.187-.18.186H4.16c-.078.002-.18-.102-.18-.186s.102-.187.18-.186Zm-.052-1.674h7.451c.078-.002.18.102.18.186s-.102.187-.18.186H4.107c-.078.002-.18-.102-.18-.186s.102-.187.18-.186Z"/>
  <path fill-rule="evenodd" d="M4.168 5.277c-.082 0-.186.104-.186.186v2.232c0 .082.104.186.186.186h2.238c.082 0 .186-.104.186-.186V5.463c0-.082-.104-.186-.186-.186H4.168Zm.186.372H6.22V7.51H4.354V5.65Z" clip-rule="evenodd"/>
</svg>
