<svg xmlns="http://www.w3.org/2000/svg" width="18" height="18" fill="currentColor" viewBox="0 0 18 18">
  <path fill-rule="evenodd" d="M18 13.5v-9A1.5 1.5 0 0 0 16.5 3h-15A1.5 1.5 0 0 0 0 4.5v9A1.5 1.5 0 0 0 1.5 15h15a1.5 1.5 0 0 0 1.5-1.5Zm-.75 0a.75.75 0 0 1-.75.75h-15a.75.75 0 0 1-.75-.75v-9a.75.75 0 0 1 .75-.75h15a.75.75 0 0 1 .75.75v9ZM2.31 6.171a.375.375 0 0 1 .519-.11L9 10.052l6.171-3.993a.375.375 0 1 1 .408.63l-6.375 4.125a.375.375 0 0 1-.408 0L2.421 6.69a.375.375 0 0 1-.11-.519Zm.501 6.155 2.625-1.5a.375.375 0 1 0-.372-.652l-2.625 1.5a.375.375 0 0 0 .372.652Zm10.125-2.152 2.625 1.5a.375.375 0 0 1-.372.652l-2.625-1.5a.375.375 0 0 1 .372-.652Z" clip-rule="evenodd"/>
</svg>
