<svg xmlns="http://www.w3.org/2000/svg" width="18" height="18" fill="currentColor" viewBox="0 0 18 18">
  <g clip-path="url(#a)">
    <path d="M17.9 8.5c-.08-.11-.17-.22-.27-.34a18.576 18.576 0 0 0-2.14-2.27c-2.17-1.92-4.32-2.9-6.4-2.9s-4.26.98-6.41 2.9c-.65.58-1.29 1.24-1.9 1.96-.19.23-.37.45-.51.65-.06.08-.11.15-.15.2l-.04.06a.42.42 0 0 0 0 .5l.03.04c.04.05.09.12.16.21.08.1.17.22.27.34a18.641 18.641 0 0 0 2.14 2.27c2.15 1.92 4.31 2.9 6.4 2.9 2.09 0 4.25-.98 6.4-2.9.65-.58 1.29-1.24 1.89-1.96.19-.22.37-.44.51-.65.08-.1.13-.17.17-.23l.02-.03a.42.42 0 0 0 0-.5s-.1-.14-.19-.26l.02.01Zm-.79.58c-.09.11-.19.23-.29.36l-.13.16c-.59.69-1.2 1.32-1.81 1.87-2 1.78-3.95 2.68-5.81 2.68-1.86 0-3.84-.9-5.81-2.68-.66-.59-1.27-1.22-1.81-1.87-.16-.19-.3-.38-.43-.54l-.04-.05.04-.05c.13-.17.27-.35.43-.54.58-.69 1.19-1.32 1.81-1.87 2-1.77 3.96-2.67 5.81-2.67 1.85 0 3.84.9 5.81 2.68.66.59 1.27 1.22 1.81 1.87l.02.03c.13.16.28.34.41.54l.03.05-.04.04v-.01Z"/>
    <path d="M9.09 5.87c-1.84 0-3.33 1.49-3.33 3.33a3.32 3.32 0 0 0 3.33 3.32c1.84 0 3.33-1.49 3.33-3.32 0-1.83-1.5-3.33-3.33-3.33Zm-.02 5.76c-1.34 0-2.43-1.09-2.43-2.43s1.09-2.43 2.43-2.43S11.5 7.86 11.5 9.2s-1.09 2.43-2.43 2.43Z"/>
  </g>
  <defs>
    <clipPath id="a">
      <path d="M0 0h18v18H0z"/>
    </clipPath>
  </defs>
</svg>
