<svg xmlns="http://www.w3.org/2000/svg" width="18" height="18" fill="currentColor" viewBox="0 0 18 18">
  <path fill-rule="evenodd" d="m15.236 7.837.12-.06a.462.462 0 0 0 .119-.596.462.462 0 0 0-.596-.119c-6.737 4.59-11.625.298-11.863.12-.179-.18-.417-.12-.596 0-.18.178-.18.417 0 .595 0 0 .179.12.417.358l-.775 1.311a.462.462 0 0 0 .12.597c.059.06.118.06.238.06.119 0 .298-.06.357-.18l.835-1.311a8.368 8.368 0 0 0 1.788.834l-.417 1.312c-.06.238.06.477.298.537h.12a.45.45 0 0 0 .417-.299l.417-1.311c.656.179 1.43.298 2.206.298v1.311c0 .239.178.418.417.418a.408.408 0 0 0 .417-.418V9.983a15.4 15.4 0 0 0 2.206-.358l.536 1.371c.06.18.239.239.418.239h.178c.239-.06.358-.298.239-.537l-.537-1.311c.716-.239 1.431-.596 2.206-1.014l.715.895c.06.119.239.179.358.179.06 0 .179 0 .238-.06.18-.12.239-.417.06-.596l-.656-.954Z" clip-rule="evenodd"/>
</svg>
