<svg width="69" height="75" viewBox="0 0 69 75" fill="none" xmlns="http://www.w3.org/2000/svg">
<g id="Graphic" clip-path="url(#clip0_3695_78801)">
<path id="Vector" d="M67.9198 68.6699L53.8798 44.4499C53.1998 43.1799 51.8498 42.4199 50.2498 42.4199C50.1698 42.4199 50.0898 42.4199 50.0198 42.4199C48.6398 42.4199 47.3998 43.1799 46.7198 44.4499L32.6798 68.6799C31.9798 69.9999 31.9798 71.5199 32.6798 72.8399C33.3598 74.1099 34.7098 74.8599 36.2998 74.8599H64.2898C65.7398 74.8599 67.0998 74.0999 67.9198 72.8199C68.6198 71.5099 68.6198 69.9899 67.9098 68.6699H67.9198ZM66.1398 71.8799C65.7498 72.5699 65.0398 72.9599 64.1998 72.9599H36.2998C35.5098 72.9599 34.8398 72.5899 34.3698 71.8899C33.9398 71.1299 33.9298 70.3699 34.3598 69.6199L48.3098 45.3899C48.6998 44.6999 49.4098 44.3099 50.2498 44.3099C51.0998 44.2099 51.8598 44.6499 52.1998 45.4099L66.1398 69.6099C66.5698 70.3599 66.5698 71.1099 66.1398 71.8599V71.8799Z" fill="currentColor"/>
<path id="Vector_2" d="M51.1998 52.9798C51.1998 52.4698 50.7598 52.0298 50.2498 52.0298C49.7398 52.0298 49.2998 52.4698 49.2998 52.9798V63.3498C49.2998 63.8598 49.7398 64.2998 50.2498 64.2998C50.7598 64.2998 51.1998 63.8598 51.1998 63.3498V52.9798Z" fill="currentColor"/>
<path id="Vector_3" d="M50.2501 66.5498C49.4701 66.5498 48.8301 67.1898 48.8301 67.9698C48.8301 68.7498 49.4701 69.3898 50.2501 69.3898C51.0301 69.3898 51.6701 68.7498 51.6701 67.9698C51.6701 67.1898 51.0501 66.5498 50.2501 66.5498Z" fill="currentColor"/>
<path id="Vector_4" d="M40.67 17H10.78C10.37 17 10 17.58 10 18.23C10 18.88 10.37 19.46 10.78 19.46H40.66C41.07 19.46 41.44 18.88 41.44 18.23C41.44 17.58 41.07 17 40.66 17H40.67Z" fill="currentColor"/>
<path id="Vector_5" d="M40.67 28H10.78C10.37 28 10 28.58 10 29.23C10 29.88 10.37 30.46 10.78 30.46H40.66C41.07 30.46 41.44 29.88 41.44 29.23C41.44 28.58 41.07 28 40.66 28H40.67Z" fill="currentColor"/>
<path id="Vector_6" d="M40.67 38H10.78C10.37 38 10 38.59 10 39.23C10 39.87 10.37 40.45 10.78 40.45H40.66C41.07 40.45 41.44 39.87 41.44 39.23C41.44 38.59 41.07 38.01 40.66 38.01L40.67 38Z" fill="currentColor"/>
<path id="Vector_7" d="M34.86 49H10.59C10.36 49 10 49.49 10 50.23C10 50.97 10.35 51.45 10.59 51.45H34.87C35.1 51.45 35.46 50.96 35.46 50.23C35.46 49.5 35.11 49.01 34.87 49.01L34.86 49Z" fill="currentColor"/>
<path id="Vector_8" d="M51.2 11.41C51.2 11.27 51.18 11.23 51.18 11.22C51.12 11.16 51.08 11.08 51.05 11.01C51.01 10.93 51 10.92 50.98 10.9L50.92 10.86L40.44 0.29C40.36 0.21 40.3 0.15 40.19 0.09H39.89V0H4.15C1.86 0 0 1.86 0 4.15V61.65C0 62.71 0.42 63.72 1.19 64.48C1.98 65.27 3.03 65.71 4.16 65.71H30.46C30.97 65.71 31.41 65.27 31.41 64.76C31.41 64.25 30.97 63.81 30.46 63.81H4.15C2.86 63.81 1.89 62.84 1.89 61.55V4.06C1.89 2.77 2.86 1.8 4.15 1.8H38.83V11.31C38.83 11.82 39.27 12.26 39.78 12.26H49.29V38.36C49.29 38.87 49.73 39.31 50.24 39.31C50.75 39.31 51.19 38.87 51.19 38.36V11.41H51.2ZM40.73 10.46V3.21L47.98 10.46H40.73Z" fill="currentColor"/>
</g>
<defs>
<clipPath id="clip0_3695_78801">
<rect width="68.45" height="74.86" fill="white"/>
</clipPath>
</defs>
</svg>
