<svg xmlns="http://www.w3.org/2000/svg" width="18" height="18" fill="currentColor" viewBox="0 0 18 18">
  <path d="M15.27 2.79 12.16.45c-.18-.14-.4-.21-.63-.21H3.28c-.57 0-1.04.47-1.04 1.04v15.41c0 .58.47 1.06 1.06 1.06h11.41c.58 0 1.05-.47 1.05-1.05V3.75c0-.38-.18-.74-.48-.96h-.01Zm-3.09-1.2 2.06 1.55-2.06.43V1.59Zm2.52 15.26H3.3c-.09 0-.15-.07-.15-.16V1.28c0-.08.06-.14.14-.14l8 .03v2.65c0 .21.09.41.26.54.13.1.28.16.44.16.05 0 .1 0 .14-.02l2.74-.58v12.77c0 .08-.07.15-.15.15l-.02.01Z"/>
  <path d="M12.71 5.05h-7.2c-.25 0-.45.2-.45.45s.2.45.45.45h7.2c.25 0 .45-.2.45-.45s-.2-.45-.45-.45Zm-.06 2.67h-7.2c-.25 0-.45.2-.45.45s.2.45.45.45h7.2c.25 0 .45-.2.45-.45s-.2-.45-.45-.45Zm0 2.66h-7.2c-.25 0-.45.2-.45.45s.2.45.45.45h7.2c.25 0 .45-.2.45-.45s-.2-.45-.45-.45Zm0 2.34h-7.2c-.25 0-.45.2-.45.45s.2.45.45.45h7.2c.25 0 .45-.2.45-.45s-.2-.45-.45-.45Z"/>
</svg>
