<svg width="52" height="71" viewBox="0 0 52 71" fill="none" xmlns="http://www.w3.org/2000/svg">
<g id="Graphic">
<path id="Subtract" fill-rule="evenodd" clip-rule="evenodd" d="M3.16687 6.87342C2.52334 6.96042 1.97865 7.62712 2.09342 8.476L9.53118 63.4868C9.64595 64.3357 10.3481 64.8338 10.9917 64.7468C11.4295 64.6876 11.8324 64.9946 11.8916 65.4324C11.9508 65.8703 11.6439 66.2732 11.206 66.3324C9.57442 66.553 8.16299 65.309 7.94561 63.7012L0.507849 8.69038C0.29047 7.08261 1.32087 5.50845 2.95249 5.28784L38.4723 0.485373C40.1039 0.26477 41.5154 1.50879 41.7327 3.11656L41.7332 3.11987L42.2932 7.39587C42.3505 7.83395 42.0419 8.2356 41.6038 8.29297C41.1657 8.35034 40.7641 8.04171 40.7067 7.60362L40.1472 3.33093C40.1471 3.33048 40.1471 3.33002 40.147 3.32956C40.0317 2.48152 39.3299 1.98399 38.6867 2.07095L3.16687 6.87342Z" fill="currentColor"/>
<path id="Vector" d="M48.9215 9.35938H13.0785C11.9306 9.35938 11 10.3642 11 11.6037V67.1151C11 68.3546 11.9306 69.3594 13.0785 69.3594H48.9215C50.0694 69.3594 51 68.3546 51 67.1151V11.6037C51 10.3642 50.0694 9.35938 48.9215 9.35938Z" stroke="currentColor" stroke-width="1.8" stroke-linecap="round" stroke-linejoin="round"/>
<path id="Vector_2" d="M26.3996 21.793C26.3996 21.7803 26.4005 21.7689 26.4019 21.759H39.5981C39.5995 21.7689 39.6004 21.7803 39.6004 21.793V21.9257C39.6004 21.9385 39.5995 21.9498 39.5981 21.9598H26.4019C26.4005 21.9498 26.3996 21.9385 26.3996 21.9257V21.793Z" fill="currentColor" stroke="currentColor" stroke-width="0.799235"/>
<path id="Vector_3" d="M26.3996 18.8594C26.3996 18.8128 26.4108 18.7789 26.421 18.759H45.579C45.5892 18.7789 45.6004 18.8128 45.6004 18.8594C45.6004 18.9059 45.5892 18.9398 45.579 18.9598H26.421C26.4108 18.9398 26.3996 18.9059 26.3996 18.8594Z" fill="currentColor" stroke="currentColor" stroke-width="0.799235"/>
<path id="Rectangle 4738" d="M23 18.3594C23.5523 18.3594 24 18.8071 24 19.3594L24 25.3594C24 25.9117 23.5523 26.3594 23 26.3594L17 26.3594C16.4477 26.3594 16 25.9117 16 25.3594L16 19.3594C16 18.8071 16.4477 18.3594 17 18.3594L23 18.3594Z" fill="currentColor"/>
<path id="Vector_4" d="M26.3996 37.793C26.3996 37.7803 26.4005 37.7689 26.4019 37.759H39.5981C39.5995 37.7689 39.6004 37.7803 39.6004 37.793V37.9257C39.6004 37.9385 39.5995 37.9498 39.5981 37.9598H26.4019C26.4005 37.9498 26.3996 37.9385 26.3996 37.9257V37.793Z" fill="currentColor" stroke="currentColor" stroke-width="0.799235"/>
<path id="Vector_5" d="M26.3996 53.793C26.3996 53.7803 26.4005 53.7689 26.4019 53.759H39.5981C39.5995 53.7689 39.6004 53.7803 39.6004 53.793V53.9257C39.6004 53.9385 39.5995 53.9498 39.5981 53.9598H26.4019C26.4005 53.9498 26.3996 53.9385 26.3996 53.9257V53.793Z" fill="currentColor" stroke="currentColor" stroke-width="0.799235"/>
<path id="Vector_6" d="M26.3996 34.8594C26.3996 34.8128 26.4108 34.7789 26.421 34.759H45.579C45.5892 34.7789 45.6004 34.8128 45.6004 34.8594C45.6004 34.9059 45.5892 34.9398 45.579 34.9598H26.421C26.4108 34.9398 26.3996 34.9059 26.3996 34.8594Z" fill="currentColor" stroke="currentColor" stroke-width="0.799235"/>
<path id="Vector_7" d="M26.3996 50.8594C26.3996 50.8128 26.4108 50.7789 26.421 50.759H45.579C45.5892 50.7789 45.6004 50.8128 45.6004 50.8594C45.6004 50.9059 45.5892 50.9398 45.579 50.9598H26.421C26.4108 50.9398 26.3996 50.9059 26.3996 50.8594Z" fill="currentColor" stroke="currentColor" stroke-width="0.799235"/>
<path id="Rectangle 4739" d="M23 34.3594C23.5523 34.3594 24 34.8071 24 35.3594L24 41.3594C24 41.9117 23.5523 42.3594 23 42.3594L17 42.3594C16.4477 42.3594 16 41.9117 16 41.3594L16 35.3594C16 34.8071 16.4477 34.3594 17 34.3594L23 34.3594Z" fill="currentColor"/>
<path id="Rectangle 4740" d="M23 50.3594C23.5523 50.3594 24 50.8071 24 51.3594L24 57.3594C24 57.9117 23.5523 58.3594 23 58.3594L17 58.3594C16.4477 58.3594 16 57.9117 16 57.3594L16 51.3594C16 50.8071 16.4477 50.3594 17 50.3594L23 50.3594Z" fill="currentColor"/>
</g>
</svg>
