<svg xmlns="http://www.w3.org/2000/svg" width="18" height="18" fill="currentColor" viewBox="0 0 18 18">
  <path fill-rule="evenodd" d="M14.336 6.465a.367.367 0 0 0 0 .473l2.187 2.434-2.187 2.434a.367.367 0 0 0 0 .473c.115.128.31.128.426 0l2.402-2.668a.367.367 0 0 0 0-.472L14.762 6.47a.283.283 0 0 0-.426 0v-.006Z" clip-rule="evenodd"/>
  <path d="M13.5 2.25a1.88 1.88 0 0 0-1.875 1.875A1.88 1.88 0 0 0 13.5 6a1.88 1.88 0 0 0 1.875-1.875A1.88 1.88 0 0 0 13.5 2.25Zm-2.193 3.445-3.09 3.668a.489.489 0 0 0-.11.295v4.51L6.574 13.4V9.658a.43.43 0 0 0-.11-.295L2.201 4.298h8.627c0-.326.073-.64.196-.923H1.21a.462.462 0 0 0-.417.265.465.465 0 0 0 .067.492l4.795 5.692v3.859c0 .172.098.332.251.412l2.453 1.23c.067.032.135.05.208.05a.468.468 0 0 0 .24-.068.47.47 0 0 0 .22-.393v-5.09L12 6.298a2.257 2.257 0 0 1-.693-.603Z"/>
</svg>
