<svg xmlns="http://www.w3.org/2000/svg" width="18" height="18" fill="currentColor" viewBox="0 0 18 18">
  <g clip-path="url(#a)">
    <path d="M15.182 2.025c-.074 0-.225.075-.375.075-.3.075-.675.15-1.05.225-.6.15-1.2.225-1.725.225-1.8.15-2.775-.075-2.775-.75 0-1.35-1.425-1.575-3.6-1.2l-1.575.45c-.45.075-.825.225-1.2.3V.375C2.882.15 2.732 0 2.507 0s-.375.15-.375.375v17.25c0 .225.15.376.375.376s.375-.15.375-.376v-6.45c.075 0 .15-.075.225-.075.375-.15.75-.225 1.2-.375.525-.15 1.05-.225 1.5-.3 1.8-.3 2.775-.15 2.775.45 0 1.35 1.425 1.726 3.6 1.5.6-.074 1.2-.15 1.875-.3.375-.074.675-.15.975-.224.15-.075.3-.075.375-.075.15-.075.3-.225.3-.375v-9c-.075-.225-.3-.45-.525-.375v-.001Zm-.3 9.075h-.074c-.3.075-.6.15-.975.225-.6.15-1.2.225-1.8.225-1.8.15-2.775-.075-2.775-.75 0-1.35-1.425-1.575-3.6-1.2l-1.575.45c-.45.075-.825.225-1.2.3V2.175c.075 0 .15-.075.225-.075.376-.15.75-.225 1.2-.375.525-.15 1.05-.225 1.5-.3 1.8-.3 2.775-.15 2.775.45 0 1.35 1.425 1.65 3.6 1.5.6-.074 1.2-.15 1.8-.3l.9-.224v8.25-.001Z"/>
  </g>
  <defs>
    <clipPath id="a">
      <path d="M0 0h18v18H0z"/>
    </clipPath>
  </defs>
</svg>
