<svg width="74" height="74" viewBox="0 0 74 74" fill="none" xmlns="http://www.w3.org/2000/svg">
<g id="Graphic">
<path id="Vector" d="M48.9918 57C48.7948 57 48.6176 56.8905 48.5388 56.7171C48.4305 56.489 48.5585 56.2152 48.8047 56.124C51.0991 55.2479 53.0292 53.7787 54.4079 51.8715C55.7865 49.9643 56.5153 47.7468 56.5153 45.4563C56.5153 45.2008 56.7319 45 57.0076 45C57.2834 45 57.5 45.2008 57.5 45.4563C57.5 47.9293 56.7122 50.3202 55.2252 52.3734C53.7383 54.4266 51.6506 56.0144 49.1789 56.9635C49.1198 56.9909 49.0509 57 48.9918 57Z" fill="currentColor"/>
<path id="Vector_2" d="M72.0579 69.0868L61.1587 58.7622C60.5728 58.207 59.6172 58.2428 59.0402 58.8428L58.7427 59.1472L56.7504 57.1772C57.5257 56.425 58.2289 55.5923 58.8329 54.6878C60.5998 52.0731 61.5374 49.0196 61.5374 45.8676C61.5374 41.632 59.8696 37.6472 56.8496 34.6474C53.8295 31.6476 49.7998 30 45.5267 30C42.3534 30 39.2703 30.9223 36.6289 32.6685C33.9875 34.4146 31.9411 36.8771 30.724 39.7874C29.507 42.6976 29.1915 45.8676 29.8045 48.9569C30.4266 52.0462 31.9411 54.858 34.1858 57.0877C36.4306 59.3174 39.2703 60.8217 42.3895 61.4307C43.4352 61.6366 44.481 61.7351 45.5267 61.7351C47.6182 61.7351 49.6916 61.3322 51.6479 60.5262C53.2886 59.8546 54.7761 58.9234 56.0923 57.7772L58.1207 59.792L57.742 60.177C57.4536 60.4725 57.3003 60.8576 57.3093 61.2695C57.3093 61.6545 57.4806 62.0217 57.7601 62.2813L68.6592 72.606C68.9387 72.8746 69.2993 73 69.6599 73C70.0656 73 70.4712 72.8388 70.7687 72.5254L72.0669 71.1822C72.3554 70.8867 72.5086 70.5017 72.4996 70.0987C72.4996 69.7137 72.3283 69.3465 72.0489 69.0868H72.0579ZM51.3053 59.7024C48.5287 60.8397 45.5087 61.1352 42.5608 60.5531C39.6128 59.9711 36.9354 58.5562 34.8169 56.4519C32.6983 54.3476 31.2649 51.697 30.679 48.7778C30.093 45.8676 30.3905 42.8678 31.5444 40.1277C32.6983 37.3786 34.6185 35.0594 37.1157 33.4117C39.6129 31.7641 42.5157 30.8955 45.5087 30.8955C49.5474 30.8955 53.3427 32.4536 56.2005 35.2832C59.0582 38.1129 60.6269 41.8738 60.6269 45.8676C60.6269 48.8405 59.7434 51.7149 58.0756 54.1864C56.4078 56.6579 54.0639 58.5652 51.2873 59.7024H51.3053ZM71.4268 70.5643L70.1287 71.9075C69.8943 72.1493 69.5157 72.1762 69.2813 71.9613L58.3821 61.6366C58.2739 61.5381 58.2198 61.4038 58.2198 61.2516C58.2198 61.0904 58.2829 60.9292 58.4001 60.8038L59.6983 59.4606C59.9327 59.2189 60.3113 59.192 60.5457 59.4069L71.4449 69.7316C71.5531 69.8301 71.6071 69.9644 71.6071 70.1166C71.6071 70.2778 71.544 70.439 71.4268 70.5643Z" fill="currentColor" stroke="currentColor" stroke-width="0.9"/>
<g id="Group">
<g id="Group_2">
<path id="Vector_3" d="M12.11 14.9336L11.91 14.8907V14.7436H6.08996C5.32605 14.7436 4.50998 15.0182 3.90178 15.5301C3.28472 16.041 2.88038 16.7541 2.75263 17.5311C2.75262 17.5311 2.75261 17.5311 2.75261 17.5312L2.51265 18.9809L2.47414 19.2136H2.70996H3.71996H3.88874L3.91711 19.0472L4.13711 17.7572L4.13712 17.7572L4.13745 17.7552C4.20962 17.3041 4.44431 16.8965 4.79915 16.5963C5.15172 16.2979 5.61551 16.1336 6.07996 16.1336H11.46H11.5893L11.6423 16.0157L12.0348 15.1436H12.11V14.9436V14.9336Z" fill="currentColor" stroke="currentColor" stroke-width="0.4"/>
<path id="Vector_4" d="M69.7599 17.8825V17.8741L69.7514 17.8458C69.6113 17.3823 69.3435 16.945 68.9934 16.5843C68.644 16.2244 68.2107 15.9286 67.7149 15.7282C67.2216 15.5288 66.6975 15.4241 66.1638 15.4137L66.1638 15.4137L66.1617 15.4136L50.4217 15.2736L50.3445 15.6589L52.8245 16.6689L52.8599 16.6833L52.8981 16.6836L66.1481 16.8036V16.8036H66.1499C66.4832 16.8036 66.7958 16.8683 67.0898 16.9969L67.0897 16.9969L67.0946 16.9989C67.3891 17.1185 67.6454 17.2927 67.8555 17.512C68.0653 17.7309 68.2086 17.9742 68.2889 18.2329C68.3695 18.4926 68.3869 18.7688 68.3338 19.0344L68.3319 19.0439L68.3309 19.0535L64.9709 52.2535L64.97 52.263L64.9699 52.2726L64.9199 62.2426L65.3188 62.2645L69.8278 19.274C69.9201 18.8151 69.9012 18.3349 69.7599 17.8825Z" fill="currentColor" stroke="currentColor" stroke-width="0.4"/>
</g>
</g>
<path id="Vector_5" d="M11.3205 18.3432L18.2405 2.85315C18.4805 2.31315 19.0205 1.99315 19.5805 1.99315C19.7805 1.99315 19.9905 2.03315 20.1805 2.12315L53.9705 17.2031C54.3305 17.3631 54.6105 17.6532 54.7505 18.0232C54.8905 18.3932 54.8805 18.7831 54.7205 19.1432L51.2105 27.0032H52.3005L55.6305 19.5431C55.9005 18.9431 55.9205 18.2732 55.6805 17.6532C55.4405 17.0431 54.9805 16.5532 54.3805 16.2832L20.5905 1.21315C19.3505 0.663151 17.8805 1.21315 17.3305 2.45315L10.2305 18.3432H11.3305H11.3205Z" fill="currentColor" stroke="currentColor" stroke-width="0.8"/>
<path id="Vector_6" d="M59.6206 64.7834C59.4606 64.6334 59.3406 64.4434 59.2506 64.2434H3.86062C3.28062 64.2434 2.72062 64.0134 2.32062 63.6034C1.91062 63.1934 1.69062 62.6634 1.69062 62.0834V21.2434C1.69062 20.9534 1.73062 20.6734 1.84062 20.4134C1.95062 20.1434 2.10062 19.9034 2.31062 19.6934C2.51062 19.4834 2.75062 19.3234 3.02062 19.2134C3.29062 19.1034 3.58062 19.0434 3.87062 19.0434H25.1306C25.5306 19.0434 25.9306 19.1534 26.2706 19.3634C26.6106 19.5734 26.8906 19.8734 27.0706 20.2234L30.1006 26.1134C30.3706 26.6334 30.7706 27.0734 31.2706 27.3734C31.7706 27.6734 32.3406 27.8434 32.9206 27.8434H62.2306C62.8106 27.8434 63.3706 28.0734 63.7706 28.4734C64.1806 28.8734 64.4006 29.4134 64.4006 29.9834V61.7634L65.3406 62.6734C65.3806 62.4834 65.4006 62.2934 65.4006 62.0934V29.9834C65.4006 29.1334 65.0706 28.3434 64.4706 27.7434C63.8706 27.1534 63.0806 26.8234 62.2306 26.8234H32.9206C32.5206 26.8234 32.1206 26.7134 31.7806 26.5034C31.4406 26.2934 31.1606 25.9934 30.9806 25.6434L27.9506 19.7534C27.6806 19.2334 27.2806 18.8034 26.7806 18.4934C26.2806 18.1934 25.7106 18.0334 25.1306 18.0234H3.86062C3.44062 18.0234 3.02062 18.1134 2.63062 18.2734C2.24062 18.4434 1.89062 18.6734 1.59062 18.9734C1.29062 19.2734 1.06062 19.6334 0.900623 20.0234C0.740623 20.4234 0.670623 20.8334 0.680623 21.2534V62.0934C0.680623 62.9334 1.02062 63.7434 1.61062 64.3334C2.21062 64.9334 3.00062 65.2634 3.85062 65.2634H60.1106L59.6206 64.7834Z" fill="currentColor" stroke="currentColor" stroke-width="0.9"/>
</g>
</svg>
