<svg xmlns="http://www.w3.org/2000/svg" width="26" height="26" fill="currentColor" viewBox="0 0 26 26">
  <g clip-path="url(#a)">
    <path d="M13.126 22.577a.482.482 0 0 1-.253 0C2.645 19.787 4.609 7.46 4.629 7.337c.034-.2.19-.357.39-.393 5.569-1.013 7.591-3.341 7.61-3.363a.482.482 0 0 1 .369-.173H13a.48.48 0 0 1 .368.172c.02.023 2.043 2.351 7.612 3.364.2.036.355.193.39.393.02.124 1.984 12.45-8.244 15.24Zm7.34-14.75C16.044 6.96 13.815 5.312 13 4.57c-.815.742-3.044 2.391-7.467 3.257-.247 1.929-1 11.381 7.467 13.785 8.466-2.404 7.714-11.856 7.468-13.785Z"/>
    <path d="M15.245 16.31h-4.488a.481.481 0 0 1-.482-.482v-3.31c0-.266.216-.481.482-.481h.147v-.068a2.1 2.1 0 0 1 2.097-2.097c1.156 0 2.096.94 2.096 2.097v.068h.148c.266 0 .482.215.482.481v3.31a.481.481 0 0 1-.482.482Zm-4.007-.963h3.526V13h-3.526v2.347Zm2.896-3.378c0-.625-.508-1.134-1.133-1.134s-1.134.509-1.134 1.134v.068h2.267v-.068Z"/>
    <path d="M13 14.895a.481.481 0 0 1-.48-.482v-.481a.481.481 0 1 1 .962 0v.481a.481.481 0 0 1-.481.482Z"/>
    <path d="M5.34 20.66a1.674 1.674 0 0 1 .341 1.883 12.05 12.05 0 0 0 7.32 2.494c6.636 0 12.036-5.4 12.036-12.037 0-2.1-.544-4.152-1.578-5.962a.483.483 0 0 1 .83-.49A12.973 12.973 0 0 1 26 13c0 7.168-5.832 13-13 13-2.88 0-5.682-.972-7.95-2.728a1.683 1.683 0 0 1-2.093-2.612 1.687 1.687 0 0 1 2.383 0Zm-1.702 1.702a.723.723 0 1 0 1.02-1.023.723.723 0 0 0-1.02 1.023ZM13 0c2.879 0 5.682.972 7.95 2.728a1.687 1.687 0 0 1 2.093.228c.319.319.494.742.494 1.192 0 .45-.175.873-.494 1.192a1.68 1.68 0 0 1-1.191.492 1.68 1.68 0 0 1-1.533-2.375A12.048 12.048 0 0 0 13 .963C6.363.963.963 6.363.963 13c0 2.1.544 4.151 1.578 5.961a.483.483 0 0 1-.829.491A12.973 12.973 0 0 1 0 13C0 5.832 5.832 0 13 0Zm8.341 4.659a.723.723 0 1 0 1.021-1.024.723.723 0 0 0-1.02 1.024Z"/>
  </g>
  <defs>
    <clipPath id="a">
      <path d="M26 0H0v26h26z"/>
    </clipPath>
  </defs>
</svg>
