<svg xmlns="http://www.w3.org/2000/svg" width="18" height="18" fill="currentColor" viewBox="0 0 18 18">
  <g clip-path="url(#a)">
    <path fill-rule="evenodd" d="m13.79 17.63 3.66.02a.344.344 0 0 0 .34-.35l.02-3.63-.03.03.02-.11c.02-.1 0-.18-.04-.23a.315.315 0 0 0-.23-.11h-1.9v-.12l.02-4.06c0-.17-.12-.35-.33-.35l-6.56-.04v-.09l.03-4.51h.1l5.76.04a.344.344 0 0 0 .34-.35l.02-3c0-.09-.04-.18-.1-.25a.301.301 0 0 0-.23-.09L3.6.37c-.16 0-.33.12-.33.33l-.02 3c0 .09.04.18.1.25.06.06.13.09.23.09l4.56.03v.09l-.03 4.5h-.1l-5.17-.03c-.16 0-.33.12-.33.33l-.02 4.17H.55a.317.317 0 0 0-.33.32L.2 17.17a.34.34 0 0 0 .34.35l3.65.02c.16 0 .33-.12.33-.33l.02-3.72c0-.17-.12-.34-.33-.34H3.12v-.11l.02-3.73h.1l4.9.03v.09l-.02 3.73h-.9c-.16 0-.33.13-.33.33l-.02 3.72a.34.34 0 0 0 .34.35l3.65.02c.17 0 .33-.12.33-.33l.02-3.72c0-.09-.04-.19-.1-.26a.31.31 0 0 0-.24-.09H8.72v-.12l.02-3.73h.1l6.14.04v.09l-.02 3.73h-1.15c-.16 0-.33.13-.33.33l-.02 3.72c0 .17.13.34.33.34v.05Zm-9.86-3.78v.09l-.02 3h-.1l-2.94-.02v-.09l.02-3.01h.1l2.95.02-.01.01Zm6.61.04v.09l-.02 3h-.11l-2.95-.02v-.09l.02-3.01h.1l2.95.02.01.01ZM3.89 3.38V1.06h.12l10.32.06v2.32h-.12L3.89 3.38Zm10.24 13.47.02-3h.11l2.95.02v.1l-.02 3h-.1l-2.95-.02v-.09l-.01-.01Z" clip-rule="evenodd"/>
  </g>
  <defs>
    <clipPath id="a">
      <path d="M0 0h18v18H0z"/>
    </clipPath>
  </defs>
</svg>
