<svg xmlns="http://www.w3.org/2000/svg" width="18" height="18" fill="currentColor" viewBox="0 0 18 18">
  <g clip-path="url(#a)">
    <path d="M15.383 8.82a.38.38 0 0 0-.38.38v8.06h-3.23v-5.58c0-.21-.17-.37-.38-.37h-4.8c-.21 0-.38.16-.38.37v5.57h-3.22V9.2a.38.38 0 1 0-.76 0v8.44c0 .21.17.38.38.38h3.97c.21 0 .38-.17.38-.38v-5.57h4.05v5.58c0 .21.17.38.38.38h4.01c.22 0 .38-.17.38-.38V9.21a.38.38 0 0 0-.38-.38l-.02-.01Z"/>
    <path d="M17.415 8.47 9.155.12a.352.352 0 0 0-.26-.12c-.09 0-.2.05-.26.12L.565 8.44a.4.4 0 0 0 0 .54c.08.08.17.12.27.12s.2-.05.26-.12l7.8-8.04 8 8.07a.363.363 0 0 0 .53.01c.08-.08.12-.18.12-.28 0-.1-.04-.19-.12-.26l-.01-.01Z"/>
  </g>
  <defs>
    <clipPath id="a">
      <path d="M0 0h18v18H0z"/>
    </clipPath>
  </defs>
</svg>
