<svg xmlns="http://www.w3.org/2000/svg" width="18" height="18" fill="currentColor" viewBox="0 0 18 18">
  <g clip-path="url(#a)">
    <path fill-rule="evenodd" d="M17.327 8.993a8.334 8.334 0 1 0-16.668.001 8.334 8.334 0 0 0 16.668 0ZM9.204 5.076a.904.904 0 0 1 .249-.66.816.816 0 0 1 .611-.255.64.64 0 0 1 .68.68c.01.257-.077.509-.245.704a.777.777 0 0 1-.606.264.675.675 0 0 1-.489-.19.753.753 0 0 1-.195-.543h-.005Zm-1.892 3.7-.152-.323.841-.621c.43-.303.719-.495.865-.577.2-.115.412-.21.63-.283.098-.03.198-.047.3-.05.1.002.194.047.258.123a.489.489 0 0 1 .113.337c0 .164-.017.328-.05.49-.051.26-.198.829-.44 1.705-.24.877-.389 1.452-.444 1.726a3.372 3.372 0 0 0-.088.538.215.215 0 0 0 .054.151.156.156 0 0 0 .112.054.582.582 0 0 0 .235-.088c.278-.147.547-.31.806-.489l.167.323c-.326.228-.691.474-1.095.738a5.224 5.224 0 0 1-.9.489 1.03 1.03 0 0 1-.357.068.435.435 0 0 1-.342-.156.718.718 0 0 1-.137-.489c0-.179.018-.357.054-.533.046-.244.151-.681.318-1.31.227-.75.398-1.517.513-2.293a.171.171 0 0 0-.03-.093.132.132 0 0 0-.102-.044 3.114 3.114 0 0 0-1.13.606Z" clip-rule="evenodd"/>
  </g>
  <defs>
    <clipPath id="a">
      <path d="M0 0h18v18H0z"/>
    </clipPath>
  </defs>
</svg>
