<svg xmlns="http://www.w3.org/2000/svg" width="18" height="18" fill="currentColor" viewBox="0 0 18 18">
  <path fill-rule="evenodd" d="M17.667 9.333a8.334 8.334 0 1 0-16.668.001 8.334 8.334 0 0 0 16.668 0ZM9.544 5.415a.904.904 0 0 1 .249-.66.816.816 0 0 1 .61-.254.64.64 0 0 1 .68.68c.011.257-.076.509-.244.704a.777.777 0 0 1-.606.264.675.675 0 0 1-.489-.19.753.753 0 0 1-.196-.544h-.004Zm-1.892 3.7L7.5 8.794l.84-.62c.431-.304.72-.496.866-.578.2-.115.412-.21.63-.283.098-.03.198-.046.299-.05.1.002.194.047.26.123a.489.489 0 0 1 .112.337c0 .165-.017.328-.05.49-.052.26-.198.829-.44 1.705-.24.877-.389 1.452-.444 1.726a3.375 3.375 0 0 0-.088.538.215.215 0 0 0 .054.151.152.152 0 0 0 .112.054.582.582 0 0 0 .235-.088c.278-.147.547-.31.806-.489l.166.323c-.325.228-.69.474-1.095.738a5.224 5.224 0 0 1-.9.489 1.03 1.03 0 0 1-.356.069.435.435 0 0 1-.342-.157.719.719 0 0 1-.137-.489c0-.179.018-.357.054-.533.045-.244.151-.68.318-1.31.227-.75.398-1.517.513-2.293a.171.171 0 0 0-.03-.092.132.132 0 0 0-.102-.044 3.114 3.114 0 0 0-1.13.606Z" clip-rule="evenodd"/>
</svg>
