<svg xmlns="http://www.w3.org/2000/svg" width="18" height="18" fill="currentColor" viewBox="0 0 18 18">
  <path d="M10.31 5.55c-.38 0-.69.31-.69.69 0 .38.31.69.69.69.38 0 .69-.31.69-.69 0-.38-.31-.69-.69-.69Zm0 .95c-.16 0-.28-.11-.28-.26 0-.15.13-.28.28-.28.15 0 .28.13.28.28 0 .15-.12.26-.28.26Zm-7.78 6.62a.21.21 0 1 0 0-.42.21.21 0 0 0 0 .42Zm12.23-7.57c-.38 0-.69.31-.69.69 0 .38.31.69.69.69.38 0 .69-.31.69-.69 0-.38-.31-.69-.69-.69Zm0 .95c-.16 0-.28-.11-.28-.26 0-.15.13-.28.28-.28.15 0 .28.12.28.28 0 .15-.12.26-.28.26ZM1.05 13.12a.21.21 0 1 0 0-.42.21.21 0 0 0 0 .42Zm11.48-7.57c-.38 0-.69.31-.69.69 0 .38.31.69.69.69.38 0 .69-.31.69-.69 0-.38-.31-.69-.69-.69Zm0 .95c-.16 0-.28-.11-.28-.26 0-.15.13-.28.28-.28.15 0 .28.13.28.28 0 .15-.12.26-.28.26Zm2.6 6.62a.21.21 0 1 0 0-.42.21.21 0 0 0 0 .42Zm1.47 0a.21.21 0 1 0 0-.42.21.21 0 0 0 0 .42Z"/>
  <path d="M17.66 6.97v-.1l-.02-2.93c0-.02-.01-.05-.02-.06l-.02-.03s-.04-.06-.06-.07l-.02-.02L13.06.04S12.95 0 12.9 0H4.7s-.1.04-.15.07L.12 3.77s-.05.06-.07.08v.02s-.02.03-.03.04v.05S.01 3.99.01 4v3.08c.05.95.83 1.69 1.79 1.69h7.09v3.81H3.96c-.14.02-.26.16-.26.32 0 .18.14.32.32.32h9.68c.15-.03.26-.16.26-.32 0-.18-.14-.32-.32-.32H9.51V8.77h6.46c.95-.06 1.69-.85 1.69-1.8ZM4.87.63h7.93l3.68 3.07H1.18L4.87.63Zm12.17 6.44c-.05.6-.56 1.07-1.16 1.07H1.7C1.1 8.09.63 7.58.63 6.98V4.34h16.41v2.73Z"/>
  <path d="M2.53 5.28a.96.96 0 1 0 0 1.92.96.96 0 0 0 0-1.92Zm0 1.48c-.29 0-.52-.23-.52-.52 0-.29.23-.52.52-.52.29 0 .52.23.52.52 0 .29-.23.52-.52.52Z"/>
</svg>
