<svg xmlns="http://www.w3.org/2000/svg" width="18" height="18" fill="currentColor" viewBox="0 0 18 18">
  <path fill-rule="evenodd" d="M10.046 18h2.942c1.054 0 1.908-.904 1.908-2.02v-2.854s.02-.05.048-.05h.759c1.262 0 2.297-1.096 2.297-2.433 0-1.336-1.035-2.432-2.297-2.432h-.76s-.047-.02-.047-.05V5.307c0-1.116-.854-2.02-1.908-2.02h-2.695s-.048-.02-.048-.05v-.805C10.245 1.095 9.21 0 7.948 0 6.686 0 5.651 1.085 5.651 2.432v.804s-.019.05-.047.05H2.908C1.854 3.286 1 4.191 1 5.306v3.116c0 .211.161.382.36.382h1.16c.968 0 1.737.804 1.737 1.84 0 1.034-.76 1.838-1.737 1.838H1.36c-.2 0-.361.171-.361.382v3.116C1 17.096 1.854 18 2.908 18H5.85c.2 0 .361-.17.361-.382v-1.226c0-1.025.76-1.84 1.737-1.84.978 0 1.737.805 1.737 1.84v1.226c0 .211.161.382.36.382Zm-2.098-4.211c-1.348 0-2.449 1.166-2.449 2.593v.804s-.019.05-.047.05H2.917c-.655 0-1.186-.563-1.186-1.256v-2.684s.019-.05.047-.05h.76c1.348 0 2.449-1.166 2.449-2.593S3.886 8.06 2.537 8.06h-.759s-.047-.02-.047-.05V5.327c0-.694.531-1.257 1.186-1.257h3.104c.2 0 .36-.17.36-.382V2.462c0-.924.713-1.668 1.577-1.668.863 0 1.575.754 1.575 1.668v1.226c0 .212.162.382.36.382h3.105c.655 0 1.186.563 1.186 1.257v3.286c0 .211.162.382.36.382h1.159c.873 0 1.576.754 1.576 1.668 0 .915-.712 1.669-1.576 1.669h-1.158c-.2 0-.36.17-.36.382V16c0 .694-.532 1.256-1.187 1.256h-2.535s-.047-.02-.047-.05v-.804c0-1.427-1.101-2.593-2.449-2.593l-.019-.02Z" clip-rule="evenodd"/>
</svg>
