<svg xmlns="http://www.w3.org/2000/svg" width="18" height="18" fill="currentColor" viewBox="0 0 18 18">
  <g clip-path="url(#a)">
    <path d="M17.625 14.813h-.203V4.934a1.45 1.45 0 0 0-1.455-1.447h-.12V1.004A1.005 1.005 0 0 0 14.843 0H3.159a1.005 1.005 0 0 0-1.006 1.005v2.482h-.12A1.45 1.45 0 0 0 .579 4.935v9.878H.374a.375.375 0 0 0-.375.374v1.358A1.457 1.457 0 0 0 1.455 18h15.09A1.457 1.457 0 0 0 18 16.545v-1.358a.375.375 0 0 0-.375-.374ZM3.158.585h11.684a.42.42 0 0 1 .42.42V2.33H2.739V1.005a.42.42 0 0 1 .42-.42Zm-.42 2.33h12.524v9.647a.42.42 0 0 1-.42.42H3.159a.42.42 0 0 1-.42-.42V2.915Zm-1.575 2.02a.87.87 0 0 1 .87-.87h.12v8.497a1.005 1.005 0 0 0 1.005 1.006h11.684a1.006 1.006 0 0 0 1.005-1.005V4.065h.12a.87.87 0 0 1 .87.87v9.878H1.162V4.934ZM6.386 15.39h5.226v.425a.291.291 0 0 1-.29.291H6.675a.291.291 0 0 1-.29-.29l.002-.426Zm11.035 1.155a.884.884 0 0 1-.877.877H1.455a.884.884 0 0 1-.878-.877V15.39h5.23v.425a.872.872 0 0 0 .868.872h4.65a.872.872 0 0 0 .87-.872v-.425h5.227v1.155Z"/>
    <path d="m7.748 8.145-.196 1.14a.29.29 0 0 0 .267.341.293.293 0 0 0 .158-.032L9 9.055l1.023.539a.3.3 0 0 0 .26.006.293.293 0 0 0 .165-.315l-.195-1.14.829-.808a.294.294 0 0 0-.017-.433.292.292 0 0 0-.146-.066l-1.146-.163-.511-1.04a.304.304 0 0 0-.525 0l-.511 1.04-1.146.167a.292.292 0 0 0-.162.499l.829.804Zm.715-.917a.29.29 0 0 0 .22-.16L9 6.425l.317.643a.292.292 0 0 0 .221.16l.71.104-.514.501a.292.292 0 0 0-.083.26l.121.707-.636-.334a.292.292 0 0 0-.272 0l-.636.334.121-.708a.292.292 0 0 0-.084-.259l-.514-.5.71-.105Z"/>
    <path d="M8.907 12.342c.06.02.126.02.186 0a5.467 5.467 0 0 0 2.856-2.217 5.7 5.7 0 0 0 .876-3.136V5.005a.292.292 0 0 0-.2-.278L9.091 3.556a.3.3 0 0 0-.185 0L5.378 4.725a.292.292 0 0 0-.2.277V6.99a5.688 5.688 0 0 0 .873 3.136 5.462 5.462 0 0 0 2.856 2.217ZM5.763 5.217 9 4.142l3.238 1.074v1.773a5.12 5.12 0 0 1-.781 2.82A4.885 4.885 0 0 1 9 11.754a4.88 4.88 0 0 1-2.457-1.95 5.114 5.114 0 0 1-.78-2.816V5.217ZM3.58 1.748a.291.291 0 1 0 0-.582.291.291 0 0 0 0 .582Zm1.16 0a.29.29 0 1 0 .002-.582.29.29 0 0 0-.002.582Zm1.162-.001a.29.29 0 1 0 0-.58.29.29 0 0 0 0 .58Z"/>
  </g>
  <defs>
    <clipPath id="a">
      <path d="M0 0h18v18H0z"/>
    </clipPath>
  </defs>
</svg>
