<svg xmlns="http://www.w3.org/2000/svg" width="18" height="18" fill="currentColor" viewBox="0 0 18 18">
  <path d="M8.65 10.58h2.59l.04.06.98 1.09c.15.15.39.15.54 0l.88-1 .03.03.85.97c.1.1.17.17.32.17.02 0 .07-.01.15-.06l.03-.02c.06-.03.12-.07.15-.1l2.48-2.58v.02c.12-.05.15-.15.15-.2a.353.353 0 0 0-.11-.3l-1.2-1.2c-.1-.1-.17-.17-.33-.17H8.65l-.04-.09c-.31-.73-.84-1.37-1.48-1.79l-.03-.02c-.66-.55-1.54-.82-2.62-.82C2.1 4.55.16 6.54.16 8.99s1.99 4.44 4.44 4.44c1.81 0 3.39-1.08 4.01-2.74l.04-.11Zm-.73-.45c-.46 1.49-1.84 2.5-3.43 2.5-1.96 0-3.55-1.64-3.55-3.66 0-2.02 1.61-3.66 3.66-3.66 1.47 0 2.85 1.01 3.43 2.51.07.14.23.23.4.23h7.63l.79.92-.09.11-1.75 1.87-.89-.89c-.1-.1-.17-.17-.32-.17s-.22.07-.32.16h-.01l-.88 1.01-.03-.03-1-1.14H8.32c-.18 0-.33.09-.4.24Z"/>
  <path d="M2.59 9.5c.36 0 .65-.29.65-.65 0-.36-.29-.65-.65-.65-.36 0-.65.29-.65.65 0 .36.29.65.65.65Z"/>
</svg>
