<svg xmlns="http://www.w3.org/2000/svg" width="18" height="18" fill="currentColor" viewBox="0 0 18 18">
  <g clip-path="url(#a)">
    <path d="M15.49 14.84a.45.45 0 0 0-.44-.44c-.23 0-.44.21-.44.44v1.47H4.9V9.12c0-.24-.2-.44-.44-.44a.45.45 0 0 0-.44.44v7.65c0 .23.17.42.39.44h.05l10.59-.01c.24 0 .44-.2.44-.44v-1.92ZM1.67 3.54a.476.476 0 0 0-.23-.07h-.1c-.13.03-.22.13-.28.21-.07.1-.09.22-.06.32.02.11.1.22.2.27l16.63 10.38c.25.15.49.04.6-.12.12-.21.06-.47-.15-.61l-.03-.02L1.67 3.54Zm13.39 6.38c.24 0 .44-.21.44-.44V4.75c0-.11-.04-.21-.14-.34l-3.39-3.33-.06-.02s-.05-.02-.07-.03c-.03 0-.05-.02-.08-.03H4.59h.01l-.15.01c-.24 0-.44.2-.44.44v1.77c.01.25.21.44.44.44s.44-.21.44-.44V1.87h6.42v2.88c0 .24.2.44.44.44h2.86v4.29c0 .23.21.44.44.44h.01Zm-2.87-5.59V2.52l.1.1L14 4.33h-1.81Z"/>
  </g>
  <defs>
    <clipPath id="a">
      <path d="M0 0h18v18H0z"/>
    </clipPath>
  </defs>
</svg>
