<svg xmlns="http://www.w3.org/2000/svg" width="18" height="18" fill="currentColor" viewBox="0 0 18 18">
  <g clip-path="url(#a)">
    <path d="M17.2 1.48a.46.46 0 0 0-.14-.35c-.1-.1-.2-.14-.35-.14H1.48c-.14.01-.25.05-.34.15-.1.1-.14.2-.14.35v6.17c0 .17.05.3.14.4.1.1.2.14.34.14h15.23c.14 0 .25-.04.34-.14.1-.1.14-.23.14-.4V1.48h.01Zm-.7 6.02H1.7V1.7h14.8v5.8Zm.7 3.41c0-.16-.05-.28-.14-.38-.09-.1-.2-.14-.36-.14H1.48c-.16 0-.26.04-.35.14-.09.1-.14.23-.14.39v6.12c0 .18.05.32.14.42.1.1.2.15.36.15h15.19c.15 0 .26-.04.36-.14.1-.1.15-.24.15-.42v-6.12l.01-.02Zm-.7 5.97H1.7v-5.8h14.8v5.8Z"/>
    <path d="M5.2 4a.8.8 0 0 0-.6-.25c-.24 0-.44.08-.6.25a.8.8 0 0 0-.25.6c0 .24.08.44.25.6a.8.8 0 0 0 .6.25c.24 0 .44-.08.6-.25a.8.8 0 0 0 .25-.6c0-.24-.08-.44-.25-.6Zm0 9.38a.8.8 0 0 0-.6-.25c-.24 0-.44.08-.6.25a.8.8 0 0 0-.25.6c0 .24.08.44.25.6a.8.8 0 0 0 .6.25c.24 0 .44-.08.6-.25a.8.8 0 0 0 .25-.6c0-.24-.08-.44-.25-.6Z"/>
  </g>
  <defs>
    <clipPath id="a">
      <path d="M0 0h18v18H0z"/>
    </clipPath>
  </defs>
</svg>
