<svg xmlns="http://www.w3.org/2000/svg" width="18" height="18" fill="currentColor" viewBox="0 0 18 18">
  <path d="M7.69 3H4.08c-.17 0-.33-.11-.38-.28l-.31-.98a.204.204 0 0 0-.19-.14H.29a.2.2 0 0 0-.2.2v6.4c0 .11.09.2.2.2h7.4a.2.2 0 0 0 .2-.2v-5a.2.2 0 0 0-.2-.2ZM7.2 7.27c0 .22-.18.4-.4.4H1.18c-.22 0-.4-.18-.4-.4V2.73c0-.22.18-.4.4-.4h1.39c.18 0 .33.11.38.28l.31.98c.03.08.1.14.19.14H6.8c.22 0 .4.18.4.4v3.14ZM17.69 3h-3.61c-.17 0-.33-.11-.38-.28l-.31-.98a.204.204 0 0 0-.19-.14h-2.9a.2.2 0 0 0-.2.2v6.4c0 .11.09.2.2.2h7.4a.2.2 0 0 0 .2-.2v-5a.2.2 0 0 0-.2-.2h-.01Zm-.49 4.27c0 .22-.18.4-.4.4h-5.62c-.22 0-.4-.18-.4-.4V2.73c0-.22.18-.4.4-.4h1.39c.18 0 .33.11.38.28l.31.98c.03.08.1.14.19.14h3.35c.22 0 .4.18.4.4v3.14ZM7.69 11H4.08c-.17 0-.33-.11-.38-.28l-.31-.98a.204.204 0 0 0-.19-.14H.29a.2.2 0 0 0-.2.2v6.4c0 .11.09.2.2.2h7.4a.2.2 0 0 0 .2-.2v-5a.2.2 0 0 0-.2-.2Zm-.49 4.27c0 .22-.18.4-.4.4H1.18c-.22 0-.4-.18-.4-.4v-4.53c0-.22.18-.4.4-.4h1.39c.18 0 .33.11.38.28l.31.98c.03.08.1.14.19.14H6.8c.22 0 .4.18.4.4v3.13ZM17.69 11h-3.61c-.17 0-.33-.11-.38-.28l-.31-.98a.204.204 0 0 0-.19-.14h-2.9a.2.2 0 0 0-.2.2v6.4c0 .11.09.2.2.2h7.4a.2.2 0 0 0 .2-.2v-5a.2.2 0 0 0-.2-.2h-.01Zm-.49 4.27c0 .22-.18.4-.4.4h-5.62c-.22 0-.4-.18-.4-.4v-4.53c0-.22.18-.4.4-.4h1.39c.18 0 .33.11.38.28l.31.98c.03.08.1.14.19.14h3.35c.22 0 .4.18.4.4v3.13Z"/>
</svg>
