<svg xmlns="http://www.w3.org/2000/svg" width="18" height="18" fill="currentColor" viewBox="0 0 18 18">
  <path d="M17.52 3.71c0-.93-.73-1.69-1.62-1.69H2.1c-.89 0-1.62.76-1.62 1.69v10.57c0 .93.73 1.69 1.62 1.69h13.8c.89 0 1.62-.76 1.62-1.69V3.71Zm-.74 10.3c0 .7-.55 1.27-1.23 1.27H2.44c-.68 0-1.23-.57-1.23-1.27V3.98c0-.7.55-1.27 1.23-1.27h13.11c.68 0 1.23.57 1.23 1.27v10.03Z"/>
  <path d="M12.4 9.98v.79l2.92-1.89v-.7L12.4 6.29v.79l2.17 1.36v.18L12.4 9.98ZM9.949 5.56l-2.61 6.88h.75l2.6-6.88h-.74ZM5.63 7.08v-.79L2.72 8.18v.7l2.91 1.89v-.79L3.46 8.61v-.17l2.17-1.36Z"/>
</svg>
