<svg xmlns="http://www.w3.org/2000/svg" width="18" height="18" fill="currentColor" viewBox="0 0 18 18">
  <g clip-path="url(#a)">
    <path d="M17.5 4.73a.26.26 0 0 0 .03-.17.327.327 0 0 0-.11-.15l-.59-.34v-.14c.03-.13.03-.24.03-.35 0-.11 0-.23-.02-.34V3.1l.02-.01.55-.33a.36.36 0 0 0 .11-.14.3.3 0 0 0-.03-.18l-.75-1.29c-.03-.06-.08-.09-.14-.11a.31.31 0 0 0-.18.03l-.56.33-.11-.09c-.16-.12-.35-.23-.57-.33l-.13-.06V.23c0-.13-.11-.23-.24-.23h-1.49c-.13 0-.24.11-.24.23v.68l-.13.05c-.25.11-.46.23-.62.35l-.12.08-.6-.34a.25.25 0 0 0-.32.08l-.75 1.29s-.04.12-.03.18c.02.06.06.11.11.15l.58.34v.15c-.03.09-.04.2-.04.34 0 .12 0 .24.02.34v.14l-.02.01-.55.33c-.11.07-.15.21-.09.32l.74 1.29c.07.11.21.15.32.08l.62-.34.11.08c.19.14.4.26.63.36l.13.05v.68c0 .13.11.24.24.24h1.49c.13 0 .24-.11.24-.24v-.68l.13-.05c.2-.09.39-.21.57-.34l.13-.1.03.06.54.31c.06.03.12.04.17.03.06-.02.11-.06.15-.11l.74-1.29v-.02Zm-1 .87-.52-.3c-.09-.05-.21-.04-.27.03-.27.26-.6.45-.93.55h-.02l-.03-.01c-.09.04-.15.12-.15.22v.62h-1.02v-.62c0-.1-.07-.19-.17-.23-.39-.13-.74-.32-.98-.55a.242.242 0 0 0-.28-.03l-.56.31-.5-.88.54-.31c.09-.05.13-.16.11-.26-.04-.19-.06-.37-.06-.55 0-.18.02-.36.07-.55.03-.1-.02-.21-.11-.26l-.53-.31.02-.04.49-.84.55.31c.09.05.2.04.28-.03.26-.24.6-.43.98-.55.1-.04.17-.12.17-.23V.47h1.02v.61c0 .1.07.19.17.23.36.12.68.31.93.55.07.07.19.09.29.03l.51-.3.5.88-.54.31c-.09.05-.13.16-.11.26.04.2.07.37.07.55 0 .19-.02.38-.06.55-.03.1.02.21.11.26l.54.31-.5.88-.01.01Z"/>
    <path d="M14.02 2.25c-.74 0-1.34.6-1.34 1.35 0 .75.6 1.34 1.34 1.34.74 0 1.35-.6 1.35-1.34 0-.74-.6-1.35-1.35-1.35Zm0 2.23c-.49 0-.88-.4-.88-.88s.4-.89.88-.89.88.4.88.89-.4.88-.88.88ZM6.21 8.83c-1.42 0-2.58 1.16-2.58 2.58 0 1.42 1.16 2.58 2.58 2.58 1.42 0 2.58-1.16 2.58-2.58 0-1.42-1.16-2.58-2.58-2.58Zm0 4.46c-1.04 0-1.89-.85-1.89-1.88a1.884 1.884 0 0 1 3.77 0c0 1.03-.85 1.88-1.88 1.88Z"/>
    <path d="M4.77 17.67h2.98c.17 0 .31-.14.31-.3v-1.13l.03-.02.07-.02c.46-.17.84-.4 1.28-.77l.07-.06.97.57c.07.04.15.05.23.04.08-.02.15-.07.18-.13l1.48-2.58c.04-.07.05-.15.03-.23a.283.283 0 0 0-.14-.18l-.98-.56v-.1c.05-.24.07-.5.07-.77 0-.25-.02-.5-.06-.76v-.1h.02l.95-.56a.3.3 0 0 0 .14-.18c.02-.08 0-.16-.03-.23l-1.49-2.58a.295.295 0 0 0-.18-.14c-.08-.02-.16 0-.23.03l-.96.57-.07-.06c-.46-.38-.83-.6-1.29-.76l-.1-.03V5.5c0-.17-.14-.31-.31-.31H4.76c-.17 0-.3.14-.3.31v1.13l-.1.03c-.5.18-.92.43-1.33.77l-.07.06-.03-.02-.98-.56a.332.332 0 0 0-.24-.03c-.08.02-.14.07-.17.14L.05 9.58c-.04.07-.05.15-.03.23.02.08.07.14.14.18l.97.56v.1c-.05.25-.07.5-.07.77 0 .25.02.51.06.76v.1l-.02.01-.95.55a.29.29 0 0 0-.14.17c-.02.08-.01.17.03.24l1.49 2.58c.09.14.27.19.41.11l1.02-.58.07.06c.41.34.83.59 1.34.77l.1.03v1.13c0 .17.14.3.3.3v.02ZM3.2 14.76c-.1-.09-.24-.1-.35-.04l-.94.53-1.19-2.06.91-.52c.12-.07.17-.19.15-.32-.07-.29-.1-.61-.1-.95 0-.34.03-.63.1-.95a.283.283 0 0 0-.15-.32l-.91-.52.02-.04 1.17-2.02.93.53c.12.06.25.05.35-.03.56-.5 1.04-.77 1.66-.95.13-.03.22-.15.22-.29V5.77h2.37v1.04c0 .13.09.25.22.29.6.17 1.02.42 1.6.95.1.09.25.1.36.03l.89-.52.02.04 1.16 2.01-.91.52c-.12.07-.17.19-.15.32.07.31.1.62.1.95 0 .33-.04.67-.1.95-.03.13.04.26.15.32l.91.52-1.18 2.06-.9-.52a.317.317 0 0 0-.36.04c-.57.52-.99.77-1.6.95l-.05.02c-.09.05-.15.15-.15.26v1.04H5.08V16a.31.31 0 0 0-.22-.29c-.6-.17-1.1-.45-1.66-.95Z"/>
  </g>
  <defs>
    <clipPath id="a">
      <path d="M0 0h18v18H0z"/>
    </clipPath>
  </defs>
</svg>
