<svg xmlns="http://www.w3.org/2000/svg" width="18" height="18" fill="currentColor" viewBox="0 0 18 18">
  <g clip-path="url(#a)">
    <path d="M8.993.66a8.334 8.334 0 1 1 0 16.668 8.334 8.334 0 0 1 0-16.668Zm.002 10.837a.834.834 0 1 0-.052 1.666.834.834 0 0 0 .052-1.666Zm-.002-6.67a.833.833 0 0 0-.827.736l-.006.097.002 4.168.006.097a.833.833 0 0 0 1.655 0l.005-.097-.001-4.168-.006-.097a.833.833 0 0 0-.828-.736Z"/>
  </g>
  <defs>
    <clipPath id="a">
      <path d="M0 0h18v18H0z"/>
    </clipPath>
  </defs>
</svg>
