<svg xmlns="http://www.w3.org/2000/svg" width="18" height="18" fill="currentColor" viewBox="0 0 18 18">
  <path fill-rule="evenodd" d="M1.285 8.994A7.714 7.714 0 0 1 9 1.286a7.724 7.724 0 0 1 7.715 7.734 7.714 7.714 0 0 1-15.429-.026Zm1.23 2.686a7.015 7.015 0 1 0 12.967-5.36 7.015 7.015 0 0 0-12.966 5.36Z" clip-rule="evenodd"/>
  <path fill-rule="evenodd" d="M12.112 6.283a.4.4 0 0 0-.566-.566L9 8.263 6.454 5.717a.4.4 0 0 0-.566.566l2.546 2.546-2.545 2.545a.4.4 0 0 0 .566.566L9 9.394l2.545 2.546a.4.4 0 0 0 .566-.566L9.566 8.829l2.546-2.546Z" clip-rule="evenodd"/>
</svg>
