<svg width="17" height="17" viewBox="0 0 17 17" fill="currentColor" xmlns="http://www.w3.org/2000/svg">
<path d="M8.33333 0C12.9358 0 16.6667 3.73083 16.6667 8.33333C16.6667 12.9358 12.9358 16.6667 8.33333 16.6667C3.73083 16.6667 0 12.9358 0 8.33333C0 3.73083 3.73083 0 8.33333 0ZM11.0167 5.80833L7.29167 9.53333L5.65 7.89167C5.53152 7.78127 5.37482 7.72116 5.2129 7.72402C5.05098 7.72688 4.89649 7.79247 4.78198 7.90698C4.66747 8.02149 4.60188 8.17598 4.59902 8.3379C4.59616 8.49982 4.65627 8.65652 4.76667 8.775L6.85 10.8583C6.96719 10.9754 7.12604 11.0411 7.29167 11.0411C7.45729 11.0411 7.61615 10.9754 7.73333 10.8583L11.9 6.69167C11.9614 6.63445 12.0107 6.56545 12.0448 6.48878C12.079 6.41212 12.0973 6.32935 12.0988 6.24543C12.1003 6.16152 12.0849 6.07816 12.0534 6.00034C12.022 5.92251 11.9752 5.85182 11.9159 5.79247C11.8565 5.73312 11.7858 5.68633 11.708 5.6549C11.6302 5.62346 11.5468 5.60803 11.4629 5.60951C11.379 5.61099 11.2962 5.62936 11.2196 5.66352C11.1429 5.69768 11.0739 5.74693 11.0167 5.80833Z"/>
</svg>
