<svg xmlns="http://www.w3.org/2000/svg" width="18" height="18" fill="currentColor" viewBox="0 0 18 18">
  <g clip-path="url(#a)">
    <g clip-path="url(#b)">
      <path d="M8.995 8.514a5.62 5.62 0 0 1 4.065 1.718 5.93 5.93 0 0 1 1.68 3.813h.76a6.692 6.692 0 0 0-.501-2.256 6.556 6.556 0 0 0-3.461-3.52c-.028-.01-.028-.01-.037-.02l-.455-.236.418-.302a4.294 4.294 0 0 0 1.735-3.445c0-2.35-1.875-4.257-4.185-4.257-2.31 0-4.204 1.898-4.204 4.248a4.31 4.31 0 0 0 1.736 3.454l.417.302-.454.236s-.019 0-.019.01l-.176.094v-.019a6.327 6.327 0 0 0-1.903 1.35l-.018.019a6.646 6.646 0 0 0-1.373 2.086l-.02.047a6.51 6.51 0 0 0-.482 2.218h.76a5.818 5.818 0 0 1 1.68-3.813 5.674 5.674 0 0 1 4.064-1.718l-.028-.01ZM6.574 6.72A3.494 3.494 0 0 1 5.57 4.257c0-.925.353-1.803 1.003-2.464A3.376 3.376 0 0 1 8.995.773c.91 0 1.782.36 2.422 1.02a3.494 3.494 0 0 1 1.002 2.464 3.49 3.49 0 0 1-1.002 2.463 3.36 3.36 0 0 1-2.422 1.02 3.36 3.36 0 0 1-2.421-1.02Z"/>
      <path fill-rule="evenodd" d="M9.004 12.979c-.742 0-1.355.613-1.355 1.378 0 .764.604 1.378 1.355 1.378.752 0 1.355-.614 1.355-1.378 0-.765-.603-1.378-1.355-1.378Zm0 2.246a.859.859 0 0 1-.854-.868c0-.482.38-.869.854-.869a.86.86 0 0 1 .854.869c0 .481-.38.868-.854.868Z" clip-rule="evenodd"/>
      <path fill-rule="evenodd" d="m10.74 16.594.028.019.566.32a.27.27 0 0 0 .371-.103l.752-1.293a.294.294 0 0 0 .027-.217.266.266 0 0 0-.13-.17l-.547-.33v-.067a1.56 1.56 0 0 0 .046-.406 2.83 2.83 0 0 0-.027-.396v-.066l.547-.33a.29.29 0 0 0 .102-.387l-.733-1.294a.268.268 0 0 0-.371-.104l-.622.34-.046-.037a3.189 3.189 0 0 0-.752-.416l-.055-.028v-.66a.282.282 0 0 0-.279-.284H8.151a.282.282 0 0 0-.278.283v.66l-.056.03a2.939 2.939 0 0 0-.622.386l-.046.038-.529-.32a.28.28 0 0 0-.213-.03.263.263 0 0 0-.167.133l-.724 1.293a.28.28 0 0 0 .102.378l.566.33v.066a1.912 1.912 0 0 0-.037.396c0 .133.01.265.028.397v.066l-.548.33a.266.266 0 0 0-.13.17.31.31 0 0 0 .028.208l.733 1.293a.289.289 0 0 0 .167.132.28.28 0 0 0 .214-.038l.491-.32.056.037c.195.16.4.293.622.387l.056.029v.66c0 .151.12.284.278.284h1.466a.282.282 0 0 0 .278-.284v-.66l.056-.029a3.47 3.47 0 0 0 .742-.406l.047-.037.009.047Zm-.223-.538c-.213.207-.584.415-.983.547a.283.283 0 0 0-.195.264v.576H8.42v-.576a.271.271 0 0 0-.195-.264c-.306-.094-.584-.274-.863-.547a.278.278 0 0 0-.334-.038l-.426.274-.028-.038-.427-.765.492-.283a.295.295 0 0 0 .13-.311 2.297 2.297 0 0 1-.065-.538c0-.189.018-.368.055-.538a.295.295 0 0 0-.13-.312l-.5-.292.445-.803.454.283a.278.278 0 0 0 .334-.037c.279-.264.557-.444.863-.548a.283.283 0 0 0 .195-.264v-.576h.919v.576a.27.27 0 0 0 .195.264c.399.133.77.33.983.548a.264.264 0 0 0 .316.047l.557-.302.463.821-.037.019-.454.264a.295.295 0 0 0-.13.312 2.134 2.134 0 0 1-.01 1.076.275.275 0 0 0 .13.302l.483.283-.473.821-.53-.292a.294.294 0 0 0-.324.037l.01.01Z" clip-rule="evenodd"/>
    </g>
  </g>
  <defs>
    <clipPath id="a">
      <path d="M0 0h18v18H0z"/>
    </clipPath>
    <clipPath id="b">
      <path d="M2.5 0h13v18h-13z"/>
    </clipPath>
  </defs>
</svg>
