<svg xmlns="http://www.w3.org/2000/svg" width="18" height="18" fill="currentColor" viewBox="0 0 18 18">
  <path d="M16.774 12.684c-.213 0-.354.141-.354.354v1.346c0 .92-.779 1.7-1.7 1.7H3.244c-.922 0-1.7-.78-1.7-1.7v-1.347c0-.212-.142-.353-.354-.353-.213 0-.354.141-.354.354v1.346a2.389 2.389 0 0 0 2.409 2.408H14.79a2.389 2.389 0 0 0 2.409-2.408v-1.347c-.073-.212-.215-.353-.427-.353h.001ZM8.769.624c.071 0 .071-.07.141-.07a.215.215 0 0 1 .284 0c.071 0 .071.07.141.07l4.96 4.959a.343.343 0 0 1 0 .496.343.343 0 0 1-.497 0l-4.32-4.323V13.02c0 .212-.141.354-.354.354-.212 0-.353-.142-.353-.354V1.756L4.307 6.078a.343.343 0 0 1-.497 0 .343.343 0 0 1 0-.497L8.77.624Z"/>
</svg>
