<svg xmlns="http://www.w3.org/2000/svg" width="18" height="18" fill="currentColor" viewBox="0 0 18 18">
  <g clip-path="url(#a)">
    <path fill-rule="evenodd" d="M8.91 0C6.52 0 4.28.92 2.6 2.6A8.855 8.855 0 0 0 0 8.91c0 2.39.87 4.47 2.44 6.1 1.61 1.79 3.96 2.81 6.47 2.81s4.91-1.07 6.65-2.93c1.5-1.68 2.32-3.81 2.32-5.98a8.996 8.996 0 0 0-2.66-6.31A8.895 8.895 0 0 0 8.9 0h.01Zm5.57 14.79c-1.56 1.49-3.63 2.35-5.69 2.35-2.02-.06-3.97-.88-5.51-2.29l-.06-.05.06-.04s.09-.06.13-.09c.12-.09.21-.16.32-.16l3.55-1.29c.16-.05.27-.21.27-.37v-1.31l.08.03c.36.12.79.24 1.21.24.45 0 .93-.1 1.39-.3l.08-.04v1.38c0 .16.11.32.27.37l3.56 1.29s.1.05.17.09c.05.03.1.07.15.1l.08.04-.06.06v-.01ZM5.84 6.94c.28.07.58.12.92.12.94 0 1.98-.41 2.6-1.03l.05-.05.04.06c.55.73 1.21 1.08 2.04 1.08.18 0 .3 0 .47-.06l.08-.03v.09c-.07 2.13-1.47 3.81-3.2 3.81h-.08c-.64 0-1.28-.28-1.81-.78-.77-.74-1.23-1.91-1.24-3.12V7h.05v-.06h.08Zm-.01-.82v-.05c.39-1.73 1.66-2.93 3.08-2.93 1.53 0 2.81 1.28 3.13 3.12v.06l-.05.01c-.16.03-.32.05-.46.05-.7 0-1.21-.37-1.75-1.24-.05-.11-.22-.22-.32-.22-.19 0-.28.15-.31.21-.32.64-1.44 1.2-2.39 1.2-.33 0-.64-.07-.89-.19l-.04-.02Zm9.39 7.93-.03.04-.04-.03-.11-.08c-.16-.11-.34-.24-.49-.28l-3.36-1.18v-1.61l.02-.02c1.06-.88 1.7-2.31 1.7-3.82 0-2.62-1.75-4.67-4-4.67S4.92 4.54 4.92 7.07c0 1.64.72 3.15 1.88 3.94l.03.02v1.49h-.04L3.47 13.7c-.18.04-.36.19-.54.34-.06.05-.12.1-.19.15l-.05.03-.04-.04A8.21 8.21 0 0 1 .73 8.92C.74 4.4 4.4.74 8.91.74s8.17 3.66 8.17 8.17c0 1.86-.66 3.69-1.86 5.14Z" clip-rule="evenodd"/>
  </g>
  <defs>
    <clipPath id="a">
      <path d="M0 0h18v18H0z"/>
    </clipPath>
  </defs>
</svg>
