<svg width="17" height="17" viewBox="0 0 17 17" fill="currentColor" xmlns="http://www.w3.org/2000/svg">
  <path d="M8.33333 0C12.9358 0 16.6667 3.73167 16.6667 8.33333C16.6667 12.935 12.9358 16.6667 8.33333 16.6667C3.73083 16.6667 0 12.935 0 8.33333C0 3.73167 3.73083 0 8.33333 0ZM8.335 10.8367C8.22351 10.8331 8.11245 10.852 8.00842 10.8923C7.90438 10.9325 7.80949 10.9932 7.72938 11.0708C7.64927 11.1485 7.58558 11.2414 7.54208 11.3441C7.49858 11.4468 7.47616 11.5572 7.47616 11.6687C7.47616 11.7803 7.49858 11.8907 7.54208 11.9934C7.58558 12.0961 7.64927 12.189 7.72938 12.2667C7.80949 12.3443 7.90438 12.405 8.00842 12.4452C8.11245 12.4854 8.22351 12.5044 8.335 12.5008C8.55112 12.494 8.75611 12.4033 8.90657 12.248C9.05703 12.0927 9.14116 11.885 9.14116 11.6687C9.14116 11.4525 9.05703 11.2448 8.90657 11.0895C8.75611 10.9342 8.55112 10.8435 8.335 10.8367ZM8.33333 4.16667C8.12909 4.16672 7.93198 4.24177 7.77944 4.37757C7.62689 4.51338 7.52952 4.70047 7.50583 4.90333L7.5 5L7.50167 9.1675L7.5075 9.265C7.53159 9.46754 7.62913 9.65421 7.78164 9.78965C7.93414 9.9251 8.13103 9.9999 8.335 9.9999C8.53897 9.9999 8.73585 9.9251 8.88836 9.78965C9.04087 9.65421 9.13841 9.46754 9.1625 9.265L9.16833 9.1675L9.16667 5L9.16083 4.9025C9.13695 4.69979 9.0395 4.51289 8.88698 4.37726C8.73445 4.24163 8.53744 4.16669 8.33333 4.16667Z"/>
</svg>
