<svg xmlns="http://www.w3.org/2000/svg" width="18" height="18" fill="currentColor" viewBox="0 0 18 18">
  <path fill-rule="evenodd" d="M10.363 3.406c-.625-.941-2.101-.941-2.726 0L1.24 13.05c-.656.988.111 2.26 1.363 2.26h12.794c1.252 0 2.019-1.272 1.364-2.26l-6.398-9.643Zm-1.371 1.2c.43-.001.779.32.78.715l.015 5.305c.001.396-.346.718-.776.72-.43 0-.779-.32-.78-.716l-.015-5.305c-.001-.396.346-.718.776-.72Zm-.767 8.14c.003-.396.353-.716.783-.714h.005c.43.002.776.325.774.722-.002.396-.352.715-.782.713h-.006c-.43-.002-.776-.325-.774-.721Z" clip-rule="evenodd"/>
</svg>
