<svg xmlns="http://www.w3.org/2000/svg" width="18" height="18" fill="currentColor" viewBox="0 0 18 18">
  <path fill-rule="evenodd" d="M9 11.5c-.276 0-.5-.186-.5-.417V5.518c0-.23.224-.418.5-.418s.5.187.5.418v5.565c0 .23-.224.418-.5.418Z" clip-rule="evenodd"/>
  <circle cx="9" cy="13.2" r=".65"/>
  <path fill-rule="evenodd" d="M16.26 13.68 9.864 4.039c-.387-.584-1.339-.584-1.726 0L1.74 13.68c-.345.52.004 1.328.863 1.328h12.794c.86 0 1.208-.809.864-1.328Zm-5.897-9.974c-.625-.941-2.101-.941-2.726 0L1.24 13.35c-.656.988.111 2.26 1.363 2.26h12.794c1.252 0 2.019-1.272 1.364-2.26l-6.398-9.643Z" clip-rule="evenodd"/>
</svg>
