<svg xmlns="http://www.w3.org/2000/svg" width="18" height="18" fill="currentColor" viewBox="0 0 18 18">
  <g clip-path="url(#a)">
    <path d="M17.46 14.63V8.4c0-.98-.63-1.72-1.47-1.72h-9c-.84 0-1.47.74-1.47 1.72v6.23c0 .98.63 1.72 1.47 1.72h4.13v.77H8.68c-.18 0-.37.2-.37.39s.19.39.37.39h5.61c.18 0 .37-.2.37-.39s-.19-.39-.37-.39h-2.44v-.77h4.13c.84 0 1.47-.74 1.47-1.72h.01ZM6.24 8.32c0-.43.32-.93.74-.93h9c.41 0 .74.42.74.93v4.98H6.24V8.32Zm.74 7.24c-.43 0-.81-.44-.81-.93v-.54h10.55v.54c.04.23-.03.48-.19.66-.14.17-.35.27-.55.27h-9Z"/>
    <path d="M11.48 14.55c-.16 0-.29.14-.29.31 0 .17.13.31.29.31.16 0 .29-.14.29-.31 0-.17-.13-.31-.29-.31ZM2.4 8.95h2.14c.18 0 .36-.19.37-.38-.07-.2-.26-.4-.44-.4H2.4c-.18 0-.37.2-.37.39s.19.39.37.39ZM.63 6.37c0 .6.43 1.09.96 1.09h2.88c.18 0 .37-.2.37-.39s-.19-.39-.37-.39H1.59c-.19 0-.3-.19-.3-.39V5.9h8.04c.17 0 .37-.05.37-.31V1.15c0-.6-.43-1.09-.96-1.09H1.58C1.05.06.62.55.62 1.15v5.22h.01Zm.67-5.22c0-.19.17-.39.3-.39h7.16c.17 0 .3.16.3.39V5.2H1.31V1.15H1.3Z"/>
  </g>
  <defs>
    <clipPath id="a">
      <path d="M0 0h18v18H0z"/>
    </clipPath>
  </defs>
</svg>
