<svg xmlns="http://www.w3.org/2000/svg" width="18" height="18" fill="currentColor" viewBox="0 0 18 18">
  <path d="m4.3 13.12 2.25-1.83c.06-.05.14-.14.14-.27 0-.1-.05-.2-.13-.27L4.29 8.79a.249.249 0 0 0-.19-.07c-.1 0-.22.05-.3.13-.13.14-.07.36.06.49l1.95 1.61-.03.02-1.92 1.6c-.11.11-.2.28-.04.49h.01v.03c.09.08.26.18.48.02l-.01.01Zm7.22-2.58H8.53c-.17 0-.36.13-.36.36 0 .23.13.36.36.36h2.99c.17 0 .36-.13.36-.36 0-.23-.18-.36-.36-.36Z"/>
  <path d="M15.97 2H1.82C.8 2 0 2.8 0 3.82v10.37c0 1.02.8 1.82 1.82 1.82h14.09c1.02 0 1.82-.8 1.82-1.82V3.82c.03-.45-.14-.9-.47-1.25A1.79 1.79 0 0 0 15.97 2Zm1.11 12.19c0 .69-.49 1.23-1.11 1.23H1.82c-.62 0-1.17-.55-1.17-1.17V6.07h16.43v8.12Zm0-8.71H.71V3.83c0-.62.49-1.11 1.11-1.11h14.09c.62 0 1.17.55 1.17 1.17v1.59Z"/>
  <path d="M2.93 4.84c-.41 0-.74-.33-.74-.74s.33-.74.74-.74.74.33.74.74-.33.74-.74.74Zm0-1.08c-.19 0-.34.15-.34.34 0 .19.15.34.34.34.19 0 .34-.15.34-.34 0-.19-.15-.34-.34-.34Zm2.02 1.08c-.41 0-.74-.33-.74-.74s.33-.74.74-.74.74.33.74.74-.33.74-.74.74Zm0-1.08c-.19 0-.34.15-.34.34 0 .19.15.34.34.34.19 0 .34-.15.34-.34 0-.19-.15-.34-.34-.34Zm2.03 1.08c-.41 0-.74-.33-.74-.74s.33-.74.74-.74.74.33.74.74-.33.74-.74.74Zm0-1.08c-.19 0-.34.15-.34.34 0 .19.15.34.34.34.19 0 .34-.15.34-.34 0-.19-.15-.34-.34-.34Z"/>
</svg>
