<svg xmlns="http://www.w3.org/2000/svg" width="18" height="18" fill="currentColor" viewBox="0 0 18 18">
  <g clip-path="url(#a)">
    <path d="M5.62 9.35H8c.18 0 .38-.13.38-.38s-.13-.38-.38-.38H5.62c-.18 0-.38.13-.38.38s.19.38.38.38Zm0-1.78H8c.18 0 .38-.13.38-.38s-.13-.38-.38-.38H5.62c-.18 0-.38.13-.38.38s.19.38.38.38Zm0-1.79H8c.18 0 .38-.13.38-.38s-.19-.38-.38-.38H5.62c-.18 0-.38.19-.38.38s.19.38.38.38Z"/>
    <path d="m15.21 1.19-.11-.02c-.29-.06-.56-.12-.83-.14H5.59c-1.28 0-2.29.99-2.3 2.27h.02v9.57h-.97a2.29 2.29 0 0 0-2.3 2.31c0 1.29 1.01 2.3 2.3 2.3h9.28c1.29 0 2.3-1.01 2.3-2.3v-3.63c-.05-.21-.18-.34-.34-.34-.16 0-.34.11-.34.34v3.63c0 .91-.77 1.69-1.69 1.69-.92 0-1.69-.77-1.69-1.69 0-.92.77-1.68 1.69-1.68.1 0 .18-.03.23-.1a.35.35 0 0 0 .08-.22c0-.16-.1-.31-.32-.31H3.97V3.33c0-.91.77-1.69 1.69-1.69h7.5l-.13.21c-.09.14-.09.36-.09.58v.83c0 .17.12.34.34.34.17 0 .34-.12.34-.34v-.83c0-.43.35-.79.79-.79.2 0 .35.07.46.12.18.18.38.24.54.17.13-.06.21-.19.21-.34 0-.18-.13-.33-.34-.41M10 13.5l-.19.23c-.33.39-.5.89-.5 1.46s.17 1.07.5 1.46l.19.23H2.34c-.91 0-1.69-.77-1.69-1.69 0-.92.77-1.68 1.69-1.68h7.67L10 13.5Z"/>
    <path d="M5.62 11.14h3.57c.18 0 .38-.13.38-.38s-.13-.38-.38-.38H5.62c-.18 0-.38.13-.38.38s.19.38.38.38Zm7.75-6.36c-1.58 0-2.83 1.25-2.83 2.83s1.27 2.83 2.83 2.83c.79 0 1.37-.36 1.64-.57l.09-.06 2.11 2.11c.06.06.13.09.23.09s.18-.05.23-.09a.32.32 0 0 0 .08-.23c0-.1-.05-.18-.09-.23l-2.1-2.1.07-.1c.26-.35.56-.91.56-1.64 0-1.59-1.24-2.83-2.83-2.83l.01-.01Zm-.01 5.07c-1.25-.06-2.23-1.04-2.23-2.22 0-1.18 1.02-2.23 2.23-2.23s2.22 1.02 2.22 2.23-1.02 2.22-2.22 2.22Zm-4.17-6.6H5.62c-.18 0-.38.19-.38.38s.19.38.38.38h3.57c.18 0 .38-.13.38-.38s-.19-.38-.38-.38Z"/>
  </g>
  <defs>
    <clipPath id="a">
      <path d="M0 0h18v18H0z"/>
    </clipPath>
  </defs>
</svg>
