<svg xmlns="http://www.w3.org/2000/svg" width="18" height="18" fill="currentColor" viewBox="0 0 18 18">
  <g clip-path="url(#a)">
    <path d="m11 15.03-.05.02c-.88.36-1.82.54-2.79.54h-.13a7.32 7.32 0 0 1-4.32-1.48v-3.26c0-.8.65-1.45 1.45-1.45h6c.32 0 .64.11.89.3l.04.03.43-.55-.04-.03c-.38-.29-.85-.45-1.31-.45H8.85a2.746 2.746 0 0 0 2.06-2.65c0-1.52-1.23-2.75-2.75-2.75S5.41 4.53 5.41 6.05c0 1.28.88 2.34 2.06 2.65h-2.3c-1.19 0-2.15.96-2.15 2.15v2.67a7.374 7.374 0 0 1-2.3-5.37C.72 4.04 4.06.7 8.17.7s7.45 3.34 7.45 7.45c0 .39-.03.76-.09 1.12v.05l.63.1h.05v-.04c.06-.4.09-.82.09-1.23C16.3 3.66 12.64 0 8.15 0S0 3.66 0 8.15a8.11 8.11 0 0 0 3.13 6.42 8.086 8.086 0 0 0 5.02 1.73c1.04 0 2.07-.2 3.05-.59l.05-.02-.25-.61-.02-.05H11Zm-.78-8.98c0 1.13-.92 2.05-2.05 2.05s-2.05-.92-2.05-2.05S7.04 4 8.17 4s2.05.92 2.05 2.05Z"/>
    <path d="m17.93 10.95-3.6-1.91a.325.325 0 0 0-.33 0l-3.6 1.91c-.12.07-.2.21-.19.35l.07.58a8.7 8.7 0 0 0 3.68 6.16c.05.04.12.06.2.06.08 0 .15-.03.2-.06a8.719 8.719 0 0 0 3.68-6.17l.07-.58a.367.367 0 0 0-.19-.35l.01.01Zm-.54.51-.04.33a8.031 8.031 0 0 1-3.18 5.53 8.01 8.01 0 0 1-3.18-5.53l-.04-.33 3.23-1.7 3.22 1.7h-.01Z"/>
    <path d="M13.87 14.8h.07a.4.4 0 0 0 .23-.16l1.8-3 .03-.04-.55-.34-.04-.03-1.63 2.71-.88-.66-.05-.05-.43.57 1.24.93c.06.05.13.07.21.07Z"/>
  </g>
  <defs>
    <clipPath id="a">
      <path d="M0 0h18v18H0z"/>
    </clipPath>
  </defs>
</svg>
