<svg xmlns="http://www.w3.org/2000/svg" width="18" height="18" fill="currentColor" viewBox="0 0 18 18">
  <g clip-path="url(#a)">
    <path fill-rule="evenodd" d="M5.5 0H3.25c-.24 0-.37.14-.37.37V1.5H.37c-.24 0-.37.14-.37.37v15.25c0 .24.14.37.37.37h16.75c.24 0 .37-.14.37-.37V1.88c0-.24-.14-.37-.37-.37h-2.51V.37c0-.24-.13-.37-.37-.37h-2.25c-.24 0-.37.14-.37.37V1.5H5.87V.37C5.87.13 5.73 0 5.5 0ZM3.62.76h1.51v.75H3.62V.76Zm0 1.49h1.51V3H3.62v-.75Zm13.13 14.5H.74V5.87h16.01v10.88ZM12.37.76h1.51v.75h-1.51V.76Zm0 1.49h1.51V3h-1.51v-.75Zm-.76 0v1.13c0 .24.13.37.37.37h2.25c.24 0 .37-.14.37-.37V2.25h2.12v2.88h-16V2.25h2.15v1.13c0 .24.14.37.37.37h2.25c.24 0 .37-.14.37-.37V2.25h5.75Z" clip-rule="evenodd"/>
  </g>
  <defs>
    <clipPath id="a">
      <path d="M0 0h18v18H0z"/>
    </clipPath>
  </defs>
</svg>
