<svg xmlns="http://www.w3.org/2000/svg" width="18" height="18" fill="currentColor" viewBox="0 0 18 18">
  <g clip-path="url(#a)">
    <path d="M3.907 12.294a3.825 3.825 0 0 1-2.584-.969C.52 10.614 0 9.56 0 8.64c0-1.525 1.065-2.81 2.546-3.158a4.08 4.08 0 0 1-.186-1.503C2.494 1.803 4.433.018 6.681 0h.035C8.53 0 10.15 1.107 10.79 2.715a3.379 3.379 0 0 1 2.401-.702A3.296 3.296 0 0 1 15.96 4.13c.193.517.242 1.048.148 1.583C17.252 6.252 18 7.389 18 8.639c0 1.805-1.42 3.116-3.375 3.116v-.75c1.545 0 2.625-.973 2.625-2.366 0-1.043-.685-1.985-1.704-2.345l-.333-.118.097-.339a2.27 2.27 0 0 0-.054-1.444 2.542 2.542 0 0 0-2.134-1.633 2.586 2.586 0 0 0-2.224.888l-.486.574-.165-.733C9.887 1.898 8.404.75 6.716.75h-.029C4.824.765 3.22 2.234 3.11 4.025c-.034.553.065 1.09.293 1.597l.217.48-.523.049C1.758 6.275.75 7.344.75 8.639c0 .586.331 1.47 1.07 2.125.482.426 1.314.9 2.556.751l.09.744a4.6 4.6 0 0 1-.559.035Z"/>
    <path d="M7.567 13.95a2.642 2.642 0 0 1-2.085-1.008 2.659 2.659 0 0 1 2.085-4.303 2.657 2.657 0 0 1 2.084 4.302l-.001.001a2.64 2.64 0 0 1-2.083 1.008Zm0-4.561a1.908 1.908 0 0 0-1.496 3.089c.363.459.909.722 1.496.722a1.901 1.901 0 0 0 1.904-1.907c0-1.05-.854-1.904-1.904-1.904Z"/>
    <path d="M12.407 18H2.73v-1.747a4.077 4.077 0 0 1 2.945-3.905l.241-.069.156.197c.363.46.91.724 1.497.724.586 0 1.13-.264 1.494-.724l.156-.196.24.068a4.071 4.071 0 0 1 2.948 3.905V18Zm-8.927-.75h8.177v-.997a3.321 3.321 0 0 0-2.18-3.112 2.64 2.64 0 0 1-1.908.809c-.73 0-1.412-.292-1.91-.809a3.326 3.326 0 0 0-2.179 3.112v.997Z"/>
    <path d="M15.27 16.103h-3.276v-.75h2.526v-.22a4.062 4.062 0 0 0-2.586-3.802l.274-.698a4.809 4.809 0 0 1 3.062 4.5v.97Z"/>
    <path d="M10.433 12.054c-.239 0-.477-.033-.71-.097l.2-.723a1.91 1.91 0 0 0 1.88-.513l.538.523a2.644 2.644 0 0 1-1.908.81Z"/>
    <path d="m12.556 11.487-.283-.247-.265-.265.011-.011a1.907 1.907 0 1 0-3.276-1.561L8 9.305A2.659 2.659 0 0 1 10.633 7a2.657 2.657 0 0 1 1.923 4.487Z"/>
  </g>
  <defs>
    <clipPath id="a">
      <path d="M0 0h18v18H0z"/>
    </clipPath>
  </defs>
</svg>
