<svg xmlns="http://www.w3.org/2000/svg" width="18" height="18" fill="currentColor" viewBox="0 0 18 18">
  <g clip-path="url(#a)">
    <g clip-path="url(#b)">
      <path d="M3.907 12.794a3.825 3.825 0 0 1-2.584-.969C.52 11.114 0 10.06 0 9.14c0-1.525 1.065-2.81 2.546-3.158a4.08 4.08 0 0 1-.186-1.503C2.494 2.303 4.433.518 6.681.5h.035C8.53.5 10.15 1.607 10.79 3.215a3.379 3.379 0 0 1 2.401-.702A3.296 3.296 0 0 1 15.96 4.63c.193.517.242 1.048.148 1.583C17.252 6.752 18 7.889 18 9.139c0 1.805-1.42 3.116-3.375 3.116v-.75c1.545 0 2.625-.973 2.625-2.366 0-1.043-.685-1.985-1.704-2.345l-.333-.118.097-.339a2.27 2.27 0 0 0-.054-1.444 2.542 2.542 0 0 0-2.134-1.633 2.586 2.586 0 0 0-2.224.888l-.486.574-.165-.733C9.887 2.398 8.404 1.25 6.716 1.25h-.029C4.824 1.265 3.22 2.734 3.11 4.525c-.034.553.065 1.09.293 1.597l.217.48-.523.049C1.758 6.775.75 7.844.75 9.139c0 .586.331 1.47 1.07 2.125.482.426 1.314.9 2.556.751l.09.744a4.6 4.6 0 0 1-.559.035Z"/>
      <path d="M9.5 8.5c2.195 0 4 .778 4 1.877v5.246c0 1.099-1.805 1.877-4 1.877-2.154 0-3.932-.75-3.998-1.815l-.002-.062v-5.246l.003-.072C5.579 9.245 7.353 8.5 9.5 8.5Zm0 7.184c-1.49 0-2.8-.359-3.488-.932v.871c0 .685 1.548 1.352 3.488 1.352 1.898 0 3.421-.639 3.485-1.308l.002-.044v-.872c-.687.574-1.997.933-3.487.933Zm0-1.816c-1.49 0-2.8-.359-3.488-.932v.871c0 .685 1.548 1.352 3.488 1.352 1.898 0 3.421-.64 3.485-1.308l.002-.044v-.872c-.687.574-1.997.933-3.487.933ZM6.012 11.99c0 .685 1.548 1.352 3.488 1.352 1.898 0 3.421-.64 3.485-1.308l.002-.044v-.67c-.687.574-1.997.932-3.487.932s-2.8-.358-3.488-.932v.67ZM9.5 9.025c-1.94 0-3.487.667-3.487 1.352 0 .684 1.548 1.352 3.487 1.352 1.94 0 3.488-.668 3.488-1.352v.008-.008c-.006-.687-1.552-1.352-3.488-1.352Z"/>
    </g>
  </g>
  <defs>
    <clipPath id="a">
      <path d="M0 0h18v18H0z"/>
    </clipPath>
    <clipPath id="b">
      <path d="M0 .5h18v18H0z"/>
    </clipPath>
  </defs>
</svg>
