<svg xmlns="http://www.w3.org/2000/svg" width="18" height="18" fill="currentColor" viewBox="0 0 18 18">
  <rect width=".729" height="9.17" x="6.016" y="12.5" rx=".365" transform="rotate(-135 6.016 12.5)"/>
  <rect width=".729" height="9.17" x="5.5" y="6.016" rx=".365" transform="rotate(-45 5.5 6.016)"/>
  <rect width=".729" height="9.17" x="6.016" y="12.5" rx=".365" transform="rotate(-135 6.016 12.5)"/>
  <rect width=".729" height="9.17" x="5.5" y="6.016" rx=".365" transform="rotate(-45 5.5 6.016)"/>
  <rect width=".729" height="9.17" x="6.016" y="12.5" rx=".365" transform="rotate(-135 6.016 12.5)"/>
  <rect width=".729" height="9.17" x="5.5" y="6.016" rx=".365" transform="rotate(-45 5.5 6.016)"/>
  <rect width=".729" height="9.17" x="6.016" y="12.5" rx=".365" transform="rotate(-135 6.016 12.5)"/>
  <rect width=".729" height="9.17" x="5.5" y="6.016" rx=".365" transform="rotate(-45 5.5 6.016)"/>
</svg>
