<!-- Generated by IcoMoon.io -->
<svg version="1.1" xmlns="http://www.w3.org/2000/svg" width="32" height="32" viewBox="0 0 32 32" aria-labelledby="cross-thin">
<path d="M0.455 2.679c-0.602-0.602-0.602-1.604 0-2.227 0.623-0.602 1.604-0.602 2.227 0l13.366 13.388 13.388-13.388c0.602-0.602 1.604-0.602 2.205 0 0.623 0.623 0.623 1.627 0 2.227l-13.366 13.367 13.366 13.388c0.623 0.602 0.623 1.604 0 2.227-0.602 0.602-1.604 0.602-2.205 0l-13.388-13.388-13.366 13.388c-0.623 0.602-1.604 0.602-2.227 0-0.602-0.623-0.602-1.627 0-2.227l13.366-13.388-13.366-13.367z"></path>
</svg>
