<svg xmlns="http://www.w3.org/2000/svg" width="18" height="18" fill="currentColor" viewBox="0 0 18 18">
  <g clip-path="url(#a)">
    <path d="M9.8 2.75a.36.36 0 0 0-.16.24c-.02.1 0 .19.05.27.05.08.14.13.24.14 1.21.21 2.32.84 3.15 1.75.07.07.16.11.26.11.07 0 .16-.01.24-.08a.36.36 0 0 0 .03-.5 6.364 6.364 0 0 0-3.55-1.98h-.07c-.07 0-.14.02-.19.06v-.01Zm4.72 8.33h.09c.16 0 .29-.1.34-.25.2-.59.3-1.24.3-1.93-.02-.51-.07-.97-.16-1.35v-.02l-.04-.15c-.06-.21-.11-.41-.18-.6a.35.35 0 0 0-.17-.19.42.42 0 0 0-.16-.04c-.04 0-.08 0-.12.02-.09.03-.16.09-.19.17a.36.36 0 0 0-.02.27c.09.27.16.49.2.69.09.41.13.81.13 1.21 0 .59-.09 1.18-.26 1.71a.39.39 0 0 0 .02.28c.04.08.12.15.21.18h.01Zm-1.88-4.34c-.05-.07-.15-.12-.26-.14-.08-.02-.17 0-.24.05l-.03.02-2.47 1.77-.06-.03c-.2-.12-.44-.2-.67-.2-.72 0-1.31.59-1.31 1.31 0 .72.6 1.31 1.31 1.31.71 0 1.31-.6 1.31-1.31 0-.13-.03-.27-.08-.44l-.03-.07.06-.05 2.36-1.7c.16-.13.2-.36.09-.53l.02.01Zm-3.72 3.38a.559.559 0 1 1 0-1.12c.31 0 .56.25.56.56 0 .32-.23.56-.56.56ZM7.63 2.71h-.07c-1.37.31-2.58 1.03-3.47 2.1-.13.15-.11.37.04.5.06.05.15.09.23.09.08 0 .19-.02.27-.13.81-.96 1.88-1.6 3.1-1.86h.03c.15-.04.25-.19.25-.36L8 2.99a.375.375 0 0 0-.36-.28h-.01Z"/>
    <path d="M8.94 13.19h.05c2 0 4.1 1.05 4.99 2.51.07.11.18.17.33.17.11 0 .18-.03.26-.09 2.06-1.7 3.25-4.2 3.25-6.88v-.04h.01C17.81 4 13.85.03 8.97 0h-.06C4 0 0 4 0 8.92a8.9 8.9 0 0 0 3.25 6.88l.02.02s.02.01.03.02c.01 0 .03 0 .04.01.02 0 .04 0 .05.02.02 0 .04 0 .06.02h.09l.02-.02h.08c.01 0 .03-.02.06-.02h.02l.12-.12c.92-1.43 3.11-2.52 5.09-2.52l.01-.02Zm-5.45 1.66-.07.09-.08-.08A8.192 8.192 0 0 1 .77 8.91C.77 4.41 4.42.76 8.92.76s8.14 3.65 8.14 8.15c0 2.22-.92 4.36-2.52 5.88l.08.09h-.37l-.06.06v-.13h.03l.04-.04c-1.2-1.45-3.29-2.38-5.34-2.38s-4.19.96-5.42 2.46h-.01Z"/>
    <path d="M3.6 11.08a.36.36 0 0 0 .02-.27 5.599 5.599 0 0 1-.33-1.9c0-.6.09-1.17.26-1.7.03-.1.02-.2-.02-.27a.41.41 0 0 0-.21-.18c-.03 0-.07-.02-.12-.02-.06 0-.11.01-.15.03-.08.05-.15.12-.19.21-.2.64-.3 1.28-.3 1.91 0 .44.05.89.14 1.35.06.28.14.54.22.8.04.14.18.24.34.24h.03c.02 0 .06 0 .09-.02h.04c.08-.04.14-.1.19-.18H3.6Zm5.35 6.71c1.31 0 2.52-.26 3.69-.8.1-.05.17-.12.2-.22.04-.1.04-.21 0-.29a.298.298 0 0 0-.2-.18.39.39 0 0 0-.3 0h-.02c-1.06.49-2.18.74-3.36.74-1.18 0-2.38-.27-3.46-.77a.426.426 0 0 0-.17-.04c-.05 0-.08 0-.13.02-.1.04-.18.11-.21.19-.05.1-.05.2-.01.3.04.09.1.17.19.21l.04.02c1.15.54 2.41.81 3.73.81l.01.01Z"/>
  </g>
  <defs>
    <clipPath id="a">
      <path d="M0 0h18v18H0z"/>
    </clipPath>
  </defs>
</svg>
