<svg xmlns="http://www.w3.org/2000/svg" width="18" height="18" fill="currentColor" viewBox="0 0 18 18">
  <path d="M11.48 5.1c0-.24-.15-.38-.38-.38-.22 0-.38.23-.38.38v8.85c0 .24.15.38.38.38s.38-.15.38-.38V5.1Zm-2.95 0c0-.11-.22-.28-.48-.28-.14 0-.28.15-.28.28v8.85c0 .24.15.38.38.38s.38-.15.38-.38V5.1Z"/>
  <path d="M16.61 2.16h-5.13V.38c0-.24-.15-.38-.38-.38H5.2c-.24 0-.38.15-.38.38v1.88H.38c-.24 0-.38.15-.38.38s.15.38.38.38h1.49v14.37c0 .24.15.38.38.38h11.8c.24 0 .38-.15.38-.38V2.93h2.18c.24 0 .38-.15.38-.38s-.15-.38-.38-.38v-.01ZM5.58.76h5.14v1.4H5.58V.76Zm8.09 16.16H2.63V2.93h11.04v13.99Z"/>
  <path d="M5.58 5.1c0-.11-.22-.28-.48-.28-.14 0-.28.15-.28.28v8.85c0 .24.15.38.38.38s.38-.15.38-.38V5.1Z"/>
</svg>
