<svg xmlns="http://www.w3.org/2000/svg" width="18" height="18" fill="currentColor" viewBox="0 0 18 18">
  <path d="M11.974 10.2a1.05 1.05 0 0 0-.791.37l-1.135 1.433c-.13-.212-1.12-1.983-1.73-2.456a3.495 3.495 0 0 0-.986-.506c-.155.161-.33.302-.524.418.438.117.865.29 1.161.52.205.16 2.022 2.997 2.022 2.997l.501-.634 1.124-1.42a.478.478 0 0 1 .358-.17.41.41 0 0 1 .275.102c.139.128.206.465-.036.74l-.01.013-.01.013-1.976 2.543a.53.53 0 0 1-.402.214.407.407 0 0 1-.25-.087l-1.642-2.725v4.26a.627.627 0 0 1-.627.623H3.65a.63.63 0 0 1-.448-.18.55.55 0 0 1-.165-.403l.013-4.457-1.559 3.65c-.13.282-.373.41-.544.41a.332.332 0 0 1-.131-.027c-.232-.1-.322-.468-.193-.787L1.05 13.6l.991-2.447c.457-.898 1.145-1.466 2.083-1.72a2.535 2.535 0 0 1-.502-.417c-.838.309-1.584.896-2.095 1.912L.1 14.45c-.244.603-.026 1.273.488 1.496a.9.9 0 0 0 .36.074c.42 0 .85-.283 1.06-.742l.471-1.105-.005 1.69C2.466 16.492 2.993 17 3.65 17h3.646c.657 0 1.19-.527 1.19-1.176v-2.241l.638 1.06a.982.982 0 0 0 .691.286c.309 0 .621-.146.847-.428l1.978-2.547c.43-.49.363-1.163-.007-1.503a.977.977 0 0 0-.659-.252Z"/>
  <path d="M16.875 1H5.344c-.619 0-1.125.496-1.125 1.103v3.098c.175-.1.363-.181.562-.238v-2.86c0-.304.253-.551.563-.551h11.53c.311 0 .563.247.563.551v8.276a.558.558 0 0 1-.562.552h-3.396c.027.18.024.368-.01.552h3.406c.619 0 1.125-.497 1.125-1.104V2.103C18 1.496 17.494 1 16.875 1Z"/>
  <path d="M5.49 9.276c1.087 0 1.968-.864 1.968-1.931 0-1.067-.881-1.93-1.969-1.93-1.087 0-1.968.863-1.968 1.93s.881 1.931 1.968 1.931Zm0-3.31c.775 0 1.405.618 1.405 1.379 0 .76-.63 1.38-1.406 1.38-.775 0-1.406-.62-1.406-1.38 0-.76.63-1.38 1.406-1.38Z"/>
</svg>
