<svg xmlns="http://www.w3.org/2000/svg" width="18" height="18" fill="currentColor" viewBox="0 0 18 18">
  <g clip-path="url(#a)">
    <path d="M18.06 2.2c0-.25-.17-.42-.42-.42h-1.15v-.37c0-.25-.17-.42-.42-.42h-3.12c-.25 0-.42.17-.42.42v.37h-1.15c-.98 0-1.78.43-2.31 1.25l-.04.06-.04-.06c-.52-.81-1.34-1.25-2.31-1.25H.42c-.25 0-.42.17-.42.42v12.52c0 .25.17.42.42.42h6.26c1.3 0 1.94.63 1.94 1.94 0 .3.21.43.42.43s.42-.15.42-.43c0-1.3.63-1.94 1.93-1.94h6.26c.25 0 .42-.17.42-.42V2.2h-.01ZM8.61 14.91l-.07-.05c-.49-.37-1.1-.54-1.86-.54H.84V2.62h5.84c1.23 0 1.94.85 1.94 2.32v9.96l-.01.01Zm4.75-13.06h2.3v5.23l-.82-.82a.41.41 0 0 0-.58 0l-.9.83V1.85Zm3.89 12.46h-5.84c-.76 0-1.37.18-1.86.54l-.07.05V4.94c0-1.48.71-2.32 1.94-2.32h1.15v5.46c0 .16.1.31.24.38l.09.04c.13.03.27 0 .4-.1l1.24-1.24.03.03 1.21 1.21c.12.12.3.15.48.08.17-.07.28-.23.28-.41V2.62h.73v11.69h-.02Z"/>
  </g>
  <defs>
    <clipPath id="a">
      <path d="M0 0h18v18H0z"/>
    </clipPath>
  </defs>
</svg>
