<svg xmlns="http://www.w3.org/2000/svg" width="18" height="18" fill="currentColor" viewBox="0 0 18 18">
  <path fill-rule="evenodd" d="M3.911.5c-.08.003-.186.105-.186.186v1.86H1.866c-.08 0-.186.102-.186.186v13.576c.003.083.107.186.186.186h.005l11.711.006c.08 0 .183-.103.186-.186v-1.871l.192.005 1.674.006c.08 0 .187-.108.186-.192h-.006V4.405a.529.529 0 0 0-.093-.197L12.647.628c-.003-.003.002-.004 0-.006-.076-.083-.14-.12-.245-.122h-8.49Zm.192.372h8.183v3.534c0 .207.12.186.224.186h2.938v9.467l-.18.006-1.302.006h-.192V6.463a.43.43 0 0 0-.093-.198L10.63 2.64v-.006a.242.242 0 0 0-.076-.07.3.3 0 0 0-.127-.017H4.103V.872Zm8.555.233.332.389 2.045 2.418.256.308h-2.633V1.105Zm-10.6 1.813h8.183V6.45c.003.084.107.187.186.186h2.975v9.485H2.057V2.918Zm8.555.232.33.39 2.046 2.417.256.308h-2.632V3.15Z" clip-rule="evenodd"/>
  <path d="M3.908 13.887h7.45c.079-.002.18.102.18.186s-.101.187-.18.186h-7.45c-.078.002-.18-.102-.18-.186s.102-.187.18-.186Zm0-1.668h7.45c.079-.002.18.102.18.186s-.101.187-.18.186h-7.45c-.078.002-.18-.102-.18-.186s.102-.187.18-.186Zm0-1.674h7.45c.079-.002.18.102.18.186s-.101.187-.18.186h-7.45c-.078.002-.18-.102-.18-.186s.102-.187.18-.186Zm-.052-1.674h7.451c.078-.002.18.102.18.186s-.102.187-.18.186H3.856c-.078.002-.18-.102-.18-.186s.102-.187.18-.186Z"/>
  <path fill-rule="evenodd" d="M3.917 4.777c-.082 0-.186.104-.186.186v2.232c0 .082.104.186.186.186h2.238c.082 0 .186-.104.186-.186V4.963c0-.082-.104-.186-.186-.186H3.917Zm.186.372H5.97V7.01H4.103V5.15Z" clip-rule="evenodd"/>
</svg>
