<svg xmlns="http://www.w3.org/2000/svg" width="18" height="18" fill="currentColor" viewBox="0 0 18 18">
  <g clip-path="url(#a)">
    <path d="m8.636 14.254-.132-.055-5.398-5.398a.558.558 0 0 1 0-.803.558.558 0 0 1 .8-.002l4.544 4.4V.57A.55.55 0 0 1 9.02 0a.55.55 0 0 1 .571.571v11.815l4.388-4.388a.558.558 0 0 1 .803 0 .558.558 0 0 1 0 .803l-5.4 5.398-.13.055a.101.101 0 0 0 .05-.014.276.276 0 0 1-.13.082.429.429 0 0 1-.458 0 .275.275 0 0 1-.127-.077c.004 0 .023.009.048.009Z"/>
    <path fill-rule="evenodd" d="M16.694 13.851v1.417c0 .91-.708 1.72-1.72 1.72H2.631c-.911 0-1.72-.708-1.72-1.72v-1.417c0-.303-.203-.505-.506-.505-.203 0-.405.202-.405.505v1.417A2.72 2.72 0 0 0 2.732 18h12.343a2.72 2.72 0 0 0 2.732-2.732v-1.417c-.101-.303-.405-.505-.607-.505-.304 0-.506.202-.506.505Z" clip-rule="evenodd"/>
  </g>
  <defs>
    <clipPath id="a">
      <path d="M0 0h18v18H0z"/>
    </clipPath>
  </defs>
</svg>
