<svg xmlns="http://www.w3.org/2000/svg" width="18" height="18" fill="currentColor" viewBox="0 0 18 18">
  <path d="M17.48 8H7.35v-.02A2.45 2.45 0 0 0 4.97 6c-1.15 0-2.17.85-2.38 1.98V8H.58C.21 8 0 8.17 0 8.48c0 .28.19.48.48.48H2.5v.02a2.45 2.45 0 0 0 2.38 1.98c1.15 0 2.17-.85 2.38-1.98v-.02h10.12c.37 0 .57-.17.57-.48 0-.28-.19-.48-.47-.48ZM4.97 10c-.81 0-1.52-.71-1.52-1.52s.71-1.52 1.52-1.52 1.52.71 1.52 1.52S5.78 10 4.97 10ZM.48 14.95H4.5v.02a2.45 2.45 0 0 0 2.38 1.98c1.15 0 2.17-.85 2.38-1.98v-.02h8.12c.29 0 .47-.19.47-.47 0-.32-.12-.47-.37-.47H9.36v-.02a2.45 2.45 0 0 0-2.38-1.98c-1.15 0-2.17.85-2.38 1.98v.02H.58c-.37 0-.58.17-.58.47 0 .28.19.47.48.47Zm6.49-2c.81 0 1.52.71 1.52 1.53 0 .82-.71 1.53-1.52 1.53s-1.52-.71-1.52-1.53c0-.82.71-1.53 1.52-1.53ZM17.48 2h-6.12v-.02A2.45 2.45 0 0 0 8.98 0C7.83 0 6.81.85 6.6 1.98V2H.58C.21 2 0 2.17 0 2.48c0 .28.19.48.48.48H6.5v.02c.32 1.15 1.36 1.98 2.48 1.98 1.12 0 2.17-.85 2.38-1.98v-.02h6.12c.28 0 .47-.19.47-.48S17.76 2 17.48 2Zm-8.5 2c-.81 0-1.52-.71-1.52-1.52S8.17.96 8.98.96s1.53.71 1.53 1.52S9.8 4 8.98 4Z"/>
</svg>
