<svg xmlns="http://www.w3.org/2000/svg" width="18" height="18" fill="currentColor" viewBox="0 0 18 18">
  <g clip-path="url(#a)">
    <path fill-rule="evenodd" d="M1.18 12.26s-.06.08-.06.1l-1.1 4.83c-.04.15 0 .28.08.36.09.08.22.11.36.08l4.8-1.1c.06 0 .12-.04.14-.06L17.09 4.78c.42-.37.65-.88.65-1.39 0-.47-.2-.91-.54-1.21L15.6.57c-.36-.36-.82-.56-1.3-.56-.48 0-.94.2-1.3.56l-.61.51L1.18 12.26Zm3.43 3.73-3.81.85.03-.1.99-3.84.17.17 2.87 2.87-.24.05h-.01Zm.77-.54-3.19-3.19 9.39-9.39 3.19 3.19-9.39 9.39Zm8.1-14.38c.22-.22.5-.34.8-.34.3 0 .58.12.79.34l1.6 1.6c.45.45.45 1.14 0 1.59l-.3.3-3.19-3.19.29-.29.01-.01Zm2.39 3.89-.59.59-3.19-3.19.59-.59 3.19 3.19Z" clip-rule="evenodd"/>
  </g>
  <defs>
    <clipPath id="a">
      <path d="M0 0h18v18H0z"/>
    </clipPath>
  </defs>
</svg>
