<svg xmlns="http://www.w3.org/2000/svg" width="18" height="18" fill="currentColor" viewBox="0 0 18 18">
  <path fill-rule="evenodd" d="M18 4.5v9a1.5 1.5 0 0 1-1.5 1.5h-15A1.5 1.5 0 0 1 0 13.5v-9A1.5 1.5 0 0 1 1.5 3h15A1.5 1.5 0 0 1 18 4.5Zm-1.5 9.75a.75.75 0 0 0 .75-.75v-9a.75.75 0 0 0-.75-.75h-15a.75.75 0 0 0-.75.75v9c0 .414.336.75.75.75h15Z" clip-rule="evenodd"/>
  <path fill-rule="evenodd" d="M2.829 6.06a.375.375 0 0 0-.408.63l6.375 4.125c.124.08.284.08.408 0l6.375-4.125a.375.375 0 1 0-.408-.63l-6.17 3.993L2.828 6.06Zm-.018 6.266 2.625-1.5a.375.375 0 0 0-.372-.652l-2.625 1.5a.375.375 0 1 0 .372.652Zm12.75-.651-2.625-1.5a.375.375 0 1 0-.372.65l2.625 1.5a.375.375 0 0 0 .372-.65Z" clip-rule="evenodd"/>
</svg>
