<svg xmlns="http://www.w3.org/2000/svg" width="18" height="18" fill="currentColor" viewBox="0 0 18 18">
  <path fill-rule="evenodd" d="M1 8.708A7.714 7.714 0 0 1 8.714 1a7.724 7.724 0 0 1 7.715 7.734A7.714 7.714 0 0 1 1 8.708Zm1.23 2.686a7.015 7.015 0 1 0 12.967-5.36 7.015 7.015 0 0 0-12.967 5.36Z" clip-rule="evenodd"/>
  <path fill-rule="evenodd" d="M9 11c-.276 0-.5-.195-.5-.437V4.737c0-.24.224-.437.5-.437s.5.196.5.437v5.826c0 .242-.224.438-.5.438Z" clip-rule="evenodd"/>
  <circle cx="9" cy="12.7" r=".65"/>
</svg>
