<svg xmlns="http://www.w3.org/2000/svg" width="24" height="24" fill="currentColor" viewBox="0 0 24 24">
  <path fill-rule="evenodd" d="M22.885 16.38a.49.49 0 0 0 0-.631l-2.916-3.245 2.916-3.245a.489.489 0 0 0 0-.63.377.377 0 0 0-.567 0l-3.203 3.556a.49.49 0 0 0 0 .63l3.203 3.557a.377.377 0 0 0 .567 0v.007Z" clip-rule="evenodd"/>
  <path d="M18 3a2.507 2.507 0 0 0-2.5 2.5C15.5 6.875 16.625 8 18 8s2.5-1.125 2.5-2.5S19.375 3 18 3Zm-2.924 4.593-4.12 4.89a.651.651 0 0 0-.147.394v6.015l-2.044-1.026v-4.989a.574.574 0 0 0-.147-.393L2.936 5.73h11.502c0-.435.099-.854.262-1.231H1.612a.615.615 0 0 0-.556.353.62.62 0 0 0 .09.656l6.393 7.59v5.145c0 .23.13.443.335.55l3.27 1.64a.66.66 0 0 0 .278.066c.114 0 .22-.033.319-.09a.628.628 0 0 0 .294-.525v-6.786L16 8.397a3.009 3.009 0 0 1-.924-.804Z"/>
</svg>
