<svg xmlns="http://www.w3.org/2000/svg" width="18" height="18" fill="currentColor" viewBox="0 0 18 18">
  <g clip-path="url(#a)">
    <path d="M9.28 12.92a.529.529 0 0 0-.76 0c-.1.1-.16.24-.16.38s.06.28.16.38c.2.2.55.2.75 0 .1-.1.16-.24.16-.38s-.06-.28-.16-.38h.01Z"/>
    <path d="M8.95.3C4.125.3.2 4.227.2 9.05s3.926 8.75 8.75 8.75c4.822 0 8.75-3.927 8.75-8.75S13.771.3 8.95.3Zm0 16.687c-4.376 0-7.938-3.562-7.938-7.937s3.562-7.938 7.937-7.938 7.938 3.563 7.938 7.938-3.563 7.937-7.938 7.937Z"/>
    <path d="M10.04 9.56c1.06-.41 1.74-1.33 1.74-2.35 0-.69-.3-1.34-.86-1.83-.54-.47-1.26-.73-2.02-.73s-1.47.26-2.02.73c-.55.49-.86 1.14-.86 1.83v.05h.75v-.05c0-1 .95-1.81 2.12-1.81 1.17 0 2.12.81 2.12 1.81 0 .71-.49 1.36-1.26 1.65-.37.14-.68.38-.9.71-.22.33-.34.71-.34 1.12v.32h.75v-.34c0-.24.07-.47.21-.67.14-.2.33-.35.55-.43l.02-.01Z"/>
  </g>
  <defs>
    <clipPath id="a">
      <path d="M0 0h18v18H0z"/>
    </clipPath>
  </defs>
</svg>
