<svg xmlns="http://www.w3.org/2000/svg" width="18" height="18" fill="currentColor" viewBox="0 0 18 18">
  <path fill-rule="evenodd" d="M1.285 8.994A7.714 7.714 0 0 1 9 1.286a7.724 7.724 0 0 1 7.715 7.734 7.714 7.714 0 0 1-15.429-.026Zm1.23 2.686a7.015 7.015 0 1 0 12.967-5.36 7.015 7.015 0 0 0-12.966 5.36Z" clip-rule="evenodd"/>
  <path fill-rule="evenodd" d="M9.092 4.736a.904.904 0 0 0-.25.66h.005a.75.75 0 0 0 .196.543c.13.126.307.195.489.19a.777.777 0 0 0 .606-.264c.168-.195.255-.447.244-.704a.64.64 0 0 0-.68-.68.816.816 0 0 0-.61.255ZM6.799 8.774l.151.322c.33-.278.715-.484 1.13-.606a.132.132 0 0 1 .102.044c.019.027.03.06.03.093a16.008 16.008 0 0 1-.514 2.293 21.696 21.696 0 0 0-.317 1.31 2.713 2.713 0 0 0-.054.533.719.719 0 0 0 .137.489c.084.1.21.158.342.156.122-.002.243-.025.357-.069.315-.133.616-.296.9-.488.403-.264.768-.51 1.094-.739l-.166-.322a8.24 8.24 0 0 1-.807.489.583.583 0 0 1-.234.088.157.157 0 0 1-.113-.054.215.215 0 0 1-.053-.152c.014-.181.044-.36.088-.537.055-.274.203-.85.444-1.726.242-.877.388-1.445.44-1.706.033-.161.049-.325.05-.49a.489.489 0 0 0-.113-.336.347.347 0 0 0-.26-.123c-.1.003-.2.02-.297.05a3.48 3.48 0 0 0-.631.283c-.147.081-.435.274-.865.577l-.841.62Z" clip-rule="evenodd"/>
</svg>
