<svg xmlns="http://www.w3.org/2000/svg" width="18" height="18" fill="currentColor" viewBox="0 0 18 18">
  <path d="M13.688 8.465V2h-.864v6.465l-2.69-2.621-.597.585 3.719 3.649 3.719-3.649-.597-.585-2.69 2.621Z"/>
  <path d="M17 11.121h-.865v1.858a.467.467 0 0 1-.147.331.47.47 0 0 1-.337.144H2.349a.485.485 0 0 1-.337-.144.453.453 0 0 1-.147-.33V3.323c0-.12.052-.238.147-.331a.485.485 0 0 1 .337-.145h6.4V2h-6.4c-.38 0-.692.127-.96.382-.268.254-.389.568-.389.942v9.655c0 .374.13.68.39.934.259.254.579.381.96.381h3.84v1.697h5.62v-1.697h3.84a1.3 1.3 0 0 0 .952-.381c.26-.255.39-.569.39-.942v-1.858l.008.008Z"/>
</svg>
