<svg xmlns="http://www.w3.org/2000/svg" width="18" height="18" fill="currentColor" viewBox="0 0 18 18">
  <g clip-path="url(#a)">
    <path d="M10.3 12.19c0-.56-.22-1.08-.61-1.48l-.07-.07a.46.46 0 0 0-.62 0 .44.44 0 0 0 0 .62l.07.07c.23.23.36.54.36.86 0 .32-.13.63-.36.86L5.8 16.33c-.37.37-.89.58-1.44.58-.55 0-1.08-.21-1.44-.58l-1.45-1.45c-.79-.8-.8-2.09 0-2.89l3.27-3.28c.22-.22.53-.34.86-.34.33 0 .64.13.86.34l.07.07c.08.08.19.13.31.13a.439.439 0 0 0 .31-.75l-.07-.07c-.37-.38-.91-.59-1.47-.59-.56 0-1.1.22-1.48.59L.86 11.37a2.94 2.94 0 0 0 0 4.13l1.45 1.45c.55.55 1.28.85 2.06.85s1.51-.3 2.06-.85l3.27-3.28c.39-.4.61-.92.61-1.48h-.01Z"/>
    <path d="M12.42 5.36a.439.439 0 0 0-.31-.13c-.12 0-.23.05-.31.13l-6.42 6.43a.44.44 0 0 0 .31.75c.12 0 .23-.05.31-.13l6.42-6.43a.44.44 0 0 0 0-.62Z"/>
    <path d="M16.95 2.28 15.5.83c-.52-.52-1.27-.82-2.06-.82s-1.54.3-2.06.82L8.11 4.11c-.81.82-.81 2.14 0 2.96l.07.07c.17.17.45.17.62 0a.44.44 0 0 0 0-.62l-.07-.07c-.47-.48-.47-1.25 0-1.72L12 1.45c.37-.37.89-.58 1.44-.58.55 0 1.08.21 1.44.58l1.45 1.45c.8.8.8 2.09 0 2.89l-3.27 3.28c-.22.22-.53.35-.86.35-.33 0-.64-.13-.86-.35L11.27 9a.439.439 0 0 0-.31-.13.439.439 0 0 0-.31.75l.07.07c.39.39.92.61 1.48.61.56 0 1.08-.22 1.48-.61l3.27-3.28a2.94 2.94 0 0 0 0-4.13Z"/>
  </g>
  <defs>
    <clipPath id="a">
      <path d="M0 0h18v18H0z"/>
    </clipPath>
  </defs>
</svg>
