<svg xmlns="http://www.w3.org/2000/svg" width="18" height="18" fill="currentColor" viewBox="0 0 18 18">
  <g clip-path="url(#a)">
    <path d="M5.355 7.001H1.72a.27.27 0 0 0-.27.27c0 .151.12.272.27.272h3.635a.27.27 0 0 0 .271-.271.27.27 0 0 0-.27-.272Zm0 1.819H1.72a.27.27 0 0 0-.27.27c0 .15.12.271.27.271h3.635a.27.27 0 1 0 0-.542Z"/>
    <path d="m17.684 11.68-1.981-1.983.024-.057a3 3 0 0 0-.464-3.075l-.022-.026V3.49a.634.634 0 0 0-.635-.635h-3.928c-.995 0-1.95.301-2.767.873l-.292.204-.291-.204a4.788 4.788 0 0 0-2.765-.873H.635A.634.634 0 0 0 0 3.49v9.265c0 .35.284.635.635.635h2.748c1.108 0 2.149.43 2.932 1.214a1.85 1.85 0 0 0 2.614 0 4.118 4.118 0 0 1 2.932-1.214h2.749a.635.635 0 0 0 .634-.635v-.465l.915.915a1.078 1.078 0 1 0 1.526-1.526ZM7.35 14.58l-.12-.038a1.313 1.313 0 0 1-.533-.323 4.656 4.656 0 0 0-3.314-1.374H.542V3.397h4.021c.883 0 1.731.268 2.455.774l.332.232v10.178Zm8.067-6.097a2.458 2.458 0 0 1-2.455 2.455 2.46 2.46 0 0 1-2.455-2.455 2.46 2.46 0 0 1 2.455-2.455 2.459 2.459 0 0 1 2.455 2.455Zm-.716 4.364H11.86c-1.253 0-2.43.488-3.315 1.373-.148.149-.334.26-.532.323l-.12.04V4.403l.331-.233a4.258 4.258 0 0 1 2.455-.774h4.022v2.64l-.143-.088a3 3 0 0 0-4.595 2.537 3.002 3.002 0 0 0 4.155 2.764l.057-.024.524.524v1.1l.002-.002Zm2.6-.026a.535.535 0 0 1-.761 0l-1.873-1.872.086-.065a3.04 3.04 0 0 0 .61-.61l.065-.086L17.3 12.06c.21.21.21.552 0 .761Z"/>
    <path d="M1.72 11.179h3.635a.27.27 0 0 0 .271-.271.27.27 0 0 0-.27-.271H1.72a.27.27 0 0 0-.27.27c0 .151.12.272.27.272Zm3.635-5.996H1.72a.27.27 0 0 0-.27.27c0 .15.12.271.27.271h3.635a.27.27 0 1 0 0-.542Z"/>
  </g>
  <defs>
    <clipPath id="a">
      <path d="M0 2.855h18v12.288H0z"/>
    </clipPath>
  </defs>
</svg>
