<svg xmlns="http://www.w3.org/2000/svg" width="18" height="18" fill="currentColor" viewBox="0 0 18 18">
  <g clip-path="url(#a)">
    <path d="M17.8 8.9c0-.15-.06-.29-.16-.4a.574.574 0 0 0-.79 0 .56.56 0 0 0-.17.4v7.02c0 .2-.08.39-.22.54-.14.14-.33.22-.54.22H1.88a.79.79 0 0 1-.54-.22.755.755 0 0 1-.22-.54V1.88c0-.2.08-.39.22-.54.14-.14.33-.22.54-.22H8.9c.15 0 .29-.06.4-.16.11-.1.16-.25.16-.39S9.4.28 9.3.17a.535.535 0 0 0-.4-.16H1.88C1.38.01.91.2.55.56.2.91 0 1.39 0 1.89v14.05c0 .5.19.97.55 1.33.35.35.83.55 1.33.55h14.05c.5 0 .97-.2 1.33-.55.35-.35.55-.83.55-1.33V8.92l-.01-.02Z"/>
    <path d="M16.85 5.23c.21.21.58.21.79 0 .11-.1.16-.25.16-.4V.56c0-.07-.02-.14-.05-.21a.76.76 0 0 0-.12-.19.707.707 0 0 0-.18-.12.477.477 0 0 0-.2-.04h-4.27c-.15 0-.29.06-.4.16-.1.11-.16.25-.16.4a.544.544 0 0 0 .55.55h2.92L8.5 8.5a.57.57 0 0 0 .01.78c.1.11.24.16.39.16.16 0 .28-.05.39-.15l7.39-7.39v2.92c0 .15.06.29.16.4l.01.01Z"/>
  </g>
  <defs>
    <clipPath id="a">
      <path d="M0 0h18v18H0z"/>
    </clipPath>
  </defs>
</svg>
