<svg xmlns="http://www.w3.org/2000/svg" width="18" height="18" fill="currentColor" viewBox="0 0 18 18">
  <path d="M7.11 7.44c.48.26 1.13.4 1.83.4.7 0 1.35-.14 1.83-.4.49-.26.75-.62.75-1.03 0-.41-.27-.76-.75-1.03-.48-.26-1.13-.4-1.83-.4-.7 0-1.35.14-1.83.4-.49.26-.75.63-.75 1.03s.27.76.75 1.03Zm-.09-1.03c0-.1.06-.2.16-.3.1-.09.24-.17.41-.24.37-.15.84-.23 1.34-.23.5 0 .98.08 1.34.23.17.07.31.16.41.24.1.09.16.2.16.3 0 .11-.06.21-.16.31-.1.09-.24.17-.41.24-.36.15-.84.23-1.34.23-.5 0-.98-.08-1.34-.23-.18-.07-.31-.15-.41-.24-.1-.1-.16-.2-.16-.3v-.01ZM.17 5.7l.01.01-.01-.01Zm14.1-.36c.25 0 .47-.03.67-.08-.2.04-.42.07-.67.08Z"/>
  <path d="M2.24 3.55c-.49.26-.75.62-.75 1.03 0 .21.07.35.14.49l.02.05-.05.02-.32.12-1.11.46H.11l-.05.05v.08C0 5.91 0 5.97 0 6.04v5.88c0 .14.07.26.19.33l8.31 3.67h.22l8.99-3.67c.13-.06.2-.18.2-.33V5.94h-.02V5.9h-.04v-.06l-.05-.05h-.07l-1.13-.52-.04-.02.03-.04c.14-.21.22-.42.22-.64 0-.4-.27-.76-.75-1.03-.48-.26-1.13-.4-1.83-.4-.62 0-1.23.13-1.71.36h-.04l-1.18-.46.03-.05c.15-.21.21-.35.21-.56 0-.4-.27-.76-.75-1.03-.48-.26-1.13-.4-1.83-.4-.7 0-1.35.14-1.83.4-.49.26-.75.63-.75 1.03 0 .22.08.42.21.55l.05.04-.07.03-.91.37h-.02s-.03-.02-.05-.02c-.19-.09-.4-.15-.62-.19-.06-.01-.12-.02-.18-.02-.19-.03-.38-.04-.58-.04h-.12c-.7 0-1.35.14-1.83.4h-.02Zm6 11.53-.07-.03-7.5-3.31H.65V6.62h.04v-.03h.02l7.53 3.32v5.17Zm9-3.34-.02.01-8.31 3.41V9.99l.02-.01 8.31-3.41v5.17Zm-4.97-7.17c0-.1.06-.2.16-.3.1-.09.24-.17.41-.24.37-.15.84-.23 1.34-.23.5 0 .98.08 1.34.23.18.07.31.15.41.24.1.1.16.2.16.3 0 .11-.06.19-.1.25-.06.07-.14.12-.22.17h-.07s-.01 0-.02.01c-.01 0-.02.02-.04.04h-.02c-.39.17-.83.31-1.43.31-.5 0-.98-.08-1.34-.23a1.43 1.43 0 0 1-.41-.24c-.1-.1-.16-.2-.16-.3l-.01-.01ZM7.02 2.36c0-.1.06-.2.16-.3.1-.09.24-.17.41-.24.36-.15.82-.23 1.3-.23h.05c.5 0 .98.08 1.34.23.18.07.31.15.41.24.1.1.16.2.16.3 0 0-.01.03-.01.04 0 .07-.04.13-.08.18 0 0 0 .02-.01.03-.06.07-.14.13-.22.17-.41.24-.96.37-1.59.37-.5 0-.98-.08-1.34-.23a1.43 1.43 0 0 1-.41-.24c-.1-.1-.16-.2-.16-.3l-.01-.02Zm-.67 1.5-.03-.04.86-.39h.04c.48.23 1.08.36 1.7.36.62 0 1.23-.13 1.71-.36h.04l1.18.55-.04.05c-.13.13-.21.34-.21.56 0 .4.27.76.75 1.03.48.26 1.13.4 1.83.4h.11c.22 0 .44-.03.65-.07.09-.02.18-.03.27-.05.16-.04.32-.08.46-.12.04-.01.09-.03.14-.04h.03l.85.33-.11.04-8.03 3.31-.01-.03v.03h-.02L1.08 6.07h.01l.08-.04.99-.45h.02s.04.03.05.04c.23.12.47.21.73.28l.12.03c.27.06.55.09.87.09h.09c.7 0 1.35-.14 1.83-.4.49-.26.75-.63.75-1.03 0-.28-.14-.49-.29-.71l.02-.02Zm-.94.17c.18.07.31.15.41.24.1.1.16.2.16.3 0 .11-.06.21-.16.31-.1.09-.24.17-.41.24-.37.15-.84.23-1.34.23-.5 0-.98-.08-1.34-.23a1.43 1.43 0 0 1-.41-.24c-.1-.1-.16-.2-.16-.3 0-.11.06-.21.16-.31.1-.09.24-.17.41-.24.37-.15.84-.23 1.34-.23.5 0 .98.08 1.34.23Z"/>
</svg>
