<svg xmlns="http://www.w3.org/2000/svg" width="18" height="18" fill="currentColor" viewBox="0 0 18 18">
  <g clip-path="url(#a)">
    <path d="M13.62 3.6c.18 0 .32-.15.32-.33v-.78s-.02-.1-.05-.12l-.04-.06L11.62.08l-.1-.04V.01s-.06-.02-.07-.02H4.02c-.18 0-.32.14-.32.32v3.04c.03.14.15.24.3.24.18 0 .32-.15.32-.32V.65h6.75v1.89c0 .18.15.32.33.32h1.88v.42c0 .18.15.33.33.33l.01-.01Zm-1.88-1.39v-1.1l1.1 1.1h-1.1ZM2.53 5.96c-.56 0-1.01.46-1.01 1.01s.46 1.01 1.01 1.01 1.02-.46 1.02-1.01-.46-1.01-1.02-1.01Zm0 1.48c-.26 0-.46-.2-.46-.47 0-.27.2-.47.46-.47s.47.2.47.47c0 .27-.2.47-.47.47Z"/>
    <path d="M4.01 16.18h9.62c.18 0 .33-.15.33-.33v-3.37h1.91c1 0 1.8-.81 1.8-1.8v-4.4h-.02v-.04c0-1-.81-1.8-1.8-1.8H1.8c-1 0-1.8.81-1.8 1.8v4.44c0 1 .81 1.8 1.8 1.8h1.89v3.37c0 .18.15.33.32.33Zm9.3-.65H4.35v-5.27h8.96v5.27ZM1.8 11.82c-.64 0-1.15-.52-1.15-1.15V6.23c0-.64.52-1.16 1.15-1.16h14.05c.64 0 1.16.52 1.16 1.16v4.44c0 .64-.52 1.15-1.16 1.15h-1.88V9.94c0-.18-.15-.33-.33-.33H4.01c-.18 0-.32.15-.32.33v1.88H1.8Z"/>
  </g>
  <defs>
    <clipPath id="a">
      <path d="M0 0h18v18H0z"/>
    </clipPath>
  </defs>
</svg>
