<svg xmlns="http://www.w3.org/2000/svg" width="18" height="18" fill="currentColor" viewBox="0 0 18 18">
  <path d="M10.92 5.217c-1.382 0-2.637.555-3.436 1.522-.738.896-1.01 1.982-.762 3.056a3.932 3.932 0 0 0 3.851 3.024c.729 0 1.481-.208 2.118-.587a.418.418 0 0 1 .207-.07c.082 0 .146.047.225.122.326.314.662.637.978.96l.272.26c.154.149.305.216.479.216.035 0 .062 0 .105-.013.26-.054.422-.187.506-.41.082-.204.024-.412-.174-.618l-.174-.168a33.26 33.26 0 0 1-.263-.257c-.26-.253-.53-.516-.807-.754-.213-.179-.18-.336-.057-.531.77-1.238.795-2.5.076-3.755-.69-1.214-1.834-1.943-3.141-1.997h-.002Zm1.814 5.85a3.036 3.036 0 0 1-2.12.834c-1.715 0-3.009-1.235-3.009-2.872 0-.8.301-1.509.87-2.055.568-.546 1.309-.836 2.14-.836 1.666 0 2.988 1.27 3.008 2.89a2.912 2.912 0 0 1-.89 2.038Z"/>
  <path d="M15.497 4.128c0-.898-.842-1.628-1.878-1.628H4.377C3.342 2.5 2.5 3.23 2.5 4.128v9.742c0 .897.842 1.63 1.877 1.63h9.242c.346 0 .666-.081.954-.243.026-.013.04-.018.05-.024.024-.013.045-.026.074-.04a.46.46 0 0 0 .238-.384c0-.276-.252-.502-.559-.502a.578.578 0 0 0-.314.102l-.043.03h-.028a.767.767 0 0 1-.375.094h-9.24c-.42 0-.761-.297-.761-.661V4.128c0-.365.342-.661.762-.661h9.242c.42 0 .764.296.764.66v.451c0 .263.255.484.558.484.303 0 .558-.221.558-.484v-.45h-.002Z"/>
</svg>
