<svg xmlns="http://www.w3.org/2000/svg" width="18" height="18" fill="currentColor" viewBox="0 0 18 18">
  <g clip-path="url(#a)">
    <path d="M9.076 16c-1.954 0-3.61-.678-4.966-2.034-1.356-1.355-2.034-3.01-2.034-4.963 0-1.953.678-3.609 2.034-4.966C5.467 2.679 7.122 2 9.076 2c1.188 0 2.301.282 3.339.847a6.699 6.699 0 0 1 2.507 2.365V2.5c0-.142.048-.26.144-.356A.485.485 0 0 1 15.423 2c.142 0 .26.048.356.144a.485.485 0 0 1 .143.356v3.923a.78.78 0 0 1-.232.575.78.78 0 0 1-.575.233H11.19a.483.483 0 0 1-.356-.144.484.484 0 0 1-.144-.357c0-.142.048-.26.144-.356a.485.485 0 0 1 .356-.143h3.2a5.937 5.937 0 0 0-2.197-2.364A5.857 5.857 0 0 0 9.076 3c-1.666 0-3.083.583-4.25 1.75C3.66 5.917 3.076 7.333 3.076 9c0 1.667.583 3.083 1.75 4.25C5.993 14.417 7.41 15 9.076 15a5.865 5.865 0 0 0 3.271-.968 5.878 5.878 0 0 0 2.202-2.572.527.527 0 0 1 .662-.288.41.41 0 0 1 .28.274.55.55 0 0 1-.015.404 6.847 6.847 0 0 1-2.56 3.017c-1.15.755-2.431 1.133-3.84 1.133Z"/>
  </g>
  <defs>
    <clipPath id="a">
      <path d="M0 0h18v18H0z"/>
    </clipPath>
  </defs>
</svg>
