<svg xmlns="http://www.w3.org/2000/svg" width="18" height="18" fill="currentColor" viewBox="0 0 18 18">
  <path d="M17.54 3.69c0-.93-.73-1.69-1.62-1.69H2.12C1.23 2 .5 2.76.5 3.69v10.57c0 .93.73 1.69 1.62 1.69h13.8c.89 0 1.62-.76 1.62-1.69V3.69Zm-.74 10.3c0 .7-.55 1.27-1.23 1.27H2.46c-.68 0-1.23-.57-1.23-1.27V3.96c0-.7.55-1.27 1.23-1.27h13.11c.68 0 1.23.57 1.23 1.27v10.03Z"/>
  <path d="M12.42 9.96v.79l2.92-1.89v-.7l-2.92-1.89v.79l2.17 1.36v.18l-2.17 1.36ZM9.97 5.54l-2.61 6.88h.75l2.6-6.88h-.74ZM5.65 7.06v-.79L2.74 8.16v.7l2.91 1.89v-.79L3.48 8.59v-.17l2.17-1.36Z"/>
</svg>
