<svg xmlns="http://www.w3.org/2000/svg" width="18" height="18" fill="currentColor" viewBox="0 0 18 18">
  <path fill-rule="evenodd" d="M15.004 15.403c.167.167.412.154.579.09.205-.09.347-.257.347-.437a.497.497 0 0 0-.142-.348l-3.342-3.265.282-.399c.63-.887.978-1.967.978-3.06 0-2.983-2.495-5.413-5.568-5.413-3.072 0-5.567 2.43-5.567 5.413s2.495 5.4 5.567 5.4c1.119 0 2.25-.334 3.163-.951l.386-.257 3.33 3.24-.013-.013Zm-6.878-3.035c-2.469 0-4.488-1.967-4.488-4.384 0-2.417 2.019-4.384 4.488-4.384 2.468 0 4.487 1.967 4.487 4.384 0 2.417-2.019 4.384-4.487 4.384Z" clip-rule="evenodd"/>
</svg>
