<svg xmlns="http://www.w3.org/2000/svg" width="18" height="18" fill="currentColor" viewBox="0 0 18 18">
  <g clip-path="url(#a)">
    <path d="M17.79 4.51 12.55.07a.28.28 0 0 0-.19-.07h-.03c-.07 0-.13.03-.2.1-.37.44-.89.71-1.47.75h-.17c-.52 0-1.02-.18-1.41-.5a.364.364 0 0 0-.21-.07c-.07 0-.14.04-.19.1l-.63.75c-.05.06-.07.15-.06.22 0 .07.04.13.1.18l2.97 2.52-.05.05-2.94 3.49-2.11-2.11v-.02c.38-1.12.1-2.33-.73-3.16-.89-.89-2.16-1.14-3.31-.65a.3.3 0 0 0-.17.21c-.02.09.01.19.08.26l1.29 1.25v1.17H1.94L.71 3.24a.27.27 0 0 0-.26-.08c-.1.02-.18.08-.21.17-.48 1.13-.23 2.44.65 3.32a2.99 2.99 0 0 0 3.14.72h.04l2.24 2.24v.05L2.2 14.53c-.05.06-.07.13-.07.22 0 .07.03.13.1.2l1.87 1.59c.13.11.3.09.41-.04l3.97-4.71.05.05 1.95 1.95v.02c-.38 1.12-.1 2.33.72 3.16.57.58 1.33.9 2.16.9.43 0 .83-.08 1.2-.25a.3.3 0 0 0 .17-.21c.02-.1 0-.19-.08-.26l-1.24-1.25v-1.07h1.08l1.23 1.25c.07.07.16.1.26.08.09-.02.17-.08.22-.17.48-1.16.23-2.48-.65-3.37a3.063 3.063 0 0 0-3.15-.74h-.04l-2.11-2.12v-.05l3.12-3.7.05.05 1.79 1.52c.06.05.12.07.19.07h.03c.07 0 .13-.03.2-.1l2.22-2.63c.05-.06.07-.13.06-.2 0-.07-.04-.14-.1-.2l-.02-.01ZM4.27 6.79a.255.255 0 0 0-.24 0c-.95.4-2.02.19-2.73-.52C.74 5.7.48 4.9.61 4.11v-.13l.1.1.91.95c.05.05.14.09.2.09h1.57c.16 0 .28-.12.28-.29V3.25c0-.07-.03-.15-.09-.21l-.97-.94v-.08h.06c.77-.14 1.55.11 2.12.69.72.72.93 1.8.53 2.74-.04.1-.02.23.06.31l2.26 2.27v.05l-.95 1.13-2.42-2.42Zm7.76 5.61v-.02l.06.06c.08.08.21.1.31.06.94-.4 2.01-.19 2.73.54.57.57.83 1.4.69 2.2v.12l-.1-.07-.92-.92a.286.286 0 0 0-.21-.08h-1.47c-.16 0-.28.12-.28.28v1.48c0 .08.03.16.08.2l1.01 1.01h-.13c-.15.03-.3.05-.43.05-.65 0-1.29-.27-1.75-.73-.72-.72-.92-1.79-.53-2.74.04-.1.02-.23-.06-.31l-2.14-2.15v-.05l.96-1.13.05.04 2.14 2.15-.01.01Zm.85-6.7L8.4 11.01l-.35.35.02.02v.05l-3.8 4.5-.05-.05-1.39-1.18.05-.05 8.6-10.23.05.05 1.37 1.17h.03l-.05.06Zm4.21-.81-1.75 2.07-.05-.05-6.62-5.62.05-.05.22-.26H9c.44.31.94.46 1.49.46h.24c.62-.05 1.18-.29 1.63-.71l.08-.08v.1l4.71 3.98.03-.04v.06l.04.03-.11.1-.02.01Z"/>
  </g>
  <defs>
    <clipPath id="a">
      <path d="M0 0h18v18H0z"/>
    </clipPath>
  </defs>
</svg>
