<svg xmlns="http://www.w3.org/2000/svg" width="18" height="18" fill="currentColor" viewBox="0 0 18 18">
  <path d="M9.08 6.5C7.66 6.5 6.5 7.66 6.5 9.08c0 1.42 1.16 2.58 2.58 2.58 1.42 0 2.58-1.16 2.58-2.58 0-1.42-1.16-2.58-2.58-2.58Zm0 4.46c-1.04 0-1.89-.85-1.89-1.88a1.884 1.884 0 0 1 3.77 0c0 1.03-.85 1.88-1.88 1.88Z"/>
  <path d="M7.15 17h3.842c.22 0 .4-.18.4-.385v-1.448l.038-.026.09-.026c.594-.218 1.084-.512 1.65-.987l.091-.077 1.25.731c.09.051.194.064.297.051a.357.357 0 0 0 .232-.166l1.908-3.308a.39.39 0 0 0 .04-.295.363.363 0 0 0-.181-.23l-1.264-.719v-.128c.065-.308.09-.64.09-.987 0-.32-.025-.641-.077-.974v-.129h.026l1.225-.718a.386.386 0 0 0 .18-.23.462.462 0 0 0-.039-.295l-1.92-3.308a.38.38 0 0 0-.233-.18.469.469 0 0 0-.296.04l-1.238.73-.09-.077c-.593-.487-1.07-.77-1.663-.974l-.13-.039V1.397A.4.4 0 0 0 10.98 1H7.137a.39.39 0 0 0-.387.397v1.45l-.129.038a5.581 5.581 0 0 0-1.714.987l-.09.077-.04-.026-1.263-.718a.43.43 0 0 0-.31-.038.313.313 0 0 0-.219.18l-1.92 3.281a.39.39 0 0 0-.04.295c.027.103.091.18.181.23l1.25.719V8c-.064.32-.09.641-.09.987 0 .32.026.654.078.975v.128l-.026.013-1.225.705a.374.374 0 0 0-.18.218.424.424 0 0 0 .039.307l1.92 3.308a.4.4 0 0 0 .53.141l1.314-.743.09.076c.53.436 1.07.757 1.728.988l.13.038v1.449c0 .218.18.384.386.384V17Zm-2.024-3.73a.393.393 0 0 0-.452-.052l-1.211.68-1.535-2.642 1.174-.666a.386.386 0 0 0 .193-.41 5.194 5.194 0 0 1-.129-1.218c0-.436.039-.808.129-1.218a.362.362 0 0 0-.193-.41l-1.174-.667.026-.052 1.509-2.59 1.199.68a.412.412 0 0 0 .45-.038c.723-.641 1.342-.988 2.141-1.218a.374.374 0 0 0 .284-.372V1.744h3.055v1.333c0 .167.116.32.284.372.774.218 1.315.538 2.063 1.218a.39.39 0 0 0 .464.038l1.147-.667.026.052 1.496 2.577-1.173.666a.386.386 0 0 0-.194.41c.09.398.129.795.129 1.219 0 .423-.052.859-.129 1.218a.378.378 0 0 0 .194.41l1.173.666-1.522 2.641-1.16-.666a.41.41 0 0 0-.464.051c-.735.667-1.277.987-2.063 1.218l-.064.026a.382.382 0 0 0-.194.333v1.333H7.55V14.86a.397.397 0 0 0-.284-.372c-.774-.218-1.418-.577-2.14-1.218Z"/>
</svg>
