<svg xmlns="http://www.w3.org/2000/svg" width="18" height="18" fill="currentColor" viewBox="0 0 18 18">
  <path fill-rule="evenodd" d="M1.285 8.994A7.714 7.714 0 0 1 9 1.286a7.724 7.724 0 0 1 7.715 7.734 7.714 7.714 0 0 1-15.429-.026Zm1.23 2.686a7.015 7.015 0 1 0 12.967-5.36 7.015 7.015 0 0 0-12.966 5.36Z" clip-rule="evenodd"/>
  <path fill-rule="evenodd" d="M13.068 6.382a.45.45 0 0 1 0 .636l-5.25 5.25a.45.45 0 0 1-.636 0l-2.25-2.25a.45.45 0 1 1 .636-.636L7.5 11.314l4.932-4.932a.45.45 0 0 1 .636 0Z" clip-rule="evenodd"/>
</svg>
