<svg xmlns="http://www.w3.org/2000/svg" width="18" height="18" fill="currentColor" viewBox="0 0 18 18">
  <g clip-path="url(#a)">
    <path fill-rule="evenodd" d="M1.056 6.11a.446.446 0 0 0 .634 0 .452.452 0 0 0 0-.635l-.005-.006c-1.05-1.056-1.05-2.53.005-3.585.512-.512 1.148-.794 1.796-.794.647 0 1.285.284 1.795.794a.452.452 0 0 0 .636 0 .452.452 0 0 0 0-.636C4.51-.16 2.465-.16 1.057 1.248.374 1.93 0 2.792 0 3.68c0 .888.375 1.75 1.056 2.432ZM9.01 2.27a7.73 7.73 0 0 0-7.748 7.748 7.722 7.722 0 0 0 3.01 6.139l-.901.9a.44.44 0 1 0 .622.623l1.017-1.017a7.739 7.739 0 0 0 3.998 1.103 7.72 7.72 0 0 0 3.998-1.103l1.016 1.017a.44.44 0 1 0 .623-.623l-.9-.9a7.725 7.725 0 0 0 3.009-6.139A7.726 7.726 0 0 0 9.01 2.27Zm0 14.614a6.848 6.848 0 0 1-6.866-6.866A6.848 6.848 0 0 1 9.01 3.152a6.848 6.848 0 0 1 6.866 6.866 6.848 6.848 0 0 1-6.866 6.866Zm-.068-11.09a.44.44 0 1 1 .882.002v4.577a.44.44 0 0 1-.44.44H6.302a.44.44 0 1 1 0-.881h2.64V5.794Zm7.443.328c.085.077.191.12.306.12.006 0 .011 0 .017-.002a.442.442 0 0 0 .311-.14l.002-.002c.632-.68.98-1.539.98-2.419 0-.88-.35-1.739-.98-2.418-.687-.684-1.553-1.063-2.44-1.065h-.006c-.886 0-1.747.373-2.428 1.054a.452.452 0 0 0 0 .636.452.452 0 0 0 .636 0c.512-.512 1.148-.794 1.796-.794.647 0 1.285.282 1.795.792.47.508.73 1.146.728 1.797-.002.651-.265 1.293-.74 1.805a.447.447 0 0 0-.12.323c.004.12.055.23.143.313Z" clip-rule="evenodd"/>
  </g>
  <defs>
    <clipPath id="a">
      <path d="M0 0h18v18H0z"/>
    </clipPath>
  </defs>
</svg>
