<svg xmlns="http://www.w3.org/2000/svg" width="18" height="18" fill="currentColor" viewBox="0 0 18 18">
  <g clip-path="url(#a)">
    <path fill-rule="evenodd" d="M1.262 10.018a7.73 7.73 0 0 1 7.747-7.747 7.726 7.726 0 0 1 7.744 7.747 7.725 7.725 0 0 1-3.008 6.139l.9.9a.44.44 0 0 1 0 .623.44.44 0 0 1-.623 0l-1.017-1.017a7.72 7.72 0 0 1-3.997 1.103 7.739 7.739 0 0 1-3.998-1.103L3.993 17.68a.44.44 0 1 1-.623-.623l.9-.9a7.722 7.722 0 0 1-3.008-6.139Zm.882 0a6.848 6.848 0 0 0 6.866 6.866 6.848 6.848 0 0 0 6.866-6.866A6.848 6.848 0 0 0 9.01 3.152a6.848 6.848 0 0 0-6.866 6.866Z" clip-rule="evenodd"/>
    <path fill-rule="evenodd" d="M9.384 5.353a.44.44 0 0 0-.441.44v4.139h-2.64a.44.44 0 1 0 0 .882h3.08a.44.44 0 0 0 .441-.441V5.795a.44.44 0 0 0-.44-.442Zm-7.699.75a.44.44 0 0 0 0-.623c-1.06-1.06-1.06-2.542 0-3.604 1.06-1.06 2.541-1.06 3.603 0a.44.44 0 1 0 .623-.623C4.506-.15 2.467-.15 1.061 1.255-.342 2.66-.342 4.7 1.062 6.103a.44.44 0 0 0 .623 0Z" clip-rule="evenodd"/>
    <path fill-rule="evenodd" d="M3.486.212c-.86 0-1.717.351-2.419 1.051C.39 1.94.017 2.799.017 3.681c0 .882.373 1.74 1.05 2.418a.43.43 0 0 0 .614-.606l-.004-.003c-1.065-1.064-1.065-2.552 0-3.617.514-.514 1.158-.798 1.809-.798.65 0 1.292.284 1.808.798a.43.43 0 1 0 .61-.61c-.7-.702-1.56-1.05-2.418-1.05Zm-2.113 6.03a.445.445 0 0 1-.317-.131C.376 5.43 0 4.567 0 3.679c0-.887.375-1.75 1.056-2.43 1.41-1.41 3.454-1.41 4.86 0a.452.452 0 0 1 0 .635.452.452 0 0 1-.635 0c-.51-.51-1.148-.794-1.795-.794-.648 0-1.284.282-1.796.794C.636 2.938.634 4.413 1.685 5.469l.005.006a.452.452 0 0 1 0 .636.446.446 0 0 1-.317.13Zm15.641-4.975c-1.415-1.417-3.456-1.417-4.86-.011a.44.44 0 1 0 .623.623c1.06-1.06 2.543-1.06 3.604 0 .976 1.052.976 2.55-.01 3.614a.441.441 0 0 0 .645.6c1.3-1.403 1.3-3.425-.002-4.826Z" clip-rule="evenodd"/>
    <path fill-rule="evenodd" d="M14.579 1.073c.65 0 1.292.284 1.808.798.475.512.735 1.153.734 1.81-.002.656-.267 1.302-.745 1.818a.427.427 0 0 0-.114.31.428.428 0 0 0 .446.414.428.428 0 0 0 .3-.137l.002-.002c.627-.675.972-1.529.972-2.403 0-.876-.345-1.73-.974-2.405-.683-.683-1.544-1.06-2.427-1.06-.882-.002-1.741.371-2.419 1.049a.43.43 0 1 0 .61.61c.512-.519 1.156-.802 1.807-.802Zm2.112 5.169a.451.451 0 0 1-.448-.434.447.447 0 0 1 .12-.322c.474-.513.737-1.154.739-1.805.002-.651-.257-1.289-.728-1.797-.51-.51-1.148-.792-1.795-.792-.648 0-1.283.281-1.796.794a.452.452 0 0 1-.635 0 .452.452 0 0 1 0-.636C12.828.569 13.69.195 14.575.195h.006c.887.002 1.754.381 2.44 1.066.63.679.98 1.538.98 2.418 0 .88-.348 1.739-.98 2.418l-.002.002a.443.443 0 0 1-.311.14c-.006.003-.011.003-.017.003Z" clip-rule="evenodd"/>
  </g>
  <defs>
    <clipPath id="a">
      <path d="M0 0h18v18H0z"/>
    </clipPath>
  </defs>
</svg>
