<svg xmlns="http://www.w3.org/2000/svg" width="18" height="18" fill="currentColor" viewBox="0 0 18 18">
  <g clip-path="url(#a)">
    <mask id="b" width="18" height="18" x="0" y="0" maskUnits="userSpaceOnUse" style="mask-type:luminance">
      <path d="M18 0H0v18h18V0Z"/>
    </mask>
    <g mask="url(#b)">
      <path d="M8.9.05c-2.38 0-4.6.92-6.27 2.59A8.81 8.81 0 0 0 .05 8.91c0 2.38.84 4.42 2.43 6.06 1.6 1.78 3.94 2.8 6.43 2.8 2.49 0 4.88-1.06 6.61-2.92 1.49-1.67 2.31-3.78 2.31-5.95a8.917 8.917 0 0 0-2.65-6.27A8.85 8.85 0 0 0 8.9.05Zm5.53 14.87c-1.56 1.44-3.61 2.27-5.64 2.27-2.02-.06-3.99-.88-5.54-2.3l-.11-.09.11-.08s.09-.06.13-.09h.01c.12-.1.21-.17.33-.17l3.54-1.29c.14-.04.24-.18.24-.32v-1.38l.15.06c.33.11.76.24 1.19.24.45 0 .93-.1 1.37-.3l.15-.08v1.46c0 .14.1.28.24.32l3.56 1.29s.11.05.18.09c.03.02.05.04.08.05.02.02.05.03.07.05l.04.02.09.05-.19.19v.01ZM5.85 6.89c.32.08.61.12.91.12.93 0 1.96-.41 2.56-1.02l.09-.09.07.11c.54.71 1.19 1.06 2 1.06.18 0 .29 0 .45-.06l.15-.06v.16c-.07 2.17-1.5 3.86-3.25 3.86h-.08c-.65 0-1.3-.28-1.84-.79-.78-.75-1.25-1.93-1.26-3.16v-.08h.05v-.06h.14l.01.01Zm-.07-.74v-.08c.4-1.76 1.68-2.98 3.13-2.98 1.55 0 2.86 1.3 3.18 3.16v.11l-.09.02c-.18.03-.34.05-.47.05-.72 0-1.24-.37-1.79-1.26-.05-.1-.2-.2-.28-.2-.14 0-.22.1-.27.18-.33.65-1.46 1.23-2.43 1.23-.33 0-.65-.07-.91-.19l-.07-.03v-.01Zm9.48 7.93-.06.08-.08-.06-.11-.08-.04-.03c-.14-.1-.31-.21-.44-.25l-3.4-1.19v-1.66l.03-.04c1.06-.88 1.69-2.29 1.69-3.79 0-2.59-1.74-4.62-3.95-4.62S4.96 4.51 4.96 7.06c0 1.62.71 3.12 1.86 3.9l.05.04v1.57h-.08l-3.31 1.18c-.18.04-.35.19-.52.33-.06.05-.12.1-.19.15l-.09.05-.07-.07A8.245 8.245 0 0 1 .68 8.92C.69 4.38 4.38.69 8.91.69s8.22 3.69 8.22 8.22c0 1.88-.66 3.71-1.87 5.17Z"/>
    </g>
  </g>
  <defs>
    <clipPath id="a">
      <path d="M0 0h18v18H0z"/>
    </clipPath>
  </defs>
</svg>
