<svg xmlns="http://www.w3.org/2000/svg" width="18" height="18" fill="currentColor" viewBox="0 0 18 18">
  <path d="M15.28 15.4v-.49c0-.19-.15-.34-.33-.34h-.76V7.64c0-2.56-1.91-4.76-4.44-5.12l-.25-.03V1.48A.48.48 0 0 0 9.02 1c-.26 0-.49.22-.49.48V2.5h-.04l-.21.03c-2.53.36-4.44 2.56-4.44 5.12v6.93h-.76c-.18 0-.33.15-.33.34v.49h4.38v.29a1.9 1.9 0 1 0 3.8 0v-.3h4.37-.02Zm-5.04.29c0 .68-.55 1.23-1.24 1.23s-1.23-.55-1.23-1.23v-.29h2.47v.29Zm-5.58-1.11V7.65c0-1.17.45-2.26 1.28-3.08.82-.82 1.92-1.28 3.08-1.28 1.16 0 2.26.45 3.08 1.28.82.82 1.28 1.92 1.28 3.08v6.93H4.66Z"/>
</svg>
