<svg xmlns="http://www.w3.org/2000/svg" width="26" height="26" fill="currentColor" viewBox="0 0 26 26">
  <g clip-path="url(#a)">
    <path d="M13 22.532A9.533 9.533 0 1 0 3.467 13 9.544 9.544 0 0 0 13 22.532Zm-5.2-2.616v-.85a5.2 5.2 0 0 1 10.4 0v.85a8.601 8.601 0 0 1-10.4 0Zm2.6-9.517v-.867a2.6 2.6 0 0 1 5.2 0v.867a2.6 2.6 0 1 1-5.2 0ZM13 4.332a8.659 8.659 0 0 1 6.066 14.846v-.112a6.076 6.076 0 0 0-4.18-5.763 3.467 3.467 0 0 0 1.58-2.904v-.867a3.467 3.467 0 1 0-6.933 0v.867a3.467 3.467 0 0 0 1.58 2.904 6.074 6.074 0 0 0-4.18 5.763v.112A8.66 8.66 0 0 1 13 4.332Z"/>
    <path d="M.78 10.917a1.17 1.17 0 0 0-.73.967 12.242 12.242 0 0 0 0 2.23 1.17 1.17 0 0 0 .732.97l1.252.5a11.16 11.16 0 0 0 1.386 3.34l-.53 1.24a1.145 1.145 0 0 0 .17 1.207 12.901 12.901 0 0 0 1.569 1.568 1.146 1.146 0 0 0 1.205.17l1.241-.53c1.03.641 2.159 1.11 3.34 1.387l.501 1.254a1.173 1.173 0 0 0 .968.73c.381.034.77.05 1.147.05.378 0 .746-.017 1.084-.05a1.173 1.173 0 0 0 .968-.732l.5-1.252a11.165 11.165 0 0 0 3.34-1.386l1.24.53a1.145 1.145 0 0 0 1.207-.171c.567-.476 1.091-1 1.568-1.567a1.146 1.146 0 0 0 .17-1.206l-.53-1.242a11.111 11.111 0 0 0 1.387-3.34l1.254-.501a1.173 1.173 0 0 0 .73-.968 12.35 12.35 0 0 0 0-2.233 1.173 1.173 0 0 0-.731-.966l-1.252-.5a11.163 11.163 0 0 0-1.386-3.34l.53-1.241a1.145 1.145 0 0 0-.171-1.207c-.477-.566-1-1.09-1.567-1.567a1.146 1.146 0 0 0-1.206-.173l-1.242.532a11.163 11.163 0 0 0-3.34-1.387L15.081.78a1.17 1.17 0 0 0-.967-.73 12.278 12.278 0 0 0-2.23 0 1.17 1.17 0 0 0-.97.732l-.5 1.252c-1.18.277-2.31.746-3.34 1.386l-1.24-.53a1.147 1.147 0 0 0-1.207.171A12.927 12.927 0 0 0 3.06 4.628a1.146 1.146 0 0 0-.171 1.206l.53 1.241c-.64 1.03-1.11 2.16-1.387 3.34l-1.253.502Zm2.05-.093A10.322 10.322 0 0 1 4.27 7.35a.433.433 0 0 0 .035-.406l-.618-1.451a.288.288 0 0 1 .037-.307c.446-.53.937-1.02 1.468-1.467a.286.286 0 0 1 .303-.032l1.45.62a.43.43 0 0 0 .406-.036 10.321 10.321 0 0 1 3.474-1.44.433.433 0 0 0 .312-.263l.584-1.463a.304.304 0 0 1 .246-.191 11.41 11.41 0 0 1 2.072 0 .304.304 0 0 1 .24.19l.584 1.464a.433.433 0 0 0 .312.263c1.236.263 2.413.751 3.473 1.44a.433.433 0 0 0 .406.035l1.451-.62a.288.288 0 0 1 .307.038c.53.446 1.021.937 1.467 1.468a.286.286 0 0 1 .032.303l-.619 1.45a.434.434 0 0 0 .035.407 10.323 10.323 0 0 1 1.44 3.473.434.434 0 0 0 .264.312l1.462.584a.303.303 0 0 1 .192.242v.004c.062.69.062 1.383 0 2.072a.303.303 0 0 1-.19.24l-1.464.584a.434.434 0 0 0-.263.312 10.322 10.322 0 0 1-1.44 3.473.434.434 0 0 0-.035.407l.619 1.45a.286.286 0 0 1-.038.308c-.446.53-.937 1.02-1.467 1.467a.283.283 0 0 1-.304.031l-1.45-.618a.434.434 0 0 0-.406.035 10.322 10.322 0 0 1-3.474 1.44.432.432 0 0 0-.312.263l-.584 1.462a.304.304 0 0 1-.245.193c-.69.062-1.383.062-2.073 0a.304.304 0 0 1-.24-.19l-.583-1.464a.433.433 0 0 0-.312-.263 10.321 10.321 0 0 1-3.473-1.44.43.43 0 0 0-.406-.036l-1.452.62a.287.287 0 0 1-.306-.038 12.074 12.074 0 0 1-1.468-1.468.285.285 0 0 1-.031-.303l.619-1.45a.433.433 0 0 0-.036-.407 10.322 10.322 0 0 1-1.44-3.473.433.433 0 0 0-.263-.312l-1.462-.583a.303.303 0 0 1-.192-.245 11.37 11.37 0 0 1 0-2.073.303.303 0 0 1 .19-.24l1.464-.585a.434.434 0 0 0 .263-.312H2.83Z"/>
  </g>
  <defs>
    <clipPath id="a">
      <path d="M0 0h26v26H0z"/>
    </clipPath>
  </defs>
</svg>
