<svg xmlns="http://www.w3.org/2000/svg" width="18" height="18" fill="currentColor" viewBox="0 0 18 18">
  <path d="M8.99 10.02c1.66 0 3.21.64 4.38 1.82a6.233 6.233 0 0 1 1.81 4.04h.81a6.99 6.99 0 0 0-4.27-6.12l-.55-.23.05-.04.41-.32a4.511 4.511 0 1 0-7.15-3.66c0 1.44.7 2.81 1.87 3.66l.45.32-.49.25c-.88.37-1.62.87-2.27 1.52-.64.64-1.15 1.39-1.5 2.23-.32.76-.51 1.57-.54 2.39h.82c.08-1.53.72-2.96 1.81-4.04a6.167 6.167 0 0 1 4.38-1.82h-.02ZM6.38 8.13c-.7-.7-1.08-1.62-1.08-2.61 0-.99.38-1.91 1.08-2.61.7-.7 1.63-1.08 2.61-1.08s1.91.38 2.61 1.08c.7.7 1.08 1.62 1.08 2.61 0 .99-.38 1.91-1.08 2.61-.7.7-1.63 1.08-2.61 1.08s-1.91-.38-2.61-1.08Z"/>
</svg>
