<svg xmlns="http://www.w3.org/2000/svg" width="18" height="18" fill="currentColor" viewBox="0 0 18 18">
  <path fill-rule="evenodd" d="M13.37 11.84A6.108 6.108 0 0 0 9 10.02a6.167 6.167 0 0 0-4.37 1.82 6.113 6.113 0 0 0-1.72 3.26h12.175a6.224 6.224 0 0 0-1.715-3.26Zm2.61 3.885a6.979 6.979 0 0 0-2.03-4.465 6.901 6.901 0 0 0-2.23-1.5l-.55-.23.05-.04.41-.32a4.511 4.511 0 1 0-7.15-3.66c0 1.44.7 2.81 1.87 3.66l.45.32-.49.25c-.88.37-1.62.87-2.27 1.52-.64.64-1.15 1.39-1.5 2.23-.32.76-.51 1.57-.54 2.39a.8.8 0 0 0 0 .02h14a.803.803 0 0 0-.02-.175ZM5.3 5.52c0 .99.38 1.91 1.08 2.61.7.7 1.63 1.08 2.61 1.08s1.91-.38 2.61-1.08c.7-.7 1.08-1.62 1.08-2.61 0-.99-.38-1.91-1.08-2.61a3.67 3.67 0 0 0-2.61-1.08c-.98 0-1.91.38-2.61 1.08-.7.7-1.08 1.62-1.08 2.61Z" clip-rule="evenodd"/>
</svg>
