<svg xmlns="http://www.w3.org/2000/svg" width="18" height="18" fill="currentColor" viewBox="0 0 18 18">
  <g clip-path="url(#a)">
    <path fill-rule="evenodd" d="M18.03 4.54c0-.05-.03-.1-.05-.14.03.04.05.09.05.14Z" clip-rule="evenodd"/>
    <path fill-rule="evenodd" d="m17.92 4.34-.02-.02L13.68.1a.362.362 0 0 0-.51 0L9.04 4.23H6.69l-.02-.12a3.367 3.367 0 0 0-3.32-2.88C1.5 1.23-.01 2.74-.01 4.59c0 1.66 1.24 3.09 2.88 3.32l.12.02v3.08H.36c-.2 0-.36.17-.36.36v5.99c0 .2.16.36.36.36h5.99c.2 0 .36-.16.36-.36v-2.63h3.38l.02.12a3.367 3.367 0 0 0 3.32 2.88c1.85 0 3.36-1.51 3.36-3.36 0-1.66-1.24-3.09-2.88-3.32l-.12-.02V8.98l4.13-4.13c.07-.07.11-.16.11-.25s-.04-.18-.11-.25v-.01ZM.72 4.6c0-1.46 1.18-2.63 2.63-2.63S5.98 3.15 5.98 4.6 4.81 7.22 3.37 7.23h-.03A2.644 2.644 0 0 1 .72 4.6Zm5.27 12.42H.72v-5.27h2.62l.03.08v-.08h2.62v5.27Zm4.13-3.1h-.01l-.02.1H6.71v-2.63c0-.2-.16-.36-.36-.36H3.72V7.95l.11-.02a3.373 3.373 0 0 0 2.84-2.84l.02-.12h2.35L13.07 9v2.05l-.11.02a3.373 3.373 0 0 0-2.84 2.84v.01Zm5.95.45-.01.01c0 1.45-1.18 2.62-2.63 2.62s-2.63-1.17-2.63-2.62c0-1.45 1.17-2.63 2.61-2.65h.05c1.44 0 2.61 1.19 2.61 2.63v.01Zm-2.64-6.05L9.71 4.6 13.43.88l3.72 3.72-3.72 3.72Z" clip-rule="evenodd"/>
  </g>
  <defs>
    <clipPath id="a">
      <path d="M0 0h18v18H0z"/>
    </clipPath>
  </defs>
</svg>
