<!-- Generated by IcoMoon.io -->
<svg version="1.1" xmlns="http://www.w3.org/2000/svg" width="32" height="32" viewBox="0 0 32 32" aria-labelledby="account">
<path d="M27.59 0.029c1.532 0 2.845 1.204 2.845 2.845v0 17.619h0.547c0.547 0 0.875 0.438 0.875 0.875v0 2.736c0 1.204-0.985 2.189-2.189 2.189h-13.242v3.721h14.665c0.547 0 0.875 0.328 0.875 0.875s-0.438 0.875-0.875 0.875v0h-14.993c-0.109 0-0.219 0.109-0.438 0.109s-0.328 0-0.438-0.109v0h-14.227c-0.547 0-0.875-0.328-0.875-0.875s0.438-0.875 0.875-0.875v0h13.68v-3.721h-12.476c-1.204 0-2.189-0.985-2.189-2.189v0-2.736c0-0.547 0.438-0.875 0.875-0.875v0h0.547v-17.619c0-1.642 1.313-2.845 2.955-2.845v0zM12.379 22.135h-10.615v1.97c0 0.328 0.219 0.547 0.547 0.547v0h27.359c0.328 0 0.547-0.219 0.547-0.547v0-1.97h-10.615v0.547c0 0.547-0.438 0.875-0.875 0.875v0h-5.472c-0.547 0-0.876-0.438-0.876-0.875v0-0.547zM27.59 1.671h-23.31c-0.657 0-1.204 0.547-1.204 1.204v0 17.619h25.718v-17.619c0-0.657-0.547-1.204-1.204-1.204v0zM26.824 2.655c0.547 0 0.875 0.438 0.875 0.876v0 15.102c0 0.438-0.328 0.766-0.766 0.875v0h-21.887c-0.547 0-0.875-0.438-0.875-0.875v0-15.102c0-0.438 0.438-0.766 0.766-0.875v0zM26.058 4.406h-20.246v13.351h20.246v-13.351zM15.99 5.501c1.86 0 3.502 1.532 3.502 3.502v0 0.438h0.547c0.547 0 0.875 0.438 0.875 0.876v0 5.472c0 0.547-0.438 0.875-0.875 0.875v0h-8.208c-0.438 0-0.766-0.328-0.766-0.766v0-5.472c0-0.547 0.438-0.876 0.876-0.876v0h0.547v-0.547c0-1.86 1.642-3.502 3.502-3.502zM19.273 11.192h-6.566v3.83h6.566v-3.83zM15.99 7.033c-1.094 0-1.97 0.875-1.97 1.97v0h0.109v0.547h3.83v-0.547c0-1.094-0.875-1.97-1.97-1.97z"></path>
</svg>
