<!-- Generated by IcoMoon.io -->
<svg version="1.1" xmlns="http://www.w3.org/2000/svg" width="33" height="32" viewBox="0 0 33 32" aria-labelledby="accounts">
<path d="M7.898 11.983h-5.311c-0.272 0-0.409-0.272-0.409-0.545v-0.545h14.706c0.545 0 0.817-0.272 0.817-0.681v-7.762c0-1.089-0.817-2.043-1.906-2.043h-13.209c-1.089 0-1.906 0.953-1.906 2.043v9.123c0 1.089 0.817 2.043 1.906 2.043h5.311c0.409 0 0.817-0.409 0.817-0.817s-0.409-0.817-0.817-0.817zM2.587 1.906h13.209c0.272 0 0.408 0.272 0.408 0.545v6.945h-14.026v-6.945c0-0.272 0.272-0.545 0.409-0.545zM7.898 14.57h-3.813c-0.409 0-0.817 0.409-0.817 0.817s0.409 0.817 0.817 0.817h3.949c0.409 0 0.817-0.409 0.817-0.817-0.136-0.409-0.545-0.817-0.953-0.817zM29.14 11.983h-16.613c-1.634 0-2.86 1.362-2.86 3.132v10.894c0 1.77 1.226 3.132 2.86 3.132h7.489v1.089h-4.357c-0.409 0-0.817 0.409-0.817 0.817s0.409 0.817 0.817 0.817h10.349c0.409 0 0.817-0.409 0.817-0.817s-0.409-0.817-0.817-0.817h-4.357v-1.089h7.489c1.634 0 2.86-1.362 2.86-3.132v-10.894c0-1.77-1.226-3.132-2.86-3.132zM12.528 13.481h16.613c0.681 0 1.226 0.681 1.226 1.498v8.579h-19.064v-8.579c0-0.681 0.545-1.498 1.226-1.498zM29.14 27.506h-16.613c-0.681 0-1.362-0.681-1.362-1.498v-0.817h19.2v0.817c0.136 0.817-0.545 1.498-1.226 1.498zM21.515 26.417c0 0.376-0.305 0.681-0.681 0.681s-0.681-0.305-0.681-0.681c0-0.376 0.305-0.681 0.681-0.681s0.681 0.305 0.681 0.681z"></path>
</svg>
