<!-- Generated by IcoMoon.io -->
<svg version="1.1" xmlns="http://www.w3.org/2000/svg" width="32" height="32" viewBox="0 0 32 32" aria-labelledby="alert">
<path d="M29.184 14.326l-11.928-11.928c-0.628-0.628-1.883-0.628-2.511 0l-11.928 11.928c-0.628 0.628-0.628 1.674 0 2.511l11.928 11.719c0.628 0.628 1.883 0.628 2.511 0l11.928-11.928c0.628-0.628 0.628-1.674 0-2.302zM16 24.371c-1.046 0-1.674-0.837-1.674-1.674s0.628-1.883 1.674-1.883 1.674 0.837 1.674 1.674-0.628 1.883-1.674 1.883zM17.674 17.465c0 0.837-0.837 1.465-1.674 1.465s-1.674-0.628-1.674-1.465v-9.208c0-0.837 0.837-1.465 1.674-1.465s1.674 0.628 1.674 1.465v9.208z"></path>
</svg>
