<!-- Generated by IcoMoon.io -->
<svg version="1.1" xmlns="http://www.w3.org/2000/svg" width="32" height="32" viewBox="0 0 32 32" aria-labelledby="audit-log">
<path d="M30.4 18.133l-3.307-3.307c0.533-0.747 0.96-1.813 0.96-2.88 0-2.667-2.133-4.8-4.8-4.8s-4.8 2.133-4.8 4.8c0 2.667 2.133 4.8 4.8 4.8 1.067 0 2.027-0.32 2.88-0.96l3.307 3.307c0.107 0.107 0.32 0.213 0.533 0.213s0.32-0.107 0.533-0.213c0.107-0.213 0.107-0.747-0.107-0.96zM19.84 11.947c0-1.813 1.493-3.307 3.307-3.307s3.307 1.493 3.307 3.307c0 1.813-1.493 3.307-3.307 3.307-1.813 0.107-3.307-1.387-3.307-3.307zM17.067 5.973h-5.76c-0.427 0-0.747 0.32-0.747 0.747s0.32 0.747 0.64 0.747h5.867c0.427 0 0.747-0.32 0.747-0.747s-0.427-0.747-0.747-0.747zM11.2 10.347h3.84c0.427 0 0.747-0.32 0.747-0.747s-0.32-0.747-0.747-0.747h-3.84c-0.427 0-0.747 0.32-0.747 0.747 0.107 0.427 0.427 0.747 0.747 0.747zM11.2 13.227h3.84c0.427 0 0.747-0.32 0.747-0.747s-0.32-0.747-0.747-0.747h-3.84c-0.427 0-0.747 0.32-0.747 0.747 0.107 0.427 0.427 0.747 0.747 0.747zM11.2 16.107h3.84c0.427 0 0.747-0.32 0.747-0.747s-0.32-0.747-0.747-0.747h-3.84c-0.427 0-0.747 0.32-0.747 0.747 0.107 0.427 0.427 0.747 0.747 0.747zM11.2 18.987h5.867c0.427 0 0.747-0.32 0.747-0.747s-0.32-0.747-0.747-0.747h-5.76c-0.427 0-0.747 0.32-0.747 0.747s0.32 0.747 0.64 0.747zM23.573 18.24c-0.427 0-0.747 0.32-0.747 0.747v5.867c0 1.387-1.067 2.453-2.453 2.453s-2.453-1.067-2.453-2.453c0-1.387 1.067-2.453 2.453-2.453 0.427 0 0.747-0.32 0.747-0.747s-0.32-0.747-0.747-0.747h-12.16v-15.253c0-1.387 1.173-2.453 2.453-2.453h11.733c-0.107 0.32-0.213 0.64-0.213 1.067v1.387c0 0.427 0.32 0.747 0.747 0.747s0.747-0.32 0.747-0.747v-1.387c0-0.533 0.427-1.067 1.067-1.067 0.533 0 0.747 0.213 0.853 0.32 0.32 0.213 0.853 0.32 1.067 0 0.32-0.32 0.213-0.747 0-1.067 0 0-0.107-0.107-0.107-0.107-0.213-0.213-0.747-0.64-1.813-0.64 0 0-0.107 0-0.107 0s0 0 0 0h-13.973c-2.133 0-3.947 1.813-3.947 3.947v15.253h-1.387c-2.133 0-3.947 1.813-3.947 3.947s1.813 3.947 3.947 3.947h14.933c2.133 0 3.947-1.813 3.947-3.947v-5.867c0.107-0.427-0.213-0.747-0.64-0.747zM5.333 27.307c-1.387 0-2.453-1.067-2.453-2.453s1.067-2.453 2.453-2.453h11.947c-0.533 0.64-0.853 1.493-0.853 2.453s0.32 1.813 0.853 2.453h-11.947z"></path>
</svg>
