<!-- Generated by IcoMoon.io -->
<svg version="1.1" xmlns="http://www.w3.org/2000/svg" width="32" height="32" viewBox="0 0 32 32" aria-labelledby="billing">
<path d="M18.436 14.451c0-1.777-1.441-3.218-3.218-3.218s-3.218 1.441-3.218 3.218c0 1.777 1.441 3.218 3.218 3.218s3.218-1.441 3.218-3.218zM20.12 14.451c0 2.708-2.195 4.902-4.902 4.902s-4.902-2.195-4.902-4.902c0-2.708 2.195-4.902 4.902-4.902s4.902 2.195 4.902 4.902zM5.068 19.759h2.707c0.465 0 0.842-0.377 0.842-0.842s-0.377-0.842-0.842-0.842h-2.707c-0.465 0-0.842 0.377-0.842 0.842s0.377 0.842 0.842 0.842zM22.662 10.286h2.707c0.465 0 0.842-0.377 0.842-0.842s-0.377-0.842-0.842-0.842h-2.707c-0.465 0-0.842 0.377-0.842 0.842s0.377 0.842 0.842 0.842zM2.361 23.414c-0.465 0-0.842-0.377-0.842-0.842v-16.241c0-0.465 0.377-0.842 0.842-0.842h25.714c0.465 0 0.842 0.377 0.842 0.842v16.241c0 0.465-0.377 0.842-0.842 0.842h-25.714zM27.233 21.729v-14.556h-24.030v14.556h24.030zM5.068 24.436c-0.465 0-0.842 0.377-0.842 0.842s0.377 0.842 0.842 0.842h25.714c0.465 0 0.842-0.377 0.842-0.842v-16.241c0-0.465-0.377-0.842-0.842-0.842s-0.842 0.377-0.842 0.842v15.399h-24.872z"></path>
</svg>
