<!-- Generated by IcoMoon.io -->
<svg version="1.1" xmlns="http://www.w3.org/2000/svg" width="32" height="32" viewBox="0 0 32 32" aria-labelledby="bug">
<path d="M8.334 11.421c0 0.509 0.339 0.848 0.848 0.848h12.719c0.509 0 0.848-0.509 0.848-0.848-0.17-2.035-1.357-3.9-2.883-5.087 0.17-0.17 0.339-0.509 0.509-0.678 0.509-0.678 1.017-2.035 1.017-3.052 0-0.509 0-1.017 0-1.357 0-0.509-0.339-0.848-0.848-0.848s-0.848 0.339-0.848 0.848c0 0.339 0 0.678 0 1.357 0 0.509-0.339 1.526-0.848 2.205-0.17 0.17-0.339 0.509-0.678 0.678-0.848-0.339-1.696-0.509-2.713-0.509s-1.865 0.17-2.713 0.509c-0.339-0.17-0.509-0.509-0.678-0.678-0.509-0.678-0.848-1.696-0.848-2.205s0-1.017 0-1.357c0-0.509-0.339-0.848-0.848-0.848-0.509 0.17-0.848 0.509-0.848 1.017 0 0.339 0 0.678 0 1.357 0 0.848 0.509 2.205 1.187 3.052 0.17 0.17 0.339 0.339 0.509 0.509-1.526 1.187-2.713 3.052-2.883 5.087zM20.713 10.743h-10.514c0.678-2.374 2.713-4.070 5.257-4.070s4.579 1.696 5.257 4.070zM23.427 18.713c0.678 0 1.696 0.509 2.205 1.017 0.339 0.339 0.509 0.509 0.848 0.848s0.339 0.339 0.339 0.339c0.339 0.339 0.848 0.339 1.187 0s0.339-0.848 0-1.187c0 0 0 0-0.339-0.339s-0.509-0.509-0.848-0.848c-0.848-0.848-2.374-1.526-3.392-1.526h-0.678v-2.035h0.678c0.678 0 1.696 0.509 2.205 1.017 0.339 0.339 0.509 0.509 0.848 0.848s0.339 0.339 0.339 0.339c0.339 0.339 0.848 0.339 1.187 0s0.339-0.848 0-1.187c0 0 0 0-0.339-0.339s-0.509-0.509-0.848-0.848c-0.848-0.848-2.374-1.526-3.392-1.526h-1.526c0 0 0 0 0 0h-12.719c0 0 0 0 0 0h-1.696c-1.187 0-2.544 0.678-3.392 1.526l-1.357 1.187c-0.339 0.339-0.339 0.848 0 1.187s0.848 0.339 1.187 0l1.357-1.187c0.509-0.509 1.696-1.017 2.205-1.017h0.678v2.035h-0.678c-1.187 0-2.544 0.678-3.392 1.526l-1.357 1.357c-0.339 0.339-0.339 0.848 0 1.187s0.848 0.339 1.187 0l1.357-1.357c0.509-0.509 1.696-1.017 2.205-1.017h0.678v2.035h-0.678c-1.187 0-2.544 0.678-3.392 1.526l-1.357 1.357c-0.339 0.339-0.339 0.848 0 1.187s0.848 0.339 1.187 0l1.357-1.357c0.509-0.509 1.696-1.017 2.205-1.017h0.848c0.17 0.848 0.509 1.696 1.017 2.544 0.509 1.017 1.357 1.865 2.205 2.883 0.678 0.848 1.526 1.526 2.205 2.374 0.509 0.509 0.848 0.678 1.017 0.848 0.339 0.339 0.848 0.339 1.017 0 0.17-0.17 0.509-0.509 1.017-0.848 0.678-0.678 1.526-1.526 2.205-2.374 0.848-1.017 1.696-2.035 2.205-2.883s0.848-1.696 1.017-2.544h0.848c0.678 0 1.696 0.509 2.205 1.017 0.339 0.339 0.509 0.509 0.848 0.848s0.339 0.339 0.339 0.339c0.339 0.339 0.848 0.339 1.187 0s0.339-0.848 0-1.187c0 0 0 0-0.339-0.339s-0.509-0.509-0.848-0.848c-0.848-0.848-2.374-1.526-3.392-1.526h-0.678v-2.035h1.017zM20.035 24.309c-0.509 0.848-1.187 1.696-2.035 2.713-0.678 0.678-1.357 1.526-2.205 2.205-0.17 0.17-0.339 0.339-0.339 0.339-0.17-0.17-0.339-0.17-0.339-0.339-0.678-0.678-1.526-1.357-2.205-2.205-0.848-0.848-1.526-1.865-2.035-2.713-0.678-1.017-0.848-1.865-0.848-2.544v-6.783h11.023v6.783c0 0.678-0.339 1.526-1.017 2.544z"></path>
</svg>
