<!-- Generated by IcoMoon.io -->
<svg version="1.1" xmlns="http://www.w3.org/2000/svg" width="32" height="32" viewBox="0 0 32 32" aria-labelledby="builds">
<path d="M29.367 19.967c0.991 0 1.797 0.74 1.797 1.65v7.965c0 0.91-0.806 1.65-1.797 1.65h-11.77c-0.991 0-1.798-0.74-1.798-1.65l-0.001-3.983-1.222 0.001c-0.385 0-0.697-0.287-0.697-0.64s0.312-0.64 0.697-0.64l1.222-0.001 0.001-2.702c0-0.91 0.807-1.65 1.798-1.65h11.77zM30.048 23.836h-13.133l0 5.746c0 0.344 0.305 0.625 0.682 0.625h11.77c0.376 0 0.682-0.28 0.682-0.625l-0-5.746zM19.849 25.237l1.55 1.422c0.217 0.2 0.217 0.525 0 0.724l-1.55 1.423c-0.109 0.1-0.251 0.15-0.395 0.15s-0.286-0.050-0.395-0.15c-0.217-0.2-0.217-0.525 0-0.726l1.156-1.060-1.156-1.060c-0.217-0.2-0.217-0.525 0-0.724 0.217-0.201 0.572-0.201 0.789 0zM25.65 26.793c0.308 0 0.558 0.23 0.558 0.513 0 0.282-0.25 0.512-0.558 0.512h-2.477c-0.308 0-0.559-0.23-0.559-0.512 0-0.283 0.251-0.513 0.559-0.513h2.477zM2.030 23.040c0.385 0 0.697 0.287 0.697 0.64v0.64h0.697c0.385 0 0.697 0.287 0.697 0.64s-0.312 0.64-0.697 0.64h-1.394c-0.385 0-0.697-0.287-0.697-0.64v-1.28c0-0.353 0.312-0.64 0.697-0.64zM7.606 24.32c0.385 0 0.697 0.287 0.697 0.64s-0.312 0.64-0.697 0.64h-1.394c-0.385 0-0.697-0.287-0.697-0.64s0.312-0.64 0.697-0.64h1.394zM11.788 24.32c0.385 0 0.697 0.287 0.697 0.64s-0.312 0.64-0.697 0.64h-1.394c-0.385 0-0.697-0.287-0.697-0.64s0.312-0.64 0.697-0.64h1.394zM29.367 20.992h-11.77c-0.376 0-0.682 0.28-0.682 0.625l-0 1.194h13.133l0-1.194c0-0.344-0.305-0.625-0.682-0.625zM18.524 21.297c0.364 0 0.659 0.283 0.659 0.631 0 0.347-0.296 0.629-0.659 0.629-0.361 0-0.657-0.283-0.657-0.629 0-0.348 0.296-0.631 0.657-0.631zM20.384 21.297c0.362 0 0.658 0.283 0.658 0.631 0 0.347-0.296 0.629-0.658 0.629s-0.658-0.283-0.658-0.629c0-0.348 0.296-0.631 0.658-0.631zM22.242 21.297c0.364 0 0.659 0.283 0.659 0.631 0 0.347-0.296 0.629-0.659 0.629-0.362 0-0.658-0.283-0.658-0.629 0-0.348 0.296-0.631 0.658-0.631zM2.030 19.2c0.385 0 0.697 0.287 0.697 0.64v1.28c0 0.353-0.312 0.64-0.697 0.64s-0.697-0.287-0.697-0.64v-1.28c0-0.353 0.312-0.64 0.697-0.64zM2.030 15.36c0.385 0 0.697 0.287 0.697 0.64v1.28c0 0.353-0.312 0.64-0.697 0.64s-0.697-0.287-0.697-0.64v-1.28c0-0.353 0.312-0.64 0.697-0.64zM2.030 11.52c0.385 0 0.697 0.287 0.697 0.64v1.28c0 0.353-0.312 0.64-0.697 0.64s-0.697-0.287-0.697-0.64v-1.28c0-0.353 0.312-0.64 0.697-0.64zM29.367 0.127c0.991 0 1.797 0.74 1.797 1.65v7.965c0 0.91-0.806 1.65-1.797 1.65h-11.77c-0.991 0-1.798-0.74-1.798-1.65l-0.001-3.343-1.222 0.001c-0.385 0-0.697-0.287-0.697-0.64s0.312-0.64 0.697-0.64l1.222-0.001 0.001-3.342c0-0.91 0.807-1.65 1.798-1.65h11.77zM30.048 3.996h-13.133l0 5.746c0 0.344 0.305 0.625 0.682 0.625h11.77c0.376 0 0.682-0.28 0.682-0.625l-0-5.746zM2.030 7.679c0.385 0 0.697 0.287 0.697 0.64v1.28c0 0.353-0.312 0.64-0.697 0.64s-0.697-0.287-0.697-0.64v-1.28c0-0.353 0.312-0.64 0.697-0.64zM19.849 5.397l1.55 1.422c0.217 0.2 0.217 0.525 0 0.724l-1.55 1.423c-0.109 0.1-0.251 0.15-0.395 0.15s-0.286-0.050-0.395-0.15c-0.217-0.2-0.217-0.525 0-0.726l1.156-1.060-1.156-1.060c-0.217-0.2-0.217-0.525 0-0.724 0.217-0.201 0.572-0.201 0.789 0zM25.65 6.953c0.308 0 0.558 0.23 0.558 0.513 0 0.282-0.25 0.512-0.558 0.512h-2.477c-0.308 0-0.559-0.23-0.559-0.512 0-0.283 0.251-0.513 0.559-0.513h2.477zM2.030 3.84c0.385 0 0.697 0.287 0.697 0.64v0.64h0.697c0.385 0 0.697 0.287 0.697 0.64s-0.312 0.64-0.697 0.64h-1.394c-0.385 0-0.697-0.287-0.697-0.64v-1.28c0-0.353 0.312-0.64 0.697-0.64zM7.606 5.12c0.385 0 0.697 0.287 0.697 0.64s-0.312 0.64-0.697 0.64h-1.394c-0.385 0-0.697-0.287-0.697-0.64s0.312-0.64 0.697-0.64h1.394zM11.788 5.12c0.385 0 0.697 0.287 0.697 0.64s-0.312 0.64-0.697 0.64h-1.394c-0.385 0-0.697-0.287-0.697-0.64s0.312-0.64 0.697-0.64h1.394zM29.367 1.152h-11.77c-0.376 0-0.682 0.28-0.682 0.625l-0 1.194h13.133l0-1.194c0-0.344-0.305-0.625-0.682-0.625zM18.524 1.456c0.364 0 0.659 0.283 0.659 0.631 0 0.347-0.296 0.629-0.659 0.629-0.361 0-0.657-0.283-0.657-0.629 0-0.348 0.296-0.631 0.657-0.631zM20.384 1.456c0.362 0 0.658 0.283 0.658 0.631 0 0.347-0.296 0.629-0.658 0.629s-0.658-0.283-0.658-0.629c0-0.348 0.296-0.631 0.658-0.631zM22.242 1.456c0.364 0 0.659 0.283 0.659 0.631 0 0.347-0.296 0.629-0.659 0.629-0.362 0-0.658-0.283-0.658-0.629 0-0.348 0.296-0.631 0.658-0.631zM2.727 0v2.559h-1.394v-2.559h1.394z"></path>
</svg>
