<!-- Generated by IcoMoon.io -->
<svg version="1.1" xmlns="http://www.w3.org/2000/svg" width="32" height="32" viewBox="0 0 32 32" aria-labelledby="calendar">
<path d="M29.274 2.967h-4.103v-1.448c0-0.362-0.241-0.603-0.603-0.603h-3.62c-0.362 0-0.603 0.241-0.603 0.603v1.448h-9.654v-1.448c0-0.362-0.241-0.603-0.603-0.603h-3.62c-0.241 0-0.603 0.241-0.603 0.603v1.448h-4.344c-0.362 0-0.603 0.241-0.603 0.603v25.342c0 0.362 0.241 0.603 0.603 0.603h27.755c0.362 0 0.603-0.241 0.603-0.603v-25.342c0-0.362-0.241-0.603-0.603-0.603zM21.551 2.122h2.414v0.845h-2.414v-0.845zM21.551 4.174h2.414v1.569h-2.414v-1.569zM7.070 2.122h2.414v0.845h-2.414v-0.845zM7.070 4.174h2.414v1.569h-2.414v-1.569zM5.863 4.174v2.172c0 0.362 0.241 0.603 0.603 0.603h3.62c0.362 0 0.603-0.241 0.603-0.603v-2.172h9.654v2.172c0 0.362 0.241 0.603 0.603 0.603h3.62c0.362 0 0.603-0.241 0.603-0.603v-2.172h3.5v4.948h-26.549v-4.948h3.741zM2.122 28.309v-17.86h26.549v17.981h-26.549z"></path>
</svg>
