<!-- Generated by IcoMoon.io -->
<svg version="1.1" xmlns="http://www.w3.org/2000/svg" width="32" height="32" viewBox="0 0 32 32" aria-labelledby="checkbox-checked">
<path d="M30.4 1.467c-0.267-0.267-0.667-0.133-0.933 0.133l-16.133 20.133-6.133-6.133c-0.267-0.267-0.667-0.267-0.933 0s-0.267 0.667 0 0.933l6.667 6.667c0.267 0.267 0.8 0.267 0.933 0l16.667-20.8c0.267-0.267 0.133-0.667-0.133-0.933zM26 13.6c-0.4 0-0.667 0.267-0.667 0.667v14.667h-22.667v-22.667h16c0.4 0 0.667-0.267 0.667-0.667s-0.267-0.533-0.667-0.533h-16.667c-0.4 0-0.667 0.267-0.667 0.533v24c0 0.4 0.267 0.667 0.667 0.667h24c0.4 0 0.667-0.267 0.667-0.667v-15.2c0-0.4-0.267-0.8-0.667-0.8z"></path>
</svg>
