<!-- Generated by IcoMoon.io -->
<svg version="1.1" xmlns="http://www.w3.org/2000/svg" width="24" height="32" viewBox="0 0 24 32" aria-labelledby="clear-all">
<path d="M5.333 8c-0.736 0-1.333 0.597-1.333 1.333v13.333c0 0.736 0.597 1.333 1.333 1.333h13.333c0.736 0 1.333-0.597 1.333-1.333v-13.333c0-0.736-0.597-1.333-1.333-1.333h-13.333zM5.333 5.333h13.333c2.209 0 4 1.791 4 4v13.333c0 2.209-1.791 4-4 4h-13.333c-2.209 0-4-1.791-4-4v-13.333c0-2.209 1.791-4 4-4zM0.81 2.339l2.185-1.529 20.196 28.851-2.185 1.529z"></path>
</svg>
