<svg version="1.1" xmlns="http://www.w3.org/2000/svg" width="18" height="18" viewBox="0 0 18 18" aria-labelledby="dataset">
<path d="M8.94363229,-1.33226763e-15 C13.4391592,-1.33226763e-15 17.1364574,1.55660151 17.1364574,3.75336323 C17.1364574,3.76277984 17.1363895,3.7721847 17.1362538,3.78157771 L17.1356502,14.2466368 C17.1356502,16.4435054 13.4388748,18 8.94282511,18 C4.53160654,18 0.8897855,16.501687 0.753928678,14.3702978 L0.75,14.2466368 L0.75,3.75336323 L0.756018582,3.6110065 C0.91191427,1.48955649 4.5453228,-1.33226763e-15 8.94363229,-1.33226763e-15 Z M8.94282511,14.367713 C5.8915668,14.367713 3.20843033,13.6508381 1.79907996,12.5034378 L1.79932735,14.2466368 C1.79932735,15.6157787 4.96978681,16.9506726 8.94282511,16.9506726 C12.8313307,16.9506726 15.9510464,15.6719784 16.0820399,14.3339698 L16.0863229,14.2466368 L16.0873605,12.5027943 C14.678223,13.6505701 11.9946538,14.367713 8.94282511,14.367713 Z M8.94282511,10.735426 C5.8915668,10.735426 3.20843033,10.0185511 1.79907996,8.87115076 L1.79932735,10.6143498 L1.79932735,10.6143498 C1.79932735,11.9834918 4.96978681,13.3183857 8.94282511,13.3183857 C12.8313307,13.3183857 15.9510464,12.0396914 16.0820399,10.7016828 L16.0863229,10.6143498 L16.0873605,8.87050728 C14.678223,10.0182831 11.9946538,10.735426 8.94282511,10.735426 Z M1.79932735,6.98206278 C1.79932735,8.35120476 4.96978681,9.68609865 8.94282511,9.68609865 C12.8313307,9.68609865 15.9510464,8.40740445 16.0820399,7.06939578 L16.0863229,6.98206278 L16.0872675,5.64240373 C14.6777991,6.78980234 11.9945358,7.50672646 8.94363229,7.50672646 C5.89163909,7.50672646 3.20794507,6.78950623 1.79886904,5.64162209 L1.79932735,6.98206278 L1.79932735,6.98206278 Z M8.94363229,1.04932735 C4.97059398,1.04932735 1.80013453,2.38422125 1.80013453,3.75336323 C1.80013453,5.1225052 4.97059398,6.4573991 8.94363229,6.4573991 C12.9161366,6.4573991 16.08713,5.12237742 16.08713,3.75336323 L16.086,3.77 L16.0863229,3.75336323 C16.0762999,2.37979432 12.9093542,1.04932735 8.94363229,1.04932735 Z"></path>
</svg>
