<!-- Generated by IcoMoon.io -->
<svg version="1.1" xmlns="http://www.w3.org/2000/svg" width="32" height="32" viewBox="0 0 32 32" 
aria-labelledby="dataverse">
<path d="M2.889 10.030c2.505 2.040 7.276 3.315 12.701 3.315 7.992 0 14.565-2.767 14.565-6.673s-6.573-6.673-14.565-6.673c-7.948 0-14.491 2.736-14.564 6.607-0.001 0.021-0.002 0.043-0.002 0.065v18.655l0.007 0.22c0.226 3.541 5.893 6.099 13.034 6.419v-1.869c-6.333-0.31-11.175-2.514-11.175-4.77v-3.098c2.222 1.809 6.225 3.016 10.885 3.266v-1.87c-6.19-0.362-10.885-2.533-10.885-4.754v-3.098c2.346 1.91 6.676 3.148 11.67 3.298v-1.867c-6.574-0.216-11.67-2.476-11.67-4.79v-2.383zM15.59 1.865c7.062 0 12.699 2.373 12.699 4.807s-5.637 4.807-12.699 4.807c-7.063 0-12.7-2.373-12.7-4.807s5.636-4.807 12.7-4.807z"></path>
<path d="M29.13 26.323l1.3 1.301c0.234 0.235 0.234 0.615 0 0.849l-1.982 1.982c-0.234 0.234-0.615 0.235-0.849 0l-1.301-1.3c-0.357 0.158-0.791 0.296-1.331 0.438v1.806c0 0.332-0.269 0.601-0.601 0.601h-2.103c-0.332 0-0.601-0.269-0.601-0.601v-1.806c-0.539-0.142-0.975-0.28-1.332-0.438l-1.299 1.3c-0.234 0.235-0.615 0.235-0.849 0l-1.983-1.982c-0.235-0.234-0.235-0.615 0-0.849l1.301-1.301c-0.158-0.357-0.296-0.792-0.438-1.331h-1.806c-0.332 0-0.601-0.269-0.601-0.601v-2.103c0-0.332 0.269-0.601 0.601-0.601h1.806c0.142-0.539 0.28-0.974 0.438-1.331l-1.3-1.299c-0.235-0.234-0.235-0.615 0-0.849l1.982-1.982c0.234-0.234 0.615-0.235 0.849 0l1.301 1.3c0.357-0.158 0.792-0.296 1.331-0.437v-1.808c0-0.332 0.269-0.601 0.601-0.601h2.103c0.332 0 0.601 0.269 0.601 0.601v1.808c0.538 0.141 0.973 0.279 1.331 0.437l1.301-1.3c0.235-0.234 0.615-0.234 0.849 0l1.982 1.982c0.235 0.235 0.234 0.615 0 0.849l-1.299 1.299c0.158 0.358 0.297 0.794 0.437 1.332h1.807c0.332 0 0.601 0.269 0.601 0.601v2.103c0 0.332-0.269 0.601-0.601 0.601h-1.806c-0.142 0.539-0.28 0.974-0.438 1.331h-0.001zM27.971 26.863c-0.196-0.196-0.232-0.501-0.088-0.738 0.217-0.355 0.416-0.981 0.633-1.875 0.066-0.27 0.306-0.46 0.584-0.46h1.674v-0.901h-1.675c-0.278 0-0.519-0.19-0.584-0.46-0.214-0.888-0.414-1.52-0.632-1.876-0.144-0.237-0.108-0.542 0.088-0.738l1.184-1.183-1.133-1.133-1.185 1.185c-0.196 0.196-0.501 0.232-0.738 0.088-0.355-0.217-0.983-0.416-1.874-0.631-0.27-0.065-0.46-0.306-0.46-0.584v-1.675h-0.901v1.675c0 0.278-0.19 0.519-0.46 0.584-0.892 0.215-1.52 0.414-1.875 0.631-0.237 0.145-0.542 0.108-0.738-0.088l-1.185-1.185-1.133 1.133 1.185 1.185c0.196 0.196 0.232 0.501 0.088 0.738-0.217 0.355-0.416 0.981-0.633 1.875-0.065 0.27-0.306 0.46-0.584 0.46h-1.674v0.901h1.674c0.278 0 0.518 0.19 0.584 0.46 0.217 0.894 0.416 1.52 0.633 1.875 0.145 0.237 0.108 0.542-0.088 0.738l-1.185 1.185 1.133 1.132 1.185-1.185c0.196-0.196 0.502-0.232 0.738-0.088 0.356 0.218 0.982 0.416 1.876 0.633 0.27 0.066 0.46 0.306 0.46 0.584v1.674h0.901v-1.674c0-0.278 0.19-0.518 0.46-0.584 0.894-0.217 1.52-0.416 1.874-0.633 0.237-0.145 0.542-0.109 0.738 0.088l1.186 1.185 1.133-1.133-1.185-1.185zM23.288 25.893c1.428 0 2.521-1.080 2.527-2.573 0.047-1.425-1.084-2.533-2.527-2.533-1.394 0-2.526 1.142-2.526 2.553s1.132 2.553 2.526 2.553zM23.288 27.094c-2.060 0-3.727-1.682-3.727-3.754s1.668-3.755 3.727-3.755c2.107 0 3.798 1.655 3.727 3.757-0.008 2.139-1.64 3.752-3.727 3.752z"></path>
</svg>
