<!-- Generated by IcoMoon.io -->
<svg version="1.1" xmlns="http://www.w3.org/2000/svg" width="43" height="32" viewBox="0 0 43 32" aria-labelledby="deployment-none">
<path d="M21.688 0.941c-6.542 0-11.988 4.853-12.861 11.21-4.195-0.284-7.886 3.040-7.886 7.384 0 3.257 1.519 5.405 3.991 6.546 1.413 0.652 2.818 0.863 3.841 0.856l5.154-0v-1.882h-5.157c-0.215 0.002-0.56-0.019-0.996-0.085-0.707-0.106-1.408-0.3-2.054-0.598-1.834-0.846-2.898-2.351-2.898-4.837 0-3.503 3.218-6.115 6.652-5.399l1.067 0.223 0.065-1.088c0.347-5.853 5.195-10.447 11.081-10.447 4.332 0 8.206 2.51 10.034 6.367l0.265 0.56 0.619-0.023c4.366-0.159 7.946 3.326 7.946 7.655 0 2.981-1.271 5.017-3.431 6.357-0.77 0.478-1.602 0.831-2.433 1.075-0.495 0.145-0.871 0.221-1.067 0.246l-4.192-0.008v1.882h4.314c0.41-0.045 0.881-0.14 1.476-0.315 0.985-0.289 1.97-0.708 2.896-1.282 2.685-1.667 4.32-4.285 4.32-7.956 0-5.187-4.13-9.404-9.284-9.539-2.232-4.2-6.602-6.902-11.463-6.902zM19.765 13.176v1.882h1.882v-1.882h-1.882zM19.765 18.824v1.882h1.882v-1.882h-1.882zM19.765 24.471v1.882h1.882v-1.882h-1.882zM19.765 30.118v1.882h1.882v-1.882h-1.882z"></path>
</svg>
