<!-- Generated by IcoMoon.io -->
<svg version="1.1" xmlns="http://www.w3.org/2000/svg" width="24" height="32" viewBox="0 0 24 32" aria-labelledby="document-blank">
<path d="M21.8 9.892c0-0.106-0.106-0.212-0.212-0.212l-6.373-6.373c-0.106-0.106-0.212-0.106-0.212-0.212-0.106-0.106-0.106-0.106-0.212-0.106h-11.685c-0.531 0-0.85 0.319-0.85 0.85v24.431c0 0.425 0.319 0.85 0.85 0.85h18.058c0.425 0 0.85-0.319 0.85-0.85v-18.058c-0.106-0.212-0.106-0.212-0.212-0.319zM15.533 5.749l3.612 3.612h-3.612v-3.612zM3.849 27.419v-22.838h10.091v5.524c0 0.425 0.319 0.85 0.85 0.85h5.524v16.465h-16.465z"></path>
</svg>
