<!-- Generated by IcoMoon.io -->
<svg version="1.1" xmlns="http://www.w3.org/2000/svg" width="38" height="32" viewBox="0 0 38 32" aria-labelledby="download-cloud">
<path d="M9.56 23.915h-1.030c-0.178 0-0.961-0.016-1.937-0.263-0.974-0.246-2.17-0.73-3.14-1.684-1.163-1.147-1.745-2.688-1.745-4.534 0-1.877 0.872-3.795 2.399-5.036 1.198-0.965 2.667-1.459 4.164-1.457 0.901-5.26 5.488-9.235 10.931-9.235 4.009 0 7.733 2.207 9.682 5.693 1.987 0.104 3.834 0.91 5.275 2.291l0.002 0.002c1.625 1.578 2.534 3.691 2.534 5.945 0 3.599-1.844 5.677-3.689 6.839-0.916 0.577-1.83 0.928-2.518 1.137-0.345 0.105-0.635 0.174-0.843 0.217-0.169 0.036-0.379 0.071-0.328 0.061l-0.041 0.008h-3.693c-0.651 0-1.169-0.518-1.169-1.169s0.518-1.169 1.169-1.169h3.524c0.277-0.050 1.482-0.282 2.677-1.049 1.297-0.833 2.573-2.29 2.573-4.876 0-1.62-0.65-3.142-1.814-4.264-1.162-1.12-2.697-1.702-4.334-1.647l-0.015 0.001c-0.457 0-0.873-0.254-1.079-0.666l-0.004-0.009c-1.443-3.056-4.558-5.024-7.91-5.024-4.623 0-8.456 3.617-8.745 8.225-0.005 0.378-0.21 0.683-0.467 0.876-0.279 0.209-0.612 0.278-0.948 0.211l-0.003-0.001c-1.24-0.256-2.504 0.054-3.472 0.847-0.972 0.796-1.536 1.967-1.536 3.217 0 1.293 0.357 2.199 1.032 2.873 0.632 0.625 1.486 0.949 2.213 1.114 0.36 0.082 0.678 0.123 0.907 0.145 0.114 0.011 0.206 0.017 0.269 0.020l0.078 0.004 0.029 0.002h4.232c0.651 0 1.169 0.518 1.169 1.169s-0.518 1.169-1.169 1.169h-3.244l0.015 0.015zM8.515 23.474h0.001l0.014 0.014h-0.001l-0.014-0.014zM4.374 12.729c-1.038 0.843-1.753 2.025-2.065 3.282 0.312-1.257 1.027-2.439 2.065-3.282 1.217-0.979 2.731-1.44 4.259-1.351l-0 0c-1.529-0.089-3.042 0.371-4.259 1.351zM19.2 2.133c-4.955 0-9.173 3.427-10.343 8.086 1.17-4.659 5.388-8.086 10.343-8.086 3.933 0 7.584 2.211 9.424 5.684 1.974 0.045 3.814 0.816 5.239 2.182 1.543 1.499 2.404 3.502 2.404 5.639 0 0.421-0.026 0.819-0.076 1.197 0.050-0.378 0.076-0.776 0.076-1.197 0-2.137-0.861-4.141-2.404-5.639-1.425-1.365-3.265-2.137-5.239-2.182-1.84-3.473-5.491-5.684-9.424-5.684zM25.581 21.99c-0.352 0-0.64 0.234-0.72 0.559 0.080-0.325 0.368-0.559 0.72-0.559h3.562l0.028-0.005c0.384-0.068 4.239-0.756 5.327-4.325-1.088 3.57-4.943 4.257-5.327 4.326l-0.028 0.005h-3.562zM10.029 12.24c0.035-0.572 0.122-1.129 0.257-1.667-0.134 0.538-0.221 1.095-0.256 1.667 0 0.051-0.006 0.101-0.018 0.149 0.012-0.048 0.018-0.097 0.018-0.149zM13.531 22.732c0 0.064-0.008 0.126-0.022 0.185 0.015-0.059 0.023-0.121 0.023-0.185 0-0.416-0.326-0.742-0.742-0.742h-4.259c0-0.001-0.021-0.003-0.061-0.005v0h-0c-0.378-0.020-2.42-0.13-3.708-1.405-0.772-0.772-1.158-1.796-1.158-3.176 0-0.375 0.046-0.743 0.134-1.098-0.088 0.355-0.134 0.723-0.134 1.098 0 1.38 0.386 2.404 1.158 3.176 1.289 1.275 3.33 1.385 3.708 1.405 0.040 0.002 0.061 0.003 0.061 0.005h4.259c0.416 0 0.742 0.327 0.742 0.742zM19.927 14.273c0-0.094-0.017-0.184-0.047-0.266 0.031 0.082 0.048 0.172 0.048 0.266v13.94h-0v-13.941zM18.017 27.787v-13.514c0-0.651 0.518-1.169 1.169-1.169s1.169 0.518 1.169 1.169v13.514l2.462-2.462c0.464-0.463 1.194-0.463 1.657 0s0.463 1.194 0 1.657l-4.452 4.452c-0.463 0.464-1.194 0.464-1.657 0l-4.452-4.452c-0.463-0.463-0.463-1.194 0-1.657 0.228-0.227 0.529-0.348 0.821-0.348 0.295 0 0.604 0.112 0.828 0.355l2.455 2.455zM18.671 31.137c-0.008-0.008-0.016-0.016-0.024-0.024l0.019 0.019c0.002 0.002 0.004 0.004 0.006 0.006zM20.354 30.497l3.818-3.818c0.217-0.217 0.275-0.521 0.175-0.784 0.1 0.264 0.042 0.568-0.175 0.785l-3.818 3.817zM18.017 30.483l-3.803-3.803c-0.080-0.080-0.139-0.172-0.175-0.269 0.037 0.097 0.095 0.189 0.175 0.269l3.803 3.803z"></path>
</svg>
