<!-- Generated by IcoMoon.io -->
<svg version="1.1" xmlns="http://www.w3.org/2000/svg" width="32" height="32" viewBox="0 0 32 32" aria-labelledby="edit-params">
<path d="M2.088 6.779h10.059c0.503 1.844 2.179 3.353 4.191 3.353s3.688-1.509 4.023-3.353h10.227c0.503 0 0.838-0.335 0.838-0.838s-0.335-0.838-0.838-0.838h-10.227c-0.335-1.844-2.012-3.353-4.023-3.353s-3.688 1.509-4.024 3.353h-10.059c-0.671 0-1.006 0.335-1.006 0.838s0.335 0.838 0.838 0.838zM16.338 3.426c1.341 0 2.515 1.173 2.515 2.515 0 0 0 0 0 0s0 0 0 0c0 1.341-1.174 2.515-2.515 2.515s-2.515-1.173-2.515-2.515 1.174-2.515 2.515-2.515zM2.088 16.838h3.353c0.335 1.844 2.012 3.353 4.024 3.353s3.688-1.509 4.024-3.353h16.932c0.671 0 1.006-0.335 1.006-0.838s-0.335-0.838-0.838-0.838h-16.932c-0.335-1.844-2.012-3.353-4.024-3.353s-3.688 1.509-4.024 3.353h-3.353c-0.671 0-1.006 0.335-1.006 0.838s0.335 0.838 0.838 0.838zM9.632 13.485c1.341 0 2.515 1.174 2.515 2.515 0 0 0 0 0 0s0 0 0 0c0 1.341-1.174 2.515-2.515 2.515s-2.515-1.174-2.515-2.515 1.174-2.515 2.515-2.515zM30.588 25.221h-13.579c-0.335-1.844-2.012-3.353-4.024-3.353s-3.688 1.509-4.024 3.353h-6.706c-0.671 0-1.006 0.335-1.006 0.838s0.335 0.838 0.838 0.838h6.706c0.335 1.844 2.012 3.353 4.024 3.353s3.688-1.509 4.024-3.353h13.579c0.503 0 0.838-0.335 0.838-0.838s-0.168-0.838-0.671-0.838zM12.985 28.573c-1.341 0-2.515-1.174-2.515-2.515s1.174-2.515 2.515-2.515c1.341 0 2.515 1.174 2.515 2.515 0 0 0 0 0 0s0 0 0 0c0 1.341-1.174 2.515-2.515 2.515z"></path>
</svg>
