<!-- Generated by IcoMoon.io -->
<svg version="1.1" xmlns="http://www.w3.org/2000/svg" width="32" height="32" viewBox="0 0 32 32" aria-labelledby="email">
<path d="M30.667 24c0 0.736-0.598 1.333-1.333 1.333h-26.667c-0.736 0-1.333-0.598-1.333-1.333v-16c0-0.737 0.597-1.333 1.333-1.333h26.667c0.736 0 1.333 0.597 1.333 1.333v16zM32 24v-16c0-1.473-1.194-2.667-2.667-2.667h-26.667c-1.473 0-2.667 1.194-2.667 2.667v16c0 1.472 1.194 2.667 2.667 2.667h26.667c1.472 0 2.667-1.194 2.667-2.667zM5.029 10.774c-0.309-0.2-0.722-0.112-0.922 0.198s-0.112 0.722 0.198 0.922l11.333 7.333c0.22 0.143 0.504 0.143 0.724 0l11.333-7.333c0.309-0.2 0.398-0.613 0.198-0.922s-0.613-0.398-0.922-0.198l-10.971 7.099-10.971-7.099zM4.997 21.912l4.667-2.667c0.32-0.183 0.431-0.59 0.248-0.91s-0.59-0.431-0.91-0.248l-4.667 2.667c-0.32 0.183-0.431 0.59-0.248 0.91s0.59 0.431 0.91 0.248zM27.664 20.755l-4.667-2.667c-0.32-0.183-0.727-0.072-0.91 0.248s-0.072 0.727 0.248 0.91l4.667 2.667c0.32 0.183 0.727 0.072 0.91-0.248s0.072-0.727-0.248-0.91z"></path>
</svg>
