<!-- Generated by IcoMoon.io -->
<svg version="1.1" xmlns="http://www.w3.org/2000/svg" width="32" height="32" viewBox="0 0 32 32" aria-labelledby="empty-credential">
<path d="M16 0c8.837 0 16 7.163 16 16s-7.163 16-16 16c-8.837 0-16-7.163-16-16s7.163-16 16-16zM16 0.516c-8.552 0-15.484 6.932-15.484 15.484s6.932 15.484 15.484 15.484c8.552 0 15.484-6.932 15.484-15.484s-6.932-15.484-15.484-15.484zM16 9.806c-3.421 0-6.194 2.773-6.194 6.194s2.773 6.194 6.194 6.194c3.421 0 6.194-2.773 6.194-6.194s-2.773-6.194-6.194-6.194zM16 10.323c3.135 0 5.677 2.542 5.677 5.677s-2.542 5.677-5.677 5.677c-3.136 0-5.677-2.541-5.677-5.677s2.542-5.677 5.677-5.677zM16 12.387c-1.141 0-2.065 0.924-2.065 2.065l0.003 0.108c0.034 0.643 0.364 1.222 0.878 1.581l0.115 0.074-0.476 3.1c-0.024 0.156 0.097 0.297 0.255 0.297h2.581l0.046-0.004c0.135-0.024 0.23-0.153 0.209-0.293l-0.477-3.1 0.017-0.009c0.6-0.371 0.98-1.028 0.98-1.755 0-1.141-0.924-2.065-2.065-2.065zM16 12.903c0.855 0 1.548 0.693 1.548 1.548 0 0.599-0.344 1.135-0.875 1.393l-0.041 0.025c-0.076 0.056-0.116 0.151-0.102 0.247l0.458 2.981h-1.978l0.458-2.981c0.017-0.112-0.041-0.222-0.143-0.271-0.531-0.257-0.875-0.793-0.875-1.393 0-0.856 0.693-1.548 1.548-1.548z"></path>
</svg>
