<!-- Generated by IcoMoon.io -->
<svg version="1.1" xmlns="http://www.w3.org/2000/svg" width="32" height="32" viewBox="0 0 32 32" aria-labelledby="event-critical">
<path d="M14.543 31.258l-13.801-13.801c-0.805-0.805-0.805-2.11 0-2.915l13.801-13.801c0.805-0.805 2.11-0.805 2.915 0l13.801 13.801c0.805 0.805 0.805 2.11 0 2.915l-13.801 13.801c-0.805 0.805-2.11 0.805-2.915 0zM16 26.306c1.138 0 2.061-0.923 2.061-2.061s-0.923-2.061-2.061-2.061c-1.138 0-2.061 0.923-2.061 2.061s0.923 2.061 2.061 2.061zM18.061 17.792v-10.037c0-1.138-0.923-2.061-2.061-2.061s-2.061 0.923-2.061 2.061v10.037c0 1.138 0.923 2.061 2.061 2.061s2.061-0.923 2.061-2.061z"></path>
</svg>
