<!-- Generated by IcoMoon.io -->
<svg version="1.1" xmlns="http://www.w3.org/2000/svg" width="32" height="32" viewBox="0 0 32 32" aria-labelledby="expiration">
<path d="M26.284 29.378h-1.409v-5.244c0-3.581-1.997-6.7-4.938-8.3 2.941-1.6 4.938-4.719 4.938-8.303v0-5.247h1.413c0.631 0 1.144-0.512 1.144-1.144s-0.512-1.144-1.144-1.144h-2.544c-0.003 0-0.006 0-0.009 0h-16.609c-0.003 0-0.006 0-0.009 0h-2.544c-0.631 0-1.144 0.512-1.144 1.144s0.513 1.144 1.144 1.144h1.413v5.244c0 3.584 1.997 6.703 4.938 8.303-2.941 1.6-4.938 4.719-4.938 8.3v5.244h-1.412c-0.631 0-1.144 0.512-1.144 1.144s0.513 1.144 1.144 1.144h21.716c0.631 0 1.144-0.512 1.144-1.144s-0.516-1.141-1.147-1.141zM8.269 7.528v-5.244h14.319v5.244c0 3.944-3.191 7.147-7.131 7.159-0.009 0-0.019 0-0.028 0s-0.019 0-0.028 0c-3.941-0.012-7.131-3.213-7.131-7.159zM8.269 24.134c0-3.944 3.191-7.144 7.134-7.159 0.009 0 0.019 0 0.025 0 0.009 0 0.019 0 0.025 0 3.941 0.012 7.134 3.216 7.134 7.159v5.244h-14.319v-5.244z"></path>
</svg>
