<!-- Generated by IcoMoon.io -->
<svg version="1.1" xmlns="http://www.w3.org/2000/svg" width="32" height="32" viewBox="0 0 32 32" aria-labelledby="export">
<path d="M20 6c0.327 0 0.599 0.236 0.656 0.547l0.011 0.12v2c0 0.368-0.298 0.667-0.667 0.667-0.327 0-0.599-0.236-0.656-0.547l-0.011-0.12v-1.333h-16v17.333h16v-8c0-0.327 0.236-0.599 0.547-0.656l0.12-0.011c0.327 0 0.599 0.236 0.656 0.547l0.011 0.12v8.667c0 0.327-0.236 0.599-0.547 0.656l-0.12 0.011h-17.333c-0.327 0-0.599-0.236-0.656-0.547l-0.011-0.12v-18.667c0-0.327 0.236-0.599 0.547-0.656l0.12-0.011h17.333zM24.913 8.192l4.475 4.475c0.102 0.102 0.123 0.123 0.127 0.192l0.001 0.575c0 0 0 0.128-0.128 0.128l-4.475 4.475c-0.256 0.256-0.639 0.256-0.895 0s-0.256-0.639 0-0.895l3.452-3.324-10.356 0c-2.174 0-3.836 1.79-3.836 3.836v2.301c0 0.384-0.256 0.639-0.639 0.639s-0.639-0.256-0.639-0.639v-2.301c0-2.813 2.301-5.114 5.114-5.114h10.356l-3.452-3.452c-0.256-0.256-0.256-0.639 0-0.895s0.639-0.256 0.895 0z"></path>
</svg>
