<!-- Generated by IcoMoon.io -->
<svg version="1.1" xmlns="http://www.w3.org/2000/svg" width="32" height="32" viewBox="0 0 32 32" aria-labelledby="eye-closed">
<path d="M30.118 12.504l0.269-0.134c0.403-0.269 0.538-0.941 0.269-1.345s-0.941-0.538-1.345-0.269c-15.193 10.353-26.218 0.672-26.756 0.269-0.403-0.403-0.941-0.269-1.345 0-0.403 0.403-0.403 0.941 0 1.345 0 0 0.403 0.269 0.941 0.807l-1.748 2.958c-0.269 0.403-0.134 1.076 0.269 1.345 0.134 0.134 0.269 0.134 0.538 0.134s0.672-0.134 0.807-0.403l1.882-2.958c1.076 0.672 2.42 1.345 4.034 1.882l-0.941 2.958c-0.134 0.538 0.134 1.076 0.672 1.21h0.269c0.403 0 0.807-0.269 0.941-0.672l0.941-2.958c1.479 0.403 3.227 0.672 4.975 0.672v2.958c0 0.538 0.403 0.941 0.941 0.941s0.941-0.403 0.941-0.941v-2.958c1.613-0.134 3.227-0.403 4.975-0.807l1.21 3.092c0.134 0.403 0.538 0.538 0.941 0.538h0.403c0.538-0.134 0.807-0.672 0.538-1.21l-1.21-2.958c1.613-0.538 3.227-1.345 4.975-2.286l1.613 2.017c0.134 0.269 0.538 0.403 0.807 0.403 0.134 0 0.403 0 0.538-0.134 0.403-0.269 0.538-0.941 0.134-1.345l-1.479-2.151z"></path>
</svg>
