<!-- Generated by IcoMoon.io -->
<svg version="1.1" xmlns="http://www.w3.org/2000/svg" width="32" height="32" viewBox="0 0 32 32" aria-labelledby="file">
<path d="M26.681 7.159c-0.695-0.947-1.662-2.053-2.724-3.115s-2.169-2.030-3.116-2.724c-1.611-1.181-2.393-1.319-2.841-1.319h-15.5c-1.379 0-2.5 1.121-2.5 2.5v27c0 1.378 1.121 2.5 2.5 2.5h23c1.378 0 2.5-1.122 2.5-2.5v-19.5c0-0.447-0.137-1.229-1.319-2.841zM22.543 5.457c0.959 0.959 1.712 1.824 2.268 2.543h-4.811v-4.811c0.718 0.555 1.584 1.308 2.543 2.268zM26 29.5c0 0.271-0.229 0.5-0.5 0.5h-23c-0.271 0-0.5-0.229-0.5-0.5v-27c0-0.271 0.229-0.5 0.5-0.5 0 0 15.498 0 15.5 0v7c0 0.553 0.448 1 1 1h7v19.5z"></path>
<path d="M21 26h-14c-0.553 0-1-0.448-1-1s0.447-1 1-1h14c0.552 0 1 0.448 1 1s-0.448 1-1 1z"></path>
<path d="M21 22h-14c-0.553 0-1-0.448-1-1s0.447-1 1-1h14c0.552 0 1 0.448 1 1s-0.448 1-1 1z"></path>
<path d="M21 18h-14c-0.553 0-1-0.448-1-1s0.447-1 1-1h14c0.552 0 1 0.448 1 1s-0.448 1-1 1z"></path>
</svg>
