<!-- Generated by IcoMoon.io -->
<svg version="1.1" xmlns="http://www.w3.org/2000/svg" width="32" height="32" viewBox="0 0 32 32" aria-labelledby="flag">
<path d="M27.2 3.6c-0.133 0-0.4 0.133-0.667 0.133-0.533 0.133-1.2 0.267-1.867 0.4-1.067 0.267-2.133 0.4-3.067 0.4-3.2 0.267-4.933-0.133-4.933-1.333 0-2.4-2.533-2.8-6.4-2.133-0.933 0.267-1.867 0.533-2.8 0.8-0.8 0.133-1.467 0.4-2.133 0.533v-1.733c0-0.4-0.267-0.667-0.667-0.667s-0.667 0.267-0.667 0.667v30.667c0 0.4 0.267 0.667 0.667 0.667s0.667-0.267 0.667-0.667v-11.467c0.133 0 0.267-0.133 0.4-0.133 0.667-0.267 1.333-0.4 2.133-0.667 0.933-0.267 1.867-0.4 2.667-0.533 3.2-0.533 4.933-0.267 4.933 0.8 0 2.4 2.533 3.067 6.4 2.667 1.067-0.133 2.133-0.267 3.333-0.533 0.667-0.133 1.2-0.267 1.733-0.4 0.267-0.133 0.533-0.133 0.667-0.133 0.267-0.133 0.533-0.4 0.533-0.667v-16c-0.133-0.4-0.533-0.8-0.933-0.667zM26.667 19.733c0 0-0.133 0-0.133 0-0.533 0.133-1.067 0.267-1.733 0.4-1.067 0.267-2.133 0.4-3.2 0.4-3.2 0.267-4.933-0.133-4.933-1.333 0-2.4-2.533-2.8-6.4-2.133-0.933 0.267-1.867 0.533-2.8 0.8-0.8 0.133-1.467 0.4-2.133 0.533v-14.533c0.133 0 0.267-0.133 0.4-0.133 0.667-0.267 1.333-0.4 2.133-0.667 0.933-0.267 1.867-0.4 2.667-0.533 3.2-0.533 4.933-0.267 4.933 0.8 0 2.4 2.533 2.933 6.4 2.667 1.067-0.133 2.133-0.267 3.2-0.533 0.533-0.133 1.067-0.267 1.6-0.4v14.667z"></path>
</svg>
