<svg width="17" height="18" viewBox="0 0 17 18" xmlns="http://www.w3.org/2000/svg" aria-labelledby="forbid">
<path d="M8.49936 17.4962C13.1916 17.4962 16.9961 13.6921 16.9961 8.9994C16.9961 4.30666 13.1916 0.502625 8.49936 0.502625C3.8058 0.502625 0.00259399 4.30609 0.00259399 8.9994C0.00259399 13.6927 3.80582 17.4962 8.49936 17.4962ZM8.49998 2.70778C11.9748 2.70778 14.7922 5.52495 14.7922 9.00002C14.7922 12.4751 11.9747 15.2923 8.49998 15.2923C5.02392 15.2923 2.20773 12.4759 2.20773 9.00002C2.20773 5.52415 5.02405 2.70778 8.49998 2.70778Z"/>
<rect x="5.32196" y="4.75" width="9.92338" height="2.83333" rx="1" transform="rotate(38.9274 5.32196 4.75)"/>
</svg>
