<!-- Generated by IcoMoon.io -->
<svg xmlns="http://www.w3.org/2000/svg" xmlns:xlink="http://www.w3.org/1999/xlink" width="38" height="32" viewBox="0 0 38 32" version="1.1" aria-labelledby="fortanix-app-aci">
<g id="surface1">
<path d="M 1.570312 4.117188 C 1.570312 2.753906 2.625 1.644531 3.921875 1.644531 L 33.71875 1.644531 C 35.015625 1.644531 36.074219 2.753906 36.074219 4.117188 L 36.074219 8.234375 L 1.570312 8.234375 Z M 1.570312 9.878906 L 36.074219 9.878906 L 36.074219 27.171875 C 36.074219 28.53125 35.015625 29.640625 33.71875 29.640625 L 3.921875 29.640625 C 2.625 29.640625 1.570312 28.53125 1.570312 27.171875 Z M 37.640625 9.058594 L 37.640625 4.117188 C 37.640625 1.847656 35.882812 0 33.71875 0 L 3.921875 0 C 1.757812 0 0 1.847656 0 4.117188 L 0 27.171875 C 0 29.441406 1.757812 31.289062 3.921875 31.289062 L 33.71875 31.289062 C 35.882812 31.289062 37.640625 29.441406 37.640625 27.171875 Z M 6.273438 4.9375 L 6.273438 4.941406 L 7.058594 4.941406 Z M 6.273438 6.585938 C 5.410156 6.585938 4.707031 5.847656 4.707031 4.941406 C 4.707031 4.03125 5.410156 3.292969 6.273438 3.292969 C 7.140625 3.292969 7.84375 4.03125 7.84375 4.941406 C 7.84375 5.847656 7.140625 6.585938 6.273438 6.585938 Z M 10.980469 4.941406 L 10.980469 4.9375 L 11.761719 4.941406 Z M 9.410156 4.941406 C 9.410156 5.847656 10.113281 6.585938 10.976562 6.585938 C 11.84375 6.585938 12.546875 5.847656 12.546875 4.941406 C 12.546875 4.03125 11.84375 3.292969 10.976562 3.292969 C 10.113281 3.292969 9.410156 4.03125 9.410156 4.941406 Z M 15.683594 4.9375 L 15.683594 4.941406 L 16.46875 4.941406 Z M 15.683594 6.585938 C 14.820312 6.585938 14.117188 5.847656 14.117188 4.941406 C 14.117188 4.03125 14.820312 3.292969 15.683594 3.292969 C 16.550781 3.292969 17.253906 4.03125 17.253906 4.941406 C 17.253906 5.847656 16.550781 6.585938 15.683594 6.585938 Z M 24.183594 16.648438 L 24.910156 15.730469 C 24.195312 15.015625 23.148438 14.578125 22.105469 14.578125 C 19.917969 14.578125 18.21875 16.210938 18.21875 18.332031 C 18.21875 20.476562 19.898438 22.128906 22.0625 22.128906 C 23.105469 22.128906 24.171875 21.652344 24.921875 20.902344 L 24.183594 20.070312 C 23.625 20.617188 22.863281 20.957031 22.125 20.957031 C 20.648438 20.957031 19.488281 19.792969 19.488281 18.324219 C 19.488281 16.851562 20.648438 15.699219 22.125 15.699219 C 22.875 15.699219 23.644531 16.0625 24.183594 16.648438 Z M 16.703125 22.078125 L 18.035156 22.078125 L 14.804688 14.609375 L 13.527344 14.609375 L 10.265625 22.078125 L 11.5625 22.078125 L 12.269531 20.390625 L 15.996094 20.390625 Z M 12.734375 19.273438 L 14.128906 15.953125 L 15.523438 19.273438 Z M 26.191406 22.078125 L 26.191406 14.609375 L 27.4375 14.609375 L 27.4375 22.078125 Z M 26.191406 22.078125 "/>
</g>
</svg>
