<!-- Generated by IcoMoon.io -->
<svg version="1.1" xmlns="http://www.w3.org/2000/svg" width="38" height="32" viewBox="0 0 38 32" aria-labelledby="fortanix-app-enclave-os">
<path d="M34.081 0c2.186 0 3.963 1.846 3.963 4.117v23.055c0 2.271-1.777 4.117-3.963 4.117h-30.118c-2.186 0-3.963-1.846-3.963-4.117v-23.055c0-2.271 1.777-4.117 3.963-4.117h30.118zM36.458 9.88h-34.874l0.001 17.292c0 1.362 1.067 2.47 2.378 2.47h30.118c1.311 0 2.378-1.108 2.378-2.47l-0.001-17.292zM34.081 1.647h-30.118c-1.311 0-2.378 1.108-2.378 2.47l-0.001 4.117h34.874l0.001-4.117c0-1.362-1.067-2.47-2.378-2.47zM6.341 3.294c0.875 0 1.585 0.738 1.585 1.647s-0.71 1.647-1.585 1.647c-0.875 0-1.585-0.738-1.585-1.647s0.71-1.647 1.585-1.647zM11.096 3.294c0.875 0 1.585 0.738 1.585 1.647s-0.71 1.647-1.585 1.647c-0.875 0-1.585-0.738-1.585-1.647s0.71-1.647 1.585-1.647zM15.851 3.294c0.875 0 1.585 0.738 1.585 1.647s-0.71 1.647-1.585 1.647c-0.875 0-1.585-0.738-1.585-1.647s0.71-1.647 1.585-1.647zM16.054 23.467c2.341 0 4.155-1.736 4.155-3.976s-1.814-3.954-4.155-3.954c-2.341 0-4.155 1.702-4.155 3.954 0 2.24 1.814 3.976 4.155 3.976zM16.065 22.279c-1.534 0-2.822-1.232-2.822-2.789s1.277-2.766 2.822-2.766c1.534 0 2.789 1.21 2.789 2.766s-1.254 2.789-2.789 2.789zM24.084 23.455c1.725 0 2.957-0.862 2.957-2.262 0.011-2.822-4.222-1.904-4.222-3.618 0-0.526 0.504-0.818 1.277-0.818 0.594 0 1.445 0.213 2.296 0.728l0.549-1.165c-0.728-0.482-1.725-0.806-2.744-0.806-1.702 0-2.856 0.84-2.856 2.184 0 2.789 4.234 1.814 4.234 3.562 0 0.605-0.549 0.952-1.467 0.952-0.84 0-1.848-0.403-2.654-1.142l-0.571 1.142c0.806 0.739 1.971 1.243 3.203 1.243z"></path>
</svg>
