<!-- Generated by IcoMoon.io -->
<svg version="1.1" xmlns="http://www.w3.org/2000/svg" width="32" height="32" viewBox="0 0 32 32" aria-labelledby="frame-expand">
<path d="M25.333 6.667h-5.334l-0-0.381 0.001-0.571v-0.381h5.333c0.736 0 1.333 0.597 1.333 1.333v5.334l-1.333-0.001v-5.333zM6.667 5.333h5.333v1.333h-5.333v5.334l-1.333-0.001v-5.333c0-0.736 0.597-1.333 1.333-1.333zM25.333 20v5.333h-5.333v0.381l-0.001 0.571 0 0.381h5.334c0.736 0 1.333-0.597 1.333-1.333v-5.333h-1.333zM12 26.667h-5.333c-0.736 0-1.333-0.597-1.333-1.333v-5.333h1.333v5.333h5.333v1.333z"></path>
</svg>
