<!-- Generated by IcoMoon.io -->
<svg version="1.1" xmlns="http://www.w3.org/2000/svg" width="20" height="32" viewBox="0 0 20 32" aria-labelledby="fresh">
<path d="M2.408 31.157c-0.125 0-0.376 0-0.501-0.125-0.376-0.251-0.501-0.752-0.376-1.127l4.76-11.775h-4.885c-0.376 0-0.626-0.125-0.752-0.501-0.125-0.251-0.125-0.626 0-0.877l8.267-15.407c0.125-0.251 0.501-0.501 0.877-0.501h7.766c0.376 0 0.626 0.125 0.877 0.501 0.125 0.251 0.125 0.626 0 1.002l-5.386 8.768h6.263c0.376 0 0.752 0.251 0.877 0.501s0.125 0.752-0.125 1.002l-17.036 18.163c-0.125 0.251-0.376 0.376-0.626 0.376zM3.034 16.251h4.76c0.251 0 0.626 0.125 0.752 0.376s0.251 0.626 0.125 0.877l-3.382 8.267 11.649-12.777h-5.887c-0.251 0-0.626-0.251-0.752-0.501s-0.125-0.626 0-1.002l5.386-8.768h-5.386l-7.265 13.528z"></path>
</svg>
