<!-- Generated by IcoMoon.io -->
<svg version="1.1" xmlns="http://www.w3.org/2000/svg" width="32" height="32" viewBox="0 0 32 32" aria-labelledby="help">
<path d="M29.97 16c0-7.715-6.255-13.97-13.97-13.97s-13.97 6.255-13.97 13.97c0 7.715 6.255 13.97 13.97 13.97s13.97-6.255 13.97-13.97zM31.693 16c0 8.667-7.026 15.693-15.693 15.693s-15.693-7.026-15.693-15.693c0-8.667 7.026-15.693 15.693-15.693s15.693 7.026 15.693 15.693zM20.907 12.629c0-2.709-2.198-4.907-4.907-4.907s-4.907 2.197-4.907 4.907c0 0.476 0.386 0.861 0.861 0.861s0.861-0.386 0.861-0.861c0-1.758 1.426-3.184 3.184-3.184s3.184 1.427 3.184 3.184c0 1.759-1.425 3.184-3.184 3.184-0.476 0-0.861 0.386-0.861 0.861v4.045c0 0.476 0.386 0.861 0.861 0.861s0.861-0.386 0.861-0.861v-3.259c2.299-0.407 4.045-2.415 4.045-4.831zM15.813 24.090c0 0.104 0.084 0.187 0.187 0.187s0.187-0.084 0.187-0.187c0-0.104-0.084-0.187-0.187-0.187s-0.187 0.084-0.187 0.187zM17.536 24.090c0 0.848-0.688 1.536-1.536 1.536s-1.536-0.688-1.536-1.536c0-0.848 0.688-1.536 1.536-1.536s1.536 0.688 1.536 1.536z"></path>
</svg>
