<!-- Generated by IcoMoon.io -->
<svg version="1.1" xmlns="http://www.w3.org/2000/svg" width="38" height="32" viewBox="0 0 38 32" aria-labelledby="home-info">
<path d="M24.128 9.338l-0.86 2.922c-0.145 0.495 0.311 0.957 0.808 0.818l2.935-0.83c2.482 1.244 5.495 0.814 7.475-1.167 2.526-2.526 2.526-6.642 0-9.168s-6.84-2.327-9.086-0.081-2.486 5.032-1.273 7.507v0zM33.558 10.151c-1.647 1.648-4.183 1.991-6.208 0.84-0.153-0.087-0.334-0.109-0.503-0.062l-1.983 0.56 0.581-1.971c0.050-0.169 0.030-0.351-0.055-0.505-1.126-2.021-0.905-4.407 0.925-6.237s5.219-1.959 7.243 0.065 2.024 5.286 0 7.31v0z"></path>
<path d="M13.068 6.742c0.196-0.198 0.515-0.2 0.714-0.005l11.413 11.246c0.199 0.196 0.201 0.516 0.005 0.714s-0.516 0.201-0.714 0.005l-11.053-10.892-10.766 10.887c-0.196 0.198-0.516 0.2-0.715 0.004s-0.2-0.516-0.004-0.714l11.121-11.246zM4.763 18.492c0.279 0 0.505 0.226 0.505 0.505v10.897h4.471v-7.553c0-0.279 0.226-0.505 0.505-0.505h6.633c0.279 0 0.505 0.226 0.505 0.505v7.553h4.494v-10.897c0-0.279 0.226-0.505 0.505-0.505s0.505 0.226 0.505 0.505v11.402c0 0.279-0.226 0.505-0.505 0.505h-5.505c-0.279 0-0.505-0.226-0.505-0.505v-7.553h-5.622v7.553c0 0.279-0.226 0.505-0.505 0.505h-5.482c-0.279 0-0.505-0.226-0.505-0.505v-11.402c0-0.279 0.226-0.505 0.505-0.505z"></path>
</svg>
