<!-- Generated by IcoMoon.io -->
<svg version="1.1" xmlns="http://www.w3.org/2000/svg" width="80" height="32" viewBox="0 0 80 32" aria-labelledby="horizontal-collapse">
<path d="M23.353 1.858l12.728 12.728c0.781 0.781 0.781 2.047 0 2.828l-12.728 12.728c-0.781 0.781-2.047 0.781-2.828 0s-0.781-2.047 0-2.828l9.314-9.314h-29.838v-4h29.838l-9.314-9.314c-0.781-0.781-0.781-2.047 0-2.828s2.047-0.781 2.828 0z"></path>
<path d="M53.98 30.142l-12.728-12.728c-0.781-0.781-0.781-2.047 0-2.828l12.728-12.728c0.781-0.781 2.047-0.781 2.829 0s0.781 2.047 0 2.828l-9.314 9.314h32.505v4h-32.505l9.314 9.314c0.781 0.781 0.781 2.047 0 2.828s-2.047 0.781-2.829 0z"></path>
</svg>
