<!-- Generated by IcoMoon.io -->
<svg version="1.1" xmlns="http://www.w3.org/2000/svg" width="80" height="32" viewBox="0 0 80 32" aria-labelledby="horizontal-expand">
<path d="M1.252 17.781c-0.781-0.781-0.781-2.047 0-2.828l12.728-12.728c0.781-0.781 2.047-0.781 2.828 0s0.781 2.047 0 2.828l-9.314 9.314h44.505v4h-44.505l9.314 9.314c0.781 0.781 0.781 2.047 0 2.828s-2.047 0.781-2.828 0l-12.728-12.728z"></path>
<path d="M66.020 30.509l12.728-12.728c0.781-0.781 0.781-2.047 0-2.828l-12.728-12.728c-0.781-0.781-2.047-0.781-2.829 0s-0.781 2.047 0 2.828l9.314 9.314h-21.838v4h21.838l-9.314 9.314c-0.781 0.781-0.781 2.047 0 2.828s2.047 0.781 2.829 0z"></path>
</svg>
