<!-- Generated by IcoMoon.io -->
<svg version="1.1" xmlns="http://www.w3.org/2000/svg" width="32" height="32" viewBox="0 0 32 32" aria-labelledby="info">
<path d="M15.977 0c8.847 0 15.977 7.13 15.977 15.977s-7.13 15.977-15.977 15.977c-8.847 0-15.977-7.13-15.977-15.977s7.13-15.977 15.977-15.977zM15.977 1.585c-7.922 0-14.392 6.47-14.392 14.392s6.47 14.392 14.392 14.392c7.922 0 14.392-6.47 14.392-14.392s-6.47-14.392-14.392-14.392zM15.5 12.059c0.409 0 0.749 0.382 0.82 0.885l0.013 0.194v10.784c0 0.596-0.373 1.078-0.833 1.078-0.409 0-0.749-0.381-0.82-0.885l-0.013-0.194v-10.784c0-0.596 0.373-1.078 0.833-1.078zM15.5 6.667c0.458 0 0.833 0.483 0.833 1.078s-0.375 1.078-0.833 1.078c-0.462 0-0.833-0.483-0.833-1.078s0.372-1.078 0.833-1.078z"></path>
</svg>
