<!-- Generated by IcoMoon.io -->
<svg version="1.1" xmlns="http://www.w3.org/2000/svg" width="32" height="32" viewBox="0 0 32 32" aria-labelledby="install">
<path d="M29.714 16c0-7.574-6.14-13.714-13.714-13.714s-13.714 6.14-13.714 13.714c0 7.574 6.14 13.714 13.714 13.714s13.714-6.14 13.714-13.714zM31.238 16c0 8.416-6.823 15.238-15.238 15.238s-15.238-6.823-15.238-15.238c0-8.416 6.822-15.238 15.238-15.238s15.238 6.822 15.238 15.238zM17.42 23.896c0 0.421-0.341 0.762-0.762 0.762s-0.762-0.341-0.762-0.762v-17.108c0-0.421 0.341-0.762 0.762-0.762s0.762 0.341 0.762 0.762v17.108zM16.658 23.477l6.699-6.699c0.298-0.298 0.78-0.298 1.078 0s0.298 0.78 0 1.078l-7.777 7.777-7.777-7.777c-0.298-0.298-0.298-0.78 0-1.078s0.78-0.298 1.078 0l6.699 6.699z"></path>
</svg>
