<!-- Generated by IcoMoon.io -->
<svg version="1.1" xmlns="http://www.w3.org/2000/svg" width="32" height="32" viewBox="0 0 32 32" aria-labelledby="key-wrapping">
<path d="M4.969 27.533l2.177-2.328c0.687 0.643 1.448 1.203 2.266 1.668l-1.575 2.771c-1.036-0.589-1.998-1.298-2.868-2.111v0zM11.172 31.041l0.869-3.067c0.899 0.255 1.829 0.404 2.777 0.442l-0.128 3.185c-1.2-0.048-2.379-0.237-3.518-0.56v0zM18.227 31.333l-0.611-3.128c0.926-0.181 1.822-0.47 2.674-0.861l1.33 2.897c-1.081 0.496-2.218 0.863-3.393 1.093zM24.681 28.366l-1.974-2.502c0.739-0.583 1.407-1.251 1.991-1.99l2.502 1.975c-0.738 0.935-1.583 1.78-2.518 2.517zM29.135 22.652l-2.909-1.302c0.383-0.855 0.664-1.755 0.836-2.683l3.134 0.581c-0.218 1.177-0.575 2.319-1.060 3.404v0zM30.435 15.799l-3.184 0.14c-0.042-0.948-0.194-1.878-0.452-2.775l3.063-0.881c0.327 1.138 0.52 2.316 0.573 3.516v-0zM28.443 8.936l-2.763 1.589c-0.469-0.815-1.033-1.573-1.679-2.258l2.317-2.189c0.818 0.866 1.532 1.825 2.126 2.858zM23.543 3.766l-1.736 2.674c-0.788-0.512-1.634-0.929-2.522-1.242l1.060-3.006c1.126 0.397 2.198 0.926 3.197 1.574v0zM16.917 1.418l-0.335 3.17c-0.413-0.044-0.83-0.066-1.247-0.067-0.549-0-1.070 0.033-1.587 0.101l-0.412-3.161c0.654-0.085 1.313-0.128 2.002-0.128 0.53 0.001 1.057 0.029 1.579 0.084zM9.86 2.344l1.147 2.974c-0.878 0.339-1.712 0.78-2.485 1.315l-1.812-2.622c0.98-0.677 2.037-1.237 3.15-1.667z"></path>
<path d="M21.085 18.090l-0.998-0.998c-0.143-0.143-0.285-0.285-0.57-0.285s-0.428 0.143-0.57 0.285l-0.998 1.141-0.998-1.141c-0.143-0.285-0.285-0.285-0.428-0.285v0h-4.135c-0.285 0-0.57 0.143-0.713 0.428-0.57 1.854-2.281 3.137-4.278 3.137-2.424 0-4.42-1.996-4.42-4.563s1.996-4.563 4.563-4.563c1.854 0 3.565 1.283 4.278 3.137 0.143 0.285 0.428 0.428 0.713 0.428h9.839l0.856 0.998-2.139 2.281zM24.792 15.238l-1.569-1.569c-0.143-0.143-0.285-0.285-0.57-0.285h-9.697c-0.428-0.998-1.141-1.854-1.996-2.424-0.998-0.856-2.281-1.141-3.565-1.141-3.28 0-5.846 2.709-5.846 5.989s2.709 5.989 5.989 5.989c2.424 0 4.563-1.426 5.419-3.707h3.137l1.283 1.426c0.285 0.285 0.713 0.285 0.998 0l0.998-1.141 0.998 1.141c0.143 0.143 0.285 0.285 0.57 0.285 0.143 0 0.428-0.143 0.57-0.285l3.137-3.28c0.428-0.143 0.428-0.713 0.143-0.998h-0z"></path>
<path d="M7.112 14.525c0.713 0 1.283 0.57 1.283 1.283s-0.57 1.283-1.283 1.283c-0.713 0-1.141-0.57-1.141-1.283s0.428-1.283 1.141-1.283zM7.112 17.805c1.141 0 1.996-0.856 1.996-1.996s-0.856-1.996-1.996-1.996c-0.998 0-1.854 0.856-1.854 1.996s0.856 1.996 1.854 1.996z"></path>
</svg>
