<!-- Generated by IcoMoon.io -->
<svg version="1.1" xmlns="http://www.w3.org/2000/svg" width="24" height="32" viewBox="0 0 24 32" aria-labelledby="key-link">
<path d="M19.936 16.523l-4.68-4.68c-0.734-0.734-1.713-1.139-2.756-1.139s-2.022 0.404-2.756 1.139l-1.91 1.91 2.015 2.015 1.914-1.91c0.197-0.197 0.455-0.302 0.741-0.302s0.54 0.105 0.741 0.302l4.68 4.68c0.408 0.408 0.408 1.074 0 1.482l-8.606 8.602c-0.197 0.197-0.459 0.306-0.741 0.306s-0.544-0.109-0.741-0.306l-4.68-4.68c-0.197-0.197-0.306-0.459-0.306-0.741 0-0.279 0.109-0.544 0.306-0.741l2.243-2.243-2.015-2.015-2.247 2.243c-1.519 1.519-1.519 3.99 0 5.513l4.68 4.68c0.734 0.734 1.713 1.139 2.756 1.139s2.019-0.404 2.756-1.139l8.602-8.602c1.523-1.523 1.526-3.994 0.003-5.513zM21.799 6.096l-4.68-4.68c-0.734-0.734-1.713-1.139-2.756-1.139s-2.022 0.404-2.756 1.139l-8.602 8.606c-0.734 0.734-1.139 1.713-1.139 2.756s0.404 2.022 1.139 2.756l4.68 4.677c0.734 0.734 1.713 1.139 2.756 1.139s2.019-0.404 2.756-1.139l1.859-1.859-2.005-2.022-1.866 1.866c-0.197 0.197-0.459 0.306-0.741 0.306-0.279 0-0.544-0.109-0.741-0.306l-4.684-4.68c-0.197-0.197-0.302-0.455-0.302-0.741s0.105-0.54 0.302-0.741l8.602-8.602c0.197-0.197 0.459-0.306 0.741-0.306s0.544 0.109 0.741 0.306l4.68 4.68c0.408 0.408 0.408 1.074 0 1.482l-2.175 2.175 2.029 2.002 2.162-2.162c1.519-1.519 1.519-3.994 0-5.513z"></path>
</svg>
