<svg width="31" height="25" viewBox="0 0 31 25" xmlns="http://www.w3.org/2000/svg" aria-labelledby="key-metadata-policy">
<path d="M4.03533 0C3.75919 0 3.53533 0.223858 3.53533 0.5V4.04711H1C0.723858 4.04711 0.5 4.27096 0.5 4.54711V23.7709C0.5 24.047 0.723858 24.2709 1 24.2709H12.7583C12.5755 23.9518 12.4148 23.6179 12.2783 23.2709H1.5V5.04711H3.53533V20.7355C3.53533 21.0117 3.75919 21.2355 4.03533 21.2355H11.786C11.7828 21.2033 11.7797 21.171 11.7768 21.1386C11.7497 20.8347 11.7408 20.5333 11.7491 20.2355H4.53533V1H23.7709V14.1319C24.1265 14.3767 24.4611 14.6509 24.7709 14.9515V0.5C24.7709 0.223858 24.547 0 24.2709 0H4.03533ZM20.7296 12.8921V12.1413H7.57655V13.1413H17.096C17.6206 12.975 18.1713 12.863 18.7422 12.8122C19.4214 12.7517 20.0879 12.7816 20.7296 12.8921ZM15.0251 14.1649H7.57655V15.1649H13.8633C14.2152 14.795 14.6042 14.4596 15.0251 14.1649ZM13.0433 16.1884H7.57655V17.1884H12.4764C12.6405 16.8405 12.8302 16.5063 13.0433 16.1884ZM7.57655 5.04711H20.7296V4.04711H7.57655V5.04711ZM7.57655 7.07066H20.7296V6.07066H7.57655V7.07066ZM7.57655 9.09421H20.7296V8.09421H7.57655V9.09421ZM7.57655 11.1178H20.7296V10.1178H7.57655V11.1178Z"/>
<path d="M28.3327 21.1445L27.6514 20.4632C27.5541 20.3659 27.4568 20.2686 27.2622 20.2686C27.0675 20.2686 26.9702 20.3659 26.8729 20.4632L26.1916 21.2418L25.5104 20.4632C25.413 20.2686 25.3157 20.2686 25.2184 20.2686V20.2687H22.3961C22.2015 20.2687 22.0069 20.366 21.9096 20.5606C21.5204 21.8258 20.3525 22.7016 18.99 22.7016C17.3355 22.7016 15.9731 21.3392 15.9731 19.5874C15.9731 17.8356 17.3355 16.4732 19.0873 16.4732C20.3524 16.4732 21.5202 17.3491 22.0069 18.6142C22.1042 18.8088 22.2988 18.9062 22.4935 18.9062H29.2085L29.7924 19.5874L28.3327 21.1445ZM30.8629 19.1982L29.7924 18.1277C29.6951 18.0303 29.5978 17.9331 29.4032 17.9331H22.7855C22.4936 17.2518 22.0069 16.6679 21.4231 16.2786C20.7418 15.6946 19.866 15.5 18.9901 15.5C16.7518 15.5 15 17.3491 15 19.5874C15 21.8258 16.8491 23.6748 19.0874 23.6748C20.7419 23.6748 22.2016 22.7016 22.7855 21.1446H24.9265L25.8024 22.1178C25.997 22.3124 26.289 22.3124 26.4837 22.1178L27.165 21.3392L27.8463 22.1178C27.9436 22.2151 28.0409 22.3124 28.2355 22.3124C28.3328 22.3124 28.5274 22.2151 28.6247 22.1178L30.7658 19.8794C31.0577 19.7821 31.0577 19.3929 30.8631 19.1982H30.8629Z"/>
<path d="M18.7967 18.7116C19.2832 18.7116 19.6726 19.1009 19.6726 19.5875C19.6726 20.0742 19.2834 20.4634 18.7967 20.4634C18.31 20.4634 18.0181 20.0742 18.0181 19.5875C18.0181 19.1009 18.31 18.7116 18.7967 18.7116ZM18.7967 20.95C19.5753 20.95 20.1591 20.366 20.1591 19.5875C20.1591 18.8091 19.5752 18.2251 18.7967 18.2251C18.1154 18.2251 17.5316 18.8091 17.5316 19.5875C17.5316 20.366 18.1155 20.95 18.7967 20.95Z"/>
</svg>
