<!-- Generated by IcoMoon.io -->
<svg version="1.1" xmlns="http://www.w3.org/2000/svg" width="30" height="32" viewBox="0 0 30 32">
<path d="M17.917 0h1v-1h-1v1zM14.792 0v-1h-1v1h1zM17.917 3.018h-1v0.87l0.861 0.121 0.139-0.99zM22.81 5.076l-0.61 0.792 0.692 0.533 0.621-0.613-0.702-0.712zM25.029 2.886l0.712-0.702-0.702-0.712-0.712 0.702 0.702 0.712zM27.224 5.11l0.702 0.712 0.712-0.702-0.703-0.712-0.712 0.702zM24.973 7.332l-0.703-0.712-0.604 0.596 0.489 0.693 0.817-0.577zM26.774 11.875l-0.99 0.139 0.121 0.861h0.87v-1zM30 11.875h1v-1h-1v1zM30 15v1h1v-1h-1zM26.742 15v-1h-0.852l-0.135 0.841 0.987 0.159zM24.611 19.818l-0.782-0.623-0.536 0.672 0.585 0.631 0.733-0.68zM26.846 22.228l0.68 0.733 0.733-0.68-0.68-0.733-0.733 0.68zM24.554 24.353l-0.733 0.68 0.68 0.733 0.733-0.68-0.68-0.733zM22.321 21.945l0.733-0.68-0.585-0.631-0.711 0.485 0.564 0.826zM17.917 23.649l-0.139-0.99-0.861 0.121v0.87h1zM17.917 26.667v1h1v-1h-1zM14.792 26.667h-1v1h1v-1zM14.792 23.617h1v-0.852l-0.841-0.135-0.159 0.987zM9.864 21.398l0.633-0.774-0.696-0.57-0.64 0.632 0.702 0.712zM7.83 23.405l-0.702-0.712-0.712 0.702 0.702 0.712 0.712-0.702zM10.025 25.629l0.702 0.712 0.712-0.702-0.702-0.712-0.712 0.702zM7.801 27.824l-0.712 0.702 0.702 0.712 0.712-0.702-0.702-0.712zM5.606 25.6l0.712-0.703-0.702-0.712-0.712 0.702 0.702 0.712zM4.419 26.771l-0.702-0.712-0.712 0.702 0.702 0.712 0.712-0.702zM6.614 28.995l0.702 0.712 0.712-0.702-0.702-0.712-0.712 0.702zM4.39 31.19l-0.712 0.702 0.702 0.712 0.712-0.702-0.702-0.712zM0 26.741l-0.702-0.712-0.712 0.702 0.702 0.712 0.712-0.702zM2.224 24.546l0.707-0.707-0.702-0.702-0.707 0.698 0.702 0.712zM2.224 24.547l-0.707 0.707 0.702 0.702 0.707-0.698-0.702-0.712zM3.411 23.376l0.702 0.712 0.704-0.695-0.687-0.712-0.719 0.695zM3.411 23.376l-0.702-0.712-0.704 0.695 0.687 0.712 0.719-0.695zM5.635 21.181l0.723-0.691-0.702-0.735-0.724 0.714 0.702 0.712zM5.635 21.181l-0.723 0.691 0.702 0.735 0.724-0.714-0.702-0.712zM7.767 19.077l0.702 0.712 0.586-0.578-0.454-0.686-0.834 0.552zM6.174 15l0.987-0.159-0.135-0.841h-0.852v1zM3.125 15h-1v1h1v-1zM3.125 11.875v-1h-1v1h1zM6.143 11.875v1h0.87l0.121-0.861-0.99-0.139zM8.313 6.84l0.782 0.624 0.537-0.673-0.585-0.631-0.733 0.68zM6.28 4.647l-0.68-0.733-0.733 0.68 0.68 0.733 0.733-0.68zM8.571 2.522l0.733-0.68-0.68-0.733-0.733 0.68 0.68 0.733zM10.605 4.716l-0.733 0.68 0.585 0.631 0.711-0.484-0.563-0.827zM14.792 3.049l0.159 0.987 0.841-0.135v-0.852h-1zM12.114 7.476l-0.596-0.803-0.044 0.032-0.040 0.037 0.68 0.733zM10.947 8.559l-0.68-0.733-0.040 0.037-0.036 0.041 0.755 0.655zM16.424 6.042v-1l-0.005 0 0.005 1zM16.493 6.042l0.005-1h-0.005v1zM9.167 13.368h-1l0 0.005 1-0.005zM9.167 13.299l-1-0.005v0.005h1zM17.917-1h-3.125v2h3.125v-2zM18.917 3.018v-3.018h-2v3.018h2zM23.42 4.284c-1.527-1.177-3.363-1.976-5.365-2.257l-0.277 1.981c1.649 0.231 3.161 0.889 4.422 1.86l1.221-1.584zM24.326 2.174l-2.219 2.19 1.405 1.423 2.219-2.19-1.405-1.423zM27.936 4.408l-2.195-2.224-1.423 1.405 2.195 2.224 1.424-1.405zM25.676 8.043l2.251-2.221-1.405-1.423-2.251 2.221 1.405 1.423zM27.764 11.736c-0.257-1.837-0.952-3.534-1.974-4.981l-1.634 1.154c0.843 1.194 1.415 2.592 1.627 4.105l1.981-0.277zM30 10.875h-3.226v2h3.226v-2zM31 15v-3.125h-2v3.125h2zM26.742 16h3.258v-2h-3.258v2zM25.393 20.441c1.193-1.498 2.019-3.305 2.337-5.282l-1.975-0.318c-0.262 1.628-0.941 3.117-1.927 4.354l1.564 1.246zM27.579 21.548l-2.235-2.41-1.466 1.36 2.235 2.41 1.466-1.36zM25.234 25.086l2.291-2.125-1.36-1.466-2.291 2.125 1.36 1.466zM21.588 22.625l2.233 2.408 1.466-1.36-2.233-2.408-1.466 1.36zM18.055 24.639c1.773-0.248 3.416-0.904 4.829-1.868l-1.127-1.652c-1.166 0.796-2.519 1.335-3.98 1.54l0.277 1.981zM18.917 26.667v-3.018h-2v3.018h2zM14.792 27.667h3.125v-2h-3.125v2zM13.792 23.617v3.049h2v-3.049h-2zM9.231 22.171c1.521 1.246 3.372 2.107 5.402 2.433l0.318-1.975c-1.672-0.269-3.197-0.978-4.453-2.006l-1.267 1.547zM9.162 20.686l-2.034 2.008 1.405 1.424 2.034-2.008-1.405-1.424zM7.118 24.108l2.195 2.224 1.424-1.405-2.195-2.224-1.424 1.405zM9.323 24.918l-2.224 2.195 1.405 1.424 2.224-2.195-1.405-1.424zM8.512 27.122l-2.195-2.224-1.424 1.405 2.195 2.224 1.424-1.405zM4.903 24.888l-1.186 1.171 1.405 1.424 1.186-1.171-1.405-1.424zM3.708 27.473l2.195 2.224 1.424-1.405-2.195-2.224-1.424 1.405zM5.912 28.283l-2.224 2.195 1.405 1.424 2.224-2.195-1.405-1.424zM5.102 30.488l-4.39-4.449-1.424 1.405 4.39 4.449 1.424-1.405zM0.702 27.453l2.224-2.195-1.405-1.424-2.224 2.195 1.405 1.424zM1.517 25.253v0zM2.927 25.258l1.186-1.171-1.405-1.424-1.186 1.171 1.405 1.424zM4.13 22.681v0zM4.113 24.088l2.224-2.195-1.405-1.424-2.224 2.195 1.405 1.424zM4.912 21.871v0zM6.337 21.893l2.132-2.104-1.405-1.424-2.132 2.104 1.405 1.424zM5.187 15.159c0.262 1.632 0.871 3.148 1.746 4.47l1.668-1.104c-0.722-1.091-1.223-2.34-1.439-3.684l-1.975 0.318zM3.125 16h3.049v-2h-3.049v2zM2.125 11.875v3.125h2v-3.125h-2zM6.143 10.875h-3.018v2h3.018v-2zM7.531 6.216c-1.243 1.558-2.089 3.45-2.379 5.52l1.981 0.277c0.239-1.705 0.935-3.264 1.961-4.55l-1.563-1.248zM5.546 5.327l2.033 2.192 1.466-1.36-2.033-2.192-1.466 1.36zM7.891 1.789l-2.291 2.125 1.36 1.466 2.291-2.125-1.36-1.466zM11.338 4.036l-2.034-2.193-1.466 1.36 2.034 2.193 1.466-1.36zM14.633 2.062c-1.682 0.27-3.24 0.908-4.591 1.827l1.125 1.653c1.114-0.758 2.398-1.283 3.783-1.506l-0.318-1.975zM13.792 0v3.049h2v-3.049h-2zM11.434 6.743l-1.167 1.082 1.36 1.466 1.167-1.082-1.36-1.466zM16.419 5.042c-1.835 0.009-3.531 0.614-4.901 1.632l1.193 1.605c1.039-0.772 2.324-1.231 3.718-1.237l-0.009-2zM16.493 5.042h-0.070v2h0.070v-2zM24.75 13.333c0-4.566-3.691-8.27-8.252-8.292l-0.009 2c3.461 0.016 6.262 2.827 6.262 6.292h2zM16.458 21.625c4.579 0 8.292-3.712 8.292-8.292h-2c0 3.475-2.817 6.292-6.292 6.292v2zM8.167 13.373c0.021 4.561 3.725 8.252 8.292 8.252v-2c-3.465 0-6.275-2.801-6.292-6.262l-2 0.009zM8.167 13.299v0.069h2v-0.069h-2zM10.192 7.903c-1.253 1.445-2.015 3.33-2.025 5.39l2 0.009c0.007-1.565 0.585-2.992 1.536-4.090l-1.511-1.31z"></path>
<path d="M19.502 9.375l-4.756 4.674-1.332-1.309-1.332 1.309 2.663 2.618 6.087-5.983-1.331-1.309z"></path>
</svg>
