<!-- Generated by IcoMoon.io -->
<svg version="1.1" xmlns="http://www.w3.org/2000/svg" width="32" height="32" viewBox="0 0 32 32" aria-labelledby="key-remove">
<path d="M16.080 19.351l0.231 2.768-2.767 0.253c-0.367 0.033-0.639 0.358-0.608 0.725l0.231 2.768-2.767 0.253c-0.367 0.034-0.639 0.358-0.608 0.725l0.231 2.767-4.788 0.432 2.577-3.071c0.001-0.001 0.002-0.002 0.003-0.003l7.999-9.533c0.238-0.283 0.202-0.704-0.079-0.94s-0.701-0.197-0.939 0.086l-7.672 9.143c-0.001 0.002-0.003 0.003-0.004 0.005l-2.898 3.453-0.143-1.757 11.381-13.563c0.185-0.221 0.21-0.534 0.060-0.779-1.681-2.747-1.408-6.263 0.678-8.749 1.292-1.539 3.1-2.487 5.093-2.669s3.931 0.423 5.458 1.704c1.527 1.281 2.459 3.085 2.626 5.079s-0.453 3.94-1.744 5.479c-2.086 2.486-5.501 3.365-8.498 2.187-0.267-0.105-0.571-0.026-0.756 0.194l-2.141 2.552c-0.114 0.136-0.17 0.311-0.155 0.488zM22.649 17.932c2.278-0.208 4.45-1.302 5.999-3.149 3.14-3.742 2.674-9.322-1.039-12.437-1.799-1.509-4.082-2.222-6.43-2.008s-4.478 1.331-5.999 3.144c-2.353 2.803-2.747 6.718-1.039 9.887l-11.257 13.416c-0.114 0.136-0.17 0.31-0.156 0.486l0.297 3.64c0.001 0.006 0.001 0.013 0.002 0.019l0 0.001c0.018 0.163 0.096 0.32 0.232 0.434 0.137 0.115 0.307 0.165 0.474 0.152l0.001-0c0.002-0.001 0.007-0.001 0.010-0.001l7.055-0.636c0.176-0.016 0.339-0.102 0.453-0.237s0.17-0.312 0.156-0.488l-0.231-2.768 2.766-0.253c0.367-0.034 0.639-0.358 0.609-0.725l-0.231-2.768 2.767-0.253c0.367-0.034 0.639-0.358 0.608-0.725l-0.264-3.158 1.662-1.98c1.167 0.386 2.376 0.516 3.557 0.408zM23.332 8.322c-0.988-0-1.793-0.811-1.793-1.807s0.805-1.807 1.794-1.808c0.989 0 1.793 0.811 1.793 1.807s-0.805 1.807-1.793 1.808zM26.454 6.514c0-1.735-1.401-3.146-3.121-3.146s-3.122 1.411-3.122 3.146c0 1.735 1.401 3.146 3.122 3.146 0.861 0 1.641-0.353 2.206-0.923s0.915-1.356 0.915-2.224zM1.684 10.105h6.737c0.93 0 1.684 0.754 1.684 1.684s-0.754 1.684-1.684 1.684h-6.737c-0.93 0-1.684-0.754-1.684-1.684s0.754-1.684 1.684-1.684z"></path>
</svg>
