<!-- Generated by IcoMoon.io -->
<svg version="1.1" xmlns="http://www.w3.org/2000/svg" width="35" height="32" viewBox="0 0 35 32" aria-labelledby="key-clone">
<path d="M10.435 32c-5.763 0-10.435-4.672-10.435-10.435s4.672-10.435 10.435-10.435c5.763 0 10.435 4.672 10.435 10.435s-4.672 10.435-10.435 10.435zM17.659 22.437v-1.827h-6.245v-6.269h-1.796v6.269h-6.408v1.827h6.408v6.352h1.796v-6.352h6.245zM8.784 5.372c-0.952 0-1.569 0.752-1.569 1.692s0.588 1.692 1.569 1.692c0.98 0 1.765-0.752 1.765-1.692s-0.784-1.692-1.765-1.692zM8.784 9.669c-1.345 0-2.521-1.155-2.521-2.632s1.148-2.606 2.521-2.606c1.569 0 2.717 1.155 2.717 2.632s-1.148 2.606-2.717 2.606zM22.443 9.138h-0c0.189 0 0.35 0 0.539 0.376l1.32 1.478 1.293-1.478c0.189-0.188 0.377-0.376 0.754-0.376s0.566 0.188 0.754 0.376l1.32 1.317 2.774-2.983-1.131-1.317h-12.901c-0.377 0-0.754-0.188-0.943-0.564-0.916-2.419-3.178-4.112-5.602-4.112-3.367 0-5.979 2.607-5.979 5.966s2.639 5.993 5.817 5.993c2.612 0 4.875-1.693 5.602-4.112 0.189-0.376 0.566-0.564 0.943-0.564h5.44zM33.297 7.095l0-0c0.35 0.349 0.35 1.102-0.135 1.29l-4.121 4.3c-0.189 0.188-0.566 0.376-0.754 0.376-0.377 0-0.566-0.188-0.754-0.376l-1.32-1.505-1.32 1.505c-0.377 0.376-0.943 0.376-1.32 0l-1.697-1.854h-4.121c-1.131 3.010-3.932 4.864-7.11 4.864-4.309 0-7.864-3.548-7.864-7.848s3.367-7.848 7.676-7.848c1.697 0 3.367 0.376 4.686 1.505 1.104 0.752 2.047 1.854 2.612 3.171h12.739c0.377 0 0.566 0.188 0.754 0.376l2.047 2.043z"></path>
</svg>
