<svg width="17" height="19" viewBox="0 0 17 19" xmlns="http://www.w3.org/2000/svg" aria-labelledby="key-destroy">
<path d="M14.1787 6.72373C14.1787 6.98366 14.408 7.20248 14.68 7.20248L14.6796 7.20239C14.9661 7.20239 15.181 6.98348 15.1953 6.72364V3.67358C15.1953 3.52311 15.1236 3.38631 14.9948 3.29062C14.8659 3.19493 14.6941 3.16758 14.5508 3.2086C9.99641 4.41216 8.53554 1.93661 8.47827 1.82716C8.39239 1.6631 8.22051 1.56732 8.03433 1.56732C7.84815 1.56732 7.67626 1.66301 7.59038 1.82716C7.57606 1.85449 6.11517 4.42591 1.53215 3.22227C1.37466 3.18116 1.21713 3.20858 1.0882 3.30429C0.95927 3.4 0.887702 3.53678 0.887702 3.68725V4.90457C0.887702 5.16449 1.11683 5.38331 1.38901 5.38331C1.66119 5.38331 1.89032 5.1644 1.89032 4.90457V4.28913C5.42791 5.02769 7.27547 3.70102 8.03453 2.86667C8.79361 3.70102 10.6412 5.02769 14.1787 4.28913V6.72373ZM16.2269 9.18571L15.1384 8.14619C15.0381 8.05041 14.9379 7.95472 14.7374 7.95472H7.96305C7.66225 7.2845 7.16104 6.72374 6.57384 6.34079C5.87203 5.76635 4.98413 5.57488 4.08183 5.57488C1.79031 5.57488 0 7.3803 0 9.56867C0 11.757 1.89052 13.5625 4.18203 13.5625C5.87203 13.5625 7.36155 12.6187 7.96305 11.0868H10.1544L11.0567 12.0305C11.2572 12.222 11.558 12.222 11.7585 12.0305L12.4603 11.2646L13.1621 12.0305C13.2624 12.1263 13.3626 12.222 13.5631 12.222C13.6634 12.222 13.8639 12.1262 13.9641 12.0305L16.1554 9.84216C16.4132 9.74638 16.4132 9.36342 16.227 9.18562L16.2269 9.18571ZM10.4551 10.2252H7.56207C7.36157 10.2252 7.16105 10.321 7.06076 10.5124C6.67406 11.7434 5.47105 12.6051 4.08175 12.6051C2.39175 12.6051 0.988226 11.2648 0.988226 9.55506C0.988226 7.84535 2.37743 6.51866 4.16775 6.51866C5.45675 6.51866 6.65976 7.38035 7.14675 8.61133C7.24705 8.8028 7.44755 8.89859 7.64806 8.89859H14.5083L15.1098 9.5688L13.6346 11.087L12.9328 10.4167C12.8325 10.321 12.7323 10.2253 12.5318 10.2253C12.3313 10.2253 12.2311 10.321 12.1309 10.4167L12.1308 10.4167L11.4433 11.169L10.7415 10.4167C10.6412 10.2253 10.5553 10.2253 10.455 10.2253L10.4551 10.2252ZM3.17945 10.8953C3.98146 10.8953 4.56866 10.3209 4.56866 9.56865C4.56866 8.81642 3.98146 8.2283 3.17945 8.2283C2.47765 8.2283 1.89045 8.80274 1.89045 9.55498C1.89045 10.3072 2.49196 10.8953 3.17945 10.8953ZM3.17948 8.70696C3.68079 8.70696 4.08179 9.08992 4.08179 9.56865C4.08179 10.0474 3.68078 10.4303 3.17948 10.4303C2.67819 10.4303 2.37747 10.0474 2.37747 9.56865C2.37747 9.08992 2.69258 8.70696 3.17948 8.70696ZM8.03459 18.5C7.99164 18.5 7.93429 18.5 7.89134 18.4864C6.40184 18.0624 4.08169 16.9819 2.49189 15.3132C2.30571 15.1217 2.32001 14.8207 2.52053 14.6429C2.72104 14.4651 3.03615 14.4788 3.22233 14.6703C4.64025 16.1338 6.65961 17.1186 8.03459 17.5289C11.5579 16.4894 13.6775 14.0822 14.0785 12.7007C14.1501 12.4409 14.4222 12.2904 14.6943 12.3588C14.9664 12.4271 15.124 12.6871 15.0524 12.9469C14.6228 14.4925 13.2908 15.7234 12.2596 16.4757C11.0422 17.3647 9.55273 18.1033 8.19206 18.4863C8.13479 18.5 8.07745 18.5 8.0345 18.5L8.03459 18.5Z"/>
<path d="M0.5 1.3938L2.11061 0.5L17 17.363L15.3894 18.2568L0.5 1.3938Z"/>
</svg>
