<!-- Generated by IcoMoon.io -->
<svg version="1.1" xmlns="http://www.w3.org/2000/svg" width="37" height="32" viewBox="0 0 37 32" aria-labelledby="key-rotation">
<path d="M9.156 12.746c1.956 0 3.911 0.435 5.432 1.738 1.304 0.869 2.39 2.173 3.042 3.694v0h14.776c0.435 0 0.652 0.217 0.869 0.434v0l2.391 2.39c0.435 0.435 0.435 1.304-0.217 1.521v0l-4.78 4.998c-0.217 0.217-0.652 0.435-0.869 0.435-0.435 0-0.652-0.217-0.869-0.435v0l-1.521-1.738-1.521 1.738c-0.435 0.435-1.087 0.435-1.521 0v0l-1.956-2.173h-4.78c-1.304 3.477-4.563 5.649-8.257 5.649-4.998 0-9.126-4.129-9.126-9.126s3.911-9.126 8.909-9.126zM9.373 14.919c-3.911 0-6.953 3.042-6.953 6.953s3.042 6.953 6.736 6.953c3.042 0 5.65-1.956 6.519-4.78 0.217-0.435 0.652-0.652 1.086-0.652v0l6.383 0.001c0.19 0.006 0.38 0.053 0.57 0.434v0l1.521 1.738 1.521-1.738c0.217-0.217 0.435-0.435 0.869-0.435s0.652 0.217 0.869 0.435v0l1.521 1.521 3.259-3.477-1.304-1.521h-14.993c-0.435 0-0.869-0.217-1.086-0.652-1.087-2.825-3.694-4.78-6.519-4.78zM7.2 18.83c1.738 0 3.042 1.304 3.042 3.042s-1.304 3.042-3.042 3.042c-1.521 0-2.825-1.304-2.825-3.042s1.304-3.042 2.825-3.042zM7.2 19.916c-1.087 0-1.738 0.869-1.738 1.956s0.652 1.956 1.738 1.956c1.087 0 1.956-0.869 1.956-1.956s-0.869-1.956-1.956-1.956zM0.73 9.834c0.494-0.101 0.976 0.217 1.077 0.711 0.201 0.983 0.594 1.897 1.167 2.717 0.289 0.413 0.188 0.982-0.225 1.27-0.159 0.111-0.341 0.165-0.522 0.165-0.288 0-0.571-0.136-0.749-0.39-0.717-1.025-1.208-2.168-1.459-3.396-0.101-0.494 0.217-0.976 0.711-1.077zM18.43 10.654c0.504-0 0.912 0.408 0.912 0.912s-0.408 0.912-0.912 0.912v0l-0.945 0c-0.135 0.337-0.289 0.665-0.461 0.982-0.165 0.304-0.479 0.476-0.802 0.476-0.147 0-0.297-0.036-0.435-0.111-0.443-0.241-0.606-0.795-0.365-1.237 0.224-0.411 0.409-0.847 0.552-1.297 0.12-0.379 0.472-0.636 0.87-0.637v0l1.587-0zM22.319 10.653c0.242 0 0.474 0.096 0.645 0.267v0l0.604 0.604 0.477-0.477c0.324-0.324 0.832-0.352 1.189-0.086 0.357-0.266 0.865-0.238 1.189 0.086v0l0.477 0.477 0.477-0.477c0.325-0.324 0.832-0.352 1.189-0.086 0.357-0.266 0.865-0.238 1.189 0.086v0l0.477 0.477 0.477-0.477c0.356-0.356 0.934-0.356 1.29 0s0.356 0.934 0 1.29v0l-1.122 1.122c-0.178 0.178-0.412 0.267-0.645 0.267s-0.467-0.089-0.645-0.267v0l-1.021-1.021-1.021 1.021c-0.178 0.178-0.412 0.267-0.645 0.267s-0.467-0.089-0.645-0.267v0l-1.021-1.021-1.021 1.021c-0.178 0.178-0.412 0.267-0.645 0.267s-0.467-0.089-0.645-0.267v0l-0.982-0.982-1.209 0c-0.504 0-0.912-0.408-0.912-0.912s0.408-0.912 0.912-0.912v0l1.587-0zM33.147 5.655c0.242 0 0.474 0.096 0.645 0.267v0l1.122 1.122c0.044 0.044 0.082 0.091 0.115 0.14 0.050 0.033 0.097 0.071 0.14 0.115v0l1.122 1.122c0.356 0.356 0.356 0.934 0 1.29v0l-1.122 1.122c-0.178 0.178-0.412 0.267-0.645 0.267s-0.467-0.089-0.645-0.267c-0.356-0.356-0.356-0.934 0-1.29v0l0.477-0.477-0.477-0.477c-0.044-0.044-0.082-0.091-0.115-0.14-0.050-0.033-0.097-0.071-0.14-0.115v0l-0.855-0.855-1.209 0c-0.504 0-0.912-0.408-0.912-0.912s0.408-0.912 0.912-0.912v0h1.587zM1.482 3.82c0.289-0.413 0.858-0.513 1.271-0.224s0.513 0.858 0.224 1.271c-0.574 0.82-0.967 1.733-1.169 2.716-0.089 0.432-0.469 0.729-0.893 0.729-0.061 0-0.123-0.006-0.185-0.019-0.494-0.101-0.811-0.584-0.71-1.077 0.252-1.228 0.744-2.371 1.462-3.396zM15.788 4.309c0.443-0.241 0.997-0.077 1.237 0.365 0.172 0.317 0.326 0.645 0.461 0.982v0h0.944c0.504-0 0.912 0.408 0.912 0.912s-0.408 0.912-0.912 0.912v0l-1.587 0c-0.398 0-0.75-0.258-0.87-0.637-0.142-0.45-0.328-0.886-0.552-1.297-0.241-0.443-0.077-0.997 0.365-1.237zM28.935 5.656c0.504-0 0.912 0.408 0.912 0.912s-0.408 0.912-0.912 0.912v0l-2.626 0c-0.504 0-0.912-0.408-0.912-0.912s0.408-0.912 0.912-0.912v0l2.626-0zM23.683 5.656c0.504-0 0.912 0.408 0.912 0.912s-0.408 0.912-0.912 0.912v0l-2.626 0c-0.504 0-0.912-0.408-0.912-0.912s0.408-0.912 0.912-0.912v0l2.626-0zM10.211 0.858c0.128-0.487 0.627-0.779 1.114-0.65 1.21 0.318 2.323 0.872 3.31 1.646 0.396 0.311 0.466 0.884 0.155 1.281-0.18 0.229-0.448 0.349-0.718 0.349-0.197 0-0.395-0.063-0.562-0.195-0.79-0.62-1.681-1.063-2.648-1.317-0.487-0.128-0.778-0.627-0.65-1.114zM7.636 0.010c0.498-0.075 0.963 0.269 1.037 0.767s-0.269 0.963-0.767 1.037c-0.995 0.149-1.93 0.491-2.778 1.017-0.15 0.093-0.316 0.137-0.48 0.137-0.305 0-0.604-0.153-0.776-0.432-0.266-0.428-0.134-0.991 0.295-1.256 1.060-0.657 2.228-1.085 3.47-1.271z"></path>
</svg>
