<!-- Generated by IcoMoon.io -->
<svg version="1.1" xmlns="http://www.w3.org/2000/svg" width="32" height="32" viewBox="0 0 32 32" aria-labelledby="leave-account">
<path d="M30.354 4.917c0-2.355-1.94-4.156-4.156-4.156h-10.114c-2.355 0-4.156 1.94-4.156 4.156v2.355c0 0.416 0.277 0.693 0.693 0.693s0.693-0.277 0.693-0.693v-2.355c0-1.524 1.247-2.771 2.771-2.771h10.114c1.524 0 2.771 1.247 2.771 2.771v19.396c0 0 0 0 0 0s0 0 0 0v2.355c0 1.524-1.247 2.771-2.771 2.771h-10.114c-1.524 0-2.771-1.247-2.771-2.771v-7.204c0-0.416-0.277-0.693-0.693-0.693s-0.693 0.277-0.693 0.693v7.204c0 2.355 1.94 4.156 4.156 4.156h10.114c2.355 0 4.156-1.94 4.156-4.156v-2.355c0 0 0 0 0 0s0 0 0 0v-19.396zM4.862 13.368h11.222c2.355 0 4.156 1.94 4.156 4.156v2.494c0 0.416 0.277 0.693 0.693 0.693s0.693-0.277 0.693-0.693v-2.494c0-3.048-2.494-5.542-5.542-5.542h-11.222l3.741-3.741c0.277-0.277 0.277-0.693 0-0.97s-0.693-0.277-0.97 0l-4.849 4.849c0 0 0 0 0 0-0.139 0.139-0.139 0.139-0.139 0.277s0 0.139 0 0.277v0c0 0 0 0 0 0 0 0.139 0 0.139 0 0.277 0 0 0 0.139 0.139 0.139 0 0 0 0 0 0l4.849 4.849c0.277 0.277 0.693 0.277 0.97 0s0.277-0.693 0-0.97l-3.741-3.602z"></path>
</svg>
