<!-- Generated by IcoMoon.io -->
<svg version="1.1" xmlns="http://www.w3.org/2000/svg" width="32" height="32" viewBox="0 0 32 32" aria-labelledby="link">
<path d="M30.525 4.129l-2.654-2.654c-2.065-2.065-5.604-2.065-7.668 0l-5.899 5.899c-1.475 1.475-1.475 3.982 0 5.456l0.147 0.147c0.442 0.442 1.032 0.442 1.327 0 0.442-0.442 0.442-1.032 0-1.327l-0.147-0.147c-0.737-0.737-0.737-2.065 0-2.802l5.899-5.899c1.327-1.327 3.539-1.327 4.866 0l2.654 2.654c1.327 1.327 1.327 3.539 0 4.866l-5.899 5.899c-0.737 0.737-2.065 0.737-2.802 0l-0.147-0.147c-0.442-0.442-1.032-0.442-1.327 0-0.442 0.442-0.442 1.032 0 1.327l0.147 0.147c0.737 0.737 1.77 1.18 2.802 1.18s2.065-0.442 2.802-1.18l5.899-5.899c2.065-2.065 2.065-5.456 0-7.521zM17.401 19.023c-0.442-0.442-1.032-0.442-1.327 0s-0.442 1.032 0 1.327l0.147 0.147c0.442 0.442 0.59 0.885 0.59 1.475s-0.147 1.032-0.59 1.475l-5.899 5.899c-1.327 1.327-3.539 1.327-4.866 0l-2.654-2.802c-1.327-1.327-1.327-3.539 0-4.866l5.899-5.899c0.737-0.737 2.065-0.737 2.802 0l0.147 0.147c0.442 0.442 1.032 0.442 1.327 0 0.442-0.442 0.442-1.032 0-1.327l-0.147-0.147c-1.475-1.475-3.982-1.475-5.456 0l-5.899 5.899c-2.065 2.065-2.065 5.456 0 7.668l2.654 2.654c1.032 1.032 2.359 1.622 3.834 1.622s2.802-0.59 3.834-1.622l5.899-5.899c0.737-0.737 1.18-1.77 1.18-2.802s-0.59-2.065-1.475-2.949v0zM9.585 22.415c0.147 0.147 0.442 0.295 0.737 0.295s0.442-0.147 0.737-0.295l11.502-11.502c0.442-0.442 0.442-1.032 0-1.327-0.442-0.442-1.032-0.442-1.327 0l-11.502 11.502c-0.442 0.295-0.442 0.885-0.147 1.327z"></path>
</svg>
