<!-- Generated by IcoMoon.io -->
<svg version="1.1" xmlns="http://www.w3.org/2000/svg" width="32" height="32" viewBox="0 0 32 32" aria-labelledby="locked-user">
<path d="M20.667 8.667c0-4.8-3.333-8.667-7.333-8.667-4.133 0-7.333 3.867-7.333 8.667 0 3.067 1.333 5.733 3.333 7.333v2.933l-6.267 2.267c-1.867 0.533-3.067 2.267-3.067 4.267v3.2c0 0.4 0.267 0.667 0.667 0.667h16v-1.333h-15.333v-2.533c0-1.467 0.933-2.667 2.267-3.2l6.667-2.4c0.267 0 0.4-0.267 0.4-0.533v-2.533c0.8 0.4 1.733 0.533 2.667 0.533s1.867-0.267 2.667-0.667v2.667h1.333v-3.467c2-1.467 3.333-4.133 3.333-7.2zM13.333 1.333c2.933 0 5.333 2.533 5.867 6 0 0 0 0 0 0-2 0.4-3.2-0.267-4.267-2.267-0.267-0.4-0.933-0.4-1.2 0-0.533 1.2-2.667 2.267-4.4 2.267-0.667 0-1.333-0.133-1.867-0.4 0.667-3.2 3.067-5.6 5.867-5.6zM7.333 8.667c0-0.133 0-0.267 0-0.267 0.667 0.133 1.333 0.267 2 0.267 1.733 0 3.867-0.8 4.933-2 1.333 1.733 2.933 2.4 5.067 2.133 0 4.133-2.667 7.333-6 7.333-3.333-0.133-6-3.333-6-7.467zM31.2 22.667h-0.667v-0.667c0-2.533-2.133-4.667-4.667-4.667s-4.667 2.133-4.667 4.667v0.667h-0.667c-0.4 0-0.667 0.267-0.667 0.667v8c0 0.4 0.267 0.667 0.667 0.667h10.667c0.4 0 0.667-0.267 0.667-0.667v-8c0-0.4-0.267-0.667-0.667-0.667zM22.533 22c0-1.867 1.467-3.333 3.333-3.333s3.333 1.467 3.333 3.333v0.667h-6.667v-0.667zM30.533 30.667h-9.333v-6.667h9.333v6.667zM25.867 25.333c-0.8 0-1.333 0.533-1.333 1.333 0 0.533 0.267 0.933 0.667 1.067v0.933c0 0.4 0.267 0.667 0.667 0.667s0.667-0.267 0.667-0.667v-0.933c0.4-0.267 0.667-0.667 0.667-1.067 0-0.8-0.667-1.333-1.333-1.333z"></path>
</svg>
