<!-- Generated by IcoMoon.io -->
<svg version="1.1" xmlns="http://www.w3.org/2000/svg" width="33" height="32" viewBox="0 0 33 32" aria-labelledby="marketplace">
<path d="M23.181 27.634c-0.634 0-1.151 0.517-1.151 1.151s0.517 1.151 1.151 1.151c0.634 0 1.151-0.517 1.151-1.151s-0.517-1.151-1.151-1.151zM23.181 31.088c-1.27 0-2.303-1.033-2.303-2.303s1.033-2.303 2.303-2.303c1.27 0 2.303 1.033 2.303 2.303s-1.033 2.303-2.303 2.303zM10.515 27.634c-0.634 0-1.151 0.517-1.151 1.151s0.517 1.151 1.151 1.151c0.634 0 1.151-0.517 1.151-1.151s-0.517-1.151-1.151-1.151zM10.515 31.088c-1.27 0-2.303-1.033-2.303-2.303s1.033-2.303 2.303-2.303c1.27 0 2.303 1.033 2.303 2.303s-1.033 2.303-2.303 2.303zM27.786 25.331h-22.453c-0.318 0-0.576-0.258-0.576-0.576s0.258-0.576 0.576-0.576h21.948l2.236-16.772c0.039-0.286 0.283-0.5 0.571-0.5h1.727c0.318 0 0.576 0.258 0.576 0.576s-0.258 0.576-0.576 0.576h-1.223l-2.236 16.772c-0.039 0.286-0.283 0.5-0.571 0.5zM25.061 15.711h-14.465v-5.472h14.465v5.472zM25.061 18.614v3.587h-24.043v-5.472h24.043v1.885zM2.14 15.711h3.871v-1.71h-3.871v1.71zM8.865 9.22h-6.37v-5.473h14.466v5.473h-8.097zM3.515 2.728h3.871v-1.71h-3.871v1.71zM12.021 2.728h3.871v-1.71h-3.871v1.71zM20.322 9.219h3.871v-1.71h-3.871v1.71zM25.571 9.22h-0.359v-2.22c0-0.281-0.228-0.509-0.509-0.509h-4.89c-0.282 0-0.509 0.228-0.509 0.509v2.22h-1.323v-5.982c0-0.282-0.228-0.509-0.509-0.509h-0.561v-2.22c0-0.281-0.228-0.51-0.51-0.51h-4.89c-0.281 0-0.509 0.229-0.509 0.51v2.22h-2.598v-2.22c0-0.281-0.228-0.51-0.509-0.51h-4.89c-0.282 0-0.51 0.229-0.51 0.51v2.22h-0.509c-0.282 0-0.509 0.227-0.509 0.509v6.491c0 0.281 0.227 0.51 0.509 0.51h7.59v5.472h-2.548v-2.22c0-0.281-0.227-0.509-0.509-0.509h-4.89c-0.281 0-0.509 0.228-0.509 0.509v2.22h-0.611c-0.281 0-0.51 0.228-0.51 0.509v6.492c0 0.281 0.229 0.509 0.51 0.509h25.062c0.281 0 0.509-0.228 0.509-0.509v-12.982c0-0.281-0.228-0.509-0.509-0.509z"></path>
</svg>
