<!-- Generated by IcoMoon.io -->
<svg version="1.1" xmlns="http://www.w3.org/2000/svg" width="40" height="32" viewBox="0 0 40 32" aria-labelledby="node">
<path d="M29.053 1c0.2 0 0.395 0.057 0.564 0.161l0.121 0.087 9.877 8.23c0.007 0.005 0.010 0.015 0.016 0.020 0.076 0.068 0.133 0.148 0.188 0.234 0.023 0.036 0.051 0.066 0.071 0.104 0.031 0.068 0.043 0.14 0.061 0.214l0.026 0.098 0.016 0.101 0.008 0.043v6.584c0 2.322-1.825 4.228-4.115 4.357l-0.247 0.007h-13.745v7.735h8.807c0.591 0 1.070 0.479 1.070 1.070 0 0.547-0.408 0.997-0.936 1.063l-0.134 0.008h-21.399c-0.591 0-1.070-0.479-1.070-1.072 0-0.546 0.408-0.996 0.936-1.062l0.134-0.008h10.453v-7.735h-15.391c-2.322 0-4.227-1.826-4.355-4.117l-0.007-0.247v-6.584l0.008-0.043c0.003-0.069 0.025-0.133 0.041-0.199 0.018-0.074 0.030-0.146 0.061-0.214 0.020-0.038 0.048-0.068 0.071-0.104 0.054-0.086 0.112-0.166 0.188-0.234l0.016-0.020 9.877-8.23c0.154-0.128 0.34-0.21 0.536-0.238l0.149-0.011h18.107zM2.716 29.223c0.454 0 0.823 0.367 0.823 0.823 0 0.453-0.369 0.823-0.823 0.823s-0.823-0.37-0.823-0.823c0-0.456 0.369-0.823 0.823-0.823zM6.008 29.223c0.454 0 0.823 0.367 0.823 0.823 0 0.453-0.369 0.823-0.823 0.823s-0.823-0.37-0.823-0.823c0-0.456 0.369-0.823 0.823-0.823zM33.992 29.223c0.454 0 0.823 0.367 0.823 0.823 0 0.453-0.369 0.823-0.823 0.823-0.453 0-0.823-0.37-0.823-0.823 0-0.456 0.37-0.823 0.823-0.823zM37.284 29.223c0.454 0 0.823 0.367 0.823 0.823 0 0.453-0.369 0.823-0.823 0.823-0.453 0-0.823-0.37-0.823-0.823 0-0.456 0.37-0.823 0.823-0.823zM37.86 11.37h-35.72v5.506c0 1.162 0.894 2.117 2.031 2.214l0.192 0.008h31.276c1.162 0 2.117-0.894 2.214-2.031l0.008-0.192v-5.506zM6.008 12.514c1.498 0 2.716 1.218 2.716 2.716 0 1.5-1.218 2.718-2.716 2.718s-2.716-1.218-2.716-2.718c0-1.498 1.218-2.716 2.716-2.716zM23.292 13.338c1.044 0 1.893 0.849 1.893 1.893s-0.849 1.893-1.893 1.893c-1.044 0-1.893-0.849-1.893-1.893s0.849-1.893 1.893-1.893zM28.231 13.338c1.044 0 1.893 0.849 1.893 1.893s-0.849 1.893-1.893 1.893c-1.044 0-1.893-0.849-1.893-1.893s0.849-1.893 1.893-1.893zM33.169 13.338c1.044 0 1.893 0.849 1.893 1.893s-0.849 1.893-1.893 1.893c-1.044 0-1.893-0.849-1.893-1.893s0.849-1.893 1.893-1.893zM6.008 14.656c-0.318 0-0.576 0.257-0.576 0.575 0 0.319 0.258 0.576 0.576 0.576s0.576-0.257 0.576-0.576c0-0.318-0.258-0.575-0.576-0.575zM23.292 14.984c-0.137 0-0.247 0.11-0.247 0.247 0 0.273 0.494 0.273 0.494 0 0-0.137-0.112-0.247-0.247-0.247zM28.231 14.984c-0.137 0-0.247 0.11-0.247 0.247 0 0.273 0.494 0.273 0.494 0 0-0.137-0.112-0.247-0.247-0.247zM33.169 14.984c-0.137 0-0.247 0.11-0.247 0.247 0 0.273 0.494 0.273 0.494 0 0-0.138-0.109-0.247-0.247-0.247zM28.667 3.14h-17.333l-7.309 6.091h31.951l-7.309-6.091z"></path>
</svg>
