<!-- Generated by IcoMoon.io -->
<svg version="1.1" xmlns="http://www.w3.org/2000/svg" width="32" height="32" viewBox="0 0 32 32" aria-labelledby="options">
<path d="M25.68 20.966l2.164 2.165c0.39 0.391 0.39 1.024-0 1.414l-3.299 3.299c-0.39 0.39-1.023 0.391-1.414 0l-2.166-2.164c-0.594 0.263-1.317 0.493-2.215 0.729v3.007c0 0.552-0.448 1-1 1h-3.5c-0.552 0-1-0.448-1-1v-3.007c-0.898-0.236-1.623-0.466-2.217-0.73l-2.163 2.164c-0.39 0.391-1.024 0.391-1.414 0l-3.301-3.299c-0.391-0.39-0.391-1.024-0-1.414l2.165-2.165c-0.263-0.594-0.493-1.318-0.729-2.216h-3.007c-0.552 0-1-0.448-1-1v-3.5c0-0.552 0.448-1 1-1h3.007c0.236-0.898 0.466-1.622 0.729-2.216l-2.164-2.163c-0.391-0.39-0.391-1.024-0-1.414l3.3-3.3c0.39-0.39 1.024-0.391 1.414-0l2.165 2.164c0.595-0.263 1.319-0.493 2.216-0.727v-3.009c0-0.552 0.448-1 1-1h3.5c0.552 0 1 0.448 1 1v3.009c0.896 0.234 1.62 0.465 2.215 0.727l2.165-2.164c0.391-0.39 1.024-0.39 1.414 0l3.3 3.3c0.391 0.391 0.39 1.024-0 1.414l-2.163 2.163c0.263 0.596 0.494 1.322 0.728 2.217h3.008c0.552 0 1 0.448 1 1v3.5c0 0.552-0.448 1-1 1h-3.007c-0.236 0.898-0.466 1.622-0.729 2.216zM23.751 21.865c-0.326-0.327-0.387-0.834-0.146-1.228 0.361-0.591 0.692-1.633 1.053-3.122 0.109-0.449 0.51-0.765 0.972-0.765h2.787v-1.5h-2.788c-0.462 0-0.864-0.316-0.972-0.766-0.357-1.479-0.69-2.53-1.052-3.123-0.24-0.394-0.18-0.902 0.147-1.228l1.971-1.97-1.886-1.886-1.973 1.972c-0.327 0.326-0.834 0.387-1.228 0.146-0.591-0.361-1.636-0.693-3.12-1.050-0.449-0.108-0.766-0.51-0.766-0.972v-2.789h-1.5v2.789c0 0.462-0.316 0.864-0.766 0.972-1.485 0.358-2.53 0.689-3.121 1.050-0.394 0.241-0.902 0.18-1.228-0.146l-1.973-1.972-1.886 1.886 1.972 1.972c0.327 0.327 0.387 0.834 0.146 1.229-0.361 0.591-0.692 1.633-1.053 3.122-0.109 0.449-0.51 0.765-0.972 0.765h-2.787v1.5h2.787c0.462 0 0.863 0.316 0.972 0.765 0.361 1.489 0.692 2.531 1.053 3.122 0.241 0.394 0.18 0.902-0.146 1.228l-1.973 1.973 1.886 1.885 1.972-1.973c0.327-0.327 0.835-0.387 1.229-0.146 0.592 0.362 1.634 0.693 3.123 1.054 0.449 0.109 0.765 0.51 0.765 0.972v2.787h1.5v-2.787c0-0.462 0.316-0.863 0.765-0.972 1.488-0.361 2.531-0.692 3.12-1.053 0.394-0.241 0.902-0.181 1.229 0.146l1.974 1.972 1.886-1.886-1.972-1.973zM15.955 20.25c2.377 0 4.196-1.798 4.206-4.283 0.079-2.372-1.805-4.217-4.206-4.217-2.32 0-4.205 1.901-4.205 4.25s1.885 4.25 4.205 4.25zM15.955 22.25c-3.429 0-6.205-2.8-6.205-6.25s2.777-6.25 6.205-6.25c3.507 0 6.322 2.755 6.205 6.254-0.014 3.561-2.73 6.246-6.205 6.246z"></path>
</svg>
