<!-- Generated by IcoMoon.io -->
<svg version="1.1" xmlns="http://www.w3.org/2000/svg" width="32" height="32" viewBox="0 0 32 32" aria-labelledby="play">
<path d="M16 31.883c-8.795 0-15.883-7.088-15.883-15.883s7.088-15.883 15.883-15.883 15.883 7.088 15.883 15.883-7.088 15.883-15.883 15.883zM16 1.692c-7.876 0-14.308 6.432-14.308 14.308s6.432 14.308 14.308 14.308c7.876 0 14.308-6.432 14.308-14.308s-6.432-14.308-14.308-14.308zM12.062 23.351c-0.131 0-0.263 0-0.394-0.131-0.263-0.131-0.394-0.394-0.394-0.656v-13.127c0-0.263 0.131-0.525 0.394-0.656s0.525-0.131 0.788 0l12.077 6.563c0.263 0.131 0.394 0.394 0.394 0.656s-0.131 0.525-0.394 0.656l-12.077 6.563c-0.131 0.131-0.263 0.131-0.394 0.131zM12.85 10.749v10.501l9.583-5.251-9.583-5.251z"></path>
</svg>
