<!-- Generated by IcoMoon.io -->
<svg version="1.1" xmlns="http://www.w3.org/2000/svg" width="32" height="32" viewBox="0 0 32 32" aria-labelledby="plugins">
<path d="M9.6 16c1.52 0 2.8 0.627 2.8 1.569 0 0.188-0.051 0.326-0.154 0.494l-0.086 0.133 1.2 0.471c0.48-0.235 1.12-0.392 1.84-0.392 1.52 0 2.8 0.627 2.8 1.569 0 0.188-0.051 0.376-0.154 0.565l-0.086 0.141 1.2 0.549h0.079l0.022 0.020 0.059 0.058v0.078c0.064 0 0.077 0.050 0.079 0.11l0.001 0.046v6.274c0 0.125-0.051 0.251-0.154 0.336l-0.086 0.056-9.6 3.922h-0.32l-8.8-3.922c-0.128-0.063-0.205-0.176-0.23-0.299l-0.010-0.093 0.001-6.333c0.002-0.039 0.010-0.078 0.033-0.118l0.046-0.059v-0.078l0.080-0.078h0.080l1.52-0.627c-0.080-0.157-0.16-0.314-0.16-0.549 0-0.941 1.28-1.569 2.8-1.569 0.549 0 1.038 0.058 1.469 0.222l0.211 0.091 0.96-0.392c-0.16-0.157-0.24-0.392-0.24-0.627 0-0.941 1.28-1.569 2.8-1.569zM18.4 22.039l-8.8 3.608v5.412l8.8-3.608v-5.412zM0.8 22.039v5.412l8 3.529v-5.412l-8-3.529zM11.44 18.667c-0.48 0.235-1.12 0.392-1.84 0.392-0.617 0-1.175-0.115-1.625-0.296l-0.215-0.096-0.88 0.392c0.16 0.235 0.32 0.471 0.32 0.784 0 0.941-1.28 1.569-2.8 1.569-0.7 0-1.277-0.12-1.786-0.36l-0.214-0.11-1.040 0.471 7.84 3.529 8.56-3.529-0.8-0.314c-0.48 0.157-1.12 0.314-1.76 0.314-1.52 0-2.8-0.627-2.8-1.569 0-0.188 0.051-0.376 0.154-0.525l0.086-0.103-1.2-0.549zM9.6 20.235c1.52 0 2.8 0.627 2.8 1.569s-1.28 1.569-2.8 1.569c-1.52 0-2.8-0.627-2.8-1.569s1.28-1.569 2.8-1.569zM9.6 21.020c-1.12 0-2 0.392-2 0.784s0.88 0.784 2 0.784c1.12 0 2-0.392 2-0.784s-0.88-0.784-2-0.784zM15.2 19.059c-1.12 0-2 0.392-2 0.784s0.88 0.784 2 0.784c0.64 0 1.12-0.157 1.52-0.314 0.080-0.078 0.080-0.078 0.16-0.078 0.16-0.078 0.32-0.235 0.32-0.392 0-0.392-0.88-0.784-2-0.784zM4.4 19.059c-1.12 0-2 0.392-2 0.784s0.88 0.784 2 0.784c1.12 0 2-0.392 2-0.784s-0.88-0.784-2-0.784zM9.6 16.706c-1.12-0-2 0.392-2 0.784s0.88 0.784 2 0.784c0.63 0 1.137-0.12 1.522-0.308l0.158-0.084 0.079-0.045c0.13-0.085 0.241-0.216 0.241-0.347 0-0.392-0.88-0.784-2-0.784zM22.4 0c1.52 0 2.8 0.627 2.8 1.569 0 0.188-0.051 0.326-0.154 0.494l-0.086 0.133 1.2 0.471c0.48-0.235 1.12-0.392 1.84-0.392 1.52 0 2.8 0.627 2.8 1.569 0 0.188-0.051 0.376-0.154 0.565l-0.086 0.141 1.2 0.549h0.079l0.022 0.020 0.059 0.058v0.078c0.064 0 0.077 0.050 0.079 0.11l0.001 0.046v6.275c0 0.126-0.051 0.251-0.154 0.336l-0.086 0.056-9.6 3.922h-0.32l-8.8-3.922c-0.128-0.063-0.205-0.176-0.23-0.299l-0.010-0.094 0.001-6.333c0.002-0.039 0.010-0.078 0.033-0.118l0.046-0.059v-0.078l0.080-0.078h0.080l1.52-0.627c-0.080-0.157-0.16-0.314-0.16-0.549 0-0.941 1.28-1.569 2.8-1.569 0.549 0 1.038 0.058 1.469 0.222l0.211 0.091 0.96-0.392c-0.16-0.157-0.24-0.392-0.24-0.627 0-0.941 1.28-1.569 2.8-1.569zM31.2 6.039l-8.8 3.608v5.412l8.8-3.608v-5.412zM13.6 6.039v5.412l8 3.529v-5.412l-8-3.529zM24.24 2.667c-0.48 0.235-1.12 0.392-1.84 0.392-0.617 0-1.175-0.115-1.625-0.296l-0.215-0.096-0.88 0.392c0.16 0.235 0.32 0.471 0.32 0.784 0 0.941-1.28 1.569-2.8 1.569-0.7 0-1.277-0.12-1.786-0.36l-0.214-0.11-1.040 0.471 7.84 3.529 8.56-3.529-0.8-0.314c-0.48 0.157-1.12 0.314-1.76 0.314-1.52 0-2.8-0.627-2.8-1.569 0-0.188 0.051-0.376 0.154-0.525l0.086-0.103-1.2-0.549zM22.4 4.235c1.52 0 2.8 0.627 2.8 1.569s-1.28 1.569-2.8 1.569c-1.52 0-2.8-0.627-2.8-1.569s1.28-1.569 2.8-1.569zM22.4 5.020c-1.12 0-2 0.392-2 0.784s0.88 0.784 2 0.784c1.12 0 2-0.392 2-0.784s-0.88-0.784-2-0.784zM28 3.059c-1.12 0-2 0.392-2 0.784s0.88 0.784 2 0.784c0.64 0 1.12-0.157 1.52-0.314 0.080-0.078 0.080-0.078 0.16-0.078 0.16-0.078 0.32-0.235 0.32-0.392 0-0.392-0.88-0.784-2-0.784zM17.2 3.059c-1.12 0-2 0.392-2 0.784s0.88 0.784 2 0.784c1.12 0 2-0.392 2-0.784s-0.88-0.784-2-0.784zM22.4 0.706c-1.12-0-2 0.392-2 0.784s0.88 0.784 2 0.784c0.63 0 1.137-0.12 1.523-0.308l0.157-0.084 0.079-0.045c0.13-0.085 0.241-0.216 0.241-0.347 0-0.392-0.88-0.784-2-0.784z"></path>
</svg>
