<!-- Generated by IcoMoon.io -->
<svg version="1.1" xmlns="http://www.w3.org/2000/svg" width="32" height="32" viewBox="0 0 32 32" aria-labelledby="plugin">
<path d="M16 10c-2.533 0-4.667 1.067-4.667 2.667s2.133 2.667 4.667 2.667c2.533 0 4.667-1.067 4.667-2.667s-2.133-2.667-4.667-2.667zM16 14c-1.867 0-3.333-0.667-3.333-1.333s1.467-1.333 3.333-1.333c1.867 0 3.333 0.667 3.333 1.333s-1.467 1.333-3.333 1.333zM32 12v0c0 0 0 0 0 0 0-0.133 0-0.267-0.133-0.267 0 0 0 0 0-0.133 0 0-0.133-0.133-0.133-0.133s0 0-0.133 0c0 0 0 0 0 0l-2-0.933c0.267-0.4 0.4-0.8 0.4-1.2 0-1.6-2.133-2.667-4.667-2.667-1.2 0-2.267 0.267-3.067 0.667l-2-0.8c0.267-0.4 0.4-0.667 0.4-1.067 0-1.6-2.133-2.667-4.667-2.667s-4.667 1.067-4.667 2.667c0 0.4 0.133 0.8 0.4 1.067l-1.6 0.667c-0.8-0.4-1.733-0.533-2.8-0.533-2.533 0-4.667 1.067-4.667 2.667 0 0.4 0.133 0.667 0.267 0.933l-2.533 1.067c0 0 0 0 0 0s0 0-0.133 0c0 0-0.133 0.133-0.133 0.133s0 0 0 0.133c-0.133 0.133-0.133 0.267-0.133 0.4 0 0 0 0 0 0v10.667c0 0.267 0.133 0.533 0.4 0.667l14.667 6.667c0 0 0 0 0.133 0 0 0 0.133 0 0.133 0s0.133 0 0.133 0c0 0 0 0 0.133 0l16-6.667c0.267-0.133 0.4-0.4 0.4-0.667v-10.667c0 0 0 0 0 0zM15.333 18l-13.067-6 1.733-0.8c0.933 0.533 2 0.8 3.333 0.8 2.533 0 4.667-1.067 4.667-2.667 0-0.533-0.267-0.933-0.533-1.333l1.467-0.667c0.8 0.4 1.867 0.667 3.067 0.667s2.267-0.267 3.067-0.667l2 0.933c-0.267 0.267-0.4 0.667-0.4 1.067 0 1.6 2.133 2.667 4.667 2.667 1.067 0 2.133-0.267 2.933-0.533l1.333 0.533-14.267 6zM28.667 9.333c0 0.267-0.267 0.533-0.533 0.667-0.133 0-0.133 0-0.267 0.133-0.667 0.267-1.467 0.533-2.533 0.533-1.867 0-3.333-0.667-3.333-1.333s1.467-1.333 3.333-1.333c1.867 0 3.333 0.667 3.333 1.333zM16 4c1.867 0 3.333 0.667 3.333 1.333 0 0.267-0.267 0.533-0.533 0.667 0 0 0 0 0 0-0.667 0.4-1.6 0.667-2.8 0.667-1.867 0-3.333-0.667-3.333-1.333s1.467-1.333 3.333-1.333zM7.333 8c1.867 0 3.333 0.667 3.333 1.333s-1.467 1.333-3.333 1.333c-1.867 0-3.333-0.667-3.333-1.333s1.467-1.333 3.333-1.333zM1.333 13.067l13.333 6v9.2l-13.333-6v-9.2zM30.667 22.267l-14.667 6.133v-9.2l14.667-6.133v9.2z"></path>
</svg>
