<!-- Generated by IcoMoon.io -->
<svg version="1.1" xmlns="http://www.w3.org/2000/svg" width="35" height="32" viewBox="0 0 35 32" aria-labelledby="pod">
<path d="M17.113 28.866v-18.908l14.887-3.722v17.668l-14.887 4.961zM1.808 6.263l13.496 3.68v18.888l-13.496-4.909v-17.66zM16.904 1.84l12.346 3.221-13.032 3.257-11.805-3.219 12.491-3.258zM32.905 4.123c-0.017 0-0.029 0.008-0.046 0.010l-15.727-4.103c-0.149-0.039-0.307-0.039-0.456 0l-15.727 4.103c-0.015-0.001-0.029-0.010-0.045-0.010-0.499 0-0.904 0.405-0.904 0.904v19.528c0 0.381 0.238 0.721 0.595 0.851l15.304 5.565c0.1 0.035 0.205 0.054 0.309 0.054 0.096 0 0.193-0.017 0.287-0.047l16.696-5.565c0.369-0.122 0.619-0.467 0.619-0.858v-19.528c0-0.499-0.405-0.904-0.904-0.904v0z"></path>
</svg>
