<!-- Generated by IcoMoon.io -->
<svg version="1.1" xmlns="http://www.w3.org/2000/svg" width="32" height="32" viewBox="0 0 32 32" aria-labelledby="region">
<path d="M29.762 31.405c0.442 0 0.8-0.358 0.8-0.8s-0.358-0.8-0.8-0.8h-27.013c-0.442 0-0.8 0.358-0.8 0.8s0.358 0.8 0.8 0.8h27.013zM16.472 23.836c0-0.442-0.358-0.8-0.8-0.8s-0.8 0.358-0.8 0.8v6.154c0 0.442 0.358 0.8 0.8 0.8s0.8-0.358 0.8-0.8v-6.154zM15.145 24.307l1.28-0.96c-5.556-7.41-5.556-15.149-0.052-21.112l-1.176-1.085c-6.053 6.557-6.053 15.155-0.052 23.157zM16.109 23.343l1.28 0.96c6-8.001 6-16.596-0.052-23.153l-1.176 1.085c5.504 5.963 5.504 13.699-0.052 21.108zM26.172 17.867v-1.6h-19.754v1.6zM25.493 6.79v-1.6h-18.462v1.6zM27.339 12.944v-1.6h-22.154v1.6zM16.231 23.036c-5.639 0-10.246-4.762-10.246-10.518 0-5.481 4.281-9.801 9.833-10.025 0.181-0.007 0.318-0.010 0.449-0.010 5.702 0 10.272 4.548 10.272 10.236 0 5.698-4.615 10.318-10.308 10.318zM16.267 0.882c-0.155 0-0.311 0.004-0.512 0.012-6.4 0.259-11.37 5.273-11.37 11.624 0 6.628 5.311 12.118 11.846 12.118 6.576 0 11.908-5.336 11.908-11.918 0-6.574-5.288-11.836-11.872-11.836z"></path>
</svg>
