<svg version="1.1" xmlns="http://www.w3.org/2000/svg" width="18" height="18" viewBox="0 0 18 18" aria-labelledby="reports">
<path d="M16.308,5.760216 C16.56648,5.760216 16.776,5.969736 16.776,6.228216 L16.776,6.228216 L16.776,16.559496 L17.028,16.559496 C17.28648,16.559496 17.496,16.769016 17.496,17.028216 C17.496,17.286696 17.28648,17.496216 17.028,17.496216 L17.028,17.496216 L0.468,17.496216 C0.20952,17.496216 -2.03392858e-12,17.286696 -2.03392858e-12,17.028216 C-2.03392858e-12,16.769016 0.20952,16.559496 0.468,16.559496 L0.468,16.559496 L0.72,16.559496 L0.72,13.428216 C0.72,13.169016 0.92952,12.959496 1.188,12.959496 L1.188,12.959496 L3.348,12.959496 C3.60648,12.959496 3.816,13.169016 3.816,13.428216 L3.816,13.428216 L3.816,16.559496 L5.04,16.559496 L5.04,9.828216 C5.04,9.569016 5.24952,9.359496 5.508,9.359496 L5.508,9.359496 L7.668,9.359496 C7.92648,9.359496 8.136,9.569016 8.136,9.828216 L8.136,9.828216 L8.136,16.559496 L9.36,16.559496 L9.36,11.268216 C9.36,11.009016 9.56952,10.799496 9.828,10.799496 L9.828,10.799496 L11.988,10.799496 C12.24648,10.799496 12.456,11.009016 12.456,11.268216 L12.456,11.268216 L12.456,16.559496 L13.68,16.559496 L13.68,6.228216 C13.68,5.969736 13.88952,5.760216 14.148,5.760216 L14.148,5.760216 Z M15.83928,6.696216 L14.616,6.696216 L14.616,16.560216 L15.83928,16.560216 L15.83928,6.696216 Z M11.51928,11.736216 L10.296,11.736216 L10.296,16.559496 L11.51928,16.559496 L11.51928,11.736216 Z M7.2,10.296216 L5.976,10.296216 L5.976,16.559496 L7.2,16.559496 L7.2,10.296216 Z M2.88,13.896216 L1.656,13.896216 L1.656,16.559496 L2.88,16.559496 L2.88,13.896216 Z M15.227928,-0.000144 C15.883128,-0.000144 16.415928,0.532656 16.415928,1.187856 C16.415928,1.843056 15.883128,2.375856 15.227928,2.375856 C15.104808,2.375856 14.988168,2.351376 14.876568,2.316816 L14.876568,2.316816 L11.970648,5.706576 C12.048408,5.864256 12.095928,6.039936 12.095928,6.227856 C12.095928,6.883056 11.563128,7.415856 10.907928,7.415856 C10.287288,7.415856 9.781848,6.935616 9.729288,6.327936 L9.729288,6.327936 L7.470648,5.575536 C7.252488,5.818896 6.940008,5.975856 6.587928,5.975856 C6.394248,5.975856 6.214248,5.924736 6.052968,5.842656 L6.052968,5.842656 L3.401928,8.053056 C3.433608,8.159616 3.455928,8.270496 3.455928,8.387856 C3.455928,9.043056 2.923128,9.575856 2.267928,9.575856 C1.612728,9.575856 1.079928,9.043056 1.079928,8.387856 C1.079928,7.732656 1.612728,7.199856 2.267928,7.199856 C2.461608,7.199856 2.641608,7.250976 2.802888,7.333056 L2.802888,7.333056 L5.453928,5.123376 C5.422248,5.016096 5.399928,4.905216 5.399928,4.787856 C5.399928,4.132656 5.932728,3.599856 6.587928,3.599856 C7.208568,3.599856 7.713288,4.080096 7.765848,4.687056 L7.765848,4.687056 L10.025208,5.440176 C10.242648,5.196096 10.556568,5.039856 10.907928,5.039856 C11.031048,5.039856 11.147688,5.064336 11.258568,5.098896 L11.258568,5.098896 L14.165208,1.708416 C14.087448,1.550736 14.039928,1.375776 14.039928,1.187856 C14.039928,0.532656 14.572728,-0.000144 15.227928,-0.000144 Z M2.267928,8.135856 C2.128968,8.135856 2.015928,8.248896 2.015928,8.387856 C2.015928,8.526816 2.128968,8.639856 2.267928,8.639856 C2.406888,8.639856 2.519928,8.526816 2.519928,8.387856 C2.519928,8.248896 2.406888,8.135856 2.267928,8.135856 Z M10.907928,5.975856 C10.816488,5.975856 10.740168,6.026976 10.696248,6.099696 C10.691928,6.118416 10.695528,6.136416 10.689048,6.155136 C10.682568,6.176016 10.668888,6.192576 10.659528,6.212736 L10.659528,6.212736 L10.655928,6.227856 C10.655928,6.366816 10.768968,6.479856 10.907928,6.479856 C11.046888,6.479856 11.159928,6.366816 11.159928,6.227856 C11.159928,6.088896 11.046888,5.975856 10.907928,5.975856 Z M6.587928,4.535856 C6.448968,4.535856 6.335928,4.648896 6.335928,4.787856 C6.335928,4.926816 6.448968,5.039856 6.587928,5.039856 C6.726888,5.039856 6.839928,4.926816 6.839928,4.787856 C6.839928,4.648896 6.726888,4.535856 6.587928,4.535856 Z M15.227928,0.935856 C15.088968,0.935856 14.975928,1.048896 14.975928,1.187856 C14.975928,1.326816 15.088968,1.439856 15.227928,1.439856 C15.366888,1.439856 15.479928,1.326816 15.479928,1.187856 C15.479928,1.048896 15.366888,0.935856 15.227928,0.935856 Z"></path>
</svg>
