<!-- Generated by IcoMoon.io -->
<svg version="1.1" xmlns="http://www.w3.org/2000/svg" width="26" height="32" viewBox="0 0 26 32" aria-labelledby="reseller">
<path d="M25.105 12.587c-0.059-0.040-0.13-0.047-0.196-0.072l0.009-0.024-4.743-1.779-0.625 1.665 2.595 0.972-9.397 3.759-9.398-3.759 2.595-0.972-0.625-1.665-4.743 1.779 0.009 0.024c-0.066 0.025-0.136 0.032-0.196 0.072-0.244 0.165-0.391 0.441-0.391 0.736v11.858c0 0.337 0.191 0.645 0.492 0.796l11.858 5.929c0.124 0.063 0.262 0.094 0.397 0.094s0.273-0.031 0.397-0.094l11.858-5.929c0.302-0.151 0.492-0.459 0.492-0.796v-11.858c0-0.295-0.146-0.572-0.39-0.736zM1.779 14.637l10.080 4.032v11.003l-10.080-5.040v-9.995zM23.717 24.631l-10.080 5.040v-11.003l10.080-4.032v9.995zM11.005 3.888l0.854-0.853v10.9c0 0.491 0.398 0.889 0.889 0.889s0.889-0.398 0.889-0.889v-10.9l0.854 0.854c0.173 0.173 0.401 0.261 0.629 0.261s0.455-0.087 0.629-0.261c0.347-0.347 0.347-0.911 0-1.258l-2.372-2.372c-0.082-0.082-0.18-0.147-0.289-0.192-0.217-0.090-0.462-0.090-0.68 0-0.109 0.045-0.208 0.11-0.289 0.192l-2.372 2.372c-0.347 0.347-0.347 0.911 0 1.258s0.911 0.346 1.258-0.001zM16.059 14.319c0.153 0.32 0.471 0.506 0.804 0.506 0.127 0 0.259-0.027 0.382-0.087 0.444-0.211 0.631-0.742 0.42-1.186-0.811-1.697-0.461-3.731 0.869-5.062 1.052-1.053 2.56-1.565 3.937-1.421l-1.001 1.002c-0.347 0.347-0.347 0.911 0 1.258 0.173 0.173 0.401 0.261 0.628 0.261s0.455-0.087 0.628-0.261l2.097-2.097c0.347-0.347 0.347-0.911 0-1.258l-2.097-2.097c-0.347-0.347-0.911-0.347-1.258 0s-0.347 0.911 0 1.258l0.159 0.159c-1.587 0.098-3.182 0.768-4.352 1.938-1.862 1.862-2.352 4.709-1.217 7.085zM3.175 9.329c0.173 0.173 0.401 0.261 0.628 0.261s0.455-0.087 0.628-0.261c0.347-0.346 0.347-0.911 0-1.258l-1-1.001c1.377-0.144 2.884 0.369 3.935 1.421 1.331 1.331 1.68 3.364 0.869 5.062-0.212 0.444-0.024 0.975 0.42 1.186 0.123 0.059 0.254 0.087 0.383 0.087 0.332 0 0.651-0.186 0.803-0.506 1.135-2.375 0.645-5.224-1.217-7.087-1.169-1.17-2.764-1.84-4.351-1.939l0.158-0.158c0.347-0.347 0.347-0.911 0-1.258s-0.911-0.347-1.258 0l-2.095 2.097c-0.347 0.347-0.347 0.911 0 1.258l2.097 2.097z"></path>
</svg>
