<!-- Generated by IcoMoon.io -->
<svg version="1.1" xmlns="http://www.w3.org/2000/svg" width="38" height="32" viewBox="0 0 38 32" aria-labelledby="script">
<path d="M4.986 3.216c-1.204 0-2.185 1.018-2.185 2.27v21.183c0 1.251 0.98 2.27 2.185 2.27h27.673c1.205 0 2.185-1.018 2.185-2.27v-21.183c0-1.251-0.98-2.27-2.185-2.27h-27.673zM33.393 31.215h-29.142c-2.115 0-3.834-1.786-3.834-3.984v-22.308c0-2.197 1.719-3.984 3.834-3.984h29.142c2.115 0 3.835 1.786 3.835 3.984v22.308c0 2.197-1.719 3.984-3.835 3.984v0z"></path>
<path d="M25.75 20.303v-2.302l4.587-2.873v-0.069l-4.587-2.873v-2.302l6.682 4.328v1.766l-6.682 4.328z"></path>
<path d="M14.955 23.61l5.695-15.060h2.129l-5.695 15.060h-2.129z"></path>
<path d="M11.985 20.303l-6.682-4.328v-1.766l6.682-4.328v2.302l-4.587 2.873v0.069l4.587 2.873v2.302z"></path>
</svg>
