<!-- Generated by IcoMoon.io -->
<svg version="1.1" xmlns="http://www.w3.org/2000/svg" width="32" height="32" viewBox="0 0 32 32" aria-labelledby="settings">
<path d="M14.571 20.594c0-1.739-1.412-3.15-3.15-3.15-1.74 0-3.15 1.411-3.15 3.15s1.41 3.15 3.15 3.15c1.739 0 3.15-1.412 3.15-3.15zM16.147 20.594c0 2.609-2.117 4.726-4.726 4.726-2.611 0-4.726-2.116-4.726-4.726s2.115-4.726 4.726-4.726c2.609 0 4.726 2.117 4.726 4.726zM26.385 6.811c0-0.651-0.53-1.181-1.181-1.181s-1.181 0.529-1.181 1.181c0 0.653 0.529 1.181 1.181 1.181s1.181-0.529 1.181-1.181zM27.961 6.811c0 1.522-1.235 2.757-2.757 2.757s-2.757-1.234-2.757-2.757c0-1.522 1.235-2.757 2.757-2.757s2.757 1.235 2.757 2.757zM20.741 20.594c0 0.466-0.033 0.926-0.1 1.378l1.591 0.917c0.377 0.217 0.506 0.698 0.289 1.075l-2.615 4.547c-0.218 0.379-0.703 0.508-1.080 0.287l-1.558-0.912c-0.777 0.649-1.484 1.084-2.342 1.397v1.812c0 0.435-0.353 0.788-0.788 0.788h-5.251c-0.435 0-0.788-0.353-0.788-0.788v-1.811c-0.9-0.325-1.673-0.78-2.437-1.406l-1.639 0.925c-0.376 0.212-0.853 0.082-1.069-0.292l-2.624-4.547c-0.217-0.377-0.088-0.858 0.288-1.076l1.586-0.916c-0.068-0.453-0.102-0.913-0.102-1.379 0-0.461 0.036-0.921 0.105-1.38l-1.579-0.916c-0.376-0.218-0.505-0.7-0.286-1.076l2.636-4.547c0.217-0.375 0.696-0.504 1.072-0.289l1.615 0.922c0.765-0.626 1.537-1.079 2.434-1.402v-1.812c0-0.435 0.353-0.788 0.788-0.788h5.251c0.435 0 0.788 0.353 0.788 0.788v1.813c0.857 0.312 1.564 0.745 2.339 1.394l1.536-0.908c0.377-0.223 0.864-0.095 1.083 0.284l2.625 4.547c0.217 0.377 0.088 0.858-0.288 1.076l-1.585 0.916c0.070 0.459 0.105 0.919 0.105 1.379zM19.375 23.061c-0.296-0.17-0.448-0.512-0.377-0.846 0.111-0.525 0.168-1.066 0.168-1.62 0-0.538-0.059-1.078-0.174-1.62-0.071-0.334 0.081-0.675 0.376-0.846l1.383-0.799-1.834-3.176-1.34 0.792c-0.297 0.175-0.673 0.137-0.929-0.094-0.966-0.874-1.684-1.319-2.724-1.614-0.339-0.096-0.572-0.406-0.572-0.758v-1.599h-3.675v1.599c0 0.352-0.234 0.661-0.572 0.758-1.082 0.307-1.915 0.801-2.817 1.615-0.252 0.228-0.623 0.268-0.918 0.1l-1.418-0.809-1.849 3.189 1.377 0.798c0.295 0.171 0.446 0.512 0.375 0.845-0.115 0.543-0.174 1.083-0.174 1.62 0 0.552 0.057 1.093 0.17 1.619 0.072 0.334-0.080 0.676-0.376 0.847l-1.384 0.799 1.841 3.19 1.442-0.814c0.295-0.167 0.665-0.126 0.916 0.102 0.896 0.812 1.731 1.306 2.817 1.617 0.338 0.097 0.571 0.406 0.571 0.757v1.596h3.675v-1.596c0-0.352 0.233-0.661 0.571-0.757 1.041-0.298 1.76-0.743 2.727-1.618 0.255-0.23 0.629-0.269 0.926-0.095l1.362 0.796 1.827-3.177-1.388-0.8zM30.586 6.811c0 0.221-0.013 0.44-0.039 0.656l0.833 0.479c0.376 0.217 0.506 0.697 0.291 1.074l-1.301 2.272c-0.218 0.381-0.705 0.51-1.083 0.287l-0.8-0.471c-0.339 0.258-0.706 0.475-1.089 0.646v0.963c0 0.435-0.353 0.788-0.788 0.788h-2.625c-0.435 0-0.788-0.353-0.788-0.788v-0.957c-0.423-0.179-0.828-0.405-1.185-0.665l-0.884 0.493c-0.376 0.21-0.85 0.079-1.066-0.294l-1.313-2.272c-0.218-0.377-0.088-0.859 0.288-1.076l0.828-0.478c-0.027-0.218-0.041-0.437-0.041-0.658s0.015-0.44 0.043-0.66l-0.821-0.475c-0.377-0.218-0.506-0.702-0.286-1.078l1.325-2.272c0.217-0.372 0.693-0.501 1.068-0.289l0.862 0.487c0.355-0.259 0.758-0.482 1.18-0.661v-0.959c0-0.435 0.353-0.788 0.788-0.788h2.625c0.435 0 0.788 0.353 0.788 0.788v0.965c0.383 0.171 0.748 0.387 1.085 0.642l0.778-0.465c0.377-0.226 0.866-0.099 1.086 0.282l1.313 2.272c0.218 0.377 0.088 0.859-0.288 1.076l-0.826 0.477c0.028 0.22 0.043 0.439 0.043 0.658zM29.282 8.557c-0.302-0.174-0.454-0.526-0.373-0.865 0.068-0.283 0.102-0.578 0.102-0.881 0-0.286-0.037-0.578-0.108-0.884-0.079-0.338 0.073-0.688 0.373-0.861l0.623-0.36-0.518-0.898-0.574 0.343c-0.303 0.181-0.689 0.139-0.946-0.104-0.428-0.405-0.947-0.713-1.493-0.888-0.326-0.104-0.548-0.408-0.548-0.75v-0.718h-1.050v0.719c0 0.343-0.222 0.647-0.549 0.751-0.605 0.192-1.192 0.516-1.581 0.885-0.251 0.238-0.628 0.285-0.93 0.114l-0.656-0.371-0.535 0.918 0.618 0.358c0.302 0.175 0.453 0.527 0.371 0.867-0.072 0.3-0.109 0.591-0.109 0.878 0 0.297 0.035 0.589 0.105 0.878 0.082 0.34-0.070 0.693-0.372 0.867l-0.626 0.361 0.53 0.918 0.676-0.377c0.301-0.168 0.676-0.121 0.926 0.117 0.39 0.37 0.98 0.696 1.583 0.888 0.327 0.104 0.549 0.408 0.549 0.751v0.717h1.050v-0.717c0-0.343 0.222-0.647 0.549-0.751 0.542-0.172 1.061-0.481 1.494-0.889 0.255-0.241 0.638-0.284 0.94-0.106l0.594 0.35 0.514-0.898-0.63-0.363z"></path>
</svg>
