<!-- Generated by IcoMoon.io -->
<svg version="1.1" xmlns="http://www.w3.org/2000/svg" width="32" height="32" viewBox="0 0 32 32" aria-labelledby="sign-out">
<path d="M23.066 30c0-0.4 0.266-0.666 0.666-0.666h2.534c1.734 0 3.2-1.466 3.2-3.2v-21.6c0-1.734-1.466-3.2-3.2-3.2h-2.534c-0.4 0-0.666-0.266-0.666-0.666s0.269-0.669 0.669-0.669h2.534c2.534 0 4.534 2 4.534 4.534v21.734c0 2.534-2 4.534-4.534 4.534h-2.534c-0.534-0.137-0.669-0.403-0.669-0.803v0zM0.366 14.934v0c0 0.134-0.134 0.134-0.134 0.266-0.134 0.134-0.134 0.4 0 0.534 0 0.134 0.134 0.134 0.134 0.266v0l9.334 9.334c0.266 0.266 0.666 0.266 0.934 0s0.266-0.666 0-0.934l-8.134-8.134h21.2c0.4 0 0.666-0.266 0.666-0.666s-0.266-0.666-0.666-0.666h-21.066l8.134-8.4c0.266-0.266 0.266-0.666 0-0.934s-0.666-0.266-0.934 0l-9.469 9.334z"></path>
</svg>
