<!-- Generated by IcoMoon.io -->
<svg version="1.1" xmlns="http://www.w3.org/2000/svg" width="32" height="32" viewBox="0 0 32 32" aria-labelledby="sql-aggregate">
<path d="M7.163 12.592v10.711c0 1.704 3.947 3.366 8.893 3.366 4.841 0 8.724-1.592 8.887-3.257l0.005-0.109v-10.71c-1.755 1.428-5.095 2.32-8.892 2.32-3.799 0-7.139-0.893-8.893-2.321zM24.949 10.216c-0.041-1.695-3.973-3.339-8.892-3.339-4.946 0-8.893 1.662-8.893 3.366s3.947 3.366 8.893 3.366c4.904 0 8.827-1.635 8.892-3.324v-0.044c0-0.008 0-0.017 0-0.025zM26.254 10.296v13.008c0 2.735-4.602 4.672-10.199 4.672-5.491 0-10.025-1.865-10.194-4.519l-0.005-0.154v-13.063c0-0.011 0-0.023 0.001-0.034 0.038-2.717 4.625-4.639 10.199-4.639 5.596 0 10.199 1.938 10.199 4.672 0 0.018-0 0.037-0.001 0.055z"></path>
<path d="M19.619 22.547v-5.67h1.278v4.592h2.522v1.078h-3.8z"></path>
<path d="M16.082 21.608c0.296 0 0.53-0.157 0.704-0.47s0.261-0.797 0.261-1.452c0-0.586-0.087-1.032-0.261-1.339-0.174-0.313-0.409-0.47-0.704-0.47s-0.531 0.157-0.704 0.47c-0.174 0.307-0.261 0.754-0.261 1.339 0 0.655 0.087 1.139 0.261 1.452s0.409 0.47 0.704 0.47zM17.709 24.095c-0.551 0-1.015-0.142-1.392-0.426s-0.652-0.646-0.826-1.087c-0.51-0.133-0.919-0.444-1.226-0.93s-0.461-1.142-0.461-1.965c0-0.632 0.096-1.163 0.287-1.592 0.191-0.435 0.458-0.762 0.8-0.983 0.348-0.226 0.745-0.339 1.191-0.339 0.452 0 0.849 0.113 1.191 0.339 0.342 0.22 0.609 0.548 0.8 0.983 0.191 0.429 0.287 0.96 0.287 1.592 0 0.777-0.139 1.406-0.417 1.887s-0.652 0.803-1.122 0.965c0.104 0.197 0.252 0.333 0.444 0.409 0.197 0.081 0.397 0.122 0.6 0.122 0.087 0 0.168-0.012 0.243-0.035 0.081-0.023 0.151-0.049 0.209-0.078l0.226 0.957c-0.093 0.052-0.209 0.096-0.348 0.131s-0.301 0.052-0.487 0.052z"></path>
<path d="M10.851 22.651c-0.383 0-0.762-0.070-1.139-0.209-0.371-0.139-0.71-0.342-1.018-0.609l0.739-0.878c0.214 0.174 0.449 0.316 0.704 0.426 0.261 0.11 0.528 0.165 0.8 0.165s0.473-0.046 0.6-0.139c0.133-0.093 0.2-0.212 0.2-0.356 0-0.203-0.078-0.348-0.235-0.435s-0.371-0.185-0.644-0.296l-0.73-0.313c-0.209-0.081-0.406-0.189-0.591-0.322-0.186-0.139-0.336-0.31-0.452-0.513-0.11-0.203-0.165-0.441-0.165-0.713 0-0.313 0.087-0.597 0.261-0.852 0.18-0.255 0.426-0.458 0.739-0.609s0.673-0.226 1.078-0.226c0.342 0 0.678 0.064 1.009 0.191s0.623 0.313 0.878 0.557l-0.652 0.809c-0.197-0.145-0.394-0.255-0.591-0.331-0.197-0.081-0.435-0.122-0.713-0.122-0.214 0-0.388 0.043-0.522 0.13-0.128 0.087-0.191 0.215-0.191 0.383s0.087 0.299 0.261 0.391c0.174 0.087 0.397 0.18 0.67 0.278l0.687 0.296c0.377 0.139 0.673 0.331 0.887 0.574 0.22 0.243 0.331 0.565 0.331 0.965 0 0.313-0.087 0.603-0.261 0.87-0.168 0.267-0.417 0.481-0.748 0.643-0.325 0.162-0.722 0.244-1.191 0.244z"></path>
</svg>
