<!-- Generated by IcoMoon.io -->
<svg version="1.1" xmlns="http://www.w3.org/2000/svg" width="37" height="32" viewBox="0 0 37 32" aria-labelledby="sql">
<path d="M4.467 3.557c-1.194 0-2.165 1.005-2.165 2.24v20.909c0 1.235 0.971 2.24 2.165 2.24h27.424c1.194 0 2.165-1.005 2.165-2.24v-20.909c0-1.235-0.971-2.24-2.165-2.24h-27.424zM32.369 30.993h-28.38c-2.060 0-3.734-1.74-3.734-3.879v-21.725c0-2.14 1.674-3.879 3.734-3.879h28.38c2.060 0 3.734 1.74 3.734 3.879v21.725c0 2.14-1.674 3.879-3.734 3.879v0z"></path>
<path d="M23.978 19.693v-9.231h2.081v7.476h4.106v1.756h-6.187z"></path>
<path d="M18.221 18.163c0.481 0 0.864-0.255 1.147-0.765s0.425-1.298 0.425-2.364c0-0.953-0.141-1.68-0.425-2.18-0.283-0.51-0.665-0.765-1.147-0.765s-0.864 0.255-1.147 0.765c-0.283 0.5-0.425 1.227-0.425 2.18 0 1.067 0.142 1.855 0.425 2.364s0.666 0.765 1.147 0.765zM20.869 22.213c-0.897 0-1.652-0.231-2.265-0.694s-1.062-1.052-1.345-1.77c-0.831-0.217-1.496-0.722-1.996-1.515s-0.75-1.859-0.75-3.2c0-1.029 0.156-1.893 0.467-2.591 0.312-0.708 0.746-1.241 1.303-1.6 0.566-0.368 1.213-0.552 1.94-0.552 0.736 0 1.383 0.184 1.94 0.552 0.557 0.359 0.991 0.892 1.303 1.6 0.312 0.698 0.467 1.562 0.467 2.591 0 1.265-0.227 2.289-0.68 3.072s-1.062 1.307-1.826 1.572c0.17 0.321 0.411 0.543 0.722 0.665 0.321 0.132 0.647 0.198 0.977 0.198 0.141 0 0.274-0.019 0.396-0.057 0.132-0.038 0.245-0.080 0.34-0.127l0.368 1.557c-0.151 0.085-0.34 0.156-0.566 0.212s-0.491 0.085-0.793 0.085z"></path>
<path d="M9.703 19.862c-0.623 0-1.241-0.113-1.855-0.34-0.604-0.227-1.156-0.557-1.657-0.991l1.204-1.43c0.349 0.283 0.732 0.514 1.147 0.694 0.425 0.179 0.859 0.269 1.303 0.269s0.769-0.076 0.977-0.227c0.217-0.151 0.326-0.345 0.326-0.581 0-0.33-0.127-0.566-0.382-0.708s-0.604-0.302-1.048-0.481l-1.189-0.51c-0.34-0.132-0.661-0.307-0.963-0.524-0.302-0.227-0.547-0.505-0.736-0.835-0.179-0.33-0.269-0.717-0.269-1.161 0-0.51 0.142-0.972 0.425-1.388 0.293-0.415 0.694-0.746 1.204-0.991s1.095-0.368 1.756-0.368c0.557 0 1.104 0.104 1.642 0.312s1.015 0.51 1.43 0.906l-1.062 1.317c-0.321-0.236-0.642-0.415-0.963-0.538-0.321-0.132-0.708-0.198-1.161-0.198-0.349 0-0.632 0.071-0.85 0.212-0.208 0.142-0.312 0.349-0.312 0.623s0.142 0.486 0.425 0.637c0.283 0.142 0.647 0.293 1.090 0.453l1.119 0.481c0.614 0.227 1.095 0.538 1.444 0.934 0.359 0.396 0.538 0.92 0.538 1.572 0 0.51-0.142 0.982-0.425 1.416-0.274 0.434-0.68 0.784-1.218 1.048-0.529 0.264-1.175 0.396-1.94 0.396z"></path>
</svg>
