<!-- Generated by IcoMoon.io -->
<svg version="1.1" xmlns="http://www.w3.org/2000/svg" width="32" height="32" viewBox="0 0 32 32" aria-labelledby="star-empty">
<path d="M12.423 11.975c-0.138 0.277-0.402 0.469-0.709 0.513l-7.801 1.127 5.641 5.467c0.223 0.216 0.325 0.529 0.273 0.836l-1.331 7.723 6.983-3.649c0.273-0.143 0.599-0.143 0.872-0l6.987 3.65-1.331-7.723c-0.053-0.306 0.049-0.619 0.272-0.836l5.64-5.468-7.8-1.127c-0.306-0.044-0.571-0.236-0.708-0.513l-3.496-7.035-3.492 7.035zM10.957 10.695l4.115-8.29c0.346-0.697 1.34-0.697 1.686-0l4.119 8.29 9.207 1.33c0.774 0.112 1.082 1.063 0.521 1.607l-6.659 6.455 1.57 9.108c0.132 0.768-0.673 1.355-1.363 0.994l-8.238-4.303-8.234 4.303c-0.691 0.361-1.496-0.226-1.363-0.994l1.57-9.108-6.66-6.455c-0.561-0.544-0.253-1.496 0.52-1.607l9.209-1.33z"></path>
</svg>
