<!-- Generated by IcoMoon.io -->
<svg version="1.1" xmlns="http://www.w3.org/2000/svg" width="32" height="32" viewBox="0 0 32 32" aria-labelledby="subscription">
<path d="M5.43 0c-0.353 0-0.64 0.287-0.64 0.64v4.54h-3.245c-0.353 0-0.64 0.287-0.64 0.64v24.606c0 0.353 0.287 0.64 0.64 0.64h15.051c-0.234-0.408-0.44-0.836-0.614-1.28h-13.796v-23.326h2.605v20.081c0 0.354 0.287 0.64 0.64 0.64h9.921c-0.004-0.041-0.008-0.083-0.012-0.124-0.035-0.389-0.046-0.775-0.036-1.156h-9.234v-24.621h24.621v16.809c0.455 0.313 0.884 0.664 1.28 1.049v-18.498c0-0.353-0.286-0.64-0.64-0.64h-25.901zM26.799 16.502v-0.961h-16.836v1.28h12.185c0.672-0.213 1.376-0.356 2.107-0.421 0.869-0.077 1.723-0.039 2.544 0.102zM19.497 18.131h-9.534v1.28h8.047c0.45-0.473 0.948-0.903 1.487-1.28zM16.96 20.721h-6.997v1.28h6.272c0.21-0.445 0.453-0.873 0.726-1.28zM9.963 6.46h16.836v-1.28h-16.836v1.28zM9.963 9.050h16.836v-1.28h-16.836v1.28zM9.963 11.641h16.836v-1.28h-16.836v1.28zM9.963 14.231h16.836v-1.28h-16.836v1.28z"></path>
<path d="M28.593 19.678l-6.261 6.219-2.079-2.034-1.753 1.741 3.832 3.775 8.014-7.96-1.752-1.741z"></path>
</svg>
