<!-- Generated by IcoMoon.io -->
<svg version="1.1" xmlns="http://www.w3.org/2000/svg" width="34" height="32" viewBox="0 0 34 32" aria-labelledby="support">
<path d="M17.093 31.103c0.664 0 1.203-0.538 1.203-1.203s-0.539-1.203-1.203-1.203c-0.664 0-1.203 0.538-1.203 1.203s0.538 1.203 1.203 1.203z"></path>
<path d="M7.968 15.495l0.678 0v9.565h-0.874c-0.709 0-1.41-0.157-2.051-0.461s-1.206-0.747-1.655-1.296c-0.449-0.549-0.769-1.192-0.939-1.88-0.169-0.685-0.184-1.399-0.045-2.090 0.249-1.101 0.87-2.084 1.757-2.783 0.891-0.701 1.995-1.074 3.129-1.055zM7.998 13.034c-1.696-0.025-3.349 0.533-4.681 1.583-1.335 1.052-2.267 2.531-2.639 4.19l-0.005 0.023c-0.215 1.053-0.193 2.14 0.064 3.183s0.743 2.016 1.423 2.848 1.536 1.503 2.506 1.963c0.971 0.46 2.031 0.699 3.106 0.699h2.105c0.68 0 1.231-0.551 1.231-1.231v-12.027c0-0.68-0.551-1.231-1.231-1.231h-1.879z"></path>
<path d="M26.187 13.034c1.696-0.025 3.349 0.533 4.681 1.583 1.335 1.052 2.267 2.531 2.639 4.19l0.005 0.023c0.215 1.053 0.193 2.14-0.064 3.183s-0.743 2.016-1.423 2.848c-0.68 0.832-1.536 1.503-2.506 1.963s-2.032 0.699-3.106 0.699h-2.105c-0.68 0-1.231-0.551-1.231-1.231v-12.027c0-0.68 0.551-1.231 1.231-1.231h1.879zM29.346 16.551c-0.89-0.701-1.996-1.074-3.129-1.055l-0.020 0h-0.657v9.565h0.874c0.709 0 1.41-0.157 2.051-0.461s1.206-0.747 1.655-1.296c0.449-0.549 0.769-1.192 0.939-1.88 0.169-0.685 0.184-1.399 0.045-2.090-0.249-1.101-0.87-2.084-1.757-2.783z"></path>
<path d="M14.87 3.217c-2.133 0.532-4.023 1.77-5.362 3.514-1.34 1.745-2.048 3.893-2.010 6.093l0 0.022v1.419c0 0.68-0.551 1.231-1.231 1.231s-1.231-0.551-1.231-1.231v-1.409c-0.046-2.753 0.842-5.44 2.519-7.624 1.679-2.187 4.050-3.74 6.725-4.405l0.011-0.003c1.775-0.424 3.624-0.439 5.406-0.044s3.451 1.189 4.882 2.323c1.431 1.134 2.585 2.578 3.376 4.222s1.198 3.446 1.191 5.271v1.669c0 0.68-0.551 1.231-1.231 1.231s-1.231-0.551-1.231-1.231v-1.677c0.006-1.453-0.318-2.887-0.948-4.197s-1.548-2.458-2.687-3.36-2.467-1.534-3.885-1.848c-1.416-0.314-2.885-0.302-4.296 0.034z"></path>
<path d="M9.876 25.061c0.68 0 1.231 0.551 1.231 1.231 0 0.631 0.251 1.235 0.696 1.681s1.051 0.696 1.681 0.696c0.68 0 1.231 0.551 1.231 1.231s-0.551 1.231-1.231 1.231c-1.283 0-2.514-0.51-3.422-1.417s-1.417-2.138-1.417-3.422c0-0.68 0.551-1.231 1.231-1.231z"></path>
<path d="M17.067 29.889c-0.002 0.005-0.003 0.011-0.003 0.011s0 0.006 0.003 0.011c0.002 0.004 0.005 0.009 0.005 0.009s0.004 0.004 0.009 0.005c0.005 0.002 0.011 0.003 0.011 0.003s0.006-0 0.011-0.003c0.004-0.002 0.009-0.005 0.009-0.005s0.004-0.004 0.006-0.009c0.002-0.005 0.003-0.011 0.003-0.011s-0.001-0.006-0.003-0.011c-0.002-0.004-0.006-0.009-0.006-0.009s-0.004-0.004-0.009-0.006c-0.005-0.002-0.011-0.003-0.011-0.003s-0.006 0.001-0.011 0.003c-0.004 0.002-0.009 0.006-0.009 0.006s-0.004 0.004-0.005 0.009zM18.295 29.9c0 0.664-0.539 1.203-1.203 1.203s-1.203-0.538-1.203-1.203c0-0.664 0.538-1.203 1.203-1.203s1.203 0.539 1.203 1.203z"></path>
<path d="M6.87 14.251c0.34 0 0.615 0.275 0.615 0.615v10.824c0 0.34-0.276 0.615-0.615 0.615s-0.615-0.275-0.615-0.615v-10.824c0-0.34 0.276-0.615 0.615-0.615z"></path>
<path d="M26.714 14.265v12.027h-2.405v-12.027h2.405z"></path>
</svg>
