<!-- Generated by IcoMoon.io -->
<svg version="1.1" xmlns="http://www.w3.org/2000/svg" width="30" height="32" viewBox="0 0 30 32" aria-labelledby="target">
<path d="M16.004 25.409v-2.846c0-0.467-0.38-0.846-0.846-0.846-0.467 0-0.846 0.379-0.846 0.846v2.846c-4.692-0.406-8.438-4.151-8.845-8.844h2.846c0.467 0 0.846-0.379 0.846-0.846s-0.379-0.846-0.846-0.846h-2.846c0.407-4.692 4.153-8.439 8.845-8.845v2.846c0 0.466 0.379 0.844 0.846 0.844 0.466 0 0.846-0.379 0.846-0.844v-2.846c4.691 0.407 8.435 4.153 8.842 8.845h-2.844c-0.467 0-0.846 0.379-0.846 0.846s0.379 0.846 0.846 0.846h2.844c-0.407 4.693-4.152 8.438-8.842 8.844zM29.47 14.874h-2.931c-0.415-5.623-4.912-10.12-10.535-10.535v-2.931c0-0.467-0.38-0.846-0.846-0.846-0.467 0-0.846 0.379-0.846 0.846v2.93c-5.625 0.416-10.12 4.912-10.535 10.536h-2.931c-0.467 0-0.846 0.379-0.846 0.846s0.379 0.846 0.846 0.846h2.931c0.415 5.625 4.91 10.121 10.535 10.536v2.93c0 0.467 0.379 0.846 0.846 0.846 0.466 0 0.846-0.379 0.846-0.846v-2.93c5.623-0.416 10.119-4.913 10.535-10.536h2.931c0.467 0 0.846-0.379 0.846-0.846s-0.379-0.846-0.846-0.846z"></path>
</svg>
