<!-- Generated by IcoMoon.io -->
<svg version="1.1" xmlns="http://www.w3.org/2000/svg" width="32" height="32" viewBox="0 0 32 32" aria-labelledby="tasks">
<path d="M16.018 6.998c-6.906 0-12.466 5.56-12.466 12.467 0 4.030 1.893 7.604 4.842 9.877l-1.449 1.449c-0.278 0.278-0.278 0.724 0 1.002s0.724 0.278 1.002 0l1.636-1.636c1.874 1.126 4.075 1.775 6.432 1.775s4.558-0.646 6.432-1.775l1.636 1.636c0.278 0.278 0.724 0.278 1.002 0s0.278-0.724 0-1.002l-1.449-1.449c2.949-2.276 4.842-5.847 4.842-9.877 0.003-6.906-5.554-12.466-12.46-12.466zM16.018 30.512c-6.125 0-11.048-4.923-11.048-11.048s4.923-11.048 11.048-11.048 11.048 4.923 11.048 11.048c0 6.125-4.923 11.048-11.048 11.048zM28.482 19.464v0 0zM16.619 11.957c-0.392 0-0.709 0.317-0.709 0.709v0 6.659h-4.247c-0.392 0-0.709 0.317-0.709 0.709s0.317 0.709 0.709 0.709h4.956c0.392 0 0.709-0.317 0.709-0.709v-7.365c0-0.395-0.317-0.712-0.709-0.712zM4.231 13.165c0.278-0.278 0.278-0.724 0-1.002v0c-1.705-1.705-1.705-4.090 0-5.799 1.705-1.705 4.090-1.705 5.799 0 0.278 0.278 0.724 0.278 1.002 0s0.278-0.724 0-1.002c-2.261-2.258-5.542-2.258-7.803 0.003s-2.261 5.542 0 7.8c0.278 0.278 0.724 0.278 1.002 0zM3.73 13.388c0 0 0 0 0 0-0.193 0-0.374-0.075-0.51-0.211-1.096-1.096-1.699-2.484-1.699-3.912s0.604-2.816 1.699-3.912c2.267-2.267 5.557-2.267 7.821 0 0.281 0.281 0.281 0.74 0 1.023-0.281 0.281-0.74 0.281-1.023 0-0.821-0.821-1.847-1.277-2.889-1.277s-2.065 0.453-2.889 1.277c-1.696 1.696-1.699 4.069-0.009 5.768l0.009 0.009c0.281 0.281 0.281 0.74 0 1.023v0c-0.136 0.136-0.317 0.211-0.51 0.211zM7.129 3.686c-1.383 0-2.762 0.564-3.891 1.69-1.090 1.090-1.69 2.472-1.69 3.891s0.601 2.798 1.69 3.891c0.272 0.272 0.709 0.272 0.981 0 0.269-0.269 0.272-0.703 0.006-0.975l-0.006-0.006c-1.715-1.711-1.715-4.105 0-5.82 0.827-0.827 1.862-1.283 2.91-1.283s2.080 0.456 2.91 1.283c0.272 0.272 0.709 0.272 0.981 0s0.272-0.709 0-0.981c-1.126-1.129-2.508-1.69-3.891-1.69zM28.895 5.383c-2.276-2.279-5.56-2.279-7.818-0.018-0.278 0.278-0.278 0.724 0 1.002s0.724 0.278 1.002 0c1.705-1.705 4.090-1.705 5.799 0 1.57 1.693 1.57 4.105-0.018 5.817-0.266 0.287-0.251 0.733 0.036 1.002 0.287 0.266 0.733 0.251 1.002-0.036v0c2.092-2.258 2.092-5.512-0.003-7.767zM28.376 13.388c-0.184 0-0.356-0.069-0.492-0.193-0.142-0.133-0.223-0.311-0.229-0.504s0.060-0.377 0.193-0.519c0.764-0.824 1.186-1.856 1.189-2.904s-0.414-2.074-1.171-2.892c-0.821-0.821-1.847-1.274-2.889-1.274s-2.065 0.453-2.889 1.277c-0.281 0.281-0.74 0.281-1.023 0-0.281-0.281-0.281-0.74 0-1.023 1.096-1.096 2.481-1.696 3.906-1.696 0.003 0 0.006 0 0.009 0 1.428 0.003 2.822 0.613 3.927 1.715v0c1.014 1.093 1.576 2.475 1.576 3.891s-0.558 2.798-1.576 3.891l-0.003 0.003c-0.13 0.139-0.308 0.22-0.501 0.226-0.009 0.003-0.018 0.003-0.027 0.003zM24.977 5.072c1.047 0 2.080 0.456 2.91 1.283 0.764 0.824 1.183 1.856 1.18 2.913s-0.429 2.095-1.198 2.925c-0.127 0.136-0.19 0.311-0.184 0.498 0.006 0.184 0.084 0.356 0.22 0.483s0.311 0.19 0.498 0.184c0.184-0.006 0.356-0.085 0.483-0.22l0.003-0.003c1.008-1.087 1.564-2.46 1.564-3.867 0-1.41-0.555-2.783-1.567-3.87-1.099-1.099-2.484-1.705-3.906-1.705-1.419-0.003-2.801 0.598-3.891 1.687-0.272 0.272-0.272 0.709 0 0.981s0.709 0.272 0.981 0c0.824-0.833 1.859-1.289 2.907-1.289z"></path>
</svg>
