<!-- Generated by IcoMoon.io -->
<svg version="1.1" xmlns="http://www.w3.org/2000/svg" width="32" height="32" viewBox="0 0 32 32" aria-labelledby="tfa-user">
<path d="M9.803 17.253c0 0 0 0 0 0 0-0.178-0.069-0.344-0.194-0.469s-0.291-0.194-0.466-0.194h-0.744v-2.847c0-0.175-0.069-0.341-0.194-0.466s-0.291-0.194-0.466-0.194h-4.206c-0.175 0-0.341 0.069-0.466 0.194s-0.194 0.291-0.194 0.466v2.847h-0.744c-0.363 0-0.659 0.297-0.659 0.659 0 0 0 0 0 0s0 0 0 0v9.813c0 0.956 0.387 1.822 1.016 2.447 0.628 0.628 1.494 1.016 2.447 1.016h1.403c1.909 0 3.462-1.553 3.462-3.462l0.003-9.809zM4.194 14.406h2.888v2.188h-2.888v-2.188zM6.338 29.212h-1.4c-0.569 0-1.109-0.225-1.516-0.631s-0.631-0.944-0.631-1.516v-9.153h4.95c0.003 0 0.006 0 0.009 0h0.734v9.153c0 1.184-0.963 2.147-2.147 2.147zM7.181 21.306c-0.412-0.413-0.959-0.637-1.544-0.637v0c-1.203 0-2.181 0.978-2.181 2.181 0 0.6 0.244 1.147 0.641 1.541 0.394 0.394 0.941 0.641 1.541 0.641 0.581 0 1.131-0.228 1.544-0.637 0.412-0.413 0.638-0.959 0.638-1.544s-0.228-1.131-0.638-1.544zM5.638 23.903c-0.581 0-1.053-0.472-1.053-1.053s0.472-1.053 1.053-1.053c0.281 0 0.547 0.109 0.744 0.309 0.2 0.2 0.309 0.462 0.309 0.744s-0.109 0.544-0.309 0.744c-0.197 0.2-0.463 0.309-0.744 0.309zM17.197 1.409v0c-6.478 0-11.931 4.166-13.844 9.981h1.487c1.862-5.019 6.688-8.584 12.356-8.584 7.288 0 13.178 5.888 13.178 13.175 0 3.094-1.097 5.987-2.994 8.284v0c-0.3-0.2-0.7-0.5-0.997-0.6l-5.391-1.897v-2.497c1.697-1.397 2.794-3.694 2.794-6.287 0-4.291-2.894-7.688-6.587-7.688-3.594 0-6.588 3.494-6.588 7.688 0 2.694 1.197 5.191 3.094 6.487v2.297l-1.8 0.634v1.641l2.7-0.978c0.3-0.1 0.5-0.4 0.5-0.7v-1.997c0.6 0.2 1.297 0.4 1.997 0.4 0.8 0 1.597-0.2 2.297-0.5v2.097c0 0.3 0.2 0.6 0.5 0.7l5.791 2.097c0.1 0 0.3 0.2 0.5 0.3-2.497 2.397-5.791 3.794-9.184 3.794-1.738-0.053-3.472-0.462-5.097-1.194v1.512c1.675 0.644 3.475 0.978 5.294 0.978 4.094 0 8.084-1.797 10.881-4.791 2.397-2.694 3.794-6.188 3.794-9.781-0.106-8.084-6.597-14.572-14.681-14.572zM17.197 6.697c2.497 0 4.491 2.097 4.991 4.991-1.597 0.3-2.497-0.3-3.494-1.897-0.1-0.2-0.4-0.4-0.6-0.4-0.3 0-0.5 0.2-0.6 0.4-0.5 0.997-2.297 1.897-3.794 1.897-0.5 0-0.997-0.1-1.397-0.3 0.603-2.694 2.6-4.691 4.894-4.691zM17.097 19.175c-2.694 0.1-4.991-2.794-4.991-6.287v0c0.5 0.1 0.997 0.2 1.597 0.2 1.597 0 3.294-0.7 4.291-1.697 0.897 1.197 1.997 1.797 3.394 1.797 0.3 0 0.5 0 0.8-0.1-0.1 3.394-2.294 6.088-5.091 6.088z"></path>
</svg>
