<!-- Generated by IcoMoon.io -->
<svg version="1.1" xmlns="http://www.w3.org/2000/svg" width="32" height="32" viewBox="0 0 32 32" aria-labelledby="tfa">
<path d="M26.742 14.224l-14.407 14.407c-1.933 1.933-5.099 1.933-7.033 0l-2.058-2.058c-1.932-1.932-1.933-5.1 0-7.033l14.407-14.407c0.332-0.332 0.332-0.869 0-1.201s-0.869-0.332-1.201 0l-14.407 14.407c-2.596 2.596-2.595 6.839 0 9.434l2.058 2.058c2.596 2.596 6.838 2.596 9.434 0l14.407-14.407c0.332-0.332 0.332-0.869 0-1.201s-0.869-0.332-1.201 0zM29.23 7.621l-4.975-4.975-3.946 3.946 4.975 4.973 3.946-3.944zM24.684 13.366l-6.175-6.174c-0.332-0.332-0.332-0.869-0-1.201l5.146-5.146c0.332-0.332 0.869-0.332 1.201 0l6.175 6.175c0.332 0.332 0.332 0.869-0 1.201l-5.146 5.145c-0.332 0.331-0.869 0.331-1.2 0zM23.655 4.962l-1.029 1.030c-0.331 0.332-0.331 0.869 0.001 1.201s0.869 0.331 1.201-0.001l1.029-1.030c0.331-0.332 0.331-0.869-0.001-1.201s-0.869-0.331-1.201 0.001zM25.713 7.021l-1.029 1.029c-0.332 0.332-0.332 0.869 0 1.201s0.869 0.332 1.201 0l1.029-1.029c0.332-0.332 0.332-0.869 0-1.201s-0.869-0.332-1.201 0zM16.451 5.133l10.291 10.291c0.332 0.332 0.869 0.332 1.201 0s0.332-0.869 0-1.201l-10.291-10.291c-0.332-0.332-0.869-0.332-1.201 0s-0.332 0.869 0 1.201zM16.451 9.25l6.175 6.175c0.332 0.332 0.869 0.332 1.201 0s0.332-0.869 0-1.201l-6.175-6.175c-0.332-0.332-0.869-0.332-1.201 0s-0.332 0.869 0 1.201zM15.262 16.615c-1.374-1.374-3.6-1.374-4.975 0-1.374 1.373-1.374 3.6 0 4.974s3.601 1.373 4.975 0.001c1.373-1.374 1.373-3.602 0-4.975zM16.462 15.414c2.036 2.036 2.036 5.338-0 7.376-2.037 2.036-5.338 2.036-7.376-0-2.037-2.037-2.037-5.34 0-7.376 2.037-2.037 5.339-2.037 7.376 0z"></path>
</svg>
