<!-- Generated by IcoMoon.io -->
<svg version="1.1" xmlns="http://www.w3.org/2000/svg" width="32" height="32" viewBox="0 0 32 32" aria-labelledby="tokenization">
<path d="M2.017 16.289c0 0.71 0.183 1.42 0.548 2.052l4.933 8.545c0.731 1.266 2.093 2.052 3.555 2.052h9.866c1.462 0 2.824-0.786 3.555-2.052l4.933-8.545c0.731-1.266 0.731-2.839 0-4.105l-4.933-8.545c-0.731-1.266-2.093-2.052-3.555-2.052h-9.866c-1.462 0-2.824 0.786-3.555 2.052l-4.933 8.545c-0.365 0.633-0.548 1.343-0.548 2.053zM31.973 16.289c0 1.059-0.272 2.117-0.818 3.061l-4.933 8.545c-1.090 1.888-3.122 3.061-5.303 3.061h-9.866c-2.181 0-4.212-1.173-5.303-3.061l-4.933-8.545c-1.090-1.888-1.090-4.234 0-6.123l4.933-8.545c1.090-1.888 3.122-3.061 5.303-3.061h9.866c2.181 0 4.212 1.173 5.303 3.061l4.933 8.545c0.545 0.944 0.818 2.003 0.818 3.062zM25.873 16.008c-0.696-0.728-1.487-1.458-2.357-2.137-2.441-1.906-4.997-3.038-7.517-3.038s-5.075 1.132-7.517 3.038c-0.87 0.679-1.661 1.408-2.357 2.137-0.111 0.116-0.212 0.225-0.304 0.325 0.092 0.1 0.194 0.209 0.304 0.325 0.696 0.728 1.487 1.458 2.357 2.137 2.441 1.906 4.997 3.038 7.517 3.038s5.075-1.132 7.517-3.038c0.87-0.679 1.661-1.408 2.357-2.137 0.111-0.116 0.212-0.225 0.304-0.325-0.092-0.1-0.194-0.209-0.304-0.325zM28.284 16.954c-0.179 0.226-0.505 0.605-0.964 1.085-0.759 0.795-1.621 1.589-2.572 2.332-2.761 2.156-5.709 3.462-8.747 3.462s-5.986-1.306-8.747-3.462c-0.951-0.743-1.813-1.537-2.572-2.332-0.459-0.481-0.785-0.859-0.964-1.085-0.288-0.364-0.288-0.878 0-1.242 0.179-0.226 0.505-0.605 0.964-1.085 0.759-0.795 1.621-1.589 2.572-2.332 2.761-2.156 5.709-3.462 8.747-3.462s5.986 1.306 8.747 3.462c0.951 0.743 1.813 1.537 2.572 2.332 0.459 0.481 0.785 0.859 0.964 1.085 0.288 0.364 0.288 0.878 0 1.242zM19 16.333c0-1.657-1.343-3-3-3s-3 1.343-3 3c0 1.657 1.343 3 3 3s3-1.343 3-3zM21 16.333c0 2.762-2.238 5-5 5s-5-2.238-5-5c0-2.762 2.238-5 5-5s5 2.238 5 5zM16 15.333c-0.552 0-1-0.448-1-1s0.448-1 1-1c1.656 0 3 1.344 3 3s-1.344 3-3 3c-1.656 0-3-1.344-3-3 0-0.552 0.448-1 1-1s1 0.448 1 1c0 0.552 0.448 1 1 1s1-0.448 1-1c0-0.552-0.448-1-1-1z"></path>
</svg>
