<!-- Generated by IcoMoon.io -->
<svg version="1.1" xmlns="http://www.w3.org/2000/svg" width="32" height="32" viewBox="0 0 32 32" aria-labelledby="tools">
<path d="M22.425 0.146l9.302 7.893c0.26 0.22 0.293 0.61 0.073 0.87l-3.934 4.665c-0.106 0.126-0.256 0.204-0.418 0.216-0.017 0.002-0.034 0.002-0.052 0.002-0.144 0-0.286-0.051-0.398-0.146l-3.185-2.703-5.453 6.467 3.691 3.704c1.99-0.674 4.181-0.172 5.682 1.336 1.602 1.607 2.066 4 1.183 6.095-0.080 0.189-0.249 0.326-0.449 0.365s-0.407-0.025-0.553-0.169l-2.176-2.181h-1.74v1.746l2.177 2.183c0.145 0.144 0.208 0.353 0.169 0.554s-0.176 0.37-0.364 0.451c-0.704 0.298-1.441 0.443-2.171 0.443-1.438 0-2.846-0.564-3.906-1.63-1.503-1.506-2.004-3.704-1.332-5.7l-3.401-3.413-6.975 8.275c-0.122 0.144-0.295 0.219-0.47 0.219-0.14 0-0.282-0.047-0.398-0.146l-3.322-2.819c-0.126-0.106-0.203-0.257-0.217-0.42s0.038-0.326 0.144-0.451l7.271-8.625-3.901-3.902c-1.998 0.679-4.19 0.185-5.682-1.315-1.594-1.599-2.058-3.973-1.183-6.049 0.081-0.19 0.251-0.328 0.455-0.367 0.201-0.037 0.411 0.030 0.555 0.179l2.175 2.267h1.915v-1.922l-2.258-2.181c-0.149-0.144-0.215-0.353-0.178-0.557 0.038-0.205 0.175-0.375 0.366-0.457 2.084-0.884 4.375-0.427 5.985 1.188 1.503 1.505 2.004 3.702 1.332 5.699l3.616 3.627 5.152-6.109-5.176-4.392c-0.26-0.22-0.293-0.61-0.073-0.87l1.124-1.333c0.105-0.125 0.256-0.202 0.418-0.216 0.156-0.021 0.324 0.038 0.449 0.144 0.752 0.639 1.722 0.943 2.72 0.861 1.003-0.084 1.908-0.547 2.545-1.302 0.218-0.259 0.608-0.294 0.866-0.073zM17.563 18.356l-1.595 1.892 3.755 3.768c0.177 0.179 0.229 0.446 0.132 0.678-0.688 1.631-0.327 3.491 0.918 4.741 1.014 1.017 2.431 1.446 3.806 1.198l-1.63-1.633c-0.116-0.116-0.181-0.273-0.181-0.437v-2.619c0-0.342 0.276-0.617 0.615-0.617h2.61c0.164 0 0.32 0.064 0.436 0.18l1.63 1.633c0.247-1.374-0.18-2.798-1.195-3.816-1.246-1.251-3.1-1.612-4.726-0.921-0.23 0.099-0.497 0.046-0.674-0.132l-3.9-3.914zM20.492 8.126l-15.223 18.053 2.383 2.022 6.646-7.883-0.057-0.057 0.685-0.688 7.949-9.425-2.383-2.022zM4.891 3.781l1.689 1.631c0.121 0.116 0.188 0.277 0.188 0.444v2.802c0 0.341-0.274 0.617-0.615 0.617h-2.793c-0.167 0-0.327-0.068-0.444-0.189l-1.623-1.693c-0.229 1.348 0.198 2.742 1.198 3.744 1.234 1.241 3.090 1.594 4.726 0.901 0.231-0.099 0.496-0.046 0.674 0.131l4.11 4.11 1.601-1.897-3.97-3.982c-0.178-0.179-0.23-0.446-0.132-0.678 0.688-1.631 0.327-3.491-0.919-4.739-1.007-1.011-2.357-1.437-3.69-1.204zM22.071 1.463c-0.805 0.742-1.834 1.194-2.955 1.289-1.121 0.090-2.209-0.181-3.122-0.78l-0.354 0.42 11.685 9.915 3.14-3.723-8.393-7.12z"></path>
</svg>
