<!-- Generated by IcoMoon.io -->
<svg version="1.1" xmlns="http://www.w3.org/2000/svg" width="37" height="32" viewBox="0 0 37 32" aria-labelledby="transition-from">
<path d="M34.909 0c0.918 0 1.662 0.744 1.662 1.662s-0.744 1.662-1.662 1.662h-17.902c-3.317 0-6.010 2.693-6.010 6.010l-0.001 17.353 5.089-3.392c0.764-0.509 1.796-0.303 2.305 0.461s0.303 1.796-0.461 2.305l-7.71 5.14c-0.039 0.025-0.079 0.047-0.12 0.069l0.158-0.094c-0.066 0.044-0.135 0.083-0.205 0.117-0.119 0.057-0.246 0.101-0.38 0.128-0.029 0.006-0.058 0.011-0.087 0.015-0.031 0.005-0.062 0.009-0.094 0.012-0.035 0.003-0.070 0.005-0.105 0.006-0.016 0.001-0.034 0.001-0.051 0.001l-0.052-0.001c-0.034-0.001-0.068-0.003-0.102-0.006l0.155 0.007c-0.086 0-0.17-0.007-0.253-0.019-0.027-0.004-0.055-0.009-0.082-0.015-0.134-0.027-0.262-0.071-0.383-0.128-0.014-0.007-0.030-0.015-0.045-0.023-0.042-0.022-0.082-0.045-0.121-0.069-0.012-0.008-0.025-0.016-0.038-0.025l-7.672-5.115c-0.764-0.509-0.97-1.541-0.461-2.305s1.541-0.97 2.305-0.461l5.088 3.392 0-17.353c0-5.153 4.181-9.335 9.335-9.335h17.902z"></path>
</svg>
