<!-- Generated by IcoMoon.io -->
<svg version="1.1" xmlns="http://www.w3.org/2000/svg" width="32" height="32" viewBox="0 0 32 32" aria-labelledby="upload">
<path d="M30.634 22.934c-0.4 0-0.666 0.266-0.666 0.666v2.534c0 1.734-1.466 3.2-3.2 3.2h-21.603c-1.734 0-3.2-1.466-3.2-3.2v-2.534c0-0.4-0.266-0.666-0.666-0.666s-0.666 0.266-0.666 0.666v2.534c0 2.534 2 4.534 4.534 4.534h21.734c2.534 0 4.534-2 4.534-4.534v-2.534c-0.137-0.4-0.403-0.666-0.803-0.666v0zM15.566 0.234v0c0.134 0 0.134-0.134 0.266-0.134 0.134-0.134 0.4-0.134 0.534 0 0.134 0 0.134 0.134 0.266 0.134v0l9.334 9.334c0.266 0.266 0.266 0.666 0 0.934-0.266 0.266-0.666 0.266-0.934 0l-8.131-8.137v21.2c0 0.4-0.266 0.666-0.666 0.666s-0.666-0.266-0.666-0.666v-21.2l-8.403 8.134c-0.266 0.266-0.666 0.266-0.934 0-0.266-0.266-0.266-0.666 0-0.934l9.334-9.331z"></path>
</svg>
