<svg width="18" height="19" viewBox="0 0 18 19" xmlns="http://www.w3.org/2000/svg" aria-labelledby="user-remove">
<path d="M7.5 0.5C9.75 0.5 11.625 2.675 11.625 5.375C11.625 7.1 10.875 8.59999 9.74998 9.42499V11.375H8.99997V9.87499C8.54997 10.1 8.02497 10.25 7.49998 10.25C6.97499 10.25 6.44998 10.175 5.99998 9.94997V11.375C5.99998 11.525 5.92498 11.675 5.77498 11.675L2.02498 13.025C1.275 13.325 0.749989 14 0.749989 14.825V16.25H9.375V17H0.374995C0.149994 17 0 16.85 0 16.625V14.825C0 13.7 0.675001 12.725 1.725 12.425L5.24999 11.15V9.50001C4.12499 8.60001 3.37499 7.09999 3.37499 5.375C3.37499 2.675 5.17499 0.5 7.5 0.5ZM10.8 4.62501C10.5 2.67501 9.15001 1.25001 7.5 1.25001C5.925 1.25001 4.575 2.60001 4.20001 4.40001C4.5 4.55 4.87501 4.62501 5.25 4.62501C6.22501 4.62501 7.425 4.02501 7.72501 3.35001C7.875 3.12501 8.25001 3.12501 8.40001 3.35001C9 4.47501 9.675 4.85001 10.8 4.62501ZM4.12501 5.375V5.22501C4.5 5.30001 4.87501 5.375 5.25001 5.375C6.22502 5.375 7.425 4.925 8.02502 4.25C8.77502 5.22501 9.67502 5.6 10.875 5.45001C10.875 7.77501 9.37502 9.57502 7.50001 9.57502C5.625 9.50001 4.12501 7.69999 4.12501 5.375ZM13.7636 18.5C16.0617 18.5 17.9251 16.6369 17.9251 14.3386C17.9251 12.0402 16.0617 10.1771 13.7636 10.1771C11.4649 10.1771 9.60219 12.0399 9.60219 14.3386C9.60219 16.6372 11.4649 18.5 13.7636 18.5ZM13.7636 10.9792C15.6188 10.9792 17.123 12.4833 17.123 14.3385C17.123 16.1938 15.6187 17.6979 13.7636 17.6979C11.9078 17.6979 10.4043 16.1943 10.4043 14.3385C10.4043 12.4828 11.9079 10.9792 13.7636 10.9792ZM16.1937 14.3386C16.1937 14.5558 16.0176 14.7319 15.8004 14.7319H11.7269C11.5096 14.7319 11.3335 14.5558 11.3335 14.3386C11.3335 14.1213 11.5096 13.9453 11.7269 13.9453L15.8004 13.9453C16.0176 13.9453 16.1937 14.1213 16.1937 14.3386Z"/>
</svg>
