<!-- Generated by IcoMoon.io -->
<svg version="1.1" xmlns="http://www.w3.org/2000/svg" width="34" height="32" viewBox="0 0 34 32" aria-labelledby="view-type-table">
<path d="M0.906 8.702c-0.501 0-0.906-0.402-0.906-0.898v-6.906c0-0.496 0.406-0.898 0.906-0.898h32.070c0.501 0 0.906 0.402 0.906 0.898v6.906c0 0.496-0.406 0.898-0.906 0.898h-32.070zM1.813 6.906h30.257v-5.111h-30.257v5.111zM0.906 19.752c-0.501 0-0.906-0.402-0.906-0.898v-6.906c0-0.496 0.406-0.898 0.906-0.898h32.070c0.501 0 0.906 0.402 0.906 0.898v6.906c0 0.496-0.406 0.898-0.906 0.898h-32.070zM1.813 12.846v5.111h30.257v-5.111h-30.257zM0.906 30.802c-0.501 0-0.906-0.402-0.906-0.898v-6.906c0-0.496 0.406-0.898 0.906-0.898h32.070c0.501 0 0.906 0.402 0.906 0.898v6.906c0 0.496-0.406 0.898-0.906 0.898h-32.070zM1.813 29.006h30.257v-5.111h-30.257v5.111z"></path>
</svg>
