<!-- Generated by IcoMoon.io -->
<svg version="1.1" xmlns="http://www.w3.org/2000/svg" width="34" height="32" viewBox="0 0 34 32" aria-labelledby="view-type-list">
<path d="M11.417 9.546v-8.605h21.524v8.605h-21.524zM13.299 7.664h17.76v-4.84h-17.76v4.84zM11.417 20.303v-8.605h21.524v8.605h-21.524zM13.299 18.42h17.76v-4.84h-17.76v4.84zM11.417 31.059v-8.605h21.524v8.605h-21.524zM13.299 29.176h17.76v-4.84h-17.76v4.84zM0.941 9.546v-8.605h8.43v8.605h-8.43zM2.824 7.664h4.665v-4.84h-4.665v4.84zM0.941 20.303v-8.605h8.43v8.605h-8.43zM2.824 18.42h4.665v-4.84h-4.665v4.84zM0.941 31.059v-8.605h8.43v8.605h-8.43zM2.824 29.176h4.665v-4.84h-4.665v4.84z"></path>
</svg>
