<svg version="1.1" xmlns="http://www.w3.org/2000/svg" width="18" height="18" viewBox="0 0 18 18" aria-labelledby="workflow">
<path d="M12.9861316,0.142785444 C13.176501,-0.0475839495 13.4851468,-0.0475967872 13.675532,0.142756769 L13.675532,0.142756769 L17.8369936,4.303526 C18.0274124,4.49391315 18.0274124,4.80262531 17.8369936,4.99301246 L17.8369936,4.99301246 L13.843,8.985 L13.8438326,10.8636074 C15.4344443,11.1019852 16.6674067,12.4323148 16.7557876,14.0671628 L16.7608615,14.2553538 C16.7608615,16.1501311 15.2258311,17.6851615 13.3310538,17.6851615 C11.6109126,17.6851615 10.1866315,16.4192383 9.93927141,14.7678924 L6.859,14.767 L6.85996154,17.1980077 C6.85996154,17.4373311 6.68750826,17.6363759 6.46009028,17.6776534 L6.37246154,17.6855077 L0.487846154,17.6855077 C0.218607338,17.6855077 0.000346153846,17.4672465 0.000346153846,17.1980077 L0.000346153846,17.1980077 L0.000346153846,11.3133923 C0.000346153846,11.0441535 0.218607338,10.8258923 0.487846154,10.8258923 L0.487846154,10.8258923 L2.942,10.825 L2.9420037,8.04364524 C1.33966792,7.8154472 0.0939426821,6.47962949 0.0050754698,4.83643958 L1.33226763e-15,4.64826923 C1.33226763e-15,2.75418426 1.53572272,1.21846154 3.42980769,1.21846154 C5.15871938,1.21846154 6.58840943,2.49719773 6.82519355,4.16041688 L8.968,4.16 Z M13.3310538,11.8005462 C11.9754465,11.8005462 10.8762462,12.8997465 10.8762462,14.2553538 C10.8762462,15.6113967 11.9751896,16.7101615 13.3310538,16.7101615 C14.6873535,16.7101615 15.7858615,15.6116535 15.7858615,14.2553538 C15.7858615,12.8994896 14.6870967,11.8005462 13.3310538,11.8005462 Z M5.88484615,11.8001538 L0.975346154,11.8001538 L0.975346154,16.7104038 L5.88484615,16.7104038 L5.88484615,11.8001538 Z M8.993,5.16 L6.82155988,5.16099124 C6.59919886,6.64480991 5.42653904,7.81762235 3.94258648,8.04001567 L3.942,10.825 L6.37246154,10.8258923 C6.61178493,10.8258923 6.8108297,10.9983456 6.85210726,11.2257636 L6.85996154,11.3133923 L6.859,13.767 L9.93576673,13.7669261 C10.1501641,12.2634751 11.339712,11.0741055 12.8432499,10.8599778 L12.843,9.01 L8.993,5.16 Z M13.3308462,1.17640385 L9.85909615,4.64815385 L13.3308462,8.11990385 L16.8025962,4.64815385 L13.3308462,1.17640385 Z M3.42980769,2.19346154 C2.07420035,2.19346154 0.975,3.29266189 0.975,4.64826923 C0.975,6.00387657 2.07420035,7.10307692 3.42980769,7.10307692 C4.7858505,7.10307692 5.88461538,6.00413344 5.88461538,4.64826923 C5.88461538,3.29240502 4.7858505,2.19346154 3.42980769,2.19346154 Z"></path>
</svg>
