<!-- Generated by IcoMoon.io -->
<svg version="1.1" xmlns="http://www.w3.org/2000/svg" width="35" height="32" viewBox="0 0 35 32" aria-labelledby="wrap">
<path d="M18.526 13.474v-5.053l8.421 6.737-8.421 6.737v-5.053h-18.526v-3.368zM8.441 27.688l2.301-2.46c0.726 0.679 1.53 1.272 2.394 1.763l-1.665 2.928c-1.094-0.622-2.112-1.371-3.031-2.231zM14.996 31.395l0.919-3.241c0.95 0.269 1.933 0.427 2.935 0.467l-0.136 3.366c-1.268-0.051-2.514-0.251-3.718-0.592zM22.451 31.703l-0.646-3.306c0.978-0.191 1.926-0.497 2.826-0.91l1.405 3.061c-1.142 0.524-2.344 0.912-3.585 1.155zM29.272 28.568l-2.086-2.644c0.781-0.616 1.487-1.322 2.104-2.103l2.644 2.087c-0.78 0.988-1.673 1.881-2.661 2.66zM33.98 22.529l-3.075-1.376c0.405-0.904 0.701-1.854 0.883-2.835l3.312 0.614c-0.231 1.244-0.607 2.45-1.121 3.597zM35.353 15.287l-3.365 0.148c-0.044-1.002-0.205-1.984-0.478-2.933l3.237-0.931c0.346 1.203 0.55 2.448 0.606 3.716zM33.247 8.034l-2.92 1.679c-0.496-0.862-1.092-1.663-1.775-2.386l2.449-2.313c0.864 0.915 1.619 1.929 2.246 3.020zM28.070 2.571l-1.834 2.825c-0.833-0.541-1.727-0.982-2.665-1.313l1.12-3.177c1.19 0.42 2.323 0.979 3.379 1.664zM21.068 0.089l-0.354 3.35c-0.436-0.046-0.877-0.070-1.318-0.071-0.58-0-1.131 0.035-1.677 0.107l-0.435-3.34c0.692-0.090 1.388-0.135 2.115-0.135 0.56 0.001 1.117 0.031 1.669 0.089zM13.61 1.068l1.213 3.143c-0.928 0.358-1.809 0.825-2.626 1.39l-1.915-2.771c1.035-0.716 2.152-1.307 3.329-1.761z"></path>
</svg>
