<!-- Generated by IcoMoon.io -->
<svg version="1.1" xmlns="http://www.w3.org/2000/svg" width="22" height="32" viewBox="0 0 22 32" aria-label="copy">
<path d="M21.44 9.12c0-0.16-0.16-0.16-0.16-0.32l-7.040-7.2c0 0-0.16-0.16-0.32-0.16s-0.16 0-0.32 0h-9.12c-0.48 0-0.8 0.32-0.8 0.8v2.88h-2.72c-0.48 0-0.8 0.32-0.8 0.8v24.16c0 0.48 0.32 0.8 0.8 0.8h16.32c0.48 0 0.8-0.32 0.8-0.8v-2.88h2.72c0.48 0 0.8-0.32 0.8-0.8v-16.96c0-0.16-0.16-0.16-0.16-0.32zM14.56 4.16l4.32 4.48h-4.32v-4.48zM16.48 29.12h-14.72v-22.56h1.92v19.68c0 0.48 0.32 0.8 0.8 0.8h12v2.080zM5.28 25.6v-22.56h7.84v6.4c0 0.48 0.32 0.8 0.8 0.8h6.24v15.36h-14.88z"></path>
</svg>
