<!-- Generated by IcoMoon.io -->
<svg version="1.1" xmlns="http://www.w3.org/2000/svg" width="32" height="32" viewBox="0 0 32 32" aria-label="customers">
<path d="M13.058 26.347l-2.638-0.812v-0.812c1.116-0.913 1.927-2.333 1.927-3.956 0-2.739-2.029-4.869-4.565-4.869s-4.565 2.232-4.565 4.869c0 1.623 0.71 3.043 1.927 3.956v0.812l-2.638 0.812c-1.014 0.304-1.724 1.319-1.724 2.333v0.609c0 0.406 0.304 0.812 0.812 0.812h12.68c0.406 0 0.812-0.304 0.812-0.812v-0.609c-0.203-1.014-1.014-2.029-2.029-2.333zM4.74 21.072c1.116 0.304 2.435 0.101 3.55-0.609 0.71 0.609 1.623 0.812 2.435 0.71-0.203 1.724-1.42 2.942-3.043 2.942-1.522 0.101-2.84-1.319-2.942-3.043zM7.783 17.42c1.319 0 2.435 0.913 2.84 2.333-0.507 0.101-1.319-0.101-1.522-0.609-0.203-0.406-0.812-0.507-1.217-0.203-0.812 0.812-2.029 1.014-2.942 0.71 0.406-1.42 1.522-2.232 2.84-2.232zM7.073 28.579v0h-4.971c0.101-0.304 0.304-0.71 0.609-0.71l3.246-0.913c0.304-0.101 0.507-0.406 0.507-0.71v-0.609c0.406 0.101 0.71 0.203 1.116 0.203s0.812-0.101 1.116-0.203v0.507c0 0.304 0.203 0.609 0.507 0.71l3.246 0.913c0.304 0.101 0.609 0.406 0.609 0.71h-5.985zM29.593 26.347l-2.637-0.812v-0.812c1.116-0.913 1.927-2.333 1.927-3.956 0-2.739-2.029-4.869-4.565-4.869s-4.565 2.232-4.565 4.869c0 1.623 0.71 3.043 1.927 3.956v0.812l-2.637 0.812c-1.014 0.304-1.724 1.319-1.724 2.333v0.609c0 0.406 0.304 0.812 0.812 0.812h12.68c0.406 0 0.812-0.304 0.812-0.812v-0.609c-0.304-1.014-1.014-2.029-2.029-2.333zM21.173 21.072c1.116 0.304 2.435 0.101 3.55-0.609 0.71 0.609 1.623 0.913 2.536 0.71-0.203 1.724-1.42 2.942-3.043 2.942-1.522 0.101-2.84-1.319-3.043-3.043zM24.217 17.42c1.319 0 2.435 0.913 2.84 2.232-0.507 0.101-1.217-0.101-1.522-0.609-0.203-0.406-0.812-0.507-1.217-0.203-0.812 0.812-2.029 1.014-2.942 0.71 0.507-1.319 1.623-2.13 2.84-2.13zM23.608 28.579v0h-4.971c0.101-0.304 0.304-0.71 0.609-0.71l3.246-0.913c0.304-0.101 0.507-0.406 0.507-0.71v-0.609c0.406 0.101 0.71 0.203 1.116 0.203s0.812-0.101 1.116-0.203v0.507c0 0.304 0.203 0.609 0.507 0.71l3.246 0.913c0.304 0.101 0.609 0.406 0.609 0.71h-5.985zM23.101 14.377v-0.609c0-1.014-0.812-2.029-1.724-2.333l-2.637-0.812v-0.812c1.116-0.913 1.826-2.333 1.826-3.956 0-2.739-2.029-4.869-4.565-4.869s-4.565 2.232-4.565 4.869c0 1.623 0.71 3.043 1.927 3.956v0.812l-2.638 0.812c-1.014 0.304-1.724 1.319-1.724 2.333v0.609c0 0.406 0.304 0.812 0.812 0.812h12.579c0.406-0.101 0.71-0.406 0.71-0.812zM12.957 6.059c1.116 0.304 2.435 0.101 3.55-0.609 0.71 0.609 1.623 0.812 2.536 0.71-0.203 1.724-1.42 3.043-3.043 3.043s-2.84-1.319-3.043-3.145zM16 2.407c1.319 0 2.435 0.913 2.84 2.232-0.507 0.101-1.217-0.101-1.522-0.609-0.203-0.406-0.812-0.507-1.217-0.203-0.812 0.812-2.029 1.014-2.942 0.71 0.507-1.217 1.522-2.13 2.84-2.13zM16.609 13.565h-6.188c0.101-0.304 0.304-0.71 0.609-0.71l3.246-0.913c0.304-0.101 0.507-0.406 0.507-0.71v-0.71c0.406 0.101 0.71 0.203 1.116 0.203s0.812-0.101 1.116-0.203v0.609c0 0.304 0.203 0.609 0.507 0.71l3.246 0.913c0.304 0.101 0.609 0.406 0.609 0.71h-4.768z"></path>
</svg>
