<!-- Generated by IcoMoon.io -->
<svg version="1.1" xmlns="http://www.w3.org/2000/svg" width="32" height="32" viewBox="0 0 32 32" aria-label="dashboard">
<path d="M16.014 0c-8.827 0-16.014 7.188-16.014 16.014 0 4.801 2.128 9.287 5.836 12.363 0 0 0.029 0.029 0.029 0.029s0.029 0.029 0.029 0.029c0 0 0.029 0 0.029 0.029 0.029 0.029 0.058 0.029 0.086 0.029s0.058 0.029 0.086 0.029c0.029 0 0.058 0.029 0.086 0.029s0.058 0 0.086 0.029c0.029 0 0.058 0 0.086 0s0.058 0 0.086 0c0.029 0 0.058 0 0.086 0s0.058 0 0.086-0.029c0.029 0 0.058-0.029 0.086-0.029s0.058-0.029 0.086-0.029c0.029 0 0.058-0.029 0.086-0.029 0.029-0.029 0.058-0.029 0.086-0.058s0.029-0.029 0.058-0.058 0.058-0.029 0.058-0.058c0 0 0.029-0.029 0.029-0.029s0.029-0.029 0.029-0.029c0 0 0.029-0.029 0.029-0.029 1.639-2.53 5.463-4.428 8.913-4.428 3.479-0.029 7.217 1.811 8.798 4.37 0.172 0.259 0.431 0.403 0.748 0.403 0 0 0 0 0.029 0 0 0 0 0 0 0 0.201 0 0.374-0.058 0.546-0.201 3.709-3.048 5.836-7.562 5.836-12.363 0-8.798-7.188-15.986-16.014-15.986zM25.761 26.451c-2.099-2.645-5.951-4.428-9.747-4.428-3.68 0-7.619 1.811-9.775 4.428-2.875-2.703-4.514-6.469-4.514-10.437 0-7.878 6.411-14.289 14.289-14.289s14.289 6.412 14.289 14.289c0 3.968-1.639 7.734-4.543 10.437zM22.023 28.981c-1.869 0.863-3.853 1.294-5.923 1.294-2.128 0-4.169-0.46-6.066-1.351-0.431-0.201-0.949-0.029-1.15 0.403s-0.029 0.949 0.403 1.15c2.128 1.006 4.428 1.495 6.785 1.495 2.329 0 4.571-0.489 6.642-1.438 0.431-0.201 0.633-0.719 0.431-1.15-0.172-0.403-0.69-0.604-1.121-0.403zM21.592 11.903l-4.284 3.076c-0.374-0.23-0.834-0.374-1.294-0.374-1.409 0-2.53 1.15-2.53 2.53s1.15 2.53 2.53 2.53 2.53-1.15 2.53-2.53c0-0.288-0.058-0.575-0.144-0.834l4.198-3.019c0.374-0.287 0.46-0.805 0.201-1.208-0.288-0.374-0.834-0.46-1.208-0.172zM16.014 17.969c-0.46 0-0.805-0.374-0.805-0.805 0-0.46 0.374-0.805 0.805-0.805s0.805 0.374 0.805 0.805c0 0.46-0.345 0.805-0.805 0.805zM6.44 18.113c-0.144-0.69-0.23-1.409-0.23-2.099 0-1.006 0.144-2.013 0.46-2.961 0.144-0.431-0.086-0.891-0.518-1.035s-0.891 0.086-1.035 0.518c-0.345 1.121-0.546 2.3-0.546 3.45 0 0.834 0.086 1.639 0.259 2.444 0.115 0.489 0.23 0.949 0.403 1.438 0.115 0.345 0.431 0.546 0.776 0.546 0.086 0 0.173-0.029 0.287-0.058 0.431-0.144 0.633-0.633 0.489-1.035-0.144-0.374-0.259-0.805-0.345-1.208zM13.944 6.44c0.431-0.086 0.69-0.518 0.604-0.978-0.086-0.431-0.546-0.719-0.978-0.633-2.473 0.546-4.658 1.84-6.296 3.795-0.287 0.345-0.259 0.863 0.086 1.15 0.144 0.115 0.345 0.201 0.518 0.201 0.23 0 0.46-0.086 0.633-0.287 1.409-1.668 3.278-2.789 5.405-3.249h0.029zM18.056 4.773c-0.431-0.086-0.863 0.201-0.949 0.661s0.201 0.863 0.661 0.949c2.099 0.374 4.054 1.466 5.491 3.048 0.172 0.172 0.374 0.259 0.604 0.259 0.201 0 0.403-0.057 0.546-0.201 0.345-0.316 0.345-0.834 0.058-1.15-1.668-1.84-3.939-3.134-6.412-3.565zM27.17 13.571c-0.115-0.489-0.23-0.949-0.403-1.409-0.144-0.431-0.633-0.633-1.035-0.489-0.431 0.144-0.633 0.633-0.489 1.035s0.259 0.805 0.345 1.208c0.144 0.69 0.23 1.409 0.23 2.099 0 1.006-0.144 2.013-0.46 2.99-0.144 0.431 0.086 0.891 0.518 1.035 0.086 0.029 0.172 0.029 0.259 0.029 0.345 0 0.661-0.23 0.776-0.575 0.374-1.121 0.546-2.3 0.546-3.479-0.029-0.805-0.115-1.639-0.288-2.444z"></path>
</svg>
