<!-- Generated by IcoMoon.io -->
<svg version="1.1" xmlns="http://www.w3.org/2000/svg" width="32" height="32" viewBox="0 0 32 32" 
aria-label="data-connector-write">
<path d="M30.56 6.387c-0.311-3.754-6.757-6.387-14.553-6.387-7.819 0-14.279 2.648-14.556 6.42l-0.011 0.253v18.655l0.007 0.22c0.242 3.789 6.716 6.453 14.558 6.453 7.797 0 14.242-2.633 14.553-6.387h-1.879c-0.417 2.331-5.887 4.522-12.674 4.522-7.063 0-12.7-2.373-12.7-4.807l-0-3.099c2.506 2.040 7.276 3.314 12.7 3.314-0.172 0.003 0.173 0 0 0v-1.865c-0.172 0.003 0.174 0 0 0-7.063 0-12.7-2.373-12.7-4.807l-0-3.099c2.506 2.040 7.276 3.314 12.7 3.314-0.172 0.003 0.173 0 0 0v-1.865c-0.172 0.003 0.174 0 0 0-7.063 0-12.7-2.373-12.7-4.807l-0.001-2.383c2.505 2.041 7.276 3.316 12.702 3.316-0.517 0.004 0.173 0 0 0v-1.865c-0.171 0.003 0.173 0 0 0-7.063 0-12.7-2.373-12.7-4.807s5.636-4.807 12.7-4.807c6.775 0 12.239 2.184 12.671 4.522h1.883z"></path>
<path d="M17.339 14.988h9.344l-3.113-3.113 1.432-1.432 5.558 5.558-5.558 5.558-1.432-1.432 3.113-3.113h-9.344v-2.025z"></path>
</svg>
