<!-- Generated by IcoMoon.io -->
<svg version="1.1" xmlns="http://www.w3.org/2000/svg" width="42" height="32" viewBox="0 0 42 32" aria-label="deployment-deployed">
<path d="M32.505 7.724c-2.195-4.093-6.466-6.724-11.215-6.724-6.387 0-11.709 4.719-12.598 10.913-4.101-0.234-7.692 3.026-7.692 7.279 0 3.206 1.5 5.327 3.936 6.451 1.39 0.641 2.769 0.849 3.777 0.841l5.019-0v-2h-5.022c-0.206 0.002-0.537-0.018-0.957-0.082-0.681-0.102-1.357-0.289-1.978-0.575-1.758-0.811-2.774-2.248-2.774-4.635 0-3.359 3.086-5.864 6.378-5.176l1.134 0.237 0.069-1.156c0.335-5.656 5.021-10.096 10.709-10.096 4.186 0 7.931 2.425 9.697 6.153l0.282 0.595 0.658-0.024c4.205-0.153 7.653 3.203 7.653 7.372 0 2.872-1.222 4.83-3.302 6.121-0.743 0.461-1.546 0.802-2.35 1.038-0.477 0.14-0.84 0.213-1.027 0.237l-4.072-0.008v2h4.202c0.414-0.046 0.877-0.138 1.461-0.31 0.966-0.284 1.932-0.694 2.841-1.258 2.638-1.638 4.247-4.214 4.247-7.82 0-5.081-4.033-9.214-9.075-9.373zM20.9 12.509v19.29h2.2v-19.29zM26.483 18.547l1.556-1.556-6.039-6.039-6.039 6.039 1.556 1.556 4.483-4.483z"></path>
</svg>
