<!-- Generated by IcoMoon.io -->
<svg version="1.1" xmlns="http://www.w3.org/2000/svg" width="32" height="32" viewBox="0 0 32 32" aria-label="domain">
<path d="M29.046 25.34c1.154 0 2.099-0.945 2.099-2.099v-2.624c0-0.42-0.315-0.84-0.84-0.84h-0.525v-16.897c0-1.574-1.259-2.729-2.729-2.729h-22.249c-1.574 0-2.834 1.154-2.834 2.729v16.897h-0.525c-0.42 0-0.84 0.315-0.84 0.84v2.624c0 1.154 0.945 2.099 2.099 2.099h11.964v3.568h-13.119c-0.42 0-0.84 0.315-0.84 0.84s0.315 0.84 0.84 0.84h13.643c0.105 0.105 0.21 0.105 0.42 0.105s0.315-0.105 0.42-0.105h14.378c0.42 0 0.84-0.315 0.84-0.84s-0.315-0.84-0.84-0.84h-14.063v-3.568h12.699zM3.544 2.881c0-0.63 0.525-1.154 1.154-1.154h22.354c0.63 0 1.154 0.525 1.154 1.154v16.897h-24.663v-16.897zM2.285 23.241v-1.889h10.18v0.525c0 0.42 0.315 0.84 0.84 0.84h5.247c0.42 0 0.84-0.315 0.84-0.84v-0.525h10.18v1.889c0 0.315-0.21 0.525-0.525 0.525h-26.237c-0.315 0-0.525-0.21-0.525-0.525zM27.157 17.994v-14.483c0-0.42-0.315-0.84-0.84-0.84h-20.99c-0.315 0.105-0.735 0.42-0.735 0.84v14.483c0 0.42 0.315 0.84 0.84 0.84h20.99c0.42-0.105 0.735-0.42 0.735-0.84zM25.583 17.154h-19.415v-12.804h19.415v12.804zM11.94 16.105h7.871c0.42 0 0.84-0.315 0.84-0.84v-5.247c0-0.42-0.315-0.84-0.84-0.84h-0.525v-0.42c0-1.889-1.574-3.358-3.358-3.358s-3.358 1.574-3.358 3.358v0.525h-0.525c-0.42 0-0.84 0.315-0.84 0.84v5.247c0 0.42 0.315 0.735 0.735 0.735zM19.076 14.531h-6.297v-3.673h6.297v3.673zM14.039 8.759c0-1.049 0.84-1.889 1.889-1.889s1.889 0.84 1.889 1.889v0.525h-3.673v-0.525z"></path>
</svg>
