<!-- Generated by IcoMoon.io -->
<svg version="1.1" xmlns="http://www.w3.org/2000/svg" width="32" height="32" viewBox="0 0 32 32" aria-label="edit">
<path d="M2.123 30.11l1.012 1.012 1.916-8.166-0.224 0.403 19.704-19.708c0.658-0.658 1.726-0.658 2.382-0l2.682 2.68c0.656 0.658 0.656 1.724-0.001 2.383l-19.707 19.704 0.403-0.224-8.168 1.916zM10.909 29.779l19.877-19.875c1.314-1.317 1.314-3.447 0.001-4.764l-2.683-2.68c-1.313-1.315-3.447-1.315-4.764-0l-19.874 19.878-2.281 9.722 9.724-2.281zM23.639 3.352l-1.191 1.191 6.256 6.256 1.191-1.191zM21.854 5.142l-1.194 1.188 6.24 6.272 1.194-1.188zM5.144 21.849l-1.191 1.191 6.253 6.253 1.191-1.191z"></path>
</svg>
