<!-- Generated by IcoMoon.io -->
<svg version="1.1" xmlns="http://www.w3.org/2000/svg" width="32" height="32" viewBox="0 0 32 32" aria-label="event-error">
<path d="M27.567 16c0-6.388-5.179-11.567-11.567-11.567-6.39 0-11.567 5.177-11.567 11.567s5.177 11.567 11.567 11.567c6.387 0 11.567-5.179 11.567-11.567zM31.619 16c0 8.626-6.994 15.619-15.619 15.619-8.628 0-15.619-6.992-15.619-15.619s6.991-15.619 15.619-15.619c8.625 0 15.619 6.993 15.619 15.619zM9.965 11.397l10.638 10.638c0.396 0.396 1.037 0.396 1.433 0s0.396-1.037 0-1.433l-10.638-10.638c-0.396-0.396-1.037-0.396-1.433 0s-0.396 1.037 0 1.433zM20.603 9.965l-10.638 10.638c-0.396 0.396-0.396 1.037 0 1.433s1.037 0.396 1.433 0l10.638-10.638c0.396-0.396 0.396-1.037 0-1.433s-1.037-0.396-1.433 0z"></path>
</svg>
