<!-- Generated by IcoMoon.io -->
<svg xmlns="http://www.w3.org/2000/svg" width="32" height="32" viewBox="0 0 32 32" aria-label="external-link">
<path d="M31.644 15.822c0-0.267-0.107-0.516-0.284-0.711-0.183-0.173-0.43-0.28-0.702-0.28s-0.52 0.107-0.703 0.28l0-0c-0.186 0.18-0.301 0.432-0.302 0.711v12.48c0 0.356-0.142 0.693-0.391 0.96-0.249 0.249-0.587 0.391-0.96 0.391h-24.96c-0.373-0.003-0.711-0.152-0.96-0.392l0 0c-0.242-0.243-0.391-0.577-0.391-0.947 0-0.005 0-0.009 0-0.014v0.001-24.96c0-0.356 0.142-0.693 0.391-0.96 0.249-0.249 0.587-0.391 0.96-0.391h12.48c0.267 0 0.516-0.107 0.711-0.284s0.284-0.444 0.284-0.693-0.107-0.516-0.284-0.711c-0.173-0.176-0.413-0.285-0.679-0.285-0.011 0-0.023 0-0.034 0.001l0.002-0h-12.48c-0.889 0-1.724 0.338-2.364 0.978-0.622 0.622-0.978 1.476-0.978 2.364v24.978c0 0.889 0.338 1.724 0.978 2.364 0.622 0.622 1.476 0.978 2.364 0.978h24.978c0.889 0 1.724-0.356 2.364-0.978 0.622-0.622 0.978-1.476 0.978-2.364v-12.48l-0.018-0.036z"></path>
<path d="M29.956 9.298c0.373 0.373 1.031 0.373 1.404 0 0.196-0.178 0.284-0.444 0.284-0.711v-7.591c0-0.124-0.036-0.249-0.089-0.373-0.058-0.129-0.129-0.241-0.215-0.339l0.001 0.002c-0.092-0.084-0.197-0.156-0.312-0.21l-0.008-0.003c-0.1-0.045-0.217-0.071-0.34-0.071-0.005 0-0.011 0-0.016 0h-7.59c-0.267 0-0.516 0.107-0.711 0.284-0.178 0.196-0.284 0.444-0.284 0.711-0 0.003-0 0.007-0 0.011 0 0.534 0.433 0.967 0.967 0.967 0.004 0 0.008-0 0.011-0h5.191l-13.138 13.138c-0.165 0.18-0.266 0.42-0.266 0.684 0 0.273 0.108 0.521 0.284 0.703l-0-0c0.178 0.196 0.427 0.284 0.693 0.284 0.284 0 0.498-0.089 0.693-0.267l13.138-13.138v5.191c0 0.267 0.107 0.516 0.284 0.711l0.018 0.018z"></path>
</svg>
