<!-- Generated by IcoMoon.io -->
<svg version="1.1" xmlns="http://www.w3.org/2000/svg" width="32" height="32" viewBox="0 0 32 32" aria-label="external">
<path d="M16.632 10.523c0-0.632-0.421-1.053-1.053-1.053s-1.053 0.421-1.053 1.053v5.898c0 0.211 0 0.211 0 0.421 0.211 0.211 0.421 0.421 0.632 0.632 0.211 0 0.211 0 0.421 0 0 0 0 0 0 0h5.898c0.632 0 1.053-0.421 1.053-1.053s-0.421-1.053-1.053-1.053h-3.37l10.954-10.954c0.421-0.421 0.421-1.053 0-1.475s-1.053-0.421-1.475 0l-10.954 10.954v-3.37zM28.218 14.947c-0.632 0-1.053 0.421-1.053 1.053v11.165h-22.33v-22.33h11.165c0.632 0 1.053-0.421 1.053-1.053s-0.421-1.053-1.053-1.053h-12.218c-0.632 0-1.053 0.421-1.053 1.053v24.437c0 0.632 0.421 1.053 1.053 1.053h24.437c0.632 0 1.053-0.421 1.053-1.053v-12.218c0-0.632-0.421-1.053-1.053-1.053z"></path>
</svg>
