<!-- Generated by IcoMoon.io -->
<svg version="1.1" xmlns="http://www.w3.org/2000/svg" width="32" height="32" viewBox="0 0 32 32" aria-label="eye">
<path d="M29.26 14.572c-0.924-1.105-1.976-2.21-3.131-3.24-3.269-2.913-6.706-4.65-10.128-4.65s-6.859 1.737-10.128 4.65c-1.156 1.030-2.207 2.135-3.131 3.24-0.323 0.386-0.607 0.744-0.849 1.065-0.020 0.051-0.010 0.064 0 0.077 0.242 0.321 0.526 0.679 0.849 1.065 0.924 1.105 1.976 2.21 3.131 3.24 3.269 2.913 6.706 4.65 10.128 4.65s6.859-1.737 10.128-4.65c1.156-1.030 2.207-2.135 3.131-3.24 0.323-0.386 0.607-0.744 0.849-1.065-0.242-0.398-0.526-0.756-0.849-1.142zM31.101 16.463c-0.254 0.337-0.551 0.711-0.888 1.113-0.961 1.149-2.053 2.297-3.258 3.37-3.475 3.096-7.172 4.965-10.955 4.965s-7.48-1.868-10.955-4.965c-1.205-1.073-2.297-2.221-3.258-3.37-0.337-0.402-0.634-0.777-0.888-1.113-0.154-0.204-0.261-0.352-0.317-0.433-0.148-0.213-0.148-0.495 0-0.708 0.057-0.082 0.163-0.229 0.317-0.433 0.254-0.337 0.551-0.711 0.888-1.113 0.961-1.149 2.053-2.297 3.258-3.37 3.475-3.096 7.172-4.965 10.955-4.965s7.48 1.868 10.955 4.965c1.205 1.073 2.297 2.221 3.258 3.37 0.337 0.402 0.634 0.777 0.888 1.113 0.154 0.204 0.261 0.351 0.317 0.433 0.148 0.213 0.148 0.495 0 0.708-0.057 0.082-0.163 0.229-0.317 0.433zM20.348 16c0-2.402-1.946-4.348-4.348-4.348s-4.348 1.946-4.348 4.348c0 2.402 1.946 4.348 4.348 4.348s4.348-1.946 4.348-4.348zM21.59 16c0 3.088-2.503 5.59-5.59 5.59s-5.59-2.502-5.59-5.59c0-3.088 2.503-5.59 5.59-5.59s5.59 2.502 5.59 5.59z"></path>
</svg>
