<!-- Generated by IcoMoon.io -->
<svg version="1.1" xmlns="http://www.w3.org/2000/svg" width="41" height="32" viewBox="0 0 41 32" aria-label="gift">
<path d="M36.5 8.851h-11.438c1.634-0.545 3.268-1.226 3.949-1.906 1.634-1.498 1.634-4.221 0-5.719-1.634-1.634-4.221-1.634-5.719 0-0.953 0.817-1.906 3.54-2.451 5.583-0.545-2.043-1.498-4.63-2.451-5.583-1.498-1.634-4.085-1.634-5.719 0-1.634 1.498-1.634 4.221 0 5.719 0.681 0.681 2.315 1.362 3.949 1.906h-11.438c-0.409 0-0.681 0.272-0.681 0.681v5.447c0 0.409 0.272 0.681 0.681 0.681h0.681v15.66c0 0.409 0.272 0.681 0.681 0.681h28.596c0.408 0 0.681-0.272 0.681-0.681v-15.66h0.681c0.408 0 0.681-0.272 0.681-0.681v-5.447c0-0.409-0.272-0.681-0.681-0.681zM16.755 14.298v-4.085h8.17v4.085h-8.17zM24.926 15.66v14.979h-8.17v-14.979h8.17zM24.245 2.179c0.545-0.545 1.226-0.817 1.906-0.817s1.362 0.272 1.906 0.817c1.089 1.089 1.089 2.723 0 3.813-0.681 0.681-3.949 1.77-6.264 2.451 0.681-2.451 1.634-5.583 2.451-6.264zM13.623 2.179c0.545-0.545 1.226-0.817 1.906-0.817s1.362 0.272 1.906 0.817c0.681 0.681 1.77 3.949 2.451 6.264-2.451-0.681-5.583-1.634-6.264-2.451-1.089-1.089-1.089-2.723 0-3.813zM5.862 10.213h9.532v4.085h-9.532v-4.085zM7.223 15.66h8.17v14.979h-8.17v-14.979zM34.457 30.638h-8.17v-14.979h8.17v14.979zM35.819 14.298h-9.532v-4.085h9.532v4.085z"></path>
</svg>
