<!-- Generated by IcoMoon.io -->
<svg version="1.1" xmlns="http://www.w3.org/2000/svg" width="32" height="32" viewBox="0 0 32 32" aria-label="global">
<path d="M16 0.536c-0.258 0-0.516 0-0.644 0-8.376 0.387-14.82 6.83-14.82 15.078 0 8.634 6.959 15.851 15.464 15.851s15.464-6.959 15.464-15.464c0-8.634-6.83-15.464-15.464-15.464zM23.088 14.711c0-2.191-0.516-4.382-1.289-6.443h6.057c1.289 1.933 2.062 4.124 2.191 6.443h-6.959zM30.176 16c0 2.32-0.516 4.51-1.546 6.443h-6.701c0.773-2.191 1.16-4.382 1.16-6.443h7.088zM26.954 6.979h-5.67c-0.773-1.675-1.804-3.351-3.093-4.897 3.479 0.516 6.572 2.32 8.763 4.897zM10.201 14.711c0.129-2.191 0.516-4.382 1.418-6.443h8.892c0.773 2.062 1.289 4.253 1.418 6.443h-11.727zM21.799 16c-0.129 2.062-0.516 4.253-1.289 6.443h-9.021c-0.773-2.191-1.16-4.382-1.289-6.443h11.598zM16.387 1.824c1.418 1.675 2.577 3.351 3.479 5.155h-7.732c0.902-1.804 2.062-3.479 3.479-5.155 0.129 0 0.258 0 0.387 0s0.258 0 0.387 0zM13.809 1.953c-1.289 1.546-2.32 3.222-3.093 5.026h-5.799c2.191-2.706 5.284-4.51 8.892-5.026zM1.824 16h7.088c0.129 2.062 0.516 4.253 1.16 6.443h-6.572c-1.031-1.933-1.675-4.124-1.675-6.443zM8.912 14.711h-7.088c0.129-2.32 0.902-4.51 2.062-6.443h6.186c-0.644 2.062-1.031 4.253-1.16 6.443zM4.273 23.732h6.315c0.773 2.062 1.933 4.253 3.479 6.315-4.124-0.644-7.603-2.964-9.794-6.315zM15.742 30.176c-1.546-2.191-2.835-4.253-3.737-6.443h8.119c-0.902 2.191-2.191 4.253-3.737 6.443-0.129 0-0.258 0-0.387 0s-0.258 0-0.258 0zM17.933 30.047c1.418-2.062 2.577-4.253 3.479-6.315h6.443c-2.191 3.351-5.67 5.67-9.923 6.315z"></path>
</svg>
