<!-- Generated by IcoMoon.io -->
<svg version="1.1" xmlns="http://www.w3.org/2000/svg" width="32" height="32" viewBox="0 0 32 32" aria-label="group">
<path d="M30.123 22.963h-2.942v-6.571c0-0.392-0.294-0.785-0.785-0.785h-10.69v-7.061h9.513c0.392 0 0.785-0.294 0.785-0.785v-4.904c0-0.392-0.294-0.785-0.785-0.785h-18.438c-0.392 0-0.785 0.294-0.785 0.785v4.904c0 0.392 0.294 0.785 0.785 0.785h7.356v7.061h-8.533c-0.392 0-0.785 0.294-0.785 0.785v6.571h-2.942c-0.392 0-0.785 0.294-0.785 0.785v6.081c0 0.392 0.294 0.785 0.785 0.785h6.081c0.392 0 0.785-0.294 0.785-0.785v-6.081c0-0.392-0.294-0.785-0.785-0.785h-1.569v-5.786h7.846v5.786h-1.275c-0.392 0-0.785 0.294-0.785 0.785v6.081c0 0.392 0.294 0.785 0.785 0.785h6.081c0.392 0 0.785-0.294 0.785-0.785v-6.081c0-0.392-0.294-0.785-0.785-0.785h-3.335v-5.786h9.906v5.786h-1.667c-0.392 0-0.785 0.294-0.785 0.785v6.081c0 0.392 0.294 0.785 0.785 0.785h6.081c0.392 0 0.785-0.294 0.785-0.785v-6.081c0.098-0.49-0.294-0.785-0.686-0.785zM7.566 6.977v-3.335h16.869v3.335h-16.869zM7.271 24.533v4.61h-4.61v-4.61h4.61zM18.256 24.533v4.61h-4.61v-4.61h4.61zM29.338 29.044h-4.61v-4.61h4.61v4.61z"></path>
</svg>
