<!-- Generated by IcoMoon.io -->
<svg version="1.1" xmlns="http://www.w3.org/2000/svg" width="32" height="32" viewBox="0 0 32 32" aria-label="home">
<path d="M15.335 0.197c0.258-0.261 0.678-0.264 0.94-0.006l15.022 14.802c0.262 0.258 0.265 0.679 0.007 0.94s-0.679 0.265-0.94 0.007l-14.549-14.336-14.171 14.33c-0.258 0.261-0.679 0.264-0.94 0.005s-0.264-0.679-0.005-0.94l14.638-14.802zM4.405 15.663c0.367 0 0.665 0.298 0.665 0.665v14.343h5.885v-9.941c0-0.367 0.298-0.665 0.665-0.665h8.73c0.367 0 0.665 0.298 0.665 0.665v9.941h5.915v-14.343c0-0.367 0.298-0.665 0.665-0.665s0.665 0.298 0.665 0.665v15.007c0 0.367-0.298 0.665-0.665 0.665h-7.245c-0.367 0-0.665-0.298-0.665-0.665v-9.941h-7.4v9.941c0 0.367-0.298 0.665-0.665 0.665h-7.215c-0.367 0-0.665-0.298-0.665-0.665v-15.007c0-0.367 0.298-0.665 0.665-0.665z"></path>
</svg>
