<!-- Generated by IcoMoon.io -->
<svg version="1.1" xmlns="http://www.w3.org/2000/svg" width="43" height="32" viewBox="0 0 43 32" aria-label="hsm">
<path d="M31.387 2.754c1.381 0 2.856 0.946 3.431 2.2 0.030 0.065 0.052 0.131 0.068 0.199v0l4.080 17.523c0.009 0.035-0.004 0.070 0 0.105 0.007 0.045 0.028 0.086 0.028 0.135v0 0.871c0 2.99-2.432 5.421-5.421 5.421v0h-24.481c-2.988 0-5.421-2.431-5.421-5.421v0-0.871c0-0.049 0.021-0.089 0.028-0.135 0.004-0.035-0.009-0.070 0-0.105v0l4.080-17.523c0.016-0.068 0.039-0.135 0.068-0.199 0.575-1.254 2.049-2.2 3.431-2.2v0h20.109zM36.89 23.965h-31.115c0.093 1.749 1.544 3.144 3.317 3.144v0h24.481c1.773 0 3.225-1.395 3.317-3.144v0zM31.387 4.852h-20.109c-0.525 0-1.217 0.427-1.485 0.899v0l-3.751 16.114h30.58l-3.751-16.114c-0.267-0.472-0.96-0.899-1.485-0.899v0zM16.217 10.52c1.731 0 3.179 1.17 3.639 2.754v0l5.794-0.001c0.006-0.001 0.008 0.001 0.012 0.001h3.541c0.579 0 1.049 0.47 1.049 1.049v0 1.799c0 0.579-0.47 1.049-1.049 1.049-0.581 0-1.049-0.47-1.049-1.049v0-0.748h-1.45v0.748c0 0.579-0.47 1.049-1.051 1.049-0.579 0-1.049-0.47-1.049-1.049v0-0.748h-4.748c-0.46 1.584-1.908 2.754-3.639 2.754-2.097 0-3.803-1.707-3.803-3.805 0-2.097 1.707-3.803 3.803-3.803zM16.217 12.618c-0.941 0-1.705 0.766-1.705 1.705 0 0.943 0.764 1.707 1.705 1.707s1.707-0.764 1.707-1.707c0-0.939-0.766-1.705-1.707-1.705z"></path>
</svg>
