<svg width="19" height="20" viewBox="0 0 19 20" xmlns="http://www.w3.org/2000/svg" aria-label="key-primary">
<g clip-path="url(#clip0_1970_2002)">
<path fill-rule="evenodd" clip-rule="evenodd" d="M15.68 9.20001C14.8001 10.2544 13.5376 10.9162 12.17 11.04C11.4682 11.1091 10.7597 11.0308 10.09 10.81L9.09 11.97L9.25 13.82C9.25409 13.8713 9.24802 13.9228 9.23212 13.9717C9.21622 14.0206 9.19081 14.0658 9.15735 14.1049C9.12389 14.1439 9.08305 14.1759 9.03717 14.1991C8.99128 14.2223 8.94127 14.2362 8.89 14.24L7.27 14.39L7.41 16.01C7.41325 16.1123 7.37812 16.2121 7.3115 16.2899C7.24489 16.3676 7.15161 16.4176 7.05 16.43L5.43 16.58L5.56 18.2C5.56609 18.3025 5.53351 18.4035 5.4687 18.4831C5.4039 18.5628 5.31158 18.6152 5.21 18.63L1.1 19C1.04966 19.0049 0.998833 18.9995 0.950673 18.984C0.902514 18.9685 0.85804 18.9434 0.82 18.91C0.78172 18.8801 0.750308 18.8422 0.727882 18.7991C0.705457 18.756 0.692539 18.7085 0.69 18.66L0.5 16.5C0.494848 16.4481 0.500159 16.3957 0.515618 16.3459C0.531076 16.2961 0.556369 16.2499 0.59 16.21L7.19 8.35001C6.78962 7.59328 6.58227 6.7494 6.58637 5.89328C6.59046 5.03717 6.80587 4.19531 7.21347 3.44244C7.62106 2.68957 8.20824 2.04899 8.92287 1.57756C9.6375 1.10612 10.4575 0.818427 11.31 0.740008C11.9854 0.67497 12.6669 0.745876 13.3144 0.948543C13.9619 1.15121 14.5622 1.48153 15.08 1.92001C16.1238 2.80655 16.7733 4.07103 16.8858 5.43591C16.9982 6.80078 16.5646 8.15453 15.68 9.20001ZM1.44 18.2L2 18.14L4.8 17.89L4.67 16.26C4.66124 16.1612 4.6905 16.0627 4.75181 15.9846C4.81313 15.9066 4.90188 15.8549 5 15.84L6.62 15.69L6.48 14.07C6.47591 14.0188 6.48198 13.9672 6.49788 13.9183C6.51378 13.8694 6.53919 13.8242 6.57265 13.7851C6.60611 13.7461 6.64695 13.7141 6.69283 13.6909C6.73872 13.6677 6.78873 13.6538 6.84 13.65L8.46 13.5L8.32 11.88C8.31485 11.8281 8.32016 11.7757 8.33562 11.7259C8.35108 11.6761 8.37637 11.6299 8.41 11.59L9.67 10.1C9.72147 10.0364 9.79166 9.99052 9.87063 9.96899C9.9496 9.94745 10.0333 9.95131 10.11 9.98001C11.1976 10.4065 12.4099 10.385 13.4817 9.92029C14.5536 9.45557 15.3979 8.5854 15.83 7.50001C16.0789 6.86454 16.1749 6.17941 16.11 5.50001C16.0206 4.35051 15.4785 3.28351 14.6029 2.53347C13.7272 1.78344 12.5896 1.41172 11.44 1.50001H11.37C10.6214 1.56794 9.90255 1.82566 9.28132 2.24879C8.66008 2.67192 8.15701 3.24648 7.81967 3.91817C7.48232 4.58986 7.32184 5.33649 7.35339 6.08747C7.38495 6.83845 7.6075 7.56898 8 8.21001C8.04947 8.27458 8.07627 8.35366 8.07627 8.43501C8.07627 8.51635 8.04947 8.59543 8 8.66001L1.33 16.66L1.42 17.66L1.44 18.2ZM12.57 2.50001C12.9359 2.49607 13.2947 2.60072 13.6011 2.80071C13.9075 3.00069 14.1477 3.28705 14.2913 3.62355C14.435 3.96006 14.4756 4.3316 14.4081 4.69121C14.3406 5.05081 14.168 5.38233 13.9121 5.64383C13.6562 5.90533 13.3285 6.08508 12.9704 6.16034C12.6124 6.2356 12.24 6.203 11.9005 6.06665C11.561 5.93031 11.2695 5.69634 11.0629 5.39434C10.8564 5.09234 10.744 4.73587 10.74 4.37001C10.736 4.1267 10.7804 3.88503 10.8704 3.65897C10.9605 3.43291 11.0945 3.22696 11.2647 3.05305C11.4349 2.87913 11.6379 2.7407 11.8619 2.64577C12.086 2.55084 12.3267 2.5013 12.57 2.50001ZM11.52 4.36001C11.52 4.63941 11.6303 4.90752 11.8269 5.10603C12.0236 5.30453 12.2906 5.41737 12.57 5.42001C12.7796 5.42198 12.9851 5.36174 13.1605 5.24691C13.3359 5.13208 13.4734 4.96782 13.5554 4.7749C13.6375 4.58198 13.6604 4.36906 13.6215 4.16306C13.5825 3.95707 13.4834 3.76726 13.3365 3.61763C13.1897 3.46799 13.0018 3.36526 12.7966 3.32242C12.5913 3.27958 12.378 3.29856 12.1836 3.37695C11.9892 3.45534 11.8223 3.58963 11.7042 3.76283C11.5861 3.93604 11.522 4.14037 11.52 4.35001V4.36001Z"/>
<path d="M13 11.5L13.8981 14.2639H16.8042L14.4531 15.9721L15.3511 18.7361L13 17.0279L10.6489 18.7361L11.5469 15.9721L9.19577 14.2639H12.1019L13 11.5Z"/>
</g>
<defs>
<clipPath id="clip0_1970_2002">
<rect width="18.08" height="18.81" transform="translate(0 0.5)"/>
</clipPath>
</defs>
</svg>
