<svg width="18" height="19" viewBox="0 0 18 19" xmlns="http://www.w3.org/2000/svg" aria-label="key-custodian-policy">
<g clip-path="url(#clip0_1970_1918)">
<path d="M9.38085 0.5C9.48043 0.5 9.57593 0.539604 9.64628 0.610109C10.2759 1.24099 11.4403 1.89533 12.974 2.53293C13.8478 2.89621 14.7861 3.23155 15.7246 3.53045C15.889 3.58278 16.0474 3.63211 16.1989 3.67828L16.6319 3.80725L16.9726 3.90372C17.1362 3.94788 17.2499 4.09629 17.2499 4.26578C17.2499 4.39466 17.2496 4.52168 17.2491 4.64691L17.2429 5.37717C17.2413 5.49544 17.2394 5.61202 17.2372 5.72698L17.2204 6.39765C17.217 6.50632 17.2132 6.61348 17.2091 6.71919L17.1804 7.33634L17.1428 7.9212C17.0023 9.81987 16.7048 11.2252 16.1434 12.5874C15.0373 15.2716 12.9431 17.2032 9.50511 18.4767C9.42107 18.5078 9.32864 18.5078 9.24458 18.4767C4.1393 16.5856 2.18767 13.7476 1.66018 8.32174L1.61212 7.77047L1.57317 7.20159C1.56742 7.10528 1.56203 7.00823 1.55698 6.91043L1.53097 6.31442L1.51311 5.69989C1.50615 5.38793 1.5021 5.06889 1.50075 4.74257L1.49982 4.26654C1.4995 4.09678 1.61323 3.94798 1.77711 3.90376L1.94472 3.85705L2.55059 3.67837L3.02481 3.53056C3.96318 3.23169 4.90131 2.89641 5.77503 2.53317C7.30877 1.89553 8.47318 1.24111 9.10259 0.610215C9.17293 0.539691 9.26845 0.500053 9.36807 0.500053L9.38085 0.5ZM9.37426 1.37899L9.2063 1.51809C8.46861 2.10297 7.39561 2.67162 6.06298 3.22565C5.16737 3.59799 4.20978 3.94023 3.25244 4.24512L2.76894 4.39582L2.24998 4.54924L2.25714 5.38667C2.25882 5.49266 2.26083 5.5978 2.26317 5.70207L2.28115 6.31748C2.29217 6.62012 2.30628 6.91521 2.32372 7.203L2.36311 7.76891C2.37777 7.95436 2.39398 8.13662 2.41182 8.31578L2.47025 8.84405C3.04114 13.5162 4.84469 15.9823 9.2607 17.6811L9.37348 17.7237L9.54515 17.6589C12.5127 16.4971 14.3376 14.821 15.3513 12.5324L15.45 12.3015C15.9269 11.1442 16.2039 9.93692 16.3524 8.36415L16.3972 7.82593C16.404 7.73382 16.4103 7.64048 16.4163 7.54586L16.4479 6.96216L16.4715 6.34488L16.4876 5.69145L16.4969 4.99928L16.4985 4.54924L15.9806 4.39579L15.497 4.24507C14.5395 3.94013 13.5818 3.59785 12.686 3.22545C11.2583 2.63191 10.1286 2.0216 9.38979 1.39253L9.3742 1.37899H9.37426ZM9.37499 4.74215C10.8249 4.74215 12 5.9173 12 7.36714C12 8.25274 11.5611 9.03617 10.889 9.51162C12.5619 10.1269 13.7548 11.7351 13.7548 13.6221C13.7548 13.8292 13.5869 13.9971 13.3798 13.9971H5.36984C5.16273 13.9971 4.99484 13.8292 4.99484 13.6221C4.99484 11.7352 6.18822 10.1268 7.86131 9.51065C7.18896 9.03685 6.74998 8.25322 6.74998 7.36714C6.74998 5.91705 7.92462 4.74215 9.37498 4.74215H9.37499ZM9.37485 9.99208C7.53275 9.99208 6.01091 11.3645 5.77624 13.1426L5.7645 13.247H12.9847L12.9735 13.1426C12.7458 11.4166 11.3058 10.0732 9.53657 9.99562L9.37485 9.99208ZM9.37499 5.49215C8.33889 5.49215 7.49999 6.33123 7.49999 7.36716C7.49999 8.40262 8.33915 9.24216 9.37499 9.24216C10.4104 9.24216 11.25 8.40233 11.25 7.36716C11.25 6.33151 10.4106 5.49215 9.37499 5.49215V5.49215Z"/>
</g>
<defs>
<clipPath id="clip0_1970_1918">
<rect width="18" height="18" transform="translate(0 0.5)"/>
</clipPath>
</defs>
</svg>
