<!-- Generated by IcoMoon.io -->
<svg version="1.1" xmlns="http://www.w3.org/2000/svg" width="32" height="32" viewBox="0 0 32 32" aria-label="key-download">
<path d="M30.051 23.361c-0.514 0-0.856 0.342-0.856 0.856v2.397c0 1.541-1.198 2.91-2.91 2.91h-20.885c-1.541 0-2.91-1.198-2.91-2.91v-2.397c0-0.514-0.342-0.856-0.856-0.856-0.342 0-0.685 0.342-0.685 0.856v2.397c0 2.568 2.054 4.622 4.622 4.622h20.885c2.568 0 4.622-2.054 4.622-4.622v-2.397c-0.171-0.514-0.685-0.856-1.027-0.856zM7.796 10.693c1.37 0 2.397-1.027 2.397-2.397s-1.027-2.397-2.397-2.397c-1.198 0-2.225 1.027-2.225 2.397s1.027 2.397 2.225 2.397zM7.796 6.756c0.856 0 1.541 0.685 1.541 1.541s-0.685 1.541-1.541 1.541-1.37-0.685-1.37-1.541 0.514-1.541 1.37-1.541zM15.158 16.856c-0.514 0-0.856 0.342-0.856 0.856v6.163l-1.712-1.712c-0.342-0.342-0.856-0.342-1.198 0s-0.342 0.856 0 1.198l3.082 3.082c0.171 0.171 0.342 0.342 0.685 0.342 0 0 0 0 0 0 0.171 0 0.514 0 0.685-0.171l3.082-3.081c0.342-0.342 0.342-0.856 0-1.198s-0.856-0.342-1.198 0l-1.712 1.712v-6.334c0-0.514-0.342-0.856-0.856-0.856zM30.222 7.612l-1.883-1.883c-0.171-0.171-0.342-0.342-0.685-0.342h-11.641c-0.514-1.198-1.37-2.225-2.397-2.91-1.198-1.027-2.739-1.37-4.28-1.37-3.937 0-7.019 3.253-7.019 7.19s3.253 7.19 7.19 7.19c2.91 0 5.478-1.712 6.505-4.451h3.766l1.541 1.712c0.342 0.342 0.856 0.342 1.198 0l1.198-1.37 1.198 1.37c0.171 0.171 0.342 0.342 0.685 0.342 0.171 0 0.514-0.171 0.685-0.342l3.766-3.937c0.514-0.171 0.514-0.856 0.171-1.198zM20.293 9.495h-4.965c-0.342 0-0.685 0.171-0.856 0.514-0.685 2.225-2.739 3.766-5.136 3.766-2.91 0-5.307-2.397-5.307-5.478s2.397-5.478 5.478-5.478c2.225 0 4.28 1.541 5.136 3.766 0.171 0.342 0.514 0.514 0.856 0.514h11.812l1.027 1.198-2.568 2.739-1.198-1.198c-0.171-0.171-0.342-0.342-0.685-0.342s-0.514 0.171-0.685 0.342l-1.198 1.37-1.198-1.37c-0.171-0.342-0.342-0.342-0.514-0.342z"></path>
</svg>
