<!-- Generated by IcoMoon.io -->
<svg version="1.1" xmlns="http://www.w3.org/2000/svg" width="32" height="32" viewBox="0 0 32 32" aria-label="lock">
<path d="M24 14.278v-6.944c0-4.050-3.284-7.334-7.334-7.334s-7.331 3.284-7.331 7.334h1.334c0-3.313 2.688-6 6-6s6 2.688 6 6v5.675c-1.825-1.463-4.144-2.341-6.666-2.341-5.891 0-10.666 4.775-10.666 10.666s4.772 10.666 10.662 10.666c5.891 0 10.666-4.775 10.666-10.666 0-2.706-1.006-5.175-2.666-7.056zM16 30.666c-5.153 0-9.334-4.178-9.334-9.334s4.181-9.331 9.334-9.331c5.156 0 9.334 4.178 9.334 9.334 0 5.153-4.178 9.331-9.334 9.331zM16 20c-0.738 0-1.334 0.597-1.334 1.334 0 0.494 0.269 0.925 0.666 1.156v3.509c0 0.369 0.3 0.666 0.666 0.666s0.666-0.3 0.666-0.666v-3.512c0.4-0.231 0.666-0.659 0.666-1.156 0.006-0.734-0.591-1.331-1.328-1.331z"></path>
</svg>
