<!-- Generated by IcoMoon.io -->
<svg version="1.1" xmlns="http://www.w3.org/2000/svg" width="32" height="32" viewBox="0 0 32 32" aria-label="monitoring">
<path d="M27.109 30.25h-22.102c-1.745 0-3.257-1.396-3.257-3.257v-22.102c0-1.745 1.396-3.141 3.257-3.141h22.102c1.745 0 3.257 1.396 3.257 3.257v22.102c-0.116 1.745-1.512 3.141-3.257 3.141zM5.007 3.495c-0.814 0-1.396 0.698-1.396 1.396v22.102c0 0.814 0.698 1.396 1.396 1.396h22.102c0.814 0 1.396-0.698 1.396-1.396v-22.102c0-0.814-0.698-1.396-1.396-1.396h-22.102zM17.687 22.107c-0.349 0-0.698-0.233-0.814-0.582l-2.792-8.841-1.396 3.141c-0.116 0.233-0.349 0.465-0.698 0.465s-0.582-0.116-0.814-0.349l-1.629-2.443-1.629 2.443c-0.116 0.233-0.465 0.349-0.698 0.349h-4.653c-0.465 0-0.931-0.349-0.931-0.931s0.465-0.814 1.047-0.814h4.188l2.094-3.141c0.349-0.465 1.163-0.465 1.396 0l1.396 2.21 1.629-3.839c0.116-0.349 0.465-0.582 0.814-0.465 0.349 0 0.698 0.233 0.814 0.582l2.443 7.91 2.21-10.702c0.233-0.349 0.582-0.698 0.931-0.698s0.814 0.233 0.814 0.582l2.094 7.561h5.7c0.465 0 0.931 0.349 0.931 0.931s-0.349 0.931-0.931 0.931h-6.398c-0.349 0-0.698-0.233-0.814-0.582l-1.396-4.769-2.21 10.469c0.116 0.233-0.233 0.582-0.698 0.582 0.116 0 0.116 0 0 0zM24.783 27.923c-0.465 0-0.931-0.349-0.931-0.931v-1.163c0-0.465 0.349-0.931 0.931-0.931s0.931 0.349 0.931 0.931v1.163c-0.116 0.582-0.465 0.931-0.931 0.931zM17.803 27.923c-0.465 0-0.931-0.349-0.931-0.931v-1.163c0-0.465 0.349-0.931 0.931-0.931s0.931 0.349 0.931 0.931v1.163c-0.116 0.582-0.465 0.931-0.931 0.931zM10.823 27.923c-0.465 0-0.931-0.349-0.931-0.931v-1.163c0-0.465 0.349-0.814 0.931-0.814s0.931 0.349 0.931 0.931v1.163c-0.116 0.465-0.465 0.814-0.931 0.814zM21.293 27.923c-0.465 0-0.931-0.349-0.931-0.931v-3.49c0-0.465 0.349-0.931 0.931-0.931s0.931 0.349 0.931 0.931v3.49c-0.116 0.582-0.465 0.931-0.931 0.931zM14.313 27.923c-0.465 0-0.931-0.349-0.931-0.931v-3.49c0-0.465 0.349-0.931 0.931-0.931s0.931 0.349 0.931 0.931v3.49c-0.116 0.582-0.465 0.931-0.931 0.931zM7.334 27.923c-0.465 0-0.931-0.349-0.931-0.931v-3.49c0-0.465 0.349-0.814 0.931-0.814s0.931 0.349 0.931 0.931v3.49c-0.116 0.465-0.465 0.814-0.931 0.814z"></path>
</svg>
