<!-- Generated by IcoMoon.io -->
<svg version="1.1" xmlns="http://www.w3.org/2000/svg" width="35" height="32" viewBox="0 0 35 32" aria-label="no-logging">
<path d="M7.092 6.097c0.735 0 1.341-0.605 1.341-1.341v-2.119h11.33v5.016c0 0.735 0.605 1.341 1.341 1.341h5.016v7.741c0 0.735 0.605 1.341 1.341 1.341s1.341-0.605 1.341-1.341v-9.081c0 0 0 0 0 0 0-0.389-0.173-0.692-0.389-0.951l-6.4-6.314c-0.043-0.043-0.043-0.043-0.087-0.087s-0.087-0.086-0.13-0.086c-0.043-0.043-0.087-0.043-0.13-0.043s-0.087-0.043-0.13-0.043c-0.043 0-0.087-0.043-0.13-0.043s-0.087-0.043-0.087-0.043c-0.087-0.043-0.173-0.043-0.259-0.043h-13.968c-0.735 0-1.341 0.605-1.341 1.341v3.416c0.043 0.735 0.605 1.341 1.341 1.341zM22.4 4.541l1.816 1.816h-1.816v-1.816zM27.416 25.643c-0.735 0-1.341 0.605-1.341 1.341v2.335h-17.643v-13.319c0-0.735-0.605-1.341-1.341-1.341s-1.341 0.605-1.341 1.341v14.659c0 0.735 0.605 1.341 1.341 1.341h20.324c0.735 0 1.341-0.605 1.341-1.341v-3.676c0-0.735-0.605-1.341-1.341-1.341zM33.903 24.822l-31.87-19.892c-0.605-0.389-1.427-0.216-1.816 0.432-0.389 0.605-0.216 1.427 0.432 1.816l31.87 19.892c0.216 0.13 0.476 0.216 0.692 0.216 0.432 0 0.865-0.216 1.124-0.605 0.389-0.692 0.173-1.47-0.432-1.859z"></path>
</svg>
