<!-- Generated by IcoMoon.io -->
<svg version="1.1" xmlns="http://www.w3.org/2000/svg" width="30" height="32" viewBox="0 0 30 32" aria-label="node-cluster">
<path d="M30.629 8.076c0 0 0-0.152 0-0.152s0-0.152 0-0.152c-0.152 0-0.152-0.152-0.152-0.152s0-0.152-0.152-0.152c0 0 0 0 0 0l-7.619-6.095c-0.152-0.152-0.305-0.152-0.457-0.152h-14.019c-0.152 0-0.305 0-0.457 0.152l-7.619 6.095c0 0 0 0 0 0 0 0.152-0.152 0.152-0.152 0.152s0 0-0.152 0.152c0 0 0 0.152 0 0.152s0 0.152 0 0.152c0 0 0 0 0 0v12.19c0 1.829 1.524 3.2 3.352 3.2h11.886v5.79h-8.076c-0.457 0-0.762 0.305-0.762 0.762s0.305 0.762 0.762 0.762h16.457c0.457 0 0.762-0.305 0.762-0.762s-0.305-0.762-0.762-0.762h-6.857v-5.79h10.667c1.829 0 3.352-1.371 3.352-3.2v-12.19c0 0 0 0 0 0zM1.371 8.838h27.733v5.79h-27.733v-5.79zM8.533 2.743h13.41l5.79 4.571h-24.99l5.79-4.571zM27.276 21.943h-24.076c-0.914 0-1.829-0.762-1.829-1.676v-4.114h27.733v4.114c0 0.914-0.762 1.676-1.829 1.676zM17.829 10.362c-0.762 0-1.371 0.61-1.371 1.371s0.61 1.371 1.371 1.371c0.762 0 1.371-0.61 1.371-1.371s-0.61-1.371-1.371-1.371zM17.676 11.733c0-0.152 0-0.152 0.152-0.152 0 0 0.152 0 0.152 0.152s-0.305 0.152-0.305 0zM21.638 10.362c-0.762 0-1.371 0.61-1.371 1.371s0.61 1.371 1.371 1.371c0.762 0 1.371-0.61 1.371-1.371s-0.61-1.371-1.371-1.371zM21.486 11.733c0-0.152 0-0.152 0.152-0.152 0 0 0.152 0 0.152 0.152-0.152 0.152-0.305 0.152-0.305 0zM25.448 10.362c-0.762 0-1.371 0.61-1.371 1.371s0.61 1.371 1.371 1.371c0.762 0 1.371-0.61 1.371-1.371s-0.61-1.371-1.371-1.371zM25.295 11.733c0-0.152 0-0.152 0.152-0.152s0.152 0 0.152 0.152-0.305 0.152-0.305 0zM4.419 9.752c-1.067 0-1.981 0.914-1.981 1.981s0.914 1.981 1.981 1.981 1.981-0.914 1.981-1.981-0.762-1.981-1.981-1.981zM4.419 12.19c-0.305 0-0.457-0.152-0.457-0.457s0.152-0.457 0.457-0.457c0.305 0 0.457 0.152 0.457 0.457s-0.152 0.457-0.457 0.457zM17.829 17.676c-0.762 0-1.371 0.61-1.371 1.371s0.61 1.371 1.371 1.371c0.762 0 1.371-0.61 1.371-1.371s-0.61-1.371-1.371-1.371zM17.676 19.048c0-0.152 0-0.152 0.152-0.152 0 0 0.152 0 0.152 0.152s-0.305 0.152-0.305 0zM21.638 17.676c-0.762 0-1.371 0.61-1.371 1.371s0.61 1.371 1.371 1.371c0.762 0 1.371-0.61 1.371-1.371s-0.61-1.371-1.371-1.371zM21.486 19.048c0-0.152 0-0.152 0.152-0.152 0 0 0.152 0 0.152 0.152-0.152 0.152-0.305 0.152-0.305 0zM25.448 17.676c-0.762 0-1.371 0.61-1.371 1.371s0.61 1.371 1.371 1.371c0.762 0 1.371-0.61 1.371-1.371s-0.61-1.371-1.371-1.371zM25.295 19.048c0-0.152 0-0.152 0.152-0.152s0.152 0 0.152 0.152-0.305 0.152-0.305 0zM4.419 17.067c-1.067 0-1.981 0.914-1.981 1.981s0.914 1.981 1.981 1.981 1.981-0.914 1.981-1.981-0.762-1.981-1.981-1.981zM4.419 19.505c-0.305 0-0.457-0.152-0.457-0.457s0.152-0.457 0.457-0.457c0.305 0 0.457 0.152 0.457 0.457s-0.152 0.457-0.457 0.457zM1.829 29.41c-0.305 0-0.61 0.305-0.61 0.61s0.305 0.61 0.61 0.61 0.61-0.305 0.61-0.61c0.152-0.305-0.152-0.61-0.61-0.61zM4.419 29.41c-0.305 0-0.61 0.305-0.61 0.61s0.305 0.61 0.61 0.61c0.305 0 0.61-0.305 0.61-0.61s-0.305-0.61-0.61-0.61zM26.057 29.41c-0.305 0-0.61 0.305-0.61 0.61s0.305 0.61 0.61 0.61c0.305 0 0.61-0.305 0.61-0.61s-0.305-0.61-0.61-0.61zM28.648 29.41c-0.305 0-0.61 0.305-0.61 0.61s0.305 0.61 0.61 0.61c0.305 0 0.61-0.305 0.61-0.61s-0.305-0.61-0.61-0.61z"></path>
</svg>
