<svg width="30" height="30" viewBox="0 0 30 30" xmlns="http://www.w3.org/2000/svg" aria-label="operations">
<g clip-path="url(#clip0_3422_40445)">
<path d="M19.0456 17.2186L20.2048 18.3784C20.4138 18.5879 20.4138 18.9269 20.2048 19.1359L18.4376 20.9031C18.2287 21.112 17.8896 21.1125 17.6802 20.9031L16.5199 19.7439C16.2017 19.8847 15.8144 20.008 15.3333 20.1344V21.7452C15.3333 22.0409 15.0933 22.2809 14.7976 22.2809H12.9227C12.627 22.2809 12.387 22.0409 12.387 21.7452V20.1344C11.906 20.008 11.5176 19.8848 11.1994 19.7433L10.0407 20.9026C9.8318 21.112 9.49217 21.112 9.28325 20.9026L7.51495 19.1353C7.30549 18.9264 7.30549 18.5868 7.51495 18.3779L8.67471 17.2181C8.53382 16.8999 8.41062 16.5121 8.28419 16.031H6.67338C6.37768 16.031 6.1377 15.791 6.1377 15.4953V13.6204C6.1377 13.3247 6.37768 13.0847 6.67338 13.0847H8.28419C8.41062 12.6037 8.53382 12.2158 8.67471 11.8976L7.51548 10.739C7.30603 10.53 7.30603 10.1904 7.51548 9.98149L9.28325 8.21373C9.49217 8.00481 9.8318 8.00427 10.0407 8.21373L11.2005 9.37295C11.5192 9.23207 11.907 9.10886 12.3876 8.98351V7.37163C12.3876 7.07593 12.6275 6.83594 12.9232 6.83594H14.7982C15.0939 6.83594 15.3338 7.07593 15.3338 7.37163V8.98351C15.8138 9.10886 16.2017 9.2326 16.5204 9.37295L17.6802 8.21373C17.8896 8.00481 18.2287 8.00481 18.4376 8.21373L20.2054 9.98149C20.4148 10.1909 20.4143 10.53 20.2054 10.739L19.0467 11.8976C19.1876 12.2169 19.3113 12.6058 19.4367 13.0853H21.048C21.3437 13.0853 21.5837 13.3253 21.5837 13.621V15.4959C21.5837 15.7916 21.3437 16.0315 21.048 16.0315H19.4372C19.3108 16.5126 19.1876 16.9004 19.0467 17.2186H19.0456ZM18.0123 17.7002C17.8376 17.525 17.805 17.2535 17.9341 17.0424C18.1274 16.7258 18.3048 16.1676 18.4981 15.37C18.5565 15.1295 18.7713 14.9602 19.0188 14.9602H20.5118V14.1566H19.0183C18.7708 14.1566 18.5555 13.9874 18.4976 13.7463C18.3064 12.954 18.128 12.391 17.9341 12.0734C17.8055 11.8623 17.8376 11.5902 18.0128 11.4155L19.0687 10.3602L18.0583 9.34992L17.0014 10.4063C16.8263 10.5809 16.5547 10.6136 16.3436 10.4845C16.027 10.2911 15.4672 10.1133 14.6723 9.92203C14.4317 9.86418 14.2619 9.64883 14.2619 9.40135V7.90731H13.4584V9.40135C13.4584 9.64883 13.2891 9.86418 13.0481 9.92203C12.2526 10.1138 11.6928 10.2911 11.3762 10.4845C11.1651 10.6136 10.893 10.5809 10.7184 10.4063L9.66145 9.34992L8.65114 10.3602L9.70752 11.4166C9.88269 11.5918 9.91483 11.8634 9.78573 12.075C9.59234 12.3916 9.41503 12.9497 9.22165 13.7474C9.16326 13.9879 8.94845 14.1572 8.70096 14.1572H7.208V14.9607H8.70096C8.94845 14.9607 9.16326 15.13 9.22165 15.3705C9.41503 16.1681 9.59234 16.7263 9.78573 17.0429C9.91483 17.254 9.88215 17.5261 9.70752 17.7008L8.6506 18.7577L9.66091 19.7674L10.7173 18.7105C10.8925 18.5354 11.1646 18.5032 11.3756 18.6323C11.6928 18.8262 12.251 19.0035 13.0486 19.1969C13.2891 19.2553 13.4584 19.4701 13.4584 19.7176V21.2106H14.2619V19.7176C14.2619 19.4701 14.4312 19.2553 14.6717 19.1969C15.4688 19.0035 16.0276 18.8262 16.3431 18.6328C16.5541 18.5037 16.8263 18.5359 17.0014 18.7111L18.0589 19.7674L19.0692 18.7571L18.0128 17.7002H18.0123ZM13.8361 16.8351C15.1094 16.8351 16.0838 15.8719 16.0892 14.5407C16.1315 13.2701 15.1222 12.2817 13.8361 12.2817C12.5933 12.2817 11.5835 13.3001 11.5835 14.5584C11.5835 15.8167 12.5933 16.8351 13.8361 16.8351ZM13.8361 17.9065C11.9992 17.9065 10.5121 16.4065 10.5121 14.5584C10.5121 12.7103 11.9997 11.2104 13.8361 11.2104C15.7147 11.2104 17.2227 12.6862 17.16 14.5606C17.1525 16.4681 15.6976 17.9065 13.8361 17.9065Z"/>
<path d="M5.05436 1.25725L5.04523 1.27103L5.04274 1.28737L4.43436 5.27979C4.33349 5.66714 4.61478 6.14881 5.1156 6.18137L8.98489 6.5718L8.98479 6.57279L8.99704 6.57203C9.15195 6.56248 9.32091 6.50574 9.45609 6.3869C9.59268 6.26683 9.69041 6.08708 9.70642 5.84125L9.70702 5.84129L9.70643 5.83176C9.69688 5.67685 9.64014 5.50789 9.5213 5.37271C9.4017 5.23666 9.22291 5.13917 8.97858 5.12258L6.93475 4.83028C11.6551 1.34534 18.1647 1.77188 22.3113 5.97363L22.3112 5.97375L22.3149 5.97703C22.4739 6.11823 22.635 6.1897 22.8052 6.19573C22.9736 6.20168 23.1406 6.14315 23.3114 6.04454L23.3219 6.03847L23.33 6.02939C23.4712 5.87041 23.5427 5.70925 23.5487 5.53905C23.5547 5.37066 23.4961 5.20367 23.3975 5.03288L23.3927 5.02457L23.386 5.01774C18.8165 0.379153 11.5808 -0.119986 6.40722 3.51301L6.39888 1.63079C6.49581 1.24921 6.28316 0.885714 5.90128 0.78339L5.88947 0.780224L5.87726 0.780976C5.72236 0.790523 5.55889 0.847 5.41458 0.930627C5.27026 1.01426 5.13999 1.12801 5.05436 1.25725Z" stroke-width="0.15"/>
<path d="M8.04725 29.58L8.06378 29.5798L8.07866 29.5726L11.714 27.8136C12.0904 27.6775 12.3282 27.1729 12.0714 26.7416L10.2026 23.3312L10.2034 23.3307L10.1959 23.321C10.1003 23.1988 9.95786 23.0916 9.78337 23.0475C9.60706 23.0029 9.40356 23.0241 9.19187 23.1501L9.19156 23.1495L9.18404 23.1554C9.06175 23.251 8.95461 23.3934 8.91047 23.5679C8.86604 23.7435 8.8869 23.9461 9.01156 24.1569L9.9278 26.0071C4.38265 24.0892 1.04863 18.482 2.16437 12.6851L2.16453 12.6851L2.16514 12.6802C2.19153 12.4692 2.15919 12.2959 2.06779 12.1522C1.97736 12.01 1.83457 11.9055 1.65659 11.8206L1.64563 11.8154L1.63359 11.8138C1.42259 11.7875 1.24928 11.8198 1.10558 11.9112C0.963405 12.0016 0.858903 12.1444 0.77395 12.3224L0.769819 12.3311L0.768 12.3405C-0.46835 18.7333 3.21689 24.9802 9.14067 27.1877L7.59391 28.2603C7.2245 28.3964 7.04528 28.7775 7.17714 29.1502L7.18122 29.1617L7.18876 29.1714C7.28432 29.2937 7.42343 29.3964 7.57407 29.468C7.72471 29.5396 7.89224 29.5826 8.04725 29.58Z" stroke-width="0.15"/>
<path d="M29.9719 13.4164L29.9645 13.4016L29.9516 13.3912L26.7983 10.8682C26.5133 10.5871 25.9555 10.5899 25.6769 11.0073L23.4041 14.163L23.4033 14.1624L23.3978 14.1734C23.3286 14.3124 23.2933 14.487 23.3286 14.6635C23.3643 14.8419 23.4711 15.0164 23.676 15.1532L23.6757 15.1537L23.6842 15.1579C23.8232 15.2271 23.9979 15.2624 24.1743 15.2271C24.352 15.1916 24.5258 15.0855 24.6623 14.8822L25.9374 13.2583C26.5952 19.0887 22.971 24.513 17.2589 26.0031L17.2589 26.003L17.2542 26.0045C17.0524 26.0716 16.9099 26.1754 16.8196 26.3198C16.7303 26.4627 16.6975 26.6366 16.6975 26.8338V26.8459L16.7013 26.8574C16.7684 27.0592 16.8722 27.2017 17.0166 27.292C17.1594 27.3814 17.3333 27.4142 17.5305 27.4142H17.5401L17.5494 27.4118C23.8513 25.7737 27.9014 19.757 27.3419 13.4601L28.9762 14.394C29.2581 14.6687 29.6793 14.6663 29.9588 14.3867L29.9675 14.3781L29.9729 14.3671C30.0421 14.2282 30.0749 14.0584 30.0747 13.8916C30.0744 13.7248 30.041 13.5551 29.9719 13.4164Z" stroke-width="0.15"/>
</g>
<defs>
<clipPath id="clip0_3422_40445">
<rect width="30" height="30"/>
</clipPath>
</defs>
</svg>
