<svg xmlns="http://www.w3.org/2000/svg" xmlns:xlink="http://www.w3.org/1999/xlink" width="31px" height="32px" viewBox="0 0 31 31" version="1.1" aria-label="pending">
<g>
<path d="M 17.277344 28.535156 C 18.160156 28.421875 18.859375 29.269531 18.558594 30.09375 C 18.402344 30.511719 18.039062 30.808594 17.585938 30.867188 C 16.546875 30.996094 15.496094 31.027344 14.449219 30.957031 C 10.589844 30.703125 7.113281 29.0625 4.542969 26.539062 C 1.734375 23.789062 0 19.988281 0 15.789062 C 0 11.59375 1.734375 7.792969 4.542969 5.039062 C 7.347656 2.289062 11.222656 0.585938 15.507812 0.585938 C 16.992188 0.585938 18.4375 0.796875 19.816406 1.1875 C 20.949219 1.507812 22.039062 1.953125 23.066406 2.515625 L 22.757812 1.734375 C 22.503906 1.074219 22.839844 0.339844 23.511719 0.0898438 C 24.183594 -0.160156 24.933594 0.167969 25.1875 0.828125 L 26.480469 4.140625 C 26.527344 4.265625 26.558594 4.398438 26.5625 4.535156 C 26.664062 5.152344 26.289062 5.765625 25.660156 5.949219 L 22.199219 6.988281 C 21.515625 7.191406 20.792969 6.8125 20.585938 6.140625 C 20.378906 5.472656 20.765625 4.761719 21.449219 4.558594 L 21.734375 4.472656 C 20.914062 4.039062 20.046875 3.691406 19.152344 3.4375 C 18.003906 3.113281 16.78125 2.9375 15.507812 2.9375 C 11.886719 2.9375 8.609375 4.375 6.238281 6.703125 C 3.863281 9.027344 2.398438 12.242188 2.398438 15.789062 C 2.398438 19.339844 3.863281 22.554688 6.238281 24.878906 C 8.386719 26.988281 11.277344 28.367188 14.496094 28.605469 C 15.417969 28.675781 16.363281 28.652344 17.277344 28.535156 Z M 13.132812 9.605469 C 13.132812 8.957031 13.667969 8.433594 14.332031 8.433594 C 14.992188 8.433594 15.527344 8.957031 15.527344 9.605469 L 15.527344 16.757812 L 20.523438 18.910156 C 21.125 19.171875 21.402344 19.863281 21.136719 20.457031 C 20.867188 21.050781 20.164062 21.320312 19.558594 21.058594 L 13.910156 18.625 C 13.457031 18.457031 13.132812 18.027344 13.132812 17.523438 Z M 21.449219 27.28125 C 20.484375 27.765625 20.613281 29.152344 21.652344 29.457031 C 21.953125 29.539062 22.253906 29.511719 22.535156 29.375 C 23.308594 28.996094 24.050781 28.546875 24.746094 28.042969 C 25.085938 27.792969 25.261719 27.402344 25.226562 26.988281 C 25.132812 26.078125 24.070312 25.613281 23.316406 26.15625 C 22.730469 26.582031 22.105469 26.957031 21.449219 27.28125 Z M 26.339844 23.070312 C 25.792969 23.867188 26.40625 24.941406 27.386719 24.898438 C 27.769531 24.878906 28.113281 24.695312 28.328125 24.378906 C 28.8125 23.671875 29.234375 22.933594 29.59375 22.160156 C 29.9375 21.394531 29.398438 20.535156 28.546875 20.5 C 28.054688 20.484375 27.613281 20.753906 27.410156 21.191406 C 27.105469 21.847656 26.75 22.472656 26.339844 23.070312 Z M 28.539062 17.042969 C 28.496094 17.503906 28.726562 17.9375 29.132812 18.171875 C 29.894531 18.597656 30.835938 18.121094 30.925781 17.265625 C 31.007812 16.417969 31.023438 15.574219 30.964844 14.726562 C 30.933594 14.316406 30.691406 13.957031 30.320312 13.765625 C 29.492188 13.34375 28.503906 13.976562 28.570312 14.890625 C 28.621094 15.613281 28.609375 16.324219 28.539062 17.042969 Z M 27.546875 10.722656 C 27.816406 11.332031 28.539062 11.605469 29.152344 11.328125 C 29.742188 11.058594 30.007812 10.382812 29.75 9.796875 C 29.410156 9.015625 29 8.265625 28.535156 7.550781 C 27.945312 6.664062 26.566406 6.921875 26.351562 7.957031 C 26.292969 8.261719 26.347656 8.5625 26.519531 8.824219 C 26.914062 9.429688 27.261719 10.058594 27.546875 10.722656 Z M 27.546875 10.722656 "/>
</g>
</svg>
