<!-- Generated by IcoMoon.io -->
<svg version="1.1" xmlns="http://www.w3.org/2000/svg" width="32" height="32" viewBox="0 0 32 32" aria-label="plug">
<path d="M23.744 0.294c0.392-0.392 1.026-0.392 1.418 0s0.392 1.027 0 1.419v0l-3.653 3.653 5.126 5.126 3.654-3.654c0.392-0.392 1.026-0.392 1.418 0s0.392 1.027 0 1.419v0l-3.654 3.654 2.564 2.562c0.39 0.392 0.39 1.027 0 1.419v0l-6 6c-1.754 1.754-4.086 2.621-6.478 2.621-1.616 0-3.259-0.401-4.772-1.185v0l-2.928 2.926c-0.196 0.196-0.452 0.293-0.71 0.293-0.256 0-0.512-0.097-0.708-0.293v0l-0.927-0.927-6.381 6.38c-0.196 0.196-0.452 0.295-0.708 0.295-0.258 0-0.514-0.099-0.71-0.295-0.392-0.392-0.392-1.027 0-1.419v0l6.38-6.378-0.925-0.927c-0.392-0.392-0.392-1.027-0.002-1.419v0l2.931-2.932c-0.697-1.345-1.107-2.818-1.174-4.336-0.116-2.659 0.81-5.115 2.608-6.912v0l5.997-5.999c0.392-0.392 1.026-0.392 1.418 0v0l2.564 2.564zM9.789 20.357l-1.916 1.916 0.925 0.925c0 0 0.002 0.002 0.002 0.002v0l0.927 0.927 1.916-1.914c-0.339-0.268-0.672-0.551-0.987-0.867-0.313-0.313-0.597-0.648-0.867-0.989v0zM16.818 3.513l-5.289 5.289c-1.396 1.393-2.115 3.313-2.022 5.405 0.093 2.126 1.004 4.157 2.567 5.719 3.218 3.218 8.207 3.463 11.124 0.546v0l5.291-5.291-11.67-11.669zM20.525 11.474c0.628 0.625 0.972 1.458 0.972 2.343 0 0.798-0.279 1.553-0.791 2.152l-0.179 0.194c0 0 0 0.002-0.002 0.002-0.646 0.646-1.495 0.969-2.345 0.969-0.848 0-1.697-0.322-2.345-0.969-0.626-0.628-0.97-1.461-0.97-2.348 0-0.885 0.344-1.718 0.97-2.343 1.296-1.293 3.398-1.293 4.689 0zM18.18 12.509c-0.335 0-0.671 0.128-0.927 0.384-0.247 0.247-0.384 0.575-0.384 0.924 0 0.352 0.137 0.682 0.386 0.93 0.509 0.507 1.34 0.507 1.852 0 0.248-0.248 0.386-0.578 0.386-0.93 0-0.349-0.137-0.677-0.386-0.924-0.255-0.256-0.591-0.384-0.927-0.384z"></path>
</svg>
