<!-- Generated by IcoMoon.io -->
<svg version="1.1" xmlns="http://www.w3.org/2000/svg" width="32" height="32" viewBox="0 0 32 32" aria-label="plugin-clone">
<path d="M16.111 20v-4.94l-12.222-5.556v8.435l0.244 0.111v1.343l-1.108-0.504c-0.218-0.099-0.358-0.317-0.358-0.556v-9.778c0-0.444 0.459-0.74 0.864-0.556l13.444 6.111c0.218 0.099 0.358 0.317 0.358 0.556v5.333h-1.222zM18.778 24.25v-4.306h-2.667v-5.277c0-0.247 0.148-0.469 0.376-0.564l14.667-6.111c0.403-0.168 0.846 0.128 0.846 0.564v9.778c0 0.247-0.148 0.469-0.376 0.564l-12.846 5.353zM17.333 15.074v8.454l13.444-5.602v-8.454l-13.444 5.602zM20.389 9.167c0-0.559-1.326-1.222-3.056-1.222s-3.056 0.663-3.056 1.222 1.325 1.222 3.056 1.222c1.73 0 3.056-0.663 3.056-1.222zM21.611 9.167c0 1.465-1.96 2.444-4.278 2.444s-4.278-0.98-4.278-2.444 1.959-2.444 4.278-2.444c2.318 0 4.278 0.98 4.278 2.444zM20.389 2.444c0-0.559-1.326-1.222-3.056-1.222s-3.056 0.663-3.056 1.222 1.325 1.222 3.056 1.222c1.73 0 3.056-0.663 3.056-1.222zM21.611 2.444c0 1.465-1.96 2.444-4.278 2.444s-4.278-0.98-4.278-2.444 1.959-2.444 4.278-2.444c2.318 0 4.278 0.98 4.278 2.444zM28.944 6.111c0-0.559-1.326-1.222-3.056-1.222s-3.056 0.663-3.056 1.222 1.325 1.222 3.056 1.222c1.73 0 3.056-0.663 3.056-1.222zM30.167 6.111c0 1.465-1.96 2.444-4.278 2.444s-4.278-0.98-4.278-2.444 1.959-2.444 4.278-2.444c2.318 0 4.278 0.98 4.278 2.444zM12.444 6.111c0-0.559-1.326-1.222-3.056-1.222s-3.056 0.663-3.056 1.222 1.325 1.222 3.056 1.222c1.73 0 3.056-0.663 3.056-1.222zM13.667 6.111c0 1.465-1.96 2.444-4.278 2.444s-4.278-0.98-4.278-2.444 1.959-2.444 4.278-2.444c2.318 0 4.278 0.98 4.278 2.444zM6.18 6.627l-3.146 1.368c-0.31 0.135-0.451 0.495-0.317 0.804s0.495 0.451 0.804 0.317l3.146-1.368c0.31-0.135 0.451-0.495 0.317-0.804s-0.495-0.451-0.804-0.317zM14.324 3.087l-2.634 1.145c-0.309 0.135-0.451 0.495-0.317 0.804s0.495 0.451 0.804 0.317l2.634-1.145c0.309-0.135 0.451-0.495 0.317-0.804s-0.495-0.451-0.804-0.317zM23.314 4.379l-2.975-1.293c-0.31-0.135-0.67 0.007-0.804 0.317s0.007 0.67 0.317 0.804l2.975 1.293c0.31 0.135 0.67-0.007 0.804-0.317s-0.007-0.67-0.317-0.804zM31.633 7.995l-2.811-1.222c-0.31-0.135-0.67 0.007-0.804 0.317s0.007 0.67 0.317 0.804l2.811 1.222c0.31 0.135 0.67-0.007 0.804-0.317s-0.007-0.67-0.317-0.804zM10 32c-5.523 0-10-4.477-10-10s4.477-10 10-10c5.523 0 10 4.477 10 10s-4.477 10-10 10zM16.923 22.836v-1.751h-5.984v-6.008h-1.721v6.008h-6.141v1.751h6.141v6.088h1.721v-6.088h5.984z"></path>
</svg>
