<!-- Generated by IcoMoon.io -->
<svg version="1.1" xmlns="http://www.w3.org/2000/svg" width="32" height="32" viewBox="0 0 32 32" aria-label="print">
<path d="M27.4 10.2h-22.8c-1.763 0-3.2 1.438-3.2 3.2v7.2c0 1.762 1.438 3.2 3.2 3.2h2.8v5.2c0 0.441 0.359 0.8 0.8 0.8h15.6c0.441 0 0.8-0.359 0.8-0.8v-5.2h2.8c1.762 0 3.2-1.438 3.2-3.2v-7.2c0-1.762-1.438-3.2-3.2-3.2zM23 28.2h-14v-8h14v8zM29 20.6c0 0.878-0.722 1.6-1.6 1.6h-2.8v-2.8c0-0.441-0.359-0.8-0.8-0.8h-15.6c-0.441 0-0.8 0.359-0.8 0.8v2.8h-2.8c-0.878 0-1.6-0.722-1.6-1.6v-7.2c0-0.878 0.722-1.6 1.6-1.6h22.8c0.878 0 1.6 0.722 1.6 1.6v7.2zM8.2 9.4c0.441 0 0.8-0.359 0.8-0.8v-4h10.4v2.8c0 0.441 0.359 0.8 0.8 0.8h2.8v0.4c0 0.441 0.359 0.8 0.8 0.8s0.8-0.359 0.8-0.8v-1.2c0 0 0 0 0 0s0-0.003 0-0.003c0-0.013 0-0.025 0-0.037s0-0.022-0.003-0.034c0-0.003 0-0.003 0-0.006-0.012-0.134-0.059-0.256-0.128-0.362 0 0 0 0 0-0.003-0.006-0.009-0.012-0.019-0.019-0.028 0-0.003-0.003-0.003-0.003-0.006-0.006-0.006-0.012-0.016-0.019-0.022-0.003-0.003-0.003-0.006-0.006-0.009-0.006-0.006-0.012-0.013-0.019-0.019-0.003-0.003-0.006-0.006-0.009-0.009-0.006-0.006-0.012-0.016-0.019-0.022-0.003-0.003-0.003-0.006-0.006-0.006l-3.603-3.597c-0.003-0.003-0.006-0.006-0.006-0.006-0.006-0.006-0.012-0.013-0.022-0.019-0.003-0.003-0.006-0.006-0.009-0.009-0.006-0.006-0.012-0.013-0.019-0.016-0.003-0.003-0.006-0.003-0.009-0.006-0.006-0.006-0.016-0.013-0.022-0.019-0.003 0-0.003-0.003-0.006-0.003-0.009-0.006-0.019-0.013-0.028-0.019 0 0-0.003 0-0.003-0.003-0.106-0.069-0.228-0.116-0.363-0.128-0.003 0-0.003 0-0.006 0-0.009 0-0.022-0.003-0.031-0.003-0.012 0-0.028 0-0.041 0 0 0 0 0 0 0v0 0h-12c-0.441 0-0.8 0.359-0.8 0.8v4.8c0 0.438 0.359 0.797 0.8 0.797zM21 5.731l0.869 0.869h-0.869v-0.869zM5.8 12.6c-1.103 0-2 0.894-2 2 0 1.103 0.897 2 2 2 1.106 0 2-0.897 2-2 0-1.106-0.894-2-2-2zM5.8 15c-0.222 0-0.4-0.178-0.4-0.4s0.178-0.4 0.4-0.4c0.222 0 0.4 0.178 0.4 0.4s-0.178 0.4-0.4 0.4z"></path>
</svg>
