<!-- Generated by IcoMoon.io -->
<svg version="1.1" xmlns="http://www.w3.org/2000/svg" width="32" height="32" viewBox="0 0 32 32" aria-label="projects">
<path d="M3.333 1.333c-1.105 0-2 0.895-2 2v8c0 1.105 0.895 2 2 2h8c1.105 0 2-0.895 2-2v-8c0-1.105-0.895-2-2-2h-8zM0 3.333c0-1.841 1.492-3.333 3.333-3.333h8c1.841 0 3.333 1.492 3.333 3.333v8c0 1.841-1.492 3.333-3.333 3.333h-8c-1.841 0-3.333-1.492-3.333-3.333v-8z"></path>
<path d="M0 4.667c0-0.368 0.298-0.667 0.667-0.667h13.333c0.368 0 0.667 0.298 0.667 0.667s-0.298 0.667-0.667 0.667h-13.333c-0.368 0-0.667-0.298-0.667-0.667z"></path>
<path d="M20.667 1.333c-1.104 0-2 0.895-2 2v8c0 1.105 0.896 2 2 2h8c1.105 0 2-0.895 2-2v-8c0-1.105-0.895-2-2-2h-8zM17.334 3.333c0-1.841 1.492-3.333 3.333-3.333h8c1.841 0 3.333 1.492 3.333 3.333v8c0 1.841-1.492 3.333-3.333 3.333h-8c-1.841 0-3.333-1.492-3.333-3.333v-8z"></path>
<path d="M17.334 4.667c0-0.368 0.298-0.667 0.667-0.667h13.333c0.368 0 0.667 0.298 0.667 0.667s-0.299 0.667-0.667 0.667h-13.333c-0.368 0-0.667-0.298-0.667-0.667z"></path>
<path d="M3.333 18.667c-1.105 0-2 0.895-2 2v8c0 1.104 0.895 2 2 2h8c1.105 0 2-0.896 2-2v-8c0-1.105-0.895-2-2-2h-8zM0 20.667c0-1.841 1.492-3.333 3.333-3.333h8c1.841 0 3.333 1.492 3.333 3.333v8c0 1.841-1.492 3.333-3.333 3.333h-8c-1.841 0-3.333-1.492-3.333-3.333v-8z"></path>
<path d="M0 22c0-0.368 0.298-0.667 0.667-0.667h13.333c0.368 0 0.667 0.298 0.667 0.667s-0.298 0.667-0.667 0.667h-13.333c-0.368 0-0.667-0.299-0.667-0.667z"></path>
<path d="M20.667 18.667c-1.104 0-2 0.895-2 2v8c0 1.104 0.896 2 2 2h8c1.105 0 2-0.896 2-2v-8c0-1.105-0.895-2-2-2h-8zM17.334 20.667c0-1.841 1.492-3.333 3.333-3.333h8c1.841 0 3.333 1.492 3.333 3.333v8c0 1.841-1.492 3.333-3.333 3.333h-8c-1.841 0-3.333-1.492-3.333-3.333v-8z"></path>
<path d="M17.334 22c0-0.368 0.298-0.667 0.667-0.667h13.333c0.368 0 0.667 0.298 0.667 0.667s-0.299 0.667-0.667 0.667h-13.333c-0.368 0-0.667-0.299-0.667-0.667z"></path>
</svg>
