<!-- Generated by IcoMoon.io -->
<svg version="1.1" xmlns="http://www.w3.org/2000/svg" width="32" height="32" viewBox="0 0 32 32" aria-label="python">
<path d="M12.983 6.119c-0.428 0-0.775 0.347-0.775 0.775v3.874h4.649v1.55h-10.072c-0.428 0-0.775 0.347-0.775 0.775v7.748c0 0.428 0.347 0.775 0.775 0.775h3.874v-3.874c0-1.284 1.041-2.324 2.324-2.324h6.198c0.428 0 0.775-0.347 0.775-0.775v-7.748c0-0.428-0.347-0.775-0.775-0.775h-6.198zM10.658 23.164h-3.874c-1.284 0-2.324-1.041-2.324-2.324v-7.748c0-1.284 1.041-2.324 2.324-2.324h3.874v-3.874c0-1.284 1.041-2.324 2.324-2.324h6.198c1.284 0 2.324 1.041 2.324 2.324v2.324h3.874c1.284 0 2.324 1.041 2.324 2.324v7.748c0 1.284-1.041 2.324-2.324 2.324h-3.874v3.874c0 1.284-1.041 2.324-2.324 2.324h-6.198c-1.284 0-2.324-1.041-2.324-2.324v-2.324zM21.505 10.768v3.874c0 1.284-1.041 2.324-2.324 2.324h-6.198c-0.428 0-0.775 0.347-0.775 0.775v7.748c0 0.428 0.347 0.775 0.775 0.775h6.198c0.428 0 0.775-0.347 0.775-0.775v-3.874h-4.649v-1.55h10.072c0.428 0 0.775-0.347 0.775-0.775v-7.748c0-0.428-0.347-0.775-0.775-0.775h-3.874zM15.307 9.218h-1.55v-1.55h1.55v1.55zM18.406 24.714h-1.55v-1.55h1.55v1.55z"></path>
</svg>
