<!-- Generated by IcoMoon.io -->
<svg version="1.1" xmlns="http://www.w3.org/2000/svg" width="38" height="32" viewBox="0 0 38 32" aria-label="quorum">
<path d="M24.32 21.973l-5.547-2.133v-2.347c1.707-1.493 2.987-4.053 2.987-6.827 0-4.693-3.413-8.747-7.467-8.747s-7.467 3.84-7.467 8.747c0 2.987 1.28 5.547 3.2 7.253v2.133l-5.547 1.92c-1.92 0.64-3.2 2.56-3.2 4.48v2.347c0 0.64 0.427 1.067 1.067 1.067h23.893c0.64 0 1.067-0.427 1.067-1.067v-2.347c0.213-2.133-1.067-3.84-2.987-4.48zM14.293 4.053c2.347 0 4.48 2.133 5.12 4.907-1.493 0-2.347-0.427-3.2-2.133-0.213-0.213-0.64-0.427-1.067-0.427s-0.64 0.213-0.853 0.64c-0.64 0.853-2.347 1.707-3.84 1.707-0.427 0-0.853 0-1.28-0.213 0.64-2.56 2.773-4.48 5.12-4.48zM8.96 10.88c0.427 0 0.853 0.213 1.493 0.213 1.707 0 3.413-0.64 4.693-1.707 1.067 1.28 2.347 1.92 3.84 1.92 0.213 0 0.427 0 0.427 0-0.213 2.987-2.347 5.76-5.12 5.76s-5.12-2.773-5.333-6.187zM25.387 27.733h-21.973v-1.28c0-1.067 0.64-2.133 1.707-2.56l6.4-2.347c0.427-0.213 0.64-0.64 0.64-1.067v-1.707c0.64 0.213 1.493 0.427 2.133 0.427 0.853 0 1.493-0.213 2.347-0.427v1.92c0 0.427 0.213 0.853 0.64 1.067l6.4 2.347c1.067 0.427 1.707 1.493 1.707 2.56v1.067zM33.92 21.973l-5.547-1.92v-2.56c1.707-1.493 2.987-4.053 2.987-6.827 0-4.693-3.413-8.747-7.467-8.747-0.64 0-1.067 0.427-1.067 1.067s0.427 1.067 1.067 1.067c2.347 0 4.48 2.133 5.12 4.907-1.493 0.213-2.347-0.427-3.2-1.92-0.213-0.427-0.853-0.64-1.493-0.427-0.427 0.213-0.64 0.853-0.427 1.493 1.28 2.133 2.56 2.987 4.693 2.987 0.213 0 0.427 0 0.427 0-0.213 3.2-2.347 5.973-5.12 5.973-0.64 0-1.067 0.427-1.067 1.067s0.427 1.067 1.067 1.067c0.853 0 1.493-0.213 2.347-0.427v1.92c0 0.427 0.213 0.853 0.64 1.067l6.4 2.347c1.067 0.427 1.707 1.493 1.707 2.56v1.067h-4.48c-0.64 0-1.067 0.427-1.067 1.067s0.427 1.067 1.067 1.067h5.547c0.64 0 1.067-0.427 1.067-1.067v-2.347c0-2.133-1.28-3.84-3.2-4.48z"></path>
</svg>
