<!-- Generated by IcoMoon.io -->
<svg version="1.1" xmlns="http://www.w3.org/2000/svg" width="32" height="32" viewBox="0 0 32 32" aria-label="regenerate">
<path d="M31.429 17.988l-4.23-4.728c-0.249-0.249-0.747-0.249-0.995 0.124l-3.36 5.35c-0.124 0.249-0.124 0.622 0.249 0.871 0.249 0.124 0.622 0.124 0.871-0.249l2.488-3.982c0.747 5.848-2.862 11.323-8.585 12.816-0.373 0.124-0.498 0.373-0.498 0.747 0.124 0.373 0.373 0.498 0.747 0.498 6.221-1.617 10.203-7.59 9.581-13.811l2.862 3.235c0.249 0.249 0.622 0.249 0.871 0 0.124-0.249 0.124-0.622 0-0.871zM23.714 9.403c0.249 0.249 0.622 0.249 0.871 0.124 0.249-0.249 0.249-0.622 0.124-0.871-4.23-4.977-11.323-5.972-16.673-2.613l1.617-3.982c0.124-0.373 0-0.622-0.373-0.871s-0.622 0-0.871 0.373l-2.364 5.848c-0.124 0.498 0.124 0.871 0.498 0.871l6.346 0.622c0.373 0 0.622-0.249 0.622-0.498 0-0.373-0.249-0.622-0.498-0.622l-4.728-0.498c4.977-3.235 11.572-2.364 15.429 2.115zM8.659 22.841c-0.124-0.373-0.498-0.498-0.871-0.249-0.373 0.124-0.498 0.498-0.249 0.871l1.991 4.23c-5.226-2.613-7.839-8.71-5.848-14.309 0.124-0.373 0-0.622-0.373-0.747-0.373-0.249-0.747-0.124-0.871 0.249-2.115 6.097 0.622 12.691 6.097 15.677l-4.23 0.622c-0.373 0-0.622 0.373-0.498 0.747 0 0.373 0.373 0.622 0.747 0.498l6.346-0.871c0.373 0 0.622-0.498 0.498-0.871l-2.737-5.848z"></path>
</svg>
