<!-- Generated by IcoMoon.io -->
<svg version="1.1" xmlns="http://www.w3.org/2000/svg" width="32" height="32" viewBox="0 0 32 32" aria-label="sign">
<path d="M13.278 18.758c-0.164-0.163-0.253-0.38-0.253-0.612s0.090-0.447 0.253-0.611c0.163-0.163 0.38-0.253 0.611-0.253s0.447 0.091 0.611 0.253c0.337 0.337 0.337 0.885 0 1.222-0.163 0.163-0.38 0.253-0.611 0.253s-0.448-0.090-0.611-0.253zM16.305 26.601l-11.311 2.17 7.572-7.547c0.413 0.177 0.86 0.273 1.323 0.273 0.895 0 1.737-0.349 2.368-0.982 1.306-1.306 1.306-3.431 0-4.738-0.633-0.633-1.474-0.981-2.368-0.981s-1.737 0.348-2.369 0.981c-0.633 0.633-0.981 1.474-0.981 2.369 0 0.461 0.094 0.907 0.27 1.319l-7.585 7.561 2.175-11.333 8.813-5.021 7.115 7.114-5.021 8.813zM31.723 13.196c-0.432-0.533-1.215-0.615-1.749-0.183l-5.472 4.435-0.747-0.748c-0.001 0-0.001-0.001-0.001-0.001l-9.203-9.203 4.434-5.472c0.433-0.533 0.35-1.316-0.183-1.748s-1.316-0.35-1.748 0.183l-5.14 6.342c-0.4 0.494-0.363 1.211 0.087 1.661l0.388 0.388-8.719 4.967c-0.316 0.18-0.537 0.489-0.605 0.846l-3.043 15.86c-0.078 0.405 0.050 0.821 0.342 1.113 0.236 0.235 0.553 0.363 0.879 0.363 0.078 0 0.156-0.007 0.235-0.022l15.859-3.044c0.357-0.068 0.667-0.29 0.846-0.605l4.967-8.718 0.388 0.388c0.241 0.241 0.559 0.363 0.879 0.363 0.277 0 0.553-0.091 0.782-0.277l6.341-5.141c0.533-0.432 0.615-1.215 0.183-1.748z"></path>
</svg>
