<!-- Generated by IcoMoon.io -->
<svg version="1.1" xmlns="http://www.w3.org/2000/svg" width="32" height="32" viewBox="0 0 32 32" aria-label="software">
<path d="M5.333 25.067c-0.853 0-1.6 0.747-1.6 1.6s0.747 1.6 1.6 1.6 1.6-0.747 1.6-1.6-0.747-1.6-1.6-1.6zM5.333 27.2c-0.32 0-0.533-0.213-0.533-0.533s0.213-0.533 0.533-0.533 0.533 0.213 0.533 0.533-0.213 0.533-0.533 0.533zM10.667 25.067c-0.853 0-1.6 0.747-1.6 1.6s0.747 1.6 1.6 1.6 1.6-0.747 1.6-1.6-0.747-1.6-1.6-1.6zM10.667 27.2c-0.32 0-0.533-0.213-0.533-0.533s0.213-0.533 0.533-0.533 0.533 0.213 0.533 0.533-0.213 0.533-0.533 0.533zM25.92 24.747h-5.013c-0.427 0-0.853 0.32-0.853 0.853s0.32 0.853 0.853 0.853h5.013c0.427 0 0.853-0.32 0.853-0.853s-0.427-0.853-0.853-0.853zM31.147 22.827c0-0.107 0-0.107 0-0.213 0 0 0 0 0-0.107s-0.107-0.107-0.107-0.213c0 0 0 0 0 0s0 0 0 0l-6.187-5.76c-0.107-0.107-0.32-0.213-0.533-0.213h-1.92c-0.427 0-0.853 0.32-0.853 0.853s0.32 0.853 0.853 0.853h1.6l4.48 4.16h-24.533l4.48-4.16h0.96c0.427 0 0.853-0.32 0.853-0.853s-0.64-0.96-1.067-0.96h-1.28c-0.213 0-0.427 0.107-0.533 0.213l-6.187 5.76c0 0 0 0 0 0s0 0 0 0c-0.107 0.213-0.213 0.213-0.213 0.32 0 0 0 0 0 0.107s0 0.107 0 0.213c0 0 0 0 0 0v5.013c0 1.813 1.493 3.307 3.307 3.307h23.68c1.813 0 3.307-1.493 3.307-3.307l-0.107-5.013c0 0 0 0 0 0zM27.84 29.547h-23.68c-0.96 0-1.707-0.747-1.707-1.707v-4.16h26.987v4.16c0.107 0.96-0.64 1.707-1.6 1.707zM15.893 18.24c0.107 0.107 0.32 0.213 0.533 0.213s0.427-0.107 0.533-0.213l7.68-7.68c0.213-0.213 0.32-0.533 0.213-0.853s-0.427-0.533-0.747-0.533h-3.52c1.173-3.093 3.2-5.44 5.12-5.867 1.28-0.32 2.56 0.107 3.733 1.387 0 0 0 0 0 0 0.32 0.32 0.853 0.32 1.173 0s0.32-0.853 0-1.173c-2.56-2.56-5.44-3.627-8.32-3.2-3.733 0.533-7.467 3.84-10.24 8.853h-3.413c-0.32 0-0.64 0.213-0.747 0.533 0 0.32 0.107 0.64 0.32 0.853l7.68 7.68zM12.587 10.773c0.32 0 0.533-0.213 0.747-0.427 2.56-4.907 5.973-8 9.28-8.533 0.747-0.107 1.493-0.107 2.24 0-2.56 0.96-4.907 3.947-6.080 7.893-0.107 0.213 0 0.533 0.107 0.747s0.427 0.32 0.64 0.32h2.667l-5.76 5.76-5.76-5.76h1.92z"></path>
</svg>
