<!-- Generated by IcoMoon.io -->
<svg version="1.1" xmlns="http://www.w3.org/2000/svg" width="32" height="32" viewBox="0 0 32 32" aria-label="switcher">
<path d="M20 22c0.368 0 0.667 0.298 0.667 0.667v0 8c0 0.368-0.298 0.667-0.667 0.667v0h-8c-0.368 0-0.667-0.298-0.667-0.667v0-8c0-0.368 0.298-0.667 0.667-0.667v0zM9.333 22c0.368 0 0.667 0.298 0.667 0.667v0 8c0 0.368-0.298 0.667-0.667 0.667v0h-8c-0.368 0-0.667-0.298-0.667-0.667v0-8c0-0.368 0.298-0.667 0.667-0.667v0zM30.667 22c0.368 0 0.667 0.298 0.667 0.667v0 8c0 0.368-0.298 0.667-0.667 0.667v0h-8c-0.368 0-0.667-0.298-0.667-0.667v0-8c0-0.368 0.298-0.667 0.667-0.667v0zM19.333 23.333h-6.667v6.667h6.667v-6.667zM8.667 23.333h-6.667v6.667h6.667v-6.667zM30 23.333h-6.667v6.667h6.667v-6.667zM20 11.333c0.368 0 0.667 0.298 0.667 0.667v0 8c0 0.368-0.298 0.667-0.667 0.667v0h-8c-0.368 0-0.667-0.298-0.667-0.667v0-8c0-0.368 0.298-0.667 0.667-0.667v0zM9.333 11.333c0.368 0 0.667 0.298 0.667 0.667v0 8c0 0.368-0.298 0.667-0.667 0.667v0h-8c-0.368 0-0.667-0.298-0.667-0.667v0-8c0-0.368 0.298-0.667 0.667-0.667v0zM30.667 11.333c0.368 0 0.667 0.298 0.667 0.667v0 8c0 0.368-0.298 0.667-0.667 0.667v0h-8c-0.368 0-0.667-0.298-0.667-0.667v0-8c0-0.368 0.298-0.667 0.667-0.667v0zM19.333 12.667h-6.667v6.667h6.667v-6.667zM8.667 12.667h-6.667v6.667h6.667v-6.667zM30 12.667h-6.667v6.667h6.667v-6.667zM20 0.667c0.368 0 0.667 0.298 0.667 0.667v0 8c0 0.368-0.298 0.667-0.667 0.667v0h-8c-0.368 0-0.667-0.298-0.667-0.667v0-8c0-0.368 0.298-0.667 0.667-0.667v0zM9.333 0.667c0.368 0 0.667 0.298 0.667 0.667v0 8c0 0.368-0.298 0.667-0.667 0.667v0h-8c-0.368 0-0.667-0.298-0.667-0.667v0-8c0-0.368 0.298-0.667 0.667-0.667v0zM30.667 0.667c0.368 0 0.667 0.298 0.667 0.667v0 8c0 0.368-0.298 0.667-0.667 0.667v0h-8c-0.368 0-0.667-0.298-0.667-0.667v0-8c0-0.368 0.298-0.667 0.667-0.667v0zM19.333 2h-6.667v6.667h6.667v-6.667zM8.667 2h-6.667v6.667h6.667v-6.667zM30 2h-6.667v6.667h6.667v-6.667z"></path>
</svg>
