<!-- Generated by IcoMoon.io -->
<svg version="1.1" xmlns="http://www.w3.org/2000/svg" width="32" height="32" viewBox="0 0 32 32" aria-label="sysadmin">
<path d="M21.333 8.667c0-4.8-3.333-8.667-7.333-8.667-4.133 0-7.333 3.867-7.333 8.667 0 3.067 1.333 5.733 3.333 7.333v2.933l-6.267 2.267c-1.867 0.667-3.067 2.4-3.067 4.4v3.2c0 0.267 0.267 0.533 0.667 0.533h14.667v-1.333h-14v-2.533c0-1.467 0.933-2.667 2.267-3.2l6.667-2.4c0.267-0.133 0.4-0.4 0.4-0.667v-2.533c0.8 0.4 1.733 0.533 2.667 0.533s1.867-0.267 2.667-0.667v2.667h1.333v-3.467c2-1.333 3.333-4 3.333-7.067zM14 1.333c2.933 0 5.333 2.533 5.867 6 0 0 0 0 0 0-2 0.4-3.2-0.267-4.267-2.267-0.267-0.4-0.933-0.4-1.2 0-0.667 1.2-2.667 2.267-4.4 2.267-0.667 0-1.333-0.133-1.867-0.4 0.667-3.2 2.933-5.6 5.867-5.6zM8 8.667c0-0.133 0-0.267 0-0.267 0.667 0.267 1.333 0.267 2 0.267 1.733 0 3.867-0.8 4.933-2 1.333 1.733 2.933 2.4 5.067 2.133 0 4.133-2.667 7.333-6 7.333-3.333-0.133-6-3.333-6-7.467zM24.8 22.667c-1.467 0-2.667 1.2-2.667 2.667s1.2 2.667 2.667 2.667 2.667-1.2 2.667-2.667c0-1.467-1.2-2.667-2.667-2.667zM24.8 26.667c-0.8 0-1.333-0.533-1.333-1.333s0.533-1.333 1.333-1.333c0.8 0 1.333 0.533 1.333 1.333s-0.533 1.333-1.333 1.333zM31.067 26.667l-0.933-0.533c0-0.267 0-0.533 0-0.8s0-0.533 0-0.8l0.933-0.533c0.267-0.133 0.4-0.533 0.267-0.933l-1.333-2.267c-0.133-0.267-0.533-0.4-0.933-0.267l-1.067 0.667c-0.4-0.267-0.933-0.533-1.333-0.8v-1.067c0-0.4-0.267-0.667-0.667-0.667h-2.667c-0.4 0-0.667 0.267-0.667 0.667v1.067c-0.4 0.133-0.8 0.4-1.2 0.667l-0.8-0.533c-0.267-0.133-0.8-0.133-0.933 0.267l-1.333 2.267c-0.133 0.267-0.133 0.667 0.267 0.933l0.933 0.533c0 0.267 0 0.533 0 0.8s0 0.533 0 0.8l-0.933 0.533c-0.267 0.133-0.4 0.533-0.267 0.933l1.333 2.267c0.133 0.267 0.667 0.4 0.933 0.267l0.8-0.533c0.4 0.267 0.8 0.533 1.2 0.667v1.067c0 0.4 0.267 0.667 0.667 0.667h2.667c0.4 0 0.667-0.267 0.667-0.667v-1.067c0.533-0.133 0.933-0.4 1.333-0.8l0.933 0.533c0.267 0.133 0.667 0.133 0.933-0.267l1.333-2.267c0.267-0.267 0.133-0.667-0.133-0.8zM28.8 25.333c0 0.267 0 0.533-0.133 0.933 0 0.267 0 0.533 0.267 0.667l0.8 0.4-0.667 1.2-0.8-0.4c-0.267-0.133-0.533-0.133-0.8 0.133-0.4 0.4-1.067 0.667-1.733 0.933-0.267 0.133-0.4 0.4-0.4 0.667v0.8h-1.333v-0.8c0-0.267-0.133-0.533-0.4-0.667-0.533-0.133-1.067-0.533-1.467-0.933-0.267-0.267-0.533-0.267-0.8-0.133l-0.667 0.4-0.667-1.067 0.8-0.4c0.267-0.133 0.4-0.4 0.267-0.667s-0.133-0.667-0.133-0.933c0-0.267 0-0.667 0.133-0.933s0-0.533-0.267-0.8l-0.8-0.4 0.667-1.2 0.667 0.4c0.267 0.133 0.533 0.133 0.8-0.133 0.533-0.4 0.933-0.8 1.467-0.933 0.267-0.133 0.4-0.4 0.4-0.667v-0.8h1.333v0.8c0 0.267 0.133 0.533 0.4 0.667 0.667 0.267 1.333 0.533 1.733 0.933 0.267 0.133 0.533 0.267 0.8 0.133l0.933-0.4 0.667 1.2-0.8 0.4c-0.267 0.133-0.4 0.4-0.267 0.667 0 0.267 0 0.667 0 0.933z"></path>
</svg>
