<!-- Generated by IcoMoon.io -->
<svg version="1.1" xmlns="http://www.w3.org/2000/svg" width="28" height="32" viewBox="0 0 28 32" aria-label="transition-to">
<path d="M0.64 2.036c0-0.771 0.625-1.396 1.396-1.396s1.396 0.625 1.396 1.396v15.038c0 2.786 2.262 5.048 5.048 5.048l14.577 0.001-2.849-4.275c-0.428-0.642-0.254-1.509 0.387-1.936s1.509-0.254 1.936 0.387l4.317 6.477c0.021 0.033 0.040 0.066 0.058 0.101l-0.079-0.133c0.037 0.056 0.070 0.113 0.098 0.172 0.048 0.1 0.085 0.207 0.108 0.319 0.005 0.024 0.009 0.049 0.013 0.073 0.004 0.026 0.007 0.052 0.010 0.079 0.003 0.030 0.005 0.059 0.005 0.088 0.001 0.014 0.001 0.028 0.001 0.043l-0.001 0.044c-0.001 0.029-0.003 0.057-0.005 0.086l0.006-0.13c0 0.072-0.006 0.143-0.016 0.212-0.004 0.023-0.008 0.046-0.013 0.069-0.023 0.112-0.059 0.22-0.108 0.321-0.006 0.012-0.012 0.025-0.019 0.038-0.018 0.035-0.037 0.069-0.058 0.102-0.007 0.010-0.014 0.021-0.021 0.032l-4.297 6.445c-0.428 0.642-1.295 0.815-1.936 0.387s-0.815-1.295-0.387-1.936l2.849-4.274h-14.577c-4.329 0-7.841-3.512-7.841-7.841v-15.038z"></path>
</svg>
